<?xml version="1.0" encoding="utf-8"?>
<!-- Generator: Adobe Illustrator 25.3.1, SVG Export Plug-In . SVG Version: 6.00 Build 0)  -->
<svg version="1.1" id="Layer_1" xmlns="http://www.w3.org/2000/svg" xmlns:xlink="http://www.w3.org/1999/xlink" x="0px" y="0px"
	 viewBox="0 0 626.72 260.71" style="enable-background:new 0 0 626.72 260.71;" xml:space="preserve">
<path d="M260.14,214.36c-27.85,0-50.51-22.66-50.51-50.51s22.66-50.51,50.51-50.51s50.51,22.66,50.51,50.51
	S287.99,214.36,260.14,214.36z M260.14,124.83c-21.51,0-39.01,17.5-39.01,39.01c0,21.51,17.5,39.01,39.01,39.01
	c21.51,0,39.01-17.5,39.01-39.01C299.15,142.33,281.65,124.83,260.14,124.83z"/>
<g>
	<g>
		<g>
			<path d="M119.65,161.96c-3.15,0-5.81-2.25-6.34-5.36L95.38,51.18c-0.29-1.7,0.1-3.4,1.1-4.8c1-1.4,2.48-2.33,4.17-2.62
				c3.5-0.59,6.83,1.77,7.43,5.27L126,154.44c0.29,1.7-0.1,3.4-1.1,4.8c-1,1.4-2.48,2.33-4.17,2.62
				C120.38,161.92,120.02,161.96,119.65,161.96z"/>
		</g>
	</g>
</g>
<g>
	<path d="M119.65,161.96c-3.15,0-5.81-2.25-6.34-5.36L95.38,51.18c-0.29-1.7,0.1-3.4,1.1-4.8c1-1.4,2.48-2.33,4.17-2.62
		c3.5-0.59,6.83,1.77,7.43,5.27L126,154.44c0.29,1.7-0.1,3.4-1.1,4.8c-1,1.4-2.48,2.33-4.17,2.62
		C120.38,161.92,120.02,161.96,119.65,161.96z"/>
</g>
<path d="M149.7,113.33c-10.25,0-19.78,3.07-27.75,8.34l2.17,12.76c6.85-5.97,15.8-9.6,25.58-9.6c21.51,0,39.01,17.5,39.01,39.01
	c0,21.51-17.5,39.01-39.01,39.01c-21.51,0-39.01-17.5-39.01-39.01c0-2.87,0.32-5.66,0.91-8.35l-3.46-20.31
	c-5.64,8.15-8.95,18.03-8.95,28.67c0,27.85,22.66,50.51,50.51,50.51s50.51-22.66,50.51-50.51S177.56,113.33,149.7,113.33z"/>
<g>
	<g>
		<circle cx="146.94" cy="186.45" r="6.88"/>
	</g>
	<g>
		<circle cx="168.43" cy="178.44" r="6.88"/>
	</g>
	<g>
		<circle cx="151.53" cy="163.69" r="6.88"/>
	</g>
	<g>
		<circle cx="130.18" cy="170.72" r="6.88"/>
	</g>
	<g>
		<circle cx="172.83" cy="156.64" r="6.88"/>
	</g>
	<g>
		<circle cx="156.13" cy="140.93" r="6.88"/>
	</g>
	<g>
		<circle cx="134.57" cy="148.92" r="6.88"/>
	</g>
</g>
<g>
	<g>
		<g>
			<g>
				<path d="M340.62,161.96c-3.15,0-5.81-2.25-6.34-5.36L316.35,51.18c-0.29-1.7,0.1-3.4,1.1-4.8c1-1.4,2.48-2.33,4.17-2.62
					c3.5-0.59,6.83,1.77,7.43,5.27l17.93,105.42c0.29,1.7-0.1,3.4-1.1,4.8c-1,1.4-2.48,2.33-4.17,2.62
					C341.36,161.92,340.99,161.96,340.62,161.96z"/>
			</g>
		</g>
	</g>
	<path d="M370.67,113.33c-10.25,0-19.78,3.07-27.75,8.34l2.17,12.76c6.85-5.97,15.8-9.6,25.58-9.6c21.51,0,39.01,17.5,39.01,39.01
		c0,21.51-17.5,39.01-39.01,39.01c-21.51,0-39.01-17.5-39.01-39.01c0-2.87,0.32-5.66,0.91-8.35l-3.46-20.31
		c-5.64,8.15-8.95,18.03-8.95,28.67c0,27.85,22.66,50.51,50.51,50.51s50.51-22.66,50.51-50.51S398.53,113.33,370.67,113.33z"/>
	<g>
		<g>
			<circle cx="367.91" cy="186.45" r="6.88"/>
		</g>
		<g>
			<circle cx="389.4" cy="178.44" r="6.88"/>
		</g>
		<g>
			<circle cx="372.51" cy="163.69" r="6.88"/>
		</g>
		<g>
			<circle cx="351.15" cy="170.72" r="6.88"/>
		</g>
		<g>
			<circle cx="393.8" cy="156.64" r="6.88"/>
		</g>
		<g>
			<circle cx="377.1" cy="140.93" r="6.88"/>
		</g>
		<g>
			<circle cx="355.54" cy="148.92" r="6.88"/>
		</g>
	</g>
</g>
<g>
	<g>
		<g>
			<g>
				<path d="M511.16,165.63c3.15,0,5.81,2.25,6.34,5.36l6.42,37.89c0.29,1.7-0.1,3.4-1.1,4.8c-1,1.4-2.48,2.33-4.17,2.62
					c-3.5,0.59-6.83-1.77-7.43-5.27l-6.42-37.89c-0.29-1.7,0.1-3.4,1.1-4.8c1-1.4,2.48-2.33,4.17-2.62
					C510.43,165.66,510.79,165.63,511.16,165.63z"/>
			</g>
		</g>
	</g>
	<path d="M481.11,214.25c10.25,0,19.78-3.07,27.75-8.34l-2.17-12.76c-6.85,5.97-15.8,9.6-25.58,9.6c-21.51,0-39.01-17.5-39.01-39.01
		c0-21.51,17.5-39.01,39.01-39.01c21.51,0,39.01,17.5,39.01,39.01c0,2.87-0.32,5.66-0.91,8.35l3.46,20.31
		c5.64-8.15,8.95-18.03,8.95-28.67c0-27.85-22.66-50.51-50.51-50.51s-50.51,22.66-50.51,50.51S453.25,214.25,481.11,214.25z"/>
</g>
</svg>
