<svg width="250" height="180" viewBox="0 0 250 180" fill="none" xmlns="http://www.w3.org/2000/svg">
<rect x="0.754167" y="0.754167" width="248.492" height="178.492" rx="5.27917" fill="white"/>
<g clip-path="url(#clip0_76_169)">
<path d="M111.332 70.2337H119.743V103.879H128.154V61.8224H119.743C115.117 61.8224 111.332 65.6075 111.332 70.2337Z" fill="#1B314F"/>
<path d="M136.565 103.878H144.977V87.0561C144.977 82.4299 141.192 78.6448 136.565 78.6448V103.878Z" fill="#1B314F"/>
<path d="M153.388 78.6448V103.878H161.799V87.0561H170.21V95.4673C170.21 100.093 173.995 103.878 178.621 103.878V87.0561C178.621 82.4299 174.836 78.6448 170.21 78.6448H153.388Z" fill="#1B314F"/>
<path d="M229.089 78.6449H220.678V70.2337C220.678 65.6075 216.893 61.8224 212.266 61.8224V95.4673H195.444V87.0561H203.855V78.6449H195.444C190.818 78.6449 187.033 82.4299 187.033 87.0561V95.4673C187.033 100.093 190.818 103.879 195.444 103.879H220.678V87.0561H229.089V95.4673C229.089 100.093 232.874 103.879 237.5 103.879V87.0561C237.5 82.4299 233.715 78.6449 229.089 78.6449Z" fill="#1B314F"/>
<path d="M136.565 70.2337H144.977C144.977 65.6075 141.192 61.8224 136.565 61.8224V70.2337Z" fill="#1B314F"/>
<path fill-rule="evenodd" clip-rule="evenodd" d="M124.445 112.29V117.794H123.675L120.647 113.98V117.794H119.743V112.29H120.514L123.541 116.119V112.29H124.445ZM141.555 117.794H138.292V112.29H141.477V113.194H139.259V114.562H141.241V115.467H139.259V116.89H141.555V117.794ZM155.402 113.194H157.187V117.794H158.154V113.194H159.939V112.29H155.402V113.194ZM180.525 112.29H181.452L179.88 117.794H178.975L177.646 113.815L176.341 117.794H175.429L173.785 112.29H174.87L175.979 116.214L177.206 112.29H178.165L179.423 116.222L180.525 112.29ZM196.101 113.108C195.566 113.653 195.299 114.327 195.299 115.129C195.299 115.973 195.569 116.657 196.109 117.181C196.649 117.705 197.333 117.967 198.161 117.967C198.984 117.967 199.668 117.7 200.213 117.165C200.759 116.631 201.031 115.952 201.031 115.129C201.031 114.29 200.759 113.606 200.213 113.076C199.674 112.552 198.989 112.29 198.161 112.29C197.333 112.29 196.646 112.562 196.101 113.108ZM196.848 116.513C196.497 116.146 196.321 115.684 196.321 115.129C196.321 114.562 196.494 114.098 196.84 113.737C197.191 113.375 197.632 113.194 198.161 113.194C198.68 113.194 199.118 113.375 199.474 113.737C199.831 114.104 200.009 114.567 200.009 115.129C200.009 115.684 199.841 116.146 199.506 116.513C199.176 116.88 198.727 117.063 198.161 117.063C197.637 117.063 197.199 116.88 196.848 116.513ZM215.845 115.75V117.81H214.878V112.306C215.15 112.306 215.447 112.303 215.766 112.298C216.086 112.292 216.348 112.29 216.553 112.29C217.884 112.29 218.55 112.856 218.55 113.988C218.55 114.408 218.443 114.754 218.228 115.026C218.013 115.288 217.766 115.467 217.488 115.561L219.211 117.81H218.039L216.521 115.75H215.845ZM216.506 113.194C216.479 113.194 216.437 113.197 216.38 113.202C216.322 113.202 216.241 113.204 216.136 113.21H215.845V114.845H216.474C216.783 114.845 217.035 114.769 217.229 114.617C217.428 114.465 217.528 114.258 217.528 113.996C217.528 113.461 217.187 113.194 216.506 113.194ZM233.057 117.794H234.024V114.955L236.274 117.794H237.5L235.094 114.853L237.359 112.29H236.194L234.024 114.901V112.29H233.057V117.794Z" fill="#2F7AEA"/>
<path d="M34.4635 94.0263L36.6715 77.3977L17.4899 64.0811L35.0155 70.015L39.1553 63.6671L54.2661 54.2834L87.5921 72.637L89.3171 100.65L74.4824 121.281L62.7528 123.075L68.8246 111.966V101.271L64.4087 92.9223L59.9239 89.9555L53.0239 97.0623V104.583L47.6422 109.62L40.8113 110.448L37.7755 112.173L32.8075 110.586L30.7376 103.134L34.4635 97.8902V94.0263Z" fill="white"/>
<path d="M65.0987 63.9431C61.4419 63.1841 57.4401 63.3911 57.4401 63.3911C57.4401 63.3911 56.129 69.463 47.9871 71.05C48.0563 71.05 58.751 74.7067 65.0987 63.9431Z" fill="#94A6C3"/>
<path d="M68.4106 119.004C72.8265 115.554 76.1384 110.793 77.6564 105.411C77.7254 105.204 78.3464 104.859 78.7604 104.583C79.4504 104.169 80.1403 103.824 80.2784 103.272C80.5543 101.685 80.6923 100.029 80.6923 98.3732C80.6923 97.7522 80.0713 97.1313 79.4503 96.5103C78.9673 96.0963 78.4843 95.6132 78.4843 95.2684C77.7944 88.9894 74.8965 83.1247 70.2737 78.8467L69.7907 79.3298C74.2756 83.5387 77.1734 89.2655 77.7944 95.3374C77.8634 95.8893 78.4153 96.4413 78.9673 96.9933C79.4503 97.4074 80.0023 98.0283 80.0023 98.3042C80.0023 99.8912 79.8644 101.478 79.5883 103.065C79.5193 103.341 78.8984 103.617 78.4153 103.893C77.7254 104.238 77.1045 104.583 76.9665 105.135C75.3106 111 71.5156 116.106 66.4788 119.418C67.3756 117.486 70.2045 111.207 71.7225 108.033L71.4467 97.8212L62.6839 89.3345L57.716 90.0244L52.2651 98.8562C52.2651 98.8562 54.8181 102.099 51.2301 105.894C47.7113 109.62 44.9513 110.448 44.9513 110.448L42.3983 109.068C43.1572 108.102 44.6752 106.653 45.8482 105.687C47.8492 104.031 49.8502 103.893 49.8502 102.099C49.9192 98.3732 45.9171 99.4082 45.9171 99.4082L44.4683 100.788L43.8474 105.894L40.8113 109.689L40.4665 109.62L35.4986 108.516C35.4986 108.516 38.5344 106.929 39.0174 105.135C39.5004 103.41 38.0514 97.6832 37.9824 97.3384C38.0514 97.4074 39.4315 98.5803 40.0524 100.512C41.1564 97.4763 42.6052 94.5785 43.0193 94.3024C43.4333 94.0265 49.0221 91.0594 49.0221 91.0594L47.1593 95.9583L48.5391 95.1994L51.851 87.0576C51.851 87.0576 55.094 85.4706 57.5089 85.4706C61.8558 85.4016 68.2727 80.0887 65.3748 70.567C66.2027 70.912 80.5543 78.0878 83.0384 92.1634C84.9012 102.996 78.7604 113.139 68.4106 119.004Z" fill="#94A6C3"/>
<path d="M51.9892 65.4611C53.5762 63.5981 52.955 60.8382 52.955 60.8382L48.3322 67.669C48.2632 67.669 49.9882 67.738 51.9892 65.4611Z" fill="#1B314F"/>
<path d="M36.4644 102.789L37.0164 100.029C37.0164 100.029 34.7395 104.031 34.5326 104.583C34.3256 105.204 34.6705 106.308 35.5676 106.239C36.4644 106.17 37.5684 104.859 37.5684 103.893C37.5684 102.651 36.4644 102.789 36.4644 102.789Z" fill="#1B314F"/>
<path d="M77.4495 58.9064C77.4495 58.9064 80.8994 59.0444 84.4872 59.4584C76.4145 53.1105 68.7557 51.2476 62.5459 51.2476C53.99 51.2476 48.1943 54.7665 47.8492 54.9735L50.5401 50.6956C50.5401 50.6956 39.7763 49.6606 35.9814 61.0453C35.0156 58.6304 34.1185 55.1115 34.1185 55.1115C34.1185 55.1115 28.5297 60.0103 31.1516 68.1521C24.7348 65.8062 15.558 62.5633 15.213 62.4943C14.73 62.4253 14.592 62.6323 14.592 62.6323C14.592 62.6323 14.454 62.8393 14.868 63.1843C15.627 63.8052 30.1166 74.5001 33.2905 76.5698C32.6006 79.0539 32.6006 80.2268 33.2905 81.3998C34.2564 82.9868 34.3254 83.8146 34.1875 84.9878C34.0495 86.1607 32.8076 96.3034 32.5316 97.5453C32.2556 98.7874 29.3577 103.203 29.4957 104.514C29.6336 105.825 31.4276 111.414 33.0146 112.035C34.1875 112.449 37.0856 113.346 39.0174 113.346C39.7073 113.346 40.3283 113.208 40.6044 112.932C41.7773 111.897 42.1224 111.69 42.9503 111.69C43.0193 111.69 43.0882 111.69 43.1574 111.69C43.5023 111.69 43.9163 111.759 44.3993 111.759C45.5033 111.759 46.9521 111.552 47.9871 110.586C49.5051 109.068 52.1271 106.998 52.955 106.032C53.99 104.721 54.542 102.927 54.2661 101.133C54.059 99.4774 54.956 98.0283 55.991 96.5795C57.3019 94.8544 59.7168 91.7496 59.7168 91.7496C64.4777 95.3374 67.4446 100.788 67.4446 106.86C67.4446 117.624 58.061 126.318 46.4693 126.318C44.6752 126.318 42.9503 126.111 41.2254 125.697C46.5383 127.56 51.0232 128.181 54.6799 128.181C62.4767 128.181 66.6167 125.352 66.6167 125.352C66.6167 125.352 65.1677 127.215 62.8218 129.354C62.8907 129.354 62.8908 129.354 62.8908 129.354C75.7936 127.56 82.0723 116.934 82.0723 116.934C82.0723 116.934 81.5893 120.384 80.9683 122.73C98.1489 109.827 95.251 93.6814 95.182 93.1294C95.32 93.3365 97.0449 95.4063 97.942 96.5103C100.702 68.0831 77.4495 58.9064 77.4495 58.9064ZM51.0232 104.307C50.7471 104.652 49.5741 105.687 48.7462 106.446C47.9182 107.205 47.0213 107.964 46.3312 108.654C46.0553 108.93 45.5033 109.068 44.6752 109.068C44.3993 109.068 44.1232 109.068 43.9163 109.068C43.7784 109.068 43.6402 109.068 43.5023 109.068C43.3643 109.068 43.2954 109.068 43.2264 109.068C43.0193 109.068 42.8123 109.068 42.6052 109.068C43.6402 107.688 46.6762 104.514 47.7112 103.824C48.9532 102.996 49.5741 102.168 48.8152 100.719C48.0561 99.2702 46.0553 99.6153 46.0553 99.6153C46.0553 99.6153 47.2282 99.1323 48.2632 99.1323C46.9521 98.7874 45.2962 99.1323 44.5373 99.8914C43.7094 100.65 43.8473 103.341 43.5023 105.066C43.1574 106.86 41.9843 107.757 40.1904 109.413C39.2243 110.31 38.5344 110.586 37.9824 110.586C36.8095 110.379 35.4294 110.034 34.4636 109.689C33.7734 108.792 32.7386 105.825 32.4626 104.583C32.6696 103.893 33.4975 102.444 33.9116 101.616C34.7395 100.029 35.2225 99.1323 35.3604 98.3044C35.6365 97.1315 36.5336 89.8865 36.8784 86.8507C37.7755 88.0236 39.0174 89.9557 38.7415 91.1976C40.7423 88.3687 39.2935 85.6087 38.6034 84.5048C37.9824 83.4008 37.1545 81.1929 37.8445 78.8468C38.5344 76.5009 41.0184 70.015 41.0184 70.015C41.0184 70.015 41.8463 71.464 43.0193 71.1881C44.1922 70.912 53.6449 56.6984 53.6449 56.6984C53.6449 56.6984 56.1979 62.2873 53.507 66.3582C50.7471 70.429 48.0561 71.1881 48.0561 71.1881C48.0561 71.1881 51.851 71.8781 55.3701 69.3251C56.8189 72.7059 58.199 76.225 58.2679 76.708C58.0608 77.1908 55.3009 83.8146 55.025 84.2287C54.8871 84.3666 53.921 84.6427 53.2311 84.7807C52.0582 85.1257 51.368 85.3326 51.0921 85.5398C50.6091 85.9536 48.4012 92.0254 47.3662 94.9925C46.1243 95.3374 44.8823 96.0275 43.9853 97.4074C44.4683 97.0623 45.9863 96.8554 47.0903 96.7174C48.0561 96.6485 51.0232 98.2355 51.7821 101.202C51.7821 101.271 51.7821 101.271 51.7821 101.34C51.92 102.444 51.5751 103.479 51.0232 104.307ZM44.5373 105.135C45.1582 104.238 45.0893 102.72 45.1582 102.237C45.2272 101.754 45.3654 100.857 45.9173 100.719C46.4693 100.581 47.7802 100.788 47.7802 101.754C47.7802 102.651 46.8142 102.858 46.1243 103.479C45.6412 103.962 44.6752 104.997 44.5373 105.135ZM72.0676 91.9565C72.7575 88.4376 72.8265 85.4016 72.6196 82.9178C75.3105 86.5056 76.9665 90.8525 77.4495 95.3374C77.5185 95.8894 78.0705 96.4413 78.6225 96.9933C79.1055 97.4074 79.6575 97.9594 79.6575 98.3044C79.6575 99.8914 79.5193 101.478 79.2434 103.065C79.1744 103.272 78.5535 103.617 78.0705 103.893C77.3803 104.238 76.7594 104.583 76.6214 105.135C75.1034 110.448 71.8605 115.14 67.5138 118.452C73.9305 111.759 77.0355 100.719 72.0676 91.9565ZM67.7207 119.073C72.2055 115.623 75.6554 110.793 77.1734 105.342C77.2424 105.135 77.8633 104.79 78.2774 104.514C78.9673 104.169 79.6575 103.755 79.7954 103.203C80.0713 101.616 80.2094 99.9604 80.2094 98.3044C80.2094 97.6835 79.5885 97.0623 78.9673 96.4413C78.6225 96.0275 78.0705 95.5445 78.0705 95.1994C77.5185 90.1626 75.5175 85.4016 72.4127 81.4687C71.0326 73.189 65.5127 70.6362 65.3748 70.567C65.5127 70.7741 69.1008 75.9489 66.6167 82.0207C64.0637 88.1615 57.509 87.1957 56.9571 87.2647C56.4051 87.2647 54.2661 90.0246 51.5751 95.1304C51.2301 94.9925 49.781 94.6474 48.1251 94.9235C49.3672 91.4735 51.2301 86.5746 51.5751 86.1607C51.7131 86.0226 52.7481 85.7467 53.438 85.5398C54.7489 85.1947 55.3701 84.9878 55.577 84.7117C55.7149 84.5048 56.4049 82.9178 57.095 81.2618C57.716 81.2618 59.3029 81.1239 59.4409 81.0547C59.5788 80.9168 60.8899 77.5359 60.8899 77.1218C60.8899 76.777 58.199 70.0842 57.164 67.5312C57.647 66.9792 58.13 66.2892 58.6128 65.5302C72.7575 67.0481 83.7972 79.0539 83.7972 93.6124C83.7972 104.79 77.2424 114.519 67.7207 119.073Z" fill="#1B314F"/>
<path d="M49.3672 81.8138C50.6781 80.2958 49.9882 77.4669 47.5733 76.9839C48.1943 75.5348 49.0911 72.637 49.0911 72.637C49.0911 72.637 42.0535 83.6767 41.4323 83.8836C40.8113 84.0907 40.1904 81.6757 40.1904 81.6757C38.8795 86.7127 42.3983 87.4026 42.8123 85.8157C44.7442 85.3326 48.0561 83.2626 49.3672 81.8138Z" fill="#1B314F"/>
<path d="M43.3643 84.5048L46.9521 78.364C46.9521 78.364 49.0221 79.399 47.9871 81.0549C46.6762 82.9868 43.3643 84.5048 43.3643 84.5048Z" fill="#FFD923"/>
<path d="M87.7301 112.932C86.6951 114.312 85.5222 115.761 84.1423 117.141C93.0431 100.029 84.5564 84.3666 84.2113 83.7456C84.8323 84.3666 85.4532 85.0567 86.0052 85.6777C92.8362 93.2675 93.664 104.652 87.7301 112.932Z" fill="#D82122"/>
<path d="M96.0099 90.9215C92.9051 82.5727 88.4893 75.4659 78.7604 69.0492C69.3767 62.8392 59.303 63.3222 58.751 63.3912C58.682 63.3912 58.613 63.3912 58.613 63.3912C58.9579 63.2532 59.303 63.1842 59.6478 63.1152C61.7868 62.4252 64.5467 61.8733 67.3067 61.5283C74.6206 60.4933 82.0034 62.9772 87.0402 68.2901C87.1092 68.359 87.1092 68.359 87.1782 68.428C92.9051 74.4998 95.872 82.0897 96.0099 90.9215Z" fill="#D82122"/>
<path d="M76.5525 56.7676C66.2717 54.8356 59.6478 55.8016 54.8871 57.5956C54.7491 57.0436 54.2661 55.9396 53.8521 55.0426C52.403 56.7676 50.8852 58.8375 49.9192 60.1485C47.2972 61.9424 46.1932 63.6674 46.1932 63.6674C47.7113 58.4925 52.1271 54.6286 57.5091 53.6627C59.0269 53.3867 60.6828 53.2487 62.4769 53.2487C67.2377 53.3177 71.9986 54.4906 76.5525 56.7676Z" fill="#D82122"/>
<path d="M38.5344 70.0152C30.4616 69.7393 33.1526 60.3555 33.2906 59.8035C33.2906 59.8725 33.8426 67.1863 38.5344 70.0152Z" fill="#D82122"/>
<path d="M46.4693 53.1105C40.2593 56.8364 41.5015 65.7372 41.5015 65.7372C35.5676 56.6984 45.9863 53.3175 46.4693 53.1105Z" fill="#D82122"/>
<path d="M36.2575 72.499C36.6715 72.8441 37.0856 73.465 36.6026 74.3619C36.3265 74.8449 35.9126 74.7759 35.2915 74.5C34.4636 74.086 29.4957 71.1881 25.0108 68.2211C30.1167 70.015 35.2915 71.947 36.1195 72.3611C36.1195 72.3611 36.1885 72.43 36.2575 72.499Z" fill="white"/>
</g>
<rect x="0.754167" y="0.754167" width="248.492" height="178.492" rx="5.27917" stroke="#EEECEA" stroke-width="1.50833"/>
<defs>
<clipPath id="clip0_76_169">
<rect width="225" height="88.3178" fill="white" transform="translate(12.5 45.8411)"/>
</clipPath>
</defs>
</svg>
