<svg width="1440" height="415" viewBox="0 0 1440 415" fill="none" xmlns="http://www.w3.org/2000/svg">
<g clip-path="url(#clip0_7_13)">
<rect width="1440" height="415" fill="#A9DEE9"/>
<path d="M1207 36L1211.41 73.3569L1240.94 50.0589L1217.64 79.5915L1255 84L1217.64 88.4085L1240.94 117.941L1211.41 94.6431L1207 132L1202.59 94.6431L1173.06 117.941L1196.36 88.4085L1159 84L1196.36 79.5915L1173.06 50.0589L1202.59 73.3569L1207 36Z" fill="#F5C34B"/>
<path fill-rule="evenodd" clip-rule="evenodd" d="M142.279 97.2792C128.246 83.246 122.066 68.6362 122.066 54.8528C122.066 41.0694 128.246 26.4595 142.279 12.4264C128.246 26.4595 113.636 32.6396 99.8528 32.6396C86.0694 32.6396 71.4595 26.4595 57.4263 12.4264C71.4595 26.4595 77.6395 41.0694 77.6395 54.8528C77.6395 68.6362 71.4595 83.246 57.4263 97.2792C71.4595 83.246 86.0694 77.066 99.8528 77.066C113.636 77.066 128.246 83.246 142.279 97.2792Z" fill="#F5C34B"/>
<path d="M720 372L721.882 400.892L729.364 372.922L725.573 401.627L738.369 375.654L729.051 403.067L746.667 380.089L732.18 405.158L753.941 386.059L734.842 407.82L759.911 393.333L736.933 410.949L764.346 401.631L738.373 414.427L767.078 410.636L739.108 418.118L768 420L739.108 421.882L767.078 429.364L738.373 425.573L764.346 438.369L736.933 429.051L759.911 446.667L734.842 432.18L753.941 453.941L732.18 434.842L746.667 459.911L729.051 436.933L738.369 464.346L725.573 438.373L729.364 467.078L721.882 439.108L720 468L718.118 439.108L710.636 467.078L714.427 438.373L701.631 464.346L710.949 436.933L693.333 459.911L707.82 434.842L686.059 453.941L705.158 432.18L680.089 446.667L703.067 429.051L675.654 438.369L701.627 425.573L672.922 429.364L700.892 421.882L672 420L700.892 418.118L672.922 410.636L701.627 414.427L675.654 401.631L703.067 410.949L680.089 393.333L705.158 407.82L686.059 386.059L707.82 405.158L693.333 380.089L710.949 403.067L701.631 375.654L714.427 401.627L710.636 372.922L718.118 400.892L720 372Z" fill="#F5C34B"/>
</g>
<defs>
<clipPath id="clip0_7_13">
<rect width="1440" height="415" fill="white"/>
</clipPath>
</defs>
</svg>
