<svg width="375" height="592" viewBox="0 0 375 592" fill="none" xmlns="http://www.w3.org/2000/svg">
<rect width="375" height="592" fill="#A9DEE9"/>
<path d="M334 119L335.47 131.452L345.314 123.686L337.548 133.53L350 135L337.548 136.47L345.314 146.314L335.47 138.548L334 151L332.53 138.548L322.686 146.314L330.452 136.47L318 135L330.452 133.53L322.686 123.686L332.53 131.452L334 119Z" fill="#F5C34B"/>
<path d="M187 540L188.882 568.892L196.364 540.922L192.573 569.627L205.369 543.654L196.051 571.067L213.667 548.089L199.18 573.158L220.941 554.059L201.842 575.82L226.911 561.333L203.933 578.949L231.346 569.631L205.373 582.427L234.078 578.636L206.108 586.118L235 588L206.108 592H203H197.5H199.18L201 591.5L198.5 592H203H197.5H194H195H196H192.573H191H194H188.882H190H185.118H187.5H183.5H186.5H181H179H177.636H174.82H172.158H167.892L139 588L167.892 586.118L139.922 578.636L168.627 582.427L142.654 569.631L170.067 578.949L147.089 561.333L172.158 575.82L153.059 554.059L174.82 573.158L160.333 548.089L177.949 571.067L168.631 543.654L181.427 569.627L177.636 540.922L185.118 568.892L187 540Z" fill="#F5C34B"/>
</svg>
