<svg width="165" height="100" viewBox="0 0 165 100" fill="none" xmlns="http://www.w3.org/2000/svg">
<rect x="0.5" y="0.5" width="164" height="99" rx="3.5" fill="white"/>
<g clip-path="url(#clip0_27_843)">
<path d="M45.6158 39.2388C44.37 41.5453 42.2985 43.3095 39.8063 44.1861C37.3142 45.0627 34.5807 44.9888 32.1406 43.9788C33.3864 41.6723 35.4579 39.9082 37.95 39.0315C40.4423 38.1549 43.1757 38.2288 45.6158 39.2388Z" fill="#1E1D34"/>
<path d="M15.762 54.9713C16.5973 57.2708 18.2267 59.2053 20.3633 60.4342C22.4998 61.6631 25.0066 62.1076 27.4422 61.6894C29.8778 61.2713 32.0859 60.0173 33.678 58.1482C35.2701 56.2792 36.144 53.9149 36.1457 51.4717V51.4057C36.1457 51.2541 36.1457 51.1024 36.1457 50.9546V50.9079C36.0548 49.5612 35.4367 48.3027 34.4221 47.3992C33.4076 46.4958 32.0767 46.0188 30.7122 46.0694C29.3475 46.12 28.0565 46.6943 27.1135 47.6703C26.1703 48.6463 25.6492 49.9473 25.6607 51.2967C25.6602 52.65 25.1254 53.9496 24.1702 54.9189C23.215 55.8884 21.9148 56.4513 20.5461 56.4879H20.251C18.6311 56.4585 17.0612 55.9281 15.762 54.9713Z" fill="#1E1D34"/>
<path d="M20.4006 55.1425C22.5517 55.1425 24.2956 53.419 24.2956 51.2929C24.2956 49.1669 22.5517 47.4434 20.4006 47.4434C18.2495 47.4434 16.5056 49.1669 16.5056 51.2929C16.5056 53.419 18.2495 55.1425 20.4006 55.1425Z" fill="#1E1D34"/>
<path d="M16.5726 66.9905C12.4117 64.6063 9.37612 60.6897 8.13067 56.0984C6.88521 51.507 7.53133 46.615 9.92756 42.4935C10.4285 41.6395 10.9982 40.8268 11.6311 40.0632L11.6587 40.0282L19.7712 30.6066C20.7753 31.4529 21.3982 32.6587 21.503 33.9588C21.6078 35.2589 21.1858 36.5469 20.3299 37.5396L15.4631 43.1856C14.3079 44.5774 13.457 46.1907 12.9642 47.9238C12.4715 49.6568 12.3476 51.4721 12.6003 53.2548C12.853 55.0377 13.4768 56.7493 14.4325 58.2818C15.3881 59.8143 16.6548 61.1346 18.1526 62.159C19.6504 63.1833 21.3467 63.8899 23.1346 64.2338C24.9225 64.5778 26.7631 64.5517 28.5403 64.1574C30.3175 63.7629 31.9927 63.0087 33.4602 61.9423C34.9278 60.8759 36.1556 59.5204 37.0664 57.9616C37.4277 57.3393 37.737 56.6892 37.9911 56.0173L40.505 49.0182C40.9538 47.7991 41.8716 46.8046 43.0587 46.2511C44.2458 45.6976 45.606 45.63 46.8433 46.063L42.6532 57.7515C41.7258 60.1901 40.2725 62.4 38.3944 64.228C36.5161 66.0559 34.258 67.4581 31.7765 68.337C29.2951 69.216 26.6501 69.5509 24.0246 69.3184C21.3991 69.0859 18.8563 68.2914 16.5726 66.9905Z" fill="#1E1D34"/>
<path d="M112.546 41.0742L106.539 58.9609C106.258 59.7973 105.717 60.5252 104.994 61.0408C104.271 61.5566 103.402 61.8344 102.51 61.8344H101.546L96.7817 47.63L92.9771 58.9609C92.6951 59.7982 92.1534 60.5267 91.4287 61.0425C90.7041 61.5583 89.8335 61.8353 88.9405 61.8344H87.9767L81.0129 41.0742H82.3506C83.2424 41.0742 84.1115 41.3518 84.8346 41.8676C85.5578 42.3834 86.0982 43.1112 86.3793 43.9477L89.999 54.7147L94.5824 41.0664H95.9201C96.8139 41.0665 97.685 41.345 98.4096 41.8622C99.1343 42.3794 99.6754 43.1091 99.9567 43.9477L103.564 54.7147L107.184 43.9399C107.465 43.1034 108.005 42.3757 108.729 41.8598C109.452 41.3441 110.321 41.0664 111.213 41.0664L112.546 41.0742Z" fill="#1E1D34"/>
<path d="M45.0925 61.8344L52.0642 41.0742H53.0321C53.9254 41.0709 54.7971 41.3466 55.5227 41.8619C56.2484 42.3772 56.7907 43.1058 57.0725 43.9438L63.0802 61.8305H61.7387C60.848 61.83 59.98 61.5524 59.2578 61.0375C58.5354 60.5224 57.9953 59.796 57.7139 58.9608L54.0942 48.1822L50.4747 58.9608C50.1955 59.7976 49.6559 60.5259 48.9333 61.0419C48.2105 61.5579 47.3414 61.8353 46.4499 61.8344H45.0925Z" fill="#1E1D34"/>
<path d="M65.2793 61.8344V41.1053H73.026C74.0594 41.0974 75.0841 41.2907 76.0418 41.6742C76.9995 42.0577 77.8716 42.6239 78.6078 43.3404C79.3442 44.057 79.9306 44.9098 80.3333 45.8503C80.7361 46.7908 80.9477 47.8005 80.9556 48.8218C80.9637 49.843 80.7681 50.8559 80.38 51.8024C79.992 52.7491 79.4192 53.6108 78.6942 54.3384C77.9692 55.0662 77.1061 55.6458 76.1545 56.0439C75.203 56.4419 74.1813 56.6509 73.148 56.6588H72.1958V53.4003C72.1958 53.2873 72.2185 53.1752 72.2624 53.0706C72.3063 52.9662 72.3708 52.8713 72.4519 52.7913C72.5332 52.7116 72.6295 52.6483 72.7354 52.6053C72.8412 52.5623 72.9548 52.5406 73.0694 52.541C74.0096 52.5485 74.9185 52.2059 75.6146 51.5812C76.3109 50.9564 76.7436 50.0956 76.8265 49.1698C76.8644 48.6692 76.7975 48.1663 76.6298 47.6925C76.4622 47.2187 76.1975 46.7841 75.8523 46.4159C75.5071 46.0477 75.0887 45.7538 74.6234 45.5526C74.1582 45.3514 73.656 45.2472 73.148 45.2464H69.4576V57.6893C69.4591 58.2327 69.3523 58.7711 69.1431 59.2737C68.9337 59.7763 68.6264 60.2333 68.2383 60.6182C67.8501 61.0031 67.389 61.3088 66.8813 61.5174C66.3736 61.7261 65.8293 61.8338 65.2793 61.8344Z" fill="#1E1D34"/>
<path d="M114.71 41.1053V57.7048C114.71 58.2472 114.818 58.7842 115.028 59.2851C115.238 59.7862 115.546 60.2414 115.934 60.6248C116.322 61.0083 116.783 61.3125 117.289 61.52C117.796 61.7276 118.34 61.8344 118.889 61.8344V45.2464C118.89 44.7032 118.783 44.1649 118.574 43.6626C118.364 43.1602 118.057 42.7036 117.669 42.3189C117.281 41.9342 116.82 41.629 116.312 41.4207C115.804 41.2125 115.26 41.1053 114.71 41.1053Z" fill="#1E1D34"/>
<path d="M147.019 45.2464V49.4108H155.348C155.348 49.9537 155.241 50.4914 155.031 50.993C154.821 51.4947 154.514 51.9505 154.126 52.3347C153.738 52.7189 153.277 53.0239 152.77 53.232C152.263 53.4402 151.719 53.5476 151.17 53.5482H147.019V57.7048H157.5C157.499 58.7998 157.058 59.8494 156.275 60.6237C155.492 61.398 154.43 61.8333 153.322 61.8344H142.841V41.1053H157.5C157.499 42.2002 157.058 43.2499 156.275 44.0241C155.492 44.7983 154.43 45.2337 153.322 45.2348L147.019 45.2464Z" fill="#1E1D34"/>
<path d="M139.831 41.1053V61.8344H137.828C137.157 61.8346 136.495 61.6746 135.899 61.368C135.303 61.0614 134.791 60.6171 134.406 60.073L126.077 48.3144V57.7048C126.076 58.7998 125.635 59.8494 124.852 60.6237C124.068 61.398 123.006 61.8333 121.898 61.8344V41.1053H123.901C124.573 41.1056 125.234 41.2659 125.83 41.5725C126.426 41.8791 126.938 42.323 127.324 42.8667L135.653 54.6369V45.2464C135.651 44.703 135.757 44.1646 135.966 43.662C136.175 43.1594 136.483 42.7025 136.871 42.3178C137.259 41.933 137.721 41.6278 138.229 41.4197C138.737 41.2116 139.281 41.1048 139.831 41.1053Z" fill="#1E1D34"/>
</g>
<rect x="0.5" y="0.5" width="164" height="99" rx="3.5" stroke="#EEECEA"/>
<defs>
<clipPath id="clip0_27_843">
<rect width="150" height="38.7868" fill="white" transform="translate(7.5 30.6066)"/>
</clipPath>
</defs>
</svg>
