<svg width="185" height="120" viewBox="0 0 185 120" fill="none" xmlns="http://www.w3.org/2000/svg">
<rect x="0.5" y="0.5" width="184" height="119" rx="3.5" fill="white"/>
<g clip-path="url(#clip0_196_748)">
<path d="M35.1433 64.2159C35.1433 69.5487 32.1948 73.0868 27.6587 73.0868C25.5585 73.0868 23.8412 72.1765 22.6982 70.5575V72.8954H17.5V48.791H22.6984V57.6928C23.8414 56.0997 25.4915 55.1893 27.5398 55.1893C32.1071 55.1893 35.1433 58.7945 35.1433 64.2154M29.914 64.0601C29.914 61.3962 28.4397 59.5136 26.2726 59.5136C24.1724 59.5136 22.6984 61.3964 22.6984 64.0601C22.6984 66.7808 24.1724 68.6379 26.2726 68.6379C28.4397 68.6327 29.914 66.7551 29.914 64.0601Z" fill="#044E97"/>
<path d="M43.2851 50.3529C43.2851 52.1063 42.1419 53.3426 40.554 53.3426C38.9555 53.3426 37.8177 52.1116 37.8177 50.3529C37.8177 48.6304 38.9609 47.3994 40.554 47.3994C42.147 47.3994 43.2851 48.6304 43.2851 50.3529M37.9366 55.3855H43.109V72.8946H37.9366V55.3855Z" fill="#044E97"/>
<path d="M57.7463 71.9428C56.4421 72.737 54.944 73.1558 53.417 73.1532C50.2928 73.1532 48.0375 71.2395 48.0375 67.6031V59.8702H45.7824V56.1977H48.0429V51.3252H53.2102V56.1666H57.4464V59.8701H53.205V66.7237C53.205 68.0891 53.743 68.6735 54.7051 68.6322C55.2483 68.6322 55.9414 68.4099 56.7223 68.0478L57.7463 71.9428Z" fill="#044E97"/>
<path d="M147.976 61.2983V72.7864H142.664V62.9224C142.664 60.7603 141.552 59.4415 139.793 59.4415C137.771 59.5087 136.54 61.2983 136.54 63.7605V72.7813H131.192V62.9224C131.192 60.7604 130.111 59.4415 128.352 59.4415C126.304 59.5087 125.037 61.2983 125.037 63.7605V72.7813H119.724V54.5735H125.037V57.584C126.18 55.4218 128.098 54.341 130.535 54.3047C133.25 54.3047 135.262 55.8563 136.1 58.4271C137.181 55.7219 139.225 54.3356 141.971 54.3047C145.628 54.3045 147.976 57.046 147.976 61.2976" fill="#044E97"/>
<path d="M167.47 65.2556H155.749C156.282 67.4177 157.699 68.628 159.68 68.628C161.123 68.628 162.551 67.9867 163.668 66.7712L166.482 69.7815C164.785 71.8093 162.277 72.9832 159.22 72.9832C153.783 72.9832 150.38 69.2695 150.38 63.7297C150.38 58.0865 153.913 54.3623 159.075 54.3623C164.935 54.3728 167.832 58.5987 167.47 65.2556M162.339 62.1107C162.339 59.8815 161.04 58.4332 159.127 58.4332C157.28 58.4332 156.002 59.9176 155.666 62.1107H162.339Z" fill="#044E97"/>
<path d="M96.215 37.536C92.7385 36.4052 89.0468 36.0974 85.431 36.6367C81.8153 37.1761 78.3742 38.5479 75.379 40.6441C74.5501 40.0576 73.5402 39.7839 72.5285 39.8716C71.5169 39.9594 70.5692 40.4029 69.8537 41.1234C69.1381 41.8439 68.7012 42.7947 68.6204 43.8068C68.5396 44.819 68.8203 45.8271 69.4125 46.6519C67.3827 49.6178 66.0562 53.0075 65.534 56.5633C65.0117 60.119 65.3074 63.747 66.3986 67.1713C67.4898 70.5955 69.3477 73.7257 71.831 76.3237C74.3142 78.9217 77.3574 80.919 80.7289 82.1636C81.0135 82.2731 81.3036 82.3681 81.5979 82.4482C84.5448 83.4195 87.6553 83.7958 90.7488 83.5552C93.8423 83.3145 96.8572 82.4618 99.6185 81.0464C100.53 80.5826 101.41 80.0608 102.255 79.4844L104.408 81.6516C104.6 81.848 104.822 81.7963 104.915 81.5377L107.135 75.0301C109.58 72.0584 111.263 68.5348 112.037 64.7652C112.811 60.9956 112.653 57.0941 111.577 53.3994C110.501 49.7047 108.539 46.3285 105.862 43.5641C103.185 40.7997 99.8733 38.7306 96.215 37.5365V37.536ZM109.441 66.6876C108.687 69.0113 107.545 71.1905 106.063 73.1326L98.9409 75.5323C98.8867 75.5418 98.8366 75.5671 98.7967 75.605C98.7569 75.6429 98.7291 75.6917 98.717 75.7453C98.7048 75.7989 98.7088 75.855 98.7283 75.9063C98.7479 75.9577 98.7823 76.0021 98.827 76.0341L100.805 78.0249C100.126 78.4723 99.4223 78.8817 98.6978 79.2513C94.4368 81.418 89.5775 82.1103 84.8809 81.2197C80.1843 80.3292 75.9157 77.9061 72.7437 74.3299C69.5716 70.7538 67.6752 66.2265 67.3515 61.4573C67.0278 56.688 68.295 51.946 70.9547 47.974C71.1524 48.074 71.3575 48.1587 71.5681 48.2273C72.3772 48.4902 73.2461 48.5068 74.0646 48.275C74.8831 48.0433 75.6144 47.5736 76.1655 46.9255C76.7167 46.2775 77.0629 45.4804 77.1603 44.6353C77.2577 43.7902 77.1018 42.9352 76.7125 42.1788C79.441 40.3091 82.5627 39.0915 85.8365 38.62C89.1104 38.1485 92.4489 38.4359 95.594 39.4597C95.8528 39.5477 96.1115 39.6358 96.3751 39.7339C101.626 41.6516 105.925 45.5362 108.363 50.5661C110.801 55.5961 111.188 61.3772 109.441 66.6871V66.6876Z" fill="#044E97"/>
<path d="M92.2628 62.8549C93.8819 61.1636 94.9938 59.7825 95.5939 58.6963C96.1845 57.6606 96.498 56.4902 96.5042 55.298C96.5042 53.1306 95.7438 51.4237 94.2491 50.1616C92.7963 48.9195 90.9412 48.2485 89.03 48.2736C87.0438 48.2736 85.4197 48.6978 84.142 49.5564C82.8593 50.4097 81.6817 51.6667 80.6093 53.3272L84.711 55.7582C86.0041 53.7049 87.3731 52.6773 88.8178 52.6755C89.1761 52.6627 89.5331 52.7246 89.8661 52.8573C90.1992 52.99 90.501 53.1906 90.7523 53.4463C91.0003 53.6993 91.1949 53.9995 91.3246 54.3292C91.4544 54.6588 91.5166 55.0112 91.5076 55.3653C91.5076 56.1257 91.2179 56.917 90.6386 57.7393C90.0593 58.5619 89.0903 59.6602 87.7316 61.0343L81.0022 67.9291V71.7464H97.187V67.148H88.1248L92.2628 62.8549V62.8549Z" fill="#044E97"/>
</g>
<rect x="0.5" y="0.5" width="184" height="119" rx="3.5" stroke="#EEECEA"/>
<defs>
<clipPath id="clip0_196_748">
<rect width="150" height="47.2503" fill="white" transform="translate(17.5 36.375)"/>
</clipPath>
</defs>
</svg>
