<svg width="166" height="100" viewBox="0 0 166 100" fill="none" xmlns="http://www.w3.org/2000/svg">
<rect x="0.700012" y="0.5" width="164" height="99" rx="3.5" fill="white"/>
<path d="M48.9998 32.1987V58.8434L33.5982 67.7259L18.1992 58.8434V32.1987H48.9998Z" fill="#8FFA9E"/>
<path d="M18.697 58.5555L33.6005 67.15L48.504 58.5555V32.6968H18.697V58.5555ZM33.6005 68.2992L17.7008 59.1314V31.7007H49.4975V59.1314L33.6005 68.2992V68.2992Z" fill="#053B7D"/>
<path d="M33.5982 32.1987L48.9998 41.0786V58.8434L33.5982 67.7259L18.1992 58.8434V41.0786L33.5982 32.1987Z" fill="#7AD1F2"/>
<path d="M18.6971 58.5559L33.6006 67.1504L48.5041 58.5559V41.367L33.598 32.7725L18.6971 41.367V58.5559ZM33.8497 68.1544H33.3516L17.95 59.2745L17.701 58.8439V41.079L17.95 40.6484L33.3516 31.7686H33.8497L49.2487 40.651L49.4977 41.0816V58.8439L49.2487 59.2745L33.8497 68.1569V68.1544Z" fill="#053B7D"/>
<path d="M33.5982 32.1987L48.9998 58.8434L33.5982 67.7259L18.1992 58.8434L33.5982 32.1987Z" fill="#F2FCFF"/>
<path d="M18.8788 58.6619L33.5981 67.15L48.3174 58.6619L33.5981 33.1923L18.8788 58.6619ZM33.5981 68.224C33.5125 68.224 33.4269 68.2006 33.3491 68.1565L17.9501 59.2741C17.836 59.2092 17.753 59.1003 17.7166 58.9732C17.6829 58.8461 17.7011 58.7086 17.7659 58.5944L33.1675 31.9497C33.2583 31.7967 33.4217 31.7007 33.5981 31.7007C33.7745 31.7007 33.9406 31.7941 34.0288 31.9497L49.4277 58.5944C49.4952 58.7086 49.5108 58.8461 49.477 58.9732C49.4433 59.1003 49.3603 59.2092 49.2462 59.2741L33.8472 68.1565C33.7693 68.2006 33.6837 68.224 33.5981 68.224" fill="#053B7D"/>
<path d="M48.9997 59.342C48.9167 59.342 48.8285 59.3213 48.7507 59.2746L17.9501 41.5123C17.7115 41.3748 17.6311 41.0713 17.7685 40.8326C17.906 40.594 18.2096 40.5136 18.4482 40.6511L49.2488 58.4133C49.4874 58.5508 49.5679 58.8543 49.4304 59.093C49.3396 59.2538 49.1709 59.342 48.9997 59.342Z" fill="#053B7D"/>
<path d="M18.1991 59.3421C18.0279 59.3421 17.8593 59.2539 17.7685 59.0931C17.631 58.8544 17.714 58.5509 17.9501 58.4134L48.7506 40.6485C48.9893 40.511 49.2928 40.5941 49.4303 40.8301C49.5678 41.0688 49.4848 41.3723 49.2487 41.5098L18.4481 59.2747C18.3703 59.3188 18.2847 59.3421 18.1991 59.3421" fill="#053B7D"/>
<path d="M34.0988 32.2163H33.1027V67.7253H34.0988V32.2163Z" fill="#053B7D"/>
<path d="M79.9897 41.4163C82.7498 41.4163 85.0431 43.5176 85.4504 46.2518H74.5289C74.9362 43.5176 77.2295 41.4163 79.9897 41.4163V41.4163ZM79.9897 52.8307C77.2295 52.8307 74.9362 50.7294 74.5289 47.9951H82.4437V47.9873H87.2559V47.1261C87.2559 43.0195 83.995 39.6782 79.9897 39.6782C75.9843 39.6782 72.7234 43.0195 72.7234 47.1261C72.7234 51.2326 75.9843 54.5739 79.9897 54.5739C82.8718 54.5739 85.4582 52.841 86.6281 50.1509H84.6747C83.676 51.8034 81.9171 52.8332 79.9897 52.8332" fill="#053B7D"/>
<path d="M64.435 52.8303C61.3895 52.8303 58.9095 50.2699 58.9095 47.1232C58.9095 43.9764 61.3869 41.416 64.435 41.416C66.4066 41.416 68.1395 42.49 69.1175 44.0984H71.0735C69.9399 41.4964 67.3924 39.6753 64.435 39.6753C60.4296 39.6753 57.1688 43.0166 57.1688 47.1232C57.1688 51.2297 60.4296 54.571 64.435 54.571C67.3171 54.571 69.9061 52.8381 71.0735 50.148H69.1201C68.1213 51.8004 66.3625 52.8303 64.435 52.8303Z" fill="#053B7D"/>
<path d="M90.7944 42.8431V39.9351H89.0537V54.3093H90.7944V47.5775C90.7944 44.9885 92.5948 42.703 95.0722 42.1401C95.6922 42 96.3771 41.9274 97.1086 41.9274V40.1867C96.2473 40.1867 95.4328 40.2723 94.6857 40.4435C93.1292 40.7963 91.7828 41.668 90.7918 42.8431" fill="#053B7D"/>
<path d="M126.874 42.8431V39.9351H125.133V54.3093H126.874V47.5775C126.874 44.9885 128.674 42.703 131.152 42.1401C131.772 42 132.457 41.9274 133.188 41.9274V40.1867C132.327 40.1867 131.512 40.2723 130.765 40.4435C129.209 40.7963 127.862 41.668 126.872 42.8431" fill="#053B7D"/>
<path d="M102.74 41.942H107.278V40.2013H102.74V36.7329H100.997V40.2013H99.023V41.942H100.997V54.0905H107.49V52.3498H102.74V41.942Z" fill="#053B7D"/>
<path d="M115.901 52.8432C112.746 52.8432 110.181 50.2776 110.181 47.1231C110.181 43.9686 112.746 41.4029 115.901 41.4029C119.055 41.4029 121.621 43.9686 121.621 47.1231C121.621 50.2776 119.055 52.8432 115.901 52.8432ZM115.901 39.6597C111.786 39.6597 108.44 43.0087 108.44 47.1231C108.44 51.2374 111.786 54.5839 115.901 54.5839C120.015 54.5839 123.362 51.2374 123.362 47.1231C123.362 43.0087 120.015 39.6597 115.901 39.6597" fill="#053B7D"/>
<path d="M140.649 52.8432C137.725 52.8432 135.347 50.2776 135.347 47.1231C135.347 43.9686 137.725 41.4029 140.649 41.4029C143.573 41.4029 145.952 43.9686 145.952 47.1231C145.952 50.2776 143.573 52.8432 140.649 52.8432ZM145.959 39.9346V42.2279C144.667 40.6558 142.766 39.6597 140.649 39.6597C136.766 39.6597 133.606 43.0061 133.606 47.1205C133.606 51.2348 136.766 54.5813 140.649 54.5813C142.766 54.5813 144.667 53.5852 145.959 52.0157V54.3063H147.7V39.9346H145.959V39.9346Z" fill="#053B7D"/>
<rect x="0.700012" y="0.5" width="164" height="99" rx="3.5" stroke="#EEECEA"/>
</svg>
