<svg width="24" height="24" viewBox="0 0 24 24" fill="none" xmlns="http://www.w3.org/2000/svg">
<path d="M21.9007 1.92578L13.3203 8.30876L14.9161 4.54175L21.9007 1.92578Z" fill="#E17726" stroke="#E17726" stroke-width="0.261597" stroke-linecap="round" stroke-linejoin="round"/>
<path d="M2.07129 1.92578L10.5994 8.36107L9.0821 4.54175L2.07129 1.92578Z" fill="#E27625" stroke="#E27625" stroke-width="0.261597" stroke-linecap="round" stroke-linejoin="round"/>
<path d="M18.8128 16.707L16.5107 20.2124L21.4288 21.5727L22.8152 16.7855L18.8128 16.707Z" fill="#E27625" stroke="#E27625" stroke-width="0.261597" stroke-linecap="round" stroke-linejoin="round"/>
<path d="M1.18164 16.7855L2.56811 21.5727L7.45997 20.2124L5.18408 16.707L1.18164 16.7855Z" fill="#E27625" stroke="#E27625" stroke-width="0.261597" stroke-linecap="round" stroke-linejoin="round"/>
<path d="M7.19917 10.792L5.83887 12.8586L10.6784 13.0679L10.5215 7.83594L7.19917 10.792Z" fill="#E27625" stroke="#E27625" stroke-width="0.261597" stroke-linecap="round" stroke-linejoin="round"/>
<path d="M16.7986 10.7935L13.424 7.78516L13.3193 13.0694L18.1589 12.8601L16.7986 10.7935Z" fill="#E27625" stroke="#E27625" stroke-width="0.261597" stroke-linecap="round" stroke-linejoin="round"/>
<path d="M7.45996 20.2133L10.3899 18.8006L7.85236 16.8125L7.45996 20.2133Z" fill="#E27625" stroke="#E27625" stroke-width="0.261597" stroke-linecap="round" stroke-linejoin="round"/>
<path d="M13.6074 18.8006L16.5112 20.2133L16.1188 16.8125L13.6074 18.8006Z" fill="#E27625" stroke="#E27625" stroke-width="0.261597" stroke-linecap="round" stroke-linejoin="round"/>
<path d="M16.5102 20.2095L13.6064 18.7969L13.8419 20.6804L13.8157 21.4913L16.5102 20.2095Z" fill="#D5BFB2" stroke="#D5BFB2" stroke-width="0.261597" stroke-linecap="round" stroke-linejoin="round"/>
<path d="M7.45898 20.2095L10.1796 21.4913L10.1534 20.6804L10.3889 18.7969L7.45898 20.2095Z" fill="#D5BFB2" stroke="#D5BFB2" stroke-width="0.261597" stroke-linecap="round" stroke-linejoin="round"/>
<path d="M10.2336 15.5536L7.80078 14.8473L9.50116 14.0625L10.2336 15.5536Z" fill="#233447" stroke="#233447" stroke-width="0.261597" stroke-linecap="round" stroke-linejoin="round"/>
<path d="M13.7656 15.5536L14.4719 14.0625L16.1985 14.8473L13.7656 15.5536Z" fill="#233447" stroke="#233447" stroke-width="0.261597" stroke-linecap="round" stroke-linejoin="round"/>
<path d="M7.46047 20.2085L7.87902 16.7031L5.18457 16.7816L7.46047 20.2085Z" fill="#CC6228" stroke="#CC6228" stroke-width="0.261597" stroke-linecap="round" stroke-linejoin="round"/>
<path d="M16.1191 16.7031L16.5115 20.2085L18.8136 16.7816L16.1191 16.7031Z" fill="#CC6228" stroke="#CC6228" stroke-width="0.261597" stroke-linecap="round" stroke-linejoin="round"/>
<path d="M18.1599 12.8594L13.3203 13.0687L13.765 15.5538L14.4713 14.0627L16.1979 14.8475L18.1599 12.8594Z" fill="#CC6228" stroke="#CC6228" stroke-width="0.261597" stroke-linecap="round" stroke-linejoin="round"/>
<path d="M7.79987 14.8475L9.50025 14.0627L10.2327 15.5538L10.6774 13.0687L5.83789 12.8594L7.79987 14.8475Z" fill="#CC6228" stroke="#CC6228" stroke-width="0.261597" stroke-linecap="round" stroke-linejoin="round"/>
<path d="M5.83887 12.8594L7.85317 16.8095L7.80085 14.8475L5.83887 12.8594Z" fill="#E27525" stroke="#E27525" stroke-width="0.261597" stroke-linecap="round" stroke-linejoin="round"/>
<path d="M16.1976 14.8475L16.1191 16.8095L18.1596 12.8594L16.1976 14.8475Z" fill="#E27525" stroke="#E27525" stroke-width="0.261597" stroke-linecap="round" stroke-linejoin="round"/>
<path d="M10.6791 13.0703L10.2344 15.5555L10.7837 18.5115L10.9145 14.6137L10.6791 13.0703Z" fill="#E27525" stroke="#E27525" stroke-width="0.261597" stroke-linecap="round" stroke-linejoin="round"/>
<path d="M13.3214 13.0703L13.0859 14.6137L13.1906 18.5115L13.7661 15.5555L13.3214 13.0703Z" fill="#E27525" stroke="#E27525" stroke-width="0.261597" stroke-linecap="round" stroke-linejoin="round"/>
<path d="M13.7659 15.554L13.1904 18.51L13.609 18.7978L16.1203 16.8096L16.1988 14.8477L13.7659 15.554Z" fill="#F5841F" stroke="#F5841F" stroke-width="0.261597" stroke-linecap="round" stroke-linejoin="round"/>
<path d="M7.80078 14.8477L7.8531 16.8096L10.3906 18.7978L10.783 18.51L10.2336 15.554L7.80078 14.8477Z" fill="#F5841F" stroke="#F5841F" stroke-width="0.261597" stroke-linecap="round" stroke-linejoin="round"/>
<path d="M13.8178 21.4928L13.8439 20.6818L13.6085 20.4987H10.3647L10.1554 20.6818L10.1815 21.4928L7.46094 20.2109L8.40269 20.9957L10.3385 22.3299H13.6346L15.5705 20.9957L16.5122 20.2109L13.8178 21.4928Z" fill="#C0AC9D" stroke="#C0AC9D" stroke-width="0.261597" stroke-linecap="round" stroke-linejoin="round"/>
<path d="M13.6084 18.7995L13.1898 18.5117H10.7831L10.3907 18.7995L10.1553 20.683L10.3646 20.4999H13.6084L13.8438 20.683L13.6084 18.7995Z" fill="#161616" stroke="#161616" stroke-width="0.261597" stroke-linecap="round" stroke-linejoin="round"/>
<path d="M22.2663 8.72731L22.9988 5.19575L21.9001 1.92578L13.6074 8.09948L16.7989 10.7939L21.2984 12.1019L22.2925 10.9509L21.8739 10.637L22.554 10.0091L22.0309 9.59058L22.711 9.06739L22.2663 8.72731Z" fill="#763E1A" stroke="#763E1A" stroke-width="0.261597" stroke-linecap="round" stroke-linejoin="round"/>
<path d="M0.999023 5.19575L1.73149 8.72731L1.26062 9.06739L1.94077 9.59058L1.41758 10.0091L2.12389 10.637L1.67918 10.9509L2.67325 12.1019L7.19888 10.7939L10.3904 8.09948L2.07157 1.92578L0.999023 5.19575Z" fill="#763E1A" stroke="#763E1A" stroke-width="0.261597" stroke-linecap="round" stroke-linejoin="round"/>
<path d="M21.2997 12.101L16.8003 10.793L18.1606 12.8596L16.1201 16.8097L18.8146 16.7835H22.817L21.2997 12.101Z" fill="#F5841F" stroke="#F5841F" stroke-width="0.261597" stroke-linecap="round" stroke-linejoin="round"/>
<path d="M7.19935 10.793L2.67372 12.101L1.18262 16.7835H5.18506L7.85335 16.8097L5.83905 12.8596L7.19935 10.793Z" fill="#F5841F" stroke="#F5841F" stroke-width="0.261597" stroke-linecap="round" stroke-linejoin="round"/>
<path d="M13.3209 13.071L13.6086 8.10069L14.9166 4.54297H9.08301L10.391 8.10069L10.6788 13.071L10.7834 14.6406V18.5123H13.1901V14.6406L13.3209 13.071Z" fill="#F5841F" stroke="#F5841F" stroke-width="0.261597" stroke-linecap="round" stroke-linejoin="round"/>
</svg>
