<svg width="1728" height="511" viewBox="0 0 1728 511" fill="none" xmlns="http://www.w3.org/2000/svg">
<g clip-path="url(#clip0_219_1050)">
<rect width="1728" height="511" fill="url(#paint0_linear_219_1050)"/>
<g filter="url(#filter0_df_219_1050)">
<path d="M2021 253.5C2021 455.912 1854.9 620 1650 620C1445.1 620 1279 455.912 1279 253.5C1279 51.0876 1445.1 -113 1650 -113C1854.9 -113 2021 51.0876 2021 253.5Z" fill="#FFB550"/>
</g>
<g filter="url(#filter1_f_219_1050)">
<path d="M935 418.5C935 594.955 789.716 738 610.5 738C431.284 738 286 594.955 286 418.5C286 242.045 431.284 99 610.5 99C789.716 99 935 242.045 935 418.5Z" fill="#FCD6F8"/>
</g>
<path d="M1297.81 257.131C1296.73 154.248 1411.08 71.5885 1620.82 69.3792C1362.82 72.1093 1154.56 157.72 1155.65 260.603C1156.73 363.485 1366.77 444.699 1624.75 441.98C1415.01 444.19 1298.9 360.014 1297.81 257.131V257.131Z" fill="url(#paint1_linear_219_1050)"/>
<path d="M1620.82 69.3792C1830.55 67.181 1958.03 143.593 1959.12 246.489C1960.21 349.372 1834.5 439.771 1624.77 441.994C1882.77 439.264 2091.03 353.653 2089.94 250.77C2088.86 147.888 1878.83 66.6626 1620.82 69.3792Z" fill="url(#paint2_linear_219_1050)"/>
<path d="M2002.55 251.681C2001.46 148.798 1830.56 67.1698 1620.82 69.3791C1772.37 67.7922 1896.1 149.899 1897.19 252.781C1898.27 355.664 1776.3 440.369 1624.75 441.98C1834.5 439.771 2003.63 354.564 2002.55 251.681V251.681Z" fill="url(#paint3_linear_219_1050)"/>
<path d="M1348.39 258.578C1347.31 155.695 1469.27 70.9906 1620.82 69.3792C1411.09 71.6019 1241.95 156.796 1243.04 259.692C1244.13 362.575 1415.03 444.203 1624.77 441.994C1473.22 443.581 1349.49 361.474 1348.4 258.591L1348.39 258.578Z" fill="url(#paint4_linear_219_1050)"/>
<path d="M1459.51 257.405C1458.43 154.522 1530.65 70.3426 1620.82 69.3793C1469.28 70.9662 1347.3 155.682 1348.39 258.578C1349.48 361.461 1473.2 443.592 1624.75 441.98C1534.57 442.93 1460.59 360.287 1459.51 257.405V257.405Z" fill="url(#paint5_radial_219_1050)"/>
<path d="M1897.2 252.795C1896.11 149.912 1772.37 67.7925 1620.83 69.3928C1711.02 68.4429 1784.99 151.086 1786.08 253.969C1787.16 356.852 1714.94 441.031 1624.77 441.994C1776.31 440.407 1898.29 355.691 1897.2 252.795V252.795Z" fill="url(#paint6_radial_219_1050)"/>
<path d="M1567.12 256.275C1566.04 153.392 1590.08 69.7167 1620.81 69.3906C1530.62 70.3405 1458.4 154.52 1459.5 257.416C1460.58 360.299 1534.57 442.955 1624.74 441.992C1594.01 442.318 1568.19 359.169 1567.11 256.286L1567.12 256.275Z" fill="url(#paint7_radial_219_1050)"/>
<path d="M1786.08 253.968C1784.99 151.086 1711.01 68.4293 1620.83 69.3926C1651.57 69.0665 1677.38 152.215 1678.47 255.098C1679.55 357.981 1655.51 441.657 1624.78 441.983C1714.97 441.033 1787.19 356.854 1786.09 253.957L1786.08 253.968Z" fill="url(#paint8_linear_219_1050)"/>
<path d="M1620.82 69.3793L1624.75 441.98C1655.49 441.654 1679.54 357.992 1678.44 255.096C1677.35 152.2 1651.55 69.0532 1620.81 69.3903L1620.82 69.3793Z" fill="url(#paint9_linear_219_1050)"/>
<path d="M1567.12 256.275C1568.21 359.158 1594.01 442.318 1624.75 441.98L1620.82 69.3794C1590.09 69.7054 1566.04 153.368 1567.14 256.264L1567.12 256.275Z" fill="url(#paint10_linear_219_1050)"/>
<g filter="url(#filter2_f_219_1050)">
<path d="M455 236C455 424.881 300.091 578 109 578C-82.0905 578 -237 424.881 -237 236C-237 47.1186 -82.0905 -106 109 -106C300.091 -106 455 47.1186 455 236Z" fill="#CAE6F9"/>
</g>
<path d="M1126.53 98.3243C1108.42 161.491 1069.83 142.52 1108.88 89.6456C1045.65 71.5492 1064.64 32.9951 1117.56 72.0088C1135.68 8.84251 1174.27 27.8131 1135.22 80.6875C1198.45 98.7839 1179.46 137.338 1126.53 98.3243V98.3243Z" fill="url(#paint11_linear_219_1050)"/>
<path d="M466.643 194.286C468.152 209.474 468.948 224.873 468.998 240.45L253.999 241.134C254 241.422 254 241.711 254 242C254 242.289 254 242.578 253.999 242.866L468.998 243.55C468.948 259.127 468.152 274.526 466.643 289.714L252.696 268.464C252.673 268.695 252.65 268.926 252.626 269.157C252.592 269.491 252.558 269.824 252.522 270.157L466.328 292.788C464.692 308.248 462.317 323.486 459.239 338.464L248.638 295.196C248.525 295.747 248.41 296.298 248.293 296.849L458.607 341.491C455.385 356.672 451.44 371.583 446.811 386.185L241.862 321.216C241.693 321.751 241.522 322.285 241.349 322.818L445.868 389.125C441.09 403.864 435.613 418.285 429.477 432.346L232.421 346.357C232.322 346.584 232.223 346.81 232.124 347.036C231.998 347.323 231.871 347.609 231.744 347.896L428.234 435.17C421.953 449.31 415.004 463.083 407.427 476.447L220.396 370.408C220.119 370.896 219.841 371.383 219.561 371.869L405.898 479.124C398.188 492.518 389.845 505.496 380.911 518.015L205.907 393.12C205.581 393.577 205.253 394.033 204.924 394.488L379.112 520.517C370.062 533.025 360.419 545.069 350.223 556.605L189.123 414.225C188.751 414.646 188.378 415.066 188.003 415.485L348.175 558.907C337.885 570.398 327.045 581.377 315.695 591.802L170.257 433.458C169.844 433.837 169.43 434.215 169.015 434.592L313.418 593.88C302.001 604.23 290.079 614.022 277.691 623.215L149.559 450.568C149.111 450.901 148.662 451.232 148.211 451.562L275.21 625.044C262.79 634.136 249.911 642.629 236.613 650.481L127.3 465.344C126.962 465.544 126.623 465.743 126.284 465.941C126.144 466.023 126.004 466.104 125.863 466.186L233.954 652.039C220.664 659.768 206.964 666.859 192.894 673.27L103.748 477.622C103.61 477.685 103.472 477.748 103.335 477.81C102.97 477.976 102.604 478.14 102.238 478.304L190.083 674.539C176.072 680.812 161.699 686.412 147.004 691.299L79.1493 487.288C78.627 487.461 78.104 487.633 77.5803 487.804L144.072 692.263C129.498 697.003 114.613 701.043 99.4548 704.344L53.7078 494.267C53.1691 494.384 52.6296 494.5 52.0895 494.614L96.4328 704.991C81.4664 708.146 66.238 710.581 50.7847 712.259L27.5739 498.516C27.2838 498.547 26.9935 498.578 26.703 498.609C26.4404 498.636 26.1777 498.664 25.9148 498.69L47.7084 712.583C32.5244 714.13 17.1265 714.947 1.5498 714.997L0.848389 499.999C0.565796 500 0.28299 500 0 500C-0.28299 500 -0.565765 500 -0.848358 499.999L-1.54977 714.997C-17.1265 714.947 -32.5244 714.13 -47.7084 712.583L-25.9148 498.69C-26.4685 498.634 -27.0216 498.576 -27.5739 498.516L-50.7847 712.259C-66.2379 710.581 -81.4664 708.146 -96.4328 704.991L-52.0895 494.614C-52.6296 494.5 -53.169 494.384 -53.7077 494.267L-99.4547 704.344C-114.613 701.043 -129.498 697.003 -144.072 692.263L-77.5802 487.804C-78.104 487.633 -78.627 487.461 -79.1493 487.288L-147.004 691.299C-161.699 686.412 -176.072 680.812 -190.083 674.539L-102.238 478.304C-102.742 478.079 -103.245 477.851 -103.748 477.622L-192.894 673.27C-206.964 666.859 -220.664 659.768 -233.954 652.039L-125.863 466.186C-126.343 465.907 -126.822 465.626 -127.3 465.344L-236.613 650.481C-249.91 642.629 -262.79 634.136 -275.21 625.044L-148.211 451.562C-148.662 451.232 -149.111 450.901 -149.559 450.568L-277.691 623.215C-290.079 614.022 -302.001 604.23 -313.418 593.88L-169.015 434.592C-169.43 434.215 -169.844 433.837 -170.257 433.458L-315.695 591.802C-327.045 581.377 -337.885 570.398 -348.175 558.907L-188.003 415.485C-188.378 415.066 -188.751 414.646 -189.123 414.225L-350.223 556.605C-360.419 545.069 -370.062 533.025 -379.112 520.517L-204.924 394.488C-205.253 394.033 -205.581 393.577 -205.907 393.12L-380.911 518.015C-389.845 505.496 -398.188 492.518 -405.897 479.124L-219.561 371.869C-219.841 371.383 -220.119 370.896 -220.396 370.408L-407.427 476.447C-415.004 463.083 -421.953 449.31 -428.234 435.17L-231.744 347.896C-231.872 347.608 -231.999 347.32 -232.126 347.031C-232.225 346.807 -232.323 346.582 -232.421 346.357L-429.477 432.346C-435.613 418.285 -441.09 403.864 -445.868 389.125L-241.349 322.818C-241.522 322.285 -241.693 321.751 -241.862 321.216L-446.811 386.185C-451.44 371.583 -455.385 356.672 -458.607 341.491L-248.293 296.849C-248.41 296.299 -248.525 295.747 -248.638 295.196L-459.239 338.464C-462.317 323.486 -464.692 308.248 -466.328 292.788L-252.522 270.157C-252.582 269.593 -252.64 269.029 -252.696 268.464L-466.643 289.714C-468.152 274.526 -468.948 259.127 -468.998 243.55L-253.999 242.866C-253.999 242.738 -253.999 242.61 -254 242.482C-254 242.322 -254 242.161 -254 242C-254 241.711 -254 241.422 -253.999 241.134L-468.998 240.45C-468.948 224.873 -468.152 209.474 -466.643 194.286L-252.696 215.536C-252.64 214.971 -252.582 214.407 -252.522 213.843L-466.328 191.212C-464.692 175.752 -462.317 160.514 -459.239 145.536L-248.638 188.804C-248.525 188.253 -248.41 187.702 -248.293 187.151L-458.607 142.509C-455.385 127.328 -451.44 112.417 -446.811 97.815L-241.862 162.784C-241.693 162.249 -241.522 161.715 -241.349 161.182L-445.868 94.8747C-441.09 80.1357 -435.613 65.7153 -429.477 51.6536L-232.421 137.643C-232.197 137.129 -231.971 136.616 -231.744 136.104L-428.234 48.8303C-421.953 34.6897 -415.004 20.9169 -407.427 7.55269L-220.396 113.592C-220.119 113.104 -219.841 112.617 -219.561 112.131L-405.897 4.87581C-398.188 -8.51819 -389.845 -21.4955 -380.911 -34.0146L-205.907 90.8804C-205.581 90.4231 -205.253 89.9669 -204.924 89.5118L-379.112 -36.5174C-370.062 -49.0254 -360.419 -61.0685 -350.223 -72.6047L-189.123 69.7745C-188.751 69.3535 -188.378 68.9338 -188.003 68.5153L-348.175 -74.9074C-337.886 -86.3983 -327.045 -97.3773 -315.695 -107.802L-170.257 50.5423C-169.844 50.1629 -169.43 49.7849 -169.015 49.4084L-313.418 -109.88C-302.001 -120.23 -290.079 -130.022 -277.691 -139.215L-149.559 33.432C-149.111 33.0994 -148.662 32.7682 -148.211 32.4385L-275.21 -141.044C-262.79 -150.136 -249.91 -158.629 -236.613 -166.481L-127.3 18.6559C-126.822 18.3737 -126.343 18.093 -125.863 17.814L-233.954 -168.039C-220.664 -175.768 -206.964 -182.859 -192.894 -189.27L-103.748 6.37762C-103.441 6.23773 -103.133 6.09845 -102.826 5.95979C-102.63 5.87157 -102.434 5.78358 -102.238 5.69585L-190.083 -190.539C-176.072 -196.812 -161.699 -202.412 -147.004 -207.299L-79.1493 -3.28766C-78.627 -3.46138 -78.104 -3.63339 -77.5802 -3.80373L-144.072 -208.263C-129.498 -213.003 -114.613 -217.043 -99.4548 -220.344L-53.7077 -10.2671C-53.1691 -10.3844 -52.6297 -10.5 -52.0896 -10.6139L-96.4328 -220.991C-81.4664 -224.146 -66.2379 -226.581 -50.7846 -228.259L-27.5739 -14.5157C-27.0216 -14.5757 -26.4685 -14.6339 -25.9148 -14.6903L-47.7084 -228.583C-32.5244 -230.13 -17.1265 -230.947 -1.5498 -230.997L-0.848389 -15.9986C-0.565796 -15.9995 -0.28299 -16 0 -16C0.28299 -16 0.565765 -15.9995 0.848358 -15.9986L1.54977 -230.997C17.1265 -230.947 32.5244 -230.13 47.7084 -228.583L25.9148 -14.6903C26.4685 -14.6339 27.0216 -14.5757 27.5739 -14.5157L50.7847 -228.259C66.238 -226.581 81.4664 -224.146 96.4329 -220.991L52.0895 -10.6139C52.6296 -10.5 53.1691 -10.3844 53.7078 -10.2671L99.4548 -220.344C114.613 -217.043 129.498 -213.003 144.072 -208.263L77.5803 -3.80373C78.104 -3.63339 78.627 -3.46138 79.1493 -3.28766L147.004 -207.299C161.699 -202.412 176.072 -196.812 190.083 -190.539L102.238 5.69585C102.742 5.92145 103.245 6.14871 103.748 6.37762L192.894 -189.27C206.964 -182.859 220.664 -175.768 233.954 -168.039L125.863 17.814C126.343 18.093 126.822 18.3737 127.3 18.6559L236.613 -166.481C249.911 -158.629 262.79 -150.136 275.21 -141.044L148.211 32.4384C148.662 32.7682 149.111 33.0993 149.559 33.432L277.691 -139.215C290.078 -130.022 302.001 -120.23 313.418 -109.88L169.015 49.4083C169.43 49.7849 169.844 50.1629 170.257 50.5423L315.695 -107.802C327.045 -97.3773 337.885 -86.3983 348.175 -74.9074L188.003 68.5153C188.378 68.9338 188.751 69.3535 189.123 69.7745L350.223 -72.6047C360.419 -61.0686 370.062 -49.0254 379.112 -36.5174L204.924 89.5118C205.063 89.7036 205.201 89.8957 205.339 90.0879C205.529 90.3517 205.718 90.6158 205.907 90.8804L380.911 -34.0146C389.845 -21.4956 398.188 -8.5182 405.897 4.87579L219.561 112.131C219.841 112.617 220.119 113.104 220.396 113.592L407.427 7.55264C415.004 20.9168 421.953 34.6896 428.234 48.8302L231.744 136.104C231.835 136.309 231.925 136.514 232.016 136.719C232.151 137.026 232.287 137.334 232.421 137.643L429.477 51.6535C435.613 65.7153 441.09 80.1356 445.868 94.8747L241.349 161.182C241.522 161.715 241.693 162.249 241.862 162.784L446.811 97.815C451.44 112.417 455.385 127.328 458.607 142.509L248.293 187.151C248.41 187.701 248.525 188.253 248.638 188.804L459.239 145.536C462.317 160.514 464.692 175.752 466.328 191.212L252.522 213.843C252.582 214.407 252.64 214.971 252.696 215.536L466.643 194.286Z" stroke="#2B2B2B" stroke-width="430" stroke-dasharray="3 45"/>
<path d="M971.517 99.6779L922.288 73.6841L731.085 132.386L800.119 356.812L1029 286.543L971.517 99.6779Z" fill="#F3BE44"/>
<path d="M933.553 110.306L922.288 73.6841L971.228 98.7389L933.553 110.306Z" fill="url(#paint12_linear_219_1050)"/>
<path d="M1234.16 279.602L1209.42 229.762L1019.94 165.729L944.64 388.134L1171.46 464.784L1234.16 279.602Z" fill="#FF4177"/>
<path d="M1197.14 266.055L1209.42 229.763L1234.47 278.672L1197.14 266.055Z" fill="url(#paint13_linear_219_1050)"/>
<circle cx="1235.05" cy="423" r="12.4519" transform="rotate(16.998 1235.05 423)" fill="#2B2B2B"/>
<circle cx="1276.56" cy="435.452" r="12.4519" transform="rotate(16.998 1276.56 435.452)" fill="#2B2B2B"/>
<circle cx="1193.55" cy="410.548" r="12.4519" transform="rotate(16.998 1193.55 410.548)" fill="#2B2B2B"/>
<path d="M565.906 78.6114L553.729 75.4746L532.003 159.815L544.18 162.952L565.906 78.6114Z" fill="url(#paint14_linear_219_1050)"/>
<path d="M559.073 86.5734C571.54 88.8425 583.487 80.5751 585.756 68.1076C588.025 55.6401 579.758 43.6937 567.29 41.4246C554.822 39.1554 542.876 47.4228 540.607 59.8903C538.338 72.3578 546.605 84.3043 559.073 86.5734Z" fill="url(#paint15_radial_219_1050)"/>
<path d="M617.208 91.8291L605.031 88.6924L583.305 173.033L595.482 176.169L617.208 91.8291Z" fill="url(#paint16_linear_219_1050)"/>
<path d="M610.374 99.7877C622.841 102.057 634.787 93.7895 637.057 81.322C639.326 68.8545 631.058 56.908 618.591 54.6389C606.123 52.3698 594.177 60.6372 591.908 73.1047C589.639 85.5722 597.906 97.5186 610.374 99.7877Z" fill="url(#paint17_radial_219_1050)"/>
<path d="M668.512 105.036L656.335 101.899L634.61 186.24L646.787 189.376L668.512 105.036Z" fill="url(#paint18_linear_219_1050)"/>
<path d="M661.674 113.003C674.142 115.272 686.088 107.004 688.357 94.5368C690.627 82.0693 682.359 70.1229 669.892 67.8537C657.424 65.5846 645.478 73.852 643.209 86.3195C640.939 98.787 649.207 110.733 661.674 113.003Z" fill="url(#paint19_radial_219_1050)"/>
<path d="M400.729 965.137C389.909 962.167 391.364 962.546 380.45 959.911C430.368 752.74 493.12 547.348 543.04 340.166C560.459 344.359 545.907 345.407 563.182 350.143C506.79 555.646 457.123 759.622 400.731 965.126L400.729 965.137Z" fill="url(#paint20_linear_219_1050)"/>
<path d="M719.84 218.64L690.223 236.105L656.229 178.532L710.29 192.454C714.146 200.82 717.337 209.588 719.829 218.638L719.84 218.64Z" fill="url(#paint21_linear_219_1050)"/>
<path d="M642.88 175.091L585.296 209.083L551.315 151.5L642.88 175.091Z" fill="url(#paint22_linear_219_1050)"/>
<path d="M722.044 306.303L663.198 341.043L624.253 275.064L690.232 236.118L724.312 293.844C723.704 297.997 722.949 302.147 722.042 306.314L722.044 306.303Z" fill="url(#paint23_linear_219_1050)"/>
<path d="M537.945 148.055L480.371 182.049L462.893 152.441C469.438 145.718 476.466 139.595 483.884 134.133L537.945 148.055Z" fill="url(#paint24_linear_219_1050)"/>
<path d="M585.307 209.082L519.324 248.034L558.276 314.016L624.258 275.064L585.307 209.082Z" fill="url(#paint25_linear_219_1050)"/>
<path d="M687.152 381.62C670.7 402.789 650.07 419.548 627.142 430.692L597.217 380L663.196 341.054L687.15 381.631L687.152 381.62Z" fill="url(#paint26_linear_219_1050)"/>
<path d="M519.317 248.028L453.338 286.973L418.597 228.127C419.817 224.051 421.16 220.043 422.637 216.115L480.373 182.038L519.319 248.017L519.317 248.028Z" fill="url(#paint27_linear_219_1050)"/>
<path d="M558.275 314.003L492.293 352.955L531.244 418.937L597.227 379.985L558.275 314.003Z" fill="url(#paint28_linear_219_1050)"/>
<path d="M492.281 352.964L441.589 382.889C426.903 362.056 416.934 337.42 412.761 310.927L453.338 286.974L492.283 352.953L492.281 352.964Z" fill="url(#paint29_linear_219_1050)"/>
<path d="M724.314 293.833L690.234 236.107L719.851 218.642C726.372 242.23 728.135 267.84 724.325 293.835L724.314 293.833ZM656.24 178.534L642.88 175.09L585.307 209.084L624.253 275.064L690.232 236.118L656.238 178.545L656.24 178.534ZM722.043 306.314L663.198 341.043L687.152 381.62C702.16 362.325 713.694 339.374 720.297 313.717C720.93 311.24 721.513 308.787 722.043 306.314V306.314ZM551.315 151.5L537.955 148.057L480.382 182.051L519.328 248.03L585.307 209.084L551.313 151.511L551.315 151.5ZM624.253 275.064L558.273 314.009L597.219 379.989L663.198 341.043L624.253 275.064ZM462.893 152.441C445.778 169.942 431.847 191.502 422.635 216.127L480.371 182.049L462.893 152.441V152.441ZM519.317 248.028L453.337 286.974L492.283 352.953L558.262 314.007L519.317 248.028V248.028ZM597.219 379.989L531.24 418.934L546.842 445.358C574.676 448.183 602.261 442.754 627.155 430.683L597.23 379.991L597.219 379.989ZM418.595 228.138C417.86 230.552 417.176 232.997 416.544 235.475C409.93 261.13 408.943 286.796 412.759 310.938L453.335 286.985L418.595 228.138V228.138ZM492.281 352.964L441.589 382.889C457.546 405.488 479.079 423.564 504.803 434.545L531.227 418.943L492.281 352.964V352.964Z" fill="url(#paint30_linear_219_1050)"/>
<path d="M546.84 445.369C539.704 444.65 532.555 443.383 525.418 441.55C518.281 439.716 511.409 437.363 504.814 434.548L531.238 418.946L546.84 445.369Z" fill="url(#paint31_linear_219_1050)"/>
</g>
<defs>
<filter id="filter0_df_219_1050" x="895" y="-497" width="1510" height="1501" filterUnits="userSpaceOnUse" color-interpolation-filters="sRGB">
<feFlood flood-opacity="0" result="BackgroundImageFix"/>
<feColorMatrix in="SourceAlpha" type="matrix" values="0 0 0 0 0 0 0 0 0 0 0 0 0 0 0 0 0 0 127 0" result="hardAlpha"/>
<feOffset dy="4"/>
<feGaussianBlur stdDeviation="2"/>
<feComposite in2="hardAlpha" operator="out"/>
<feColorMatrix type="matrix" values="0 0 0 0 0 0 0 0 0 0 0 0 0 0 0 0 0 0 0.25 0"/>
<feBlend mode="normal" in2="BackgroundImageFix" result="effect1_dropShadow_219_1050"/>
<feBlend mode="normal" in="SourceGraphic" in2="effect1_dropShadow_219_1050" result="shape"/>
<feGaussianBlur stdDeviation="192" result="effect2_foregroundBlur_219_1050"/>
</filter>
<filter id="filter1_f_219_1050" x="187" y="0" width="847" height="837" filterUnits="userSpaceOnUse" color-interpolation-filters="sRGB">
<feFlood flood-opacity="0" result="BackgroundImageFix"/>
<feBlend mode="normal" in="SourceGraphic" in2="BackgroundImageFix" result="shape"/>
<feGaussianBlur stdDeviation="49.5" result="effect1_foregroundBlur_219_1050"/>
</filter>
<filter id="filter2_f_219_1050" x="-351" y="-220" width="920" height="912" filterUnits="userSpaceOnUse" color-interpolation-filters="sRGB">
<feFlood flood-opacity="0" result="BackgroundImageFix"/>
<feBlend mode="normal" in="SourceGraphic" in2="BackgroundImageFix" result="shape"/>
<feGaussianBlur stdDeviation="57" result="effect1_foregroundBlur_219_1050"/>
</filter>
<linearGradient id="paint0_linear_219_1050" x1="424.2" y1="409.13" x2="1864.58" y2="124.038" gradientUnits="userSpaceOnUse">
<stop offset="0.29241" stop-color="#EFEFEF"/>
<stop offset="1" stop-color="#F5E1F1"/>
</linearGradient>
<linearGradient id="paint1_linear_219_1050" x1="1126.18" y1="260.912" x2="1329.97" y2="258.755" gradientUnits="userSpaceOnUse">
<stop offset="0.25" stop-color="#59EFEA"/>
<stop offset="0.68" stop-color="#585DFC"/>
</linearGradient>
<linearGradient id="paint2_linear_219_1050" x1="2104.68" y1="163.319" x2="1667.83" y2="257.746" gradientUnits="userSpaceOnUse">
<stop offset="0.25" stop-color="#59EFEA"/>
<stop offset="0.68" stop-color="#585DFC"/>
</linearGradient>
<linearGradient id="paint3_linear_219_1050" x1="1887.11" y1="64.721" x2="1705.02" y2="334.469" gradientUnits="userSpaceOnUse">
<stop offset="0.25" stop-color="#59EFEA"/>
<stop offset="0.68" stop-color="#585DFC"/>
</linearGradient>
<linearGradient id="paint4_linear_219_1050" x1="1425.36" y1="63.0746" x2="1449.43" y2="437.923" gradientUnits="userSpaceOnUse">
<stop offset="0.25" stop-color="#59EFEA"/>
<stop offset="0.68" stop-color="#585DFC"/>
</linearGradient>
<radialGradient id="paint5_radial_219_1050" cx="0" cy="0" r="1" gradientUnits="userSpaceOnUse" gradientTransform="translate(1499.19 421.633) rotate(-0.605417) scale(170.118 260.033)">
<stop stop-color="#59EFEA"/>
<stop offset="1" stop-color="#585DFC"/>
</radialGradient>
<radialGradient id="paint6_radial_219_1050" cx="0" cy="0" r="1" gradientUnits="userSpaceOnUse" gradientTransform="translate(1789.85 375.616) rotate(-0.605418) scale(186.021 284.34)">
<stop stop-color="#59EFEA"/>
<stop offset="1" stop-color="#585DFC"/>
</radialGradient>
<radialGradient id="paint7_radial_219_1050" cx="0" cy="0" r="1" gradientUnits="userSpaceOnUse" gradientTransform="translate(1552.78 89.0521) rotate(-0.605416) scale(154.686 236.444)">
<stop stop-color="#59EFEA"/>
<stop offset="1" stop-color="#585DFC"/>
</radialGradient>
<linearGradient id="paint8_linear_219_1050" x1="1722.97" y1="120.315" x2="1613.99" y2="453.004" gradientUnits="userSpaceOnUse">
<stop stop-color="#59EFEA"/>
<stop offset="1" stop-color="#FFF0B3"/>
</linearGradient>
<linearGradient id="paint9_linear_219_1050" x1="1789.53" y1="84.8771" x2="1544.64" y2="342.675" gradientUnits="userSpaceOnUse">
<stop offset="0.25" stop-color="#59EFEA"/>
<stop offset="0.68" stop-color="#585DFC"/>
</linearGradient>
<linearGradient id="paint10_linear_219_1050" x1="1534.24" y1="532.214" x2="1628.93" y2="190.694" gradientUnits="userSpaceOnUse">
<stop offset="0.25" stop-color="#59EFEA"/>
<stop offset="0.68" stop-color="#585DFC"/>
</linearGradient>
<linearGradient id="paint11_linear_219_1050" x1="1069.66" y1="59.4312" x2="1174.39" y2="111.014" gradientUnits="userSpaceOnUse">
<stop stop-color="#FD6D67"/>
<stop offset="0.89" stop-color="#FC95E8"/>
</linearGradient>
<linearGradient id="paint12_linear_219_1050" x1="950.746" y1="82.4181" x2="936.748" y2="110.417" gradientUnits="userSpaceOnUse">
<stop offset="0.1505" stop-color="#585DFC"/>
<stop offset="0.934404" stop-color="#2B2B2B"/>
</linearGradient>
<linearGradient id="paint13_linear_219_1050" x1="1227.4" y1="253.468" x2="1199.66" y2="268.011" gradientUnits="userSpaceOnUse">
<stop offset="0.1505" stop-color="#585DFC"/>
<stop offset="0.934404" stop-color="#2B2B2B"/>
</linearGradient>
<linearGradient id="paint14_linear_219_1050" x1="530.926" y1="188.916" x2="571.895" y2="30.8594" gradientUnits="userSpaceOnUse">
<stop stop-color="#FFCB8A"/>
<stop offset="1" stop-color="#FD4433"/>
</linearGradient>
<radialGradient id="paint15_radial_219_1050" cx="0" cy="0" r="1" gradientUnits="userSpaceOnUse" gradientTransform="translate(570.923 48.2198) rotate(32.4652) scale(36.9966 36.9966)">
<stop stop-color="#FFCB8A"/>
<stop offset="1" stop-color="#FD4433"/>
</radialGradient>
<linearGradient id="paint16_linear_219_1050" x1="582.224" y1="202.208" x2="623.178" y2="44.1547" gradientUnits="userSpaceOnUse">
<stop stop-color="#FFCB8A"/>
<stop offset="1" stop-color="#FD4433"/>
</linearGradient>
<radialGradient id="paint17_radial_219_1050" cx="0" cy="0" r="1" gradientUnits="userSpaceOnUse" gradientTransform="translate(620.204 59.2324) rotate(32.4651) scale(37.7461 37.7461)">
<stop stop-color="#FFCB8A"/>
<stop offset="1" stop-color="#FD4433"/>
</radialGradient>
<linearGradient id="paint18_linear_219_1050" x1="633.509" y1="215.493" x2="674.463" y2="57.4391" gradientUnits="userSpaceOnUse">
<stop stop-color="#FFCB8A"/>
<stop offset="1" stop-color="#FD4433"/>
</linearGradient>
<radialGradient id="paint19_radial_219_1050" cx="0" cy="0" r="1" gradientUnits="userSpaceOnUse" gradientTransform="translate(671.202 72.7568) rotate(32.4651) scale(40.0955 40.0955)">
<stop stop-color="#FFCB8A"/>
<stop offset="1" stop-color="#FD4433"/>
</radialGradient>
<linearGradient id="paint20_linear_219_1050" x1="379.963" y1="596.695" x2="561.73" y2="712.338" gradientUnits="userSpaceOnUse">
<stop offset="0.15" stop-color="#59EFEA"/>
<stop offset="0.68" stop-color="#585DFC"/>
</linearGradient>
<linearGradient id="paint21_linear_219_1050" x1="651.713" y1="203.409" x2="720.339" y2="215.899" gradientUnits="userSpaceOnUse">
<stop stop-color="#585DFC"/>
<stop offset="0.19" stop-color="#575CF8"/>
<stop offset="0.33" stop-color="#5559EF"/>
<stop offset="0.46" stop-color="#5156DE"/>
<stop offset="0.58" stop-color="#4C50C7"/>
<stop offset="0.69" stop-color="#4649AA"/>
<stop offset="0.8" stop-color="#3E4085"/>
<stop offset="0.9" stop-color="#35365B"/>
<stop offset="1" stop-color="#2B2B2B"/>
</linearGradient>
<linearGradient id="paint22_linear_219_1050" x1="546.788" y1="176.375" x2="639.573" y2="193.263" gradientUnits="userSpaceOnUse">
<stop stop-color="#585DFC"/>
<stop offset="0.19" stop-color="#575CF8"/>
<stop offset="0.33" stop-color="#5559EF"/>
<stop offset="0.46" stop-color="#5156DE"/>
<stop offset="0.58" stop-color="#4C50C7"/>
<stop offset="0.69" stop-color="#4649AA"/>
<stop offset="0.8" stop-color="#3E4085"/>
<stop offset="0.9" stop-color="#35365B"/>
<stop offset="1" stop-color="#2B2B2B"/>
</linearGradient>
<linearGradient id="paint23_linear_219_1050" x1="623.554" y1="278.905" x2="723.823" y2="297.155" gradientUnits="userSpaceOnUse">
<stop stop-color="#585DFC"/>
<stop offset="0.19" stop-color="#575CF8"/>
<stop offset="0.33" stop-color="#5559EF"/>
<stop offset="0.46" stop-color="#5156DE"/>
<stop offset="0.58" stop-color="#4C50C7"/>
<stop offset="0.69" stop-color="#4649AA"/>
<stop offset="0.8" stop-color="#3E4085"/>
<stop offset="0.9" stop-color="#35365B"/>
<stop offset="1" stop-color="#2B2B2B"/>
</linearGradient>
<linearGradient id="paint24_linear_219_1050" x1="462.514" y1="154.521" x2="534.387" y2="167.603" gradientUnits="userSpaceOnUse">
<stop stop-color="#585DFC"/>
<stop offset="0.19" stop-color="#575CF8"/>
<stop offset="0.33" stop-color="#5559EF"/>
<stop offset="0.46" stop-color="#5156DE"/>
<stop offset="0.58" stop-color="#4C50C7"/>
<stop offset="0.69" stop-color="#4649AA"/>
<stop offset="0.8" stop-color="#3E4085"/>
<stop offset="0.9" stop-color="#35365B"/>
<stop offset="1" stop-color="#2B2B2B"/>
</linearGradient>
<linearGradient id="paint25_linear_219_1050" x1="518.621" y1="251.87" x2="624.956" y2="271.224" gradientUnits="userSpaceOnUse">
<stop stop-color="#585DFC"/>
<stop offset="0.19" stop-color="#575CF8"/>
<stop offset="0.33" stop-color="#5559EF"/>
<stop offset="0.46" stop-color="#5156DE"/>
<stop offset="0.58" stop-color="#4C50C7"/>
<stop offset="0.69" stop-color="#4649AA"/>
<stop offset="0.8" stop-color="#3E4085"/>
<stop offset="0.9" stop-color="#35365B"/>
<stop offset="1" stop-color="#2B2B2B"/>
</linearGradient>
<linearGradient id="paint26_linear_219_1050" x1="597.722" y1="377.226" x2="685.059" y2="393.122" gradientUnits="userSpaceOnUse">
<stop stop-color="#585DFC"/>
<stop offset="0.19" stop-color="#575CF8"/>
<stop offset="0.33" stop-color="#5559EF"/>
<stop offset="0.46" stop-color="#5156DE"/>
<stop offset="0.58" stop-color="#4C50C7"/>
<stop offset="0.69" stop-color="#4649AA"/>
<stop offset="0.8" stop-color="#3E4085"/>
<stop offset="0.9" stop-color="#35365B"/>
<stop offset="1" stop-color="#2B2B2B"/>
</linearGradient>
<linearGradient id="paint27_linear_219_1050" x1="419.02" y1="225.805" x2="520.016" y2="244.187" gradientUnits="userSpaceOnUse">
<stop stop-color="#585DFC"/>
<stop offset="0.19" stop-color="#575CF8"/>
<stop offset="0.33" stop-color="#5559EF"/>
<stop offset="0.46" stop-color="#5156DE"/>
<stop offset="0.58" stop-color="#4C50C7"/>
<stop offset="0.69" stop-color="#4649AA"/>
<stop offset="0.8" stop-color="#3E4085"/>
<stop offset="0.9" stop-color="#35365B"/>
<stop offset="1" stop-color="#2B2B2B"/>
</linearGradient>
<linearGradient id="paint28_linear_219_1050" x1="491.593" y1="356.791" x2="597.927" y2="376.145" gradientUnits="userSpaceOnUse">
<stop stop-color="#585DFC"/>
<stop offset="0.19" stop-color="#575CF8"/>
<stop offset="0.33" stop-color="#5559EF"/>
<stop offset="0.46" stop-color="#5156DE"/>
<stop offset="0.58" stop-color="#4C50C7"/>
<stop offset="0.69" stop-color="#4649AA"/>
<stop offset="0.8" stop-color="#3E4085"/>
<stop offset="0.9" stop-color="#35365B"/>
<stop offset="1" stop-color="#2B2B2B"/>
</linearGradient>
<linearGradient id="paint29_linear_219_1050" x1="409.644" y1="328.053" x2="494.02" y2="343.41" gradientUnits="userSpaceOnUse">
<stop stop-color="#585DFC"/>
<stop offset="0.19" stop-color="#575CF8"/>
<stop offset="0.33" stop-color="#5559EF"/>
<stop offset="0.46" stop-color="#5156DE"/>
<stop offset="0.58" stop-color="#4C50C7"/>
<stop offset="0.69" stop-color="#4649AA"/>
<stop offset="0.8" stop-color="#3E4085"/>
<stop offset="0.9" stop-color="#35365B"/>
<stop offset="1" stop-color="#2B2B2B"/>
</linearGradient>
<linearGradient id="paint30_linear_219_1050" x1="380.189" y1="264.566" x2="730.656" y2="334.297" gradientUnits="userSpaceOnUse">
<stop stop-color="#FF60F5"/>
<stop offset="1" stop-color="#FF2B24"/>
</linearGradient>
<linearGradient id="paint31_linear_219_1050" x1="506.293" y1="426.425" x2="548.877" y2="434.175" gradientUnits="userSpaceOnUse">
<stop stop-color="#585DFC"/>
<stop offset="0.19" stop-color="#575CF8"/>
<stop offset="0.33" stop-color="#5559EF"/>
<stop offset="0.46" stop-color="#5156DE"/>
<stop offset="0.58" stop-color="#4C50C7"/>
<stop offset="0.69" stop-color="#4649AA"/>
<stop offset="0.8" stop-color="#3E4085"/>
<stop offset="0.9" stop-color="#35365B"/>
<stop offset="1" stop-color="#2B2B2B"/>
</linearGradient>
<clipPath id="clip0_219_1050">
<rect width="1728" height="511" fill="white"/>
</clipPath>
</defs>
</svg>
