<svg width="250" height="180" viewBox="0 0 250 180" fill="none" xmlns="http://www.w3.org/2000/svg">
<rect x="0.754167" y="0.754167" width="248.492" height="178.492" rx="5.27917" fill="white"/>
<path d="M125 47.7667C101.676 47.7667 82.7666 66.6741 82.7666 90C82.7666 113.326 101.676 132.233 125 132.233C148.324 132.233 167.233 113.324 167.233 90C167.233 66.6759 148.324 47.7667 125 47.7667Z" fill="#2B2B2B"/>
<path d="M105.895 83.3692C108.591 83.3692 110.776 81.1842 110.776 78.4889C110.776 75.7936 108.591 73.6086 105.895 73.6086C103.2 73.6086 101.015 75.7936 101.015 78.4889C101.015 81.1842 103.2 83.3692 105.895 83.3692Z" fill="white"/>
<path d="M105.895 96.6284C103.142 96.6284 101.015 98.6932 101.015 101.509C101.015 104.324 103.142 106.389 105.895 106.389C108.711 106.389 110.776 104.324 110.776 101.509C110.776 98.6932 108.711 96.6284 105.895 96.6284Z" fill="white"/>
<path d="M129.001 68.4944H116.726V111.509H129.001C138.559 111.509 145.707 106.861 148.622 98.7579C149.561 96.1301 150.032 93.1906 150.032 90.0034C150.049 87.0711 149.592 84.1554 148.678 81.369C145.767 73.1852 138.595 68.4944 129.001 68.4944ZM142.747 96.6631C140.682 102.482 135.896 105.825 129.608 105.825H122.648V74.1781H129.606C135.836 74.1781 140.626 77.4761 142.745 83.2273C143.496 85.2526 143.858 87.4694 143.858 90.0034C143.858 92.5374 143.488 94.7748 142.747 96.6631Z" fill="white"/>
<rect x="0.754167" y="0.754167" width="248.492" height="178.492" rx="5.27917" stroke="#EEECEA" stroke-width="1.50833"/>
</svg>
