<svg width="165" height="100" viewBox="0 0 165 100" fill="none" xmlns="http://www.w3.org/2000/svg">
<rect x="0.5" y="0.5" width="164" height="99" rx="3.5" fill="white"/>
<path d="M35.906 32.5655C34.7761 31.917 32.9283 31.917 31.7983 32.5655L14.5545 42.4574C13.4232 43.106 12.5 44.6969 12.5 45.9927V65.7791C12.5 67.0749 13.4232 68.6658 14.5545 69.3144L31.7983 79.2076C32.9283 79.8549 34.7761 79.8549 35.906 79.2076L53.1499 69.3144C54.2798 68.6658 55.203 67.0749 55.203 65.7791V45.994C55.203 44.6969 54.2798 43.106 53.1499 42.4588L35.906 32.5655Z" fill="#87F96E"/>
<path d="M63.0907 49.6619C63.0911 49.5207 63.1473 49.3853 63.2472 49.2854C63.3471 49.1855 63.4825 49.1293 63.6237 49.1289H73.5101C73.6514 49.1293 73.7868 49.1855 73.8866 49.2854C73.9865 49.3853 74.0428 49.5207 74.0432 49.6619V50.7497C74.0428 50.8908 73.9865 51.026 73.8866 51.1257C73.7866 51.2254 73.6513 51.2813 73.5101 51.2813H65.9243C65.7831 51.2817 65.6477 51.338 65.5478 51.4378C65.448 51.5377 65.3917 51.6731 65.3913 51.8143V55.8064C65.3917 55.9477 65.448 56.083 65.5478 56.1829C65.6477 56.2828 65.7831 56.3391 65.9243 56.3394H72.9119C73.0528 56.3398 73.1878 56.3959 73.2874 56.4955C73.387 56.5952 73.4432 56.7302 73.4435 56.8711V57.9589C73.4432 58.0999 73.3871 58.235 73.2875 58.3349C73.1879 58.4347 73.0529 58.4911 72.9119 58.4919H65.9243C65.7832 58.4919 65.6478 58.5478 65.5479 58.6475C65.448 58.7472 65.3917 58.8824 65.3913 59.0235V63.399C65.3917 63.5403 65.448 63.6757 65.5478 63.7755C65.6477 63.8754 65.7831 63.9317 65.9243 63.9321H73.9466C74.0875 63.9324 74.2225 63.9885 74.3221 64.0882C74.4218 64.1878 74.4779 64.3228 74.4783 64.4637V65.5515C74.4779 65.6925 74.4218 65.8276 74.3222 65.9275C74.2226 66.0273 74.0876 66.0838 73.9466 66.0845H63.6237C63.4825 66.0841 63.3471 66.0278 63.2472 65.928C63.1473 65.8281 63.0911 65.6927 63.0907 65.5515V49.6619Z" fill="#062F4F"/>
<path d="M82.3116 56.0739C82.3112 56.2152 82.2549 56.3506 82.155 56.4504C82.0552 56.5503 81.9198 56.6066 81.7785 56.6069H79.7512C79.6103 56.6073 79.4753 56.6634 79.3757 56.7631C79.2761 56.8627 79.2199 56.9977 79.2196 57.1386V61.2259C79.2196 61.5182 79.2196 61.9982 79.2196 62.2905C79.2196 62.2905 79.2196 62.3939 79.2373 62.6984C79.2472 62.9865 79.308 63.2705 79.4167 63.5374C79.5154 63.7791 79.6816 63.9872 79.8954 64.137C80.1115 64.2879 80.4256 64.3641 80.8471 64.3641C81.1121 64.363 81.3764 64.3389 81.6371 64.292L81.9091 64.2444C82.1688 64.1248 82.3795 64.2675 82.3795 64.5612V65.46C82.3716 65.616 82.3216 65.7669 82.235 65.8969C82.1483 66.0268 82.0282 66.131 81.8873 66.1983C81.7236 66.2464 81.5556 66.2783 81.3856 66.2935C81.0704 66.3418 80.7525 66.3699 80.4338 66.3778C79.6026 66.3778 78.9594 66.2618 78.5044 66.0297C78.0886 65.834 77.7386 65.5217 77.4968 65.131C77.2787 64.7532 77.1481 64.3313 77.1147 63.8963C77.074 63.4422 77.0658 63.052 77.0658 63.052C77.0658 62.7583 77.0536 62.2796 77.0536 61.986V57.1318C77.0532 56.9909 76.9971 56.8559 76.8974 56.7563C76.7978 56.6566 76.6628 56.6005 76.5219 56.6001H75.0942C74.9531 56.5994 74.8179 56.543 74.7181 56.4432C74.6183 56.3434 74.5619 56.2083 74.5612 56.0671V55.2622C74.5619 55.1211 74.6183 54.9859 74.7181 54.8861C74.8179 54.7863 74.9531 54.7299 75.0942 54.7292H76.5219C76.6628 54.7288 76.7978 54.6727 76.8974 54.5731C76.9971 54.4735 77.0532 54.3384 77.0536 54.1975V52.0818C77.0539 51.9406 77.1102 51.8052 77.2101 51.7053C77.3099 51.6055 77.4453 51.5492 77.5866 51.5488H78.6743C78.8156 51.5492 78.9509 51.6055 79.0508 51.7053C79.1507 51.8052 79.207 51.9406 79.2073 52.0818V54.2043C79.2077 54.3452 79.2638 54.4802 79.3635 54.5799C79.4631 54.6795 79.5981 54.7356 79.739 54.736H81.7663C81.9076 54.7363 82.0429 54.7926 82.1428 54.8925C82.2427 54.9924 82.299 55.1277 82.2993 55.269L82.3116 56.0739Z" fill="#062F4F"/>
<path d="M84.1321 48.5125C84.1325 48.3712 84.1888 48.2359 84.2887 48.136C84.3885 48.0361 84.5239 47.9799 84.6652 47.9795H85.7529C85.8939 47.9802 86.0289 48.0366 86.1285 48.1365C86.2281 48.2363 86.2842 48.3715 86.2846 48.5125V55.9542C86.2764 56.1322 86.2846 56.3106 86.309 56.4872C86.4264 56.3479 86.534 56.2007 86.6313 56.0466C86.9284 55.63 87.3079 55.2787 87.7462 55.0146C88.4591 54.6278 89.2605 54.4333 90.0714 54.4503C90.6045 54.449 91.1344 54.534 91.6405 54.7019C92.1318 54.8621 92.582 55.128 92.9594 55.481C93.3543 55.8634 93.6611 56.3275 93.8581 56.8407C94.0811 57.3914 94.1505 58.263 94.1505 58.263C94.175 58.5539 94.194 59.0326 94.194 59.3263V65.5592C94.1933 65.7005 94.1367 65.8359 94.0366 65.9357C93.9365 66.0356 93.801 66.0918 93.6596 66.0922H92.5719C92.4306 66.0918 92.2952 66.0355 92.1954 65.9357C92.0955 65.8358 92.0392 65.7004 92.0389 65.5592V59.9205C92.0389 59.6268 92.0225 59.1481 91.9994 58.8558C91.9762 58.5751 91.9168 58.2986 91.8227 58.0332C91.7007 57.6907 91.5042 57.3796 91.2475 57.1222C91.0139 56.8943 90.7317 56.7223 90.4222 56.6191C90.109 56.5156 89.7812 56.4632 89.4513 56.4641C89.0261 56.4597 88.6037 56.5325 88.2045 56.6789C87.8202 56.823 87.4754 57.056 87.1983 57.3588C86.893 57.702 86.6641 58.1061 86.5266 58.5444C86.418 58.9261 86.3492 59.318 86.3213 59.7138C86.3022 60.0075 86.2873 60.4861 86.2873 60.7784V65.5592C86.2869 65.7002 86.2308 65.8353 86.1313 65.9352C86.0317 66.035 85.8966 66.0915 85.7556 66.0922H84.6679C84.5266 66.0918 84.3913 66.0355 84.2914 65.9357C84.1915 65.8358 84.1352 65.7004 84.1349 65.5592L84.1321 48.5125Z" fill="#062F4F"/>
<path d="M98.2894 54.7363H97.199C96.9046 54.7363 96.666 54.975 96.666 55.2693V65.5623C96.666 65.8567 96.9046 66.0953 97.199 66.0953H98.2894C98.5838 66.0953 98.8225 65.8567 98.8225 65.5623V55.2693C98.8225 54.975 98.5838 54.7363 98.2894 54.7363Z" fill="#062F4F"/>
<path d="M109.808 57.4001C109.698 57.4945 109.557 57.5464 109.413 57.5464C109.268 57.5464 109.128 57.4945 109.018 57.4001C108.755 57.1699 108.466 56.971 108.157 56.8073C107.665 56.5808 107.129 56.4701 106.588 56.4837C106.054 56.4722 105.525 56.5839 105.042 56.81C104.612 57.0179 104.234 57.3211 103.939 57.6966C103.64 58.0838 103.415 58.5225 103.274 58.991C103.122 59.4839 103.046 59.9968 103.047 60.5125C103.045 61.0228 103.134 61.5294 103.311 62.0082C103.477 62.4632 103.729 62.882 104.053 63.2414C104.375 63.5949 104.766 63.877 105.204 64.0695C105.68 64.2751 106.195 64.3771 106.714 64.3686C107.251 64.3831 107.784 64.2723 108.271 64.045C108.567 63.8875 108.841 63.6928 109.087 63.4658C109.19 63.3672 109.327 63.3129 109.469 63.3144C109.612 63.3159 109.748 63.3732 109.848 63.474L110.629 64.2558C110.678 64.3036 110.717 64.3612 110.742 64.4247C110.768 64.4883 110.78 64.5565 110.778 64.625C110.776 64.6935 110.76 64.7608 110.73 64.8227C110.701 64.8846 110.659 64.9398 110.607 64.9846C110.607 64.9846 109.791 65.7025 109.053 65.9745C108.296 66.2482 107.497 66.3863 106.692 66.3824C105.869 66.3925 105.051 66.2457 104.283 65.95C103.581 65.6785 102.941 65.2668 102.403 64.7399C101.868 64.2093 101.451 63.5724 101.179 62.8703C100.884 62.1021 100.738 61.2849 100.748 60.4622C100.739 59.6356 100.885 58.8146 101.179 58.0419C101.449 57.3347 101.861 56.6902 102.389 56.1479C102.921 55.6128 103.557 55.193 104.259 54.9146C105.033 54.6103 105.859 54.4597 106.691 54.4713C107.507 54.4688 108.316 54.6191 109.076 54.9146C109.833 55.2097 110.651 55.9194 110.651 55.9194C110.702 55.9623 110.744 56.016 110.773 56.0768C110.802 56.1375 110.818 56.2038 110.818 56.2711C110.819 56.3383 110.805 56.405 110.778 56.4663C110.75 56.5277 110.71 56.5824 110.659 56.6265L109.808 57.4001Z" fill="#062F4F"/>
<path d="M113.154 49.6623C113.154 49.521 113.21 49.3857 113.31 49.2858C113.41 49.1859 113.546 49.1296 113.687 49.1293H114.921C115.063 49.13 115.198 49.1864 115.298 49.2862C115.397 49.386 115.454 49.5212 115.454 49.6623V55.645C115.455 55.786 115.512 55.921 115.611 56.0206C115.711 56.1202 115.846 56.1763 115.987 56.1767H123.717C123.859 56.1763 123.994 56.12 124.093 56.0201C124.193 55.9201 124.249 55.7848 124.249 55.6437V49.6609C124.249 49.5197 124.306 49.3843 124.406 49.2844C124.505 49.1846 124.641 49.1283 124.782 49.1279H126.018C126.159 49.1286 126.294 49.1851 126.394 49.2849C126.493 49.3848 126.549 49.5199 126.55 49.6609V65.5586C126.549 65.6997 126.493 65.8348 126.394 65.9347C126.294 66.0345 126.159 66.0909 126.018 66.0917H124.782C124.641 66.0913 124.505 66.035 124.406 65.9351C124.306 65.8353 124.249 65.6999 124.249 65.5586V58.8648C124.249 58.7238 124.193 58.5886 124.093 58.4888C123.993 58.3889 123.858 58.3325 123.717 58.3318H115.987C115.846 58.3322 115.711 58.3884 115.611 58.4883C115.511 58.5882 115.455 58.7236 115.454 58.8648V65.5586C115.454 65.6998 115.397 65.8349 115.298 65.9348C115.198 66.0346 115.063 66.0909 114.921 66.0917H113.687C113.546 66.0913 113.41 66.035 113.31 65.9351C113.21 65.8353 113.154 65.6999 113.154 65.5586V49.6623Z" fill="#062F4F"/>
<path d="M138.508 65.5579C138.508 65.699 138.451 65.8342 138.351 65.934C138.252 66.0338 138.116 66.0902 137.975 66.0909H136.888C136.746 66.0905 136.611 66.0342 136.511 65.9344C136.411 65.8345 136.355 65.6991 136.354 65.5579V64.878C136.363 64.7 136.354 64.5216 136.33 64.345C136.213 64.4851 136.105 64.6327 136.008 64.7869C135.711 65.2042 135.331 65.5556 134.891 65.8189C134.179 66.2047 133.378 66.3987 132.568 66.3818C132.03 66.3858 131.496 66.3008 130.986 66.1303C130.5 65.9679 130.054 65.7021 129.68 65.3512C129.285 64.9711 128.978 64.5093 128.781 63.9983C128.558 63.4462 128.487 62.576 128.487 62.576C128.464 62.2837 128.445 61.8051 128.445 61.5127V55.2689C128.446 55.1279 128.502 54.9929 128.602 54.8933C128.702 54.7937 128.837 54.7377 128.978 54.7373H130.066C130.207 54.7373 130.342 54.7933 130.442 54.8929C130.542 54.9926 130.598 55.1278 130.599 55.2689V60.9145C130.599 61.2068 130.615 61.6854 130.637 61.9778C130.661 62.2584 130.721 62.5349 130.815 62.8004C130.936 63.1432 131.133 63.4545 131.39 63.7114C131.624 63.9395 131.906 64.1116 132.216 64.2145C132.528 64.3192 132.856 64.372 133.186 64.3708C133.612 64.3747 134.034 64.3015 134.433 64.1546C134.817 64.0101 135.162 63.7772 135.439 63.4748C135.745 63.1313 135.974 62.7266 136.111 62.2878C136.22 61.9062 136.288 61.5142 136.315 61.1184C136.334 60.8261 136.35 60.3475 136.35 60.0538V55.2689C136.351 55.1278 136.407 54.9926 136.507 54.8929C136.607 54.7933 136.742 54.7373 136.883 54.7373H137.971C138.112 54.7377 138.247 54.7937 138.347 54.8933C138.447 54.9929 138.503 55.1279 138.504 55.2689L138.508 65.5579Z" fill="#062F4F"/>
<path d="M146.464 64.3721C146.998 64.3805 147.529 64.2782 148.022 64.0716C148.467 63.8852 148.867 63.6072 149.197 63.2558C149.527 62.8956 149.779 62.4718 149.939 62.0103C150.291 60.9771 150.291 59.8564 149.939 58.8232C149.779 58.3615 149.526 57.9372 149.197 57.5763C148.867 57.2253 148.466 56.9474 148.022 56.7605C147.022 56.3616 145.907 56.3616 144.907 56.7605C144.463 56.9474 144.063 57.2253 143.732 57.5763C143.403 57.9372 143.15 58.3615 142.99 58.8232C142.638 59.8564 142.638 60.9771 142.99 62.0103C143.15 62.4718 143.402 62.8956 143.732 63.2558C144.062 63.6072 144.463 63.8852 144.907 64.0716C145.4 64.2783 145.93 64.3807 146.464 64.3721M140.57 48.5125C140.57 48.3715 140.626 48.2363 140.726 48.1365C140.825 48.0366 140.96 47.9802 141.101 47.9795H142.189C142.33 47.9802 142.465 48.0366 142.565 48.1364C142.665 48.2362 142.721 48.3714 142.722 48.5125V55.8345C142.713 56.0126 142.721 56.1911 142.746 56.3675C142.88 56.242 143.005 56.1085 143.122 55.9678C143.495 55.5613 143.935 55.2222 144.423 54.9657C145.141 54.6221 145.928 54.4459 146.724 54.4503C147.541 54.4388 148.353 54.5937 149.109 54.9058C149.797 55.1936 150.417 55.6225 150.929 56.1649C151.441 56.7107 151.836 57.3546 152.092 58.0577C152.369 58.8135 152.507 59.6131 152.5 60.4181C152.508 61.2191 152.369 62.0149 152.092 62.7663C151.832 63.4675 151.437 64.1106 150.929 64.659C150.419 65.2073 149.799 65.6407 149.109 65.9304C148.353 66.242 147.541 66.3965 146.724 66.3845C145.949 66.3828 145.184 66.211 144.483 65.8814C143.977 65.6207 143.519 65.2753 143.13 64.8603C143.01 64.7221 142.882 64.5909 142.746 64.4673C142.721 64.6438 142.713 64.8223 142.722 65.0003V65.5592C142.721 65.7003 142.665 65.8355 142.565 65.9353C142.465 66.0351 142.33 66.0915 142.189 66.0922H141.101C140.96 66.0915 140.825 66.035 140.726 65.9352C140.626 65.8353 140.57 65.7002 140.57 65.5592V48.5125Z" fill="#062F4F"/>
<path d="M99.4533 50.0479C99.4489 49.968 99.4258 49.8901 99.3859 49.8207C99.346 49.7513 99.2904 49.6922 99.2236 49.6481L98.0923 48.9955C98.0208 48.9593 97.9419 48.9404 97.8618 48.9404C97.7817 48.9404 97.7028 48.9593 97.6313 48.9955L96.5014 49.6481C96.4344 49.6921 96.3786 49.7512 96.3384 49.8206C96.2983 49.89 96.2749 49.9679 96.2703 50.0479V51.3532C96.2749 51.4333 96.2983 51.5111 96.3384 51.5805C96.3786 51.6499 96.4344 51.709 96.5014 51.753L97.6313 52.4056C97.703 52.4412 97.7818 52.4597 97.8618 52.4597C97.9418 52.4597 98.0207 52.4412 98.0923 52.4056L99.2236 51.753C99.2904 51.7089 99.346 51.6498 99.3859 51.5804C99.4258 51.511 99.4489 51.4332 99.4533 51.3532V50.0479Z" fill="#87F96E"/>
<path d="M29.9641 54.1956L17.7974 47.1713C17.5726 47.6754 17.4528 48.2199 17.4453 48.7717V63.0922C17.455 63.7818 17.6395 64.4577 17.9814 65.0567C18.3234 65.6557 18.8116 66.1582 19.4005 66.5173L31.9901 73.7863C32.4354 74.0076 32.9174 74.1459 33.4123 74.1942V69.4638C32.8191 69.4074 32.2455 69.2218 31.7317 68.9199L31.7127 68.9104L23.0105 63.8876C22.5673 63.598 22.2165 63.0269 22.2165 62.5741C22.2165 62.1213 22.5673 61.9541 23.0105 62.1771L23.0391 62.1948L23.0744 62.2124L23.1112 62.2342L29.7955 66.0944L31.9805 67.3562C32.4272 67.5818 32.9117 67.7228 33.4096 67.7723V63.0323C32.8437 62.9769 32.2959 62.8022 31.8024 62.5197V62.5197L31.7698 62.5007L31.729 62.4789L31.7168 62.4708L23.084 57.4875C23.0772 57.4875 23.069 57.4793 23.0608 57.4739L23.0377 57.4603L23.0119 57.4453C22.6176 57.1924 22.3035 56.6839 22.3035 56.2828C22.3035 55.8816 22.6176 55.7389 23.0119 55.936L23.0581 55.9646L31.8745 61.054C32.3482 61.3118 32.8688 61.4722 33.4055 61.5258V56.1862L29.9641 54.1956ZM37.1828 51.6217L22.8515 43.3478L19.4522 45.3099C18.9723 45.5946 18.5559 45.9745 18.2284 46.4262L33.8189 55.4289L38.4419 52.7584C38.1046 52.2956 37.6744 51.9084 37.1787 51.6217M35.8462 61.0105L35.9169 60.971L39.2319 59.0593V55.214C39.2319 55.1991 39.2319 55.1841 39.2319 55.1678C39.2318 54.5977 39.1123 54.034 38.8811 53.513L34.2512 56.1862V61.5217C34.8139 61.4638 35.3584 61.2897 35.8503 61.0105M50.2101 48.8125C50.2104 48.2475 50.0932 47.6887 49.8661 47.1713L44.8706 50.058C45.0348 50.4319 45.1416 50.8284 45.1874 51.2342L45.2146 51.2872V51.6149C45.2146 51.6461 45.2146 51.6747 45.2146 51.706C45.2146 51.7372 45.2146 51.7862 45.2146 51.827V57.1217L35.853 62.5265H35.834C35.3466 62.8013 34.8078 62.9725 34.2512 63.0296V67.7573C34.8071 67.7024 35.3455 67.533 35.8326 67.2597L45.2146 61.8412V68.2781L48.1706 66.5703C48.1783 66.5628 48.187 66.5564 48.1964 66.5513C48.8098 66.1902 49.3182 65.6752 49.6714 65.0573C50.0246 64.4394 50.2103 63.74 50.2101 63.0283C50.2102 62.9796 50.2138 62.9309 50.221 62.8828V48.9458C50.2137 48.9008 50.2101 48.8553 50.2101 48.8098M35.8326 68.9743L35.7932 68.9933C35.3166 69.2506 34.7932 69.4097 34.254 69.4611V74.1983C34.8041 74.1423 35.3367 73.9738 35.819 73.7033L39.2319 71.7304V67.0081L35.8326 68.9743ZM49.7914 28.0987L37.3391 20.9099C37.2949 20.8911 37.2518 20.8698 37.21 20.846C36.5706 20.4811 35.8447 20.2953 35.1087 20.3082C34.3726 20.3212 33.6537 20.5323 33.0275 20.9194C32.9686 20.9554 32.9067 20.9863 32.8426 21.0119L31.4367 21.8277L30.2007 22.5416L43.1628 48.1544L43.1832 48.1762C43.6745 48.4624 44.1009 48.8477 44.4355 49.3074L49.4297 46.414C49.1568 46.0372 48.8215 45.7098 48.4384 45.4459" fill="#062F4F"/>
<rect x="0.5" y="0.5" width="164" height="99" rx="3.5" stroke="#EEECEA"/>
</svg>
