<svg width="18" height="15" viewBox="0 0 18 15" fill="none" xmlns="http://www.w3.org/2000/svg">
<path d="M15.6625 2.57324C16.4095 2.12665 16.9685 1.42344 17.235 0.594909C16.5331 1.01141 15.765 1.30481 14.9642 1.46241C13.8538 0.287849 12.0946 0.00201413 10.6695 0.764623C9.24442 1.52723 8.50626 3.14948 8.86751 4.72491C5.99219 4.58055 3.31332 3.22234 1.49751 0.988243C0.54988 2.62276 1.03414 4.71223 2.60418 5.76324C2.03644 5.74499 1.48129 5.59127 0.985013 5.31491C0.985013 5.32991 0.985013 5.34491 0.985013 5.35991C0.985341 7.06254 2.18532 8.52914 3.85418 8.86658C3.32757 9.00985 2.77519 9.03094 2.23918 8.92824C2.70851 10.3843 4.05047 11.3818 5.58001 11.4116C4.31321 12.4059 2.74874 12.945 1.13835 12.9424C0.852905 12.9428 0.567688 12.9264 0.28418 12.8932C1.9195 13.9441 3.82282 14.5019 5.76668 14.4999C8.47105 14.5185 11.07 13.4523 12.9823 11.5399C14.8945 9.62752 15.9605 7.02845 15.9417 4.32408C15.9417 4.16908 15.9381 4.01491 15.9308 3.86158C16.6312 3.35541 17.2357 2.72837 17.7158 2.00991C17.0634 2.29913 16.3712 2.48901 15.6625 2.57324Z" fill="#F5C34B"/>
<path d="M15.6625 2.57324C16.4095 2.12665 16.9685 1.42344 17.235 0.594909C16.5331 1.01141 15.765 1.30481 14.9642 1.46241C13.8538 0.287849 12.0946 0.00201413 10.6695 0.764623C9.24442 1.52723 8.50626 3.14948 8.86751 4.72491C5.99219 4.58055 3.31332 3.22234 1.49751 0.988243C0.54988 2.62276 1.03414 4.71223 2.60418 5.76324C2.03644 5.74499 1.48129 5.59127 0.985013 5.31491C0.985013 5.32991 0.985013 5.34491 0.985013 5.35991C0.985341 7.06254 2.18532 8.52914 3.85418 8.86658C3.32757 9.00985 2.77519 9.03094 2.23918 8.92824C2.70851 10.3843 4.05047 11.3818 5.58001 11.4116C4.31321 12.4059 2.74874 12.945 1.13835 12.9424C0.852905 12.9428 0.567688 12.9264 0.28418 12.8932C1.9195 13.9441 3.82282 14.5019 5.76668 14.4999C8.47105 14.5185 11.07 13.4523 12.9823 11.5399C14.8945 9.62752 15.9605 7.02845 15.9417 4.32408C15.9417 4.16908 15.9381 4.01491 15.9308 3.86158C16.6312 3.35541 17.2357 2.72837 17.7158 2.00991C17.0634 2.29913 16.3712 2.48901 15.6625 2.57324Z" fill="#FFD731"/>
</svg>
