<svg width="23" height="31" viewBox="0 0 23 31" fill="none" xmlns="http://www.w3.org/2000/svg">
<path d="M22.1982 30.0319H0.84375V28.2129H22.1982V30.0319ZM1.23904 29.6494H21.8036V28.5973H1.23904V29.6494Z" fill="#FFD731"/>
<path d="M20.3879 27.1497H2.65454V25.332H20.3879V27.1497ZM3.0471 26.7673H19.9905V25.7145H3.0471V26.7673Z" fill="#FFD731"/>
<path d="M21.2663 28.5839H1.77563V26.7668H21.2663V28.5839ZM2.17026 28.2014H20.8716V27.1493H2.17093L2.17026 28.2014Z" fill="#FFD731"/>
<path d="M6.24082 10.0907H2.65454V9.70825H6.24082V10.0907Z" fill="#FFD731"/>
<path d="M20.3873 10.0907H16.801V9.70825H20.3873V10.0907Z" fill="#FFD731"/>
<path d="M20.3873 10.9812H16.801V11.3637H20.3873V10.9812Z" fill="#FFD731"/>
<path d="M20.3873 24.0574H16.801V24.4398H20.3873V24.0574Z" fill="#FFD731"/>
<path d="M19.9265 24.4389H17.2291V10.9812H19.9265V24.4389ZM17.6237 24.0557H19.5319V11.3637H17.6237V24.0557Z" fill="#FFD731"/>
<path d="M17.6237 13.3462H17.2291C17.2291 12.8327 17.8975 12.4032 18.544 11.9884C18.9844 11.7065 19.5319 11.3544 19.5319 11.1414H19.9265C19.9265 11.5602 19.3871 11.9063 18.7618 12.308C18.2545 12.6329 17.6237 13.0385 17.6237 13.3462Z" fill="#FFD731"/>
<path d="M17.6237 15.5279H17.2291C17.2291 15.0145 17.8975 14.585 18.544 14.1701C18.9844 13.8876 19.5319 13.5362 19.5319 13.3225H19.9265C19.9265 13.742 19.3871 14.0881 18.7618 14.4891C18.2545 14.8146 17.6237 15.2196 17.6237 15.5279Z" fill="#FFD731"/>
<path d="M17.6237 17.7074H17.2291C17.2291 17.1933 17.8975 16.7645 18.544 16.3496C18.9844 16.0671 19.5319 15.7157 19.5319 15.502H19.9265C19.9265 15.9208 19.3871 16.2675 18.7618 16.6685C18.2545 16.9941 17.6237 17.3991 17.6237 17.7074Z" fill="#FFD731"/>
<path d="M17.6237 19.8859H17.2291C17.2291 19.3724 17.8975 18.943 18.544 18.5281C18.9844 18.2462 19.5319 17.8942 19.5319 17.6812H19.9265C19.9265 18.1 19.3871 18.4461 18.7618 18.8477C18.2545 19.1726 17.6237 19.5782 17.6237 19.8859Z" fill="#FFD731"/>
<path d="M17.6237 22.0678H17.2291C17.2291 21.5543 17.8975 21.1248 18.544 20.7099C18.9844 20.4274 19.5319 20.076 19.5319 19.8623H19.9265C19.9265 20.2818 19.3871 20.6279 18.7618 21.0289C18.2545 21.3544 17.6237 21.7594 17.6237 22.0678Z" fill="#FFD731"/>
<path d="M17.6237 24.2472H17.2291C17.2291 23.7331 17.8975 23.3043 18.544 22.8894C18.9844 22.6068 19.5319 22.2555 19.5319 22.0417H19.9265C19.9265 22.4606 19.3871 22.8074 18.7618 23.2084C18.2545 23.5339 17.6237 23.9389 17.6237 24.2472Z" fill="#FFD731"/>
<path d="M6.24081 10.9812H2.65454V11.3637H6.24081V10.9812Z" fill="#FFD731"/>
<path d="M6.24093 24.0574H2.65466V24.4398H6.24093V24.0574Z" fill="#FFD731"/>
<path d="M3.11523 10.9812H5.81326V24.4389H3.11523V10.9812ZM5.41797 11.3637H3.50986V24.0544H5.41797V11.3637Z" fill="#FFD731"/>
<path d="M5.41797 13.3462H5.81326C5.81326 12.8327 5.14424 12.4032 4.49772 11.9884C4.05805 11.7065 3.50986 11.3544 3.50986 11.1414H3.11523C3.11523 11.5602 3.65523 11.9063 4.2799 12.308C4.78716 12.6329 5.41797 13.0385 5.41797 13.3462Z" fill="#FFD731"/>
<path d="M5.41797 15.5279H5.81326C5.81326 15.0145 5.14424 14.585 4.49772 14.1701C4.05805 13.8876 3.50986 13.5362 3.50986 13.3225H3.11523C3.11523 13.742 3.65523 14.0881 4.2799 14.4891C4.78716 14.8146 5.41797 15.2196 5.41797 15.5279Z" fill="#FFD731"/>
<path d="M5.41797 17.7074H5.81326C5.81326 17.1933 5.14424 16.7645 4.49772 16.3496C4.05805 16.0671 3.50986 15.7157 3.50986 15.502H3.11523C3.11523 15.9208 3.65523 16.2675 4.2799 16.6685C4.78716 16.9941 5.41797 17.3991 5.41797 17.7074Z" fill="#FFD731"/>
<path d="M5.41797 19.8859H5.81326C5.81326 19.3724 5.14424 18.943 4.49772 18.5281C4.05805 18.2462 3.50986 17.8942 3.50986 17.6812H3.11523C3.11523 18.1 3.65523 18.4461 4.2799 18.8477C4.78716 19.1726 5.41797 19.5782 5.41797 19.8859Z" fill="#FFD731"/>
<path d="M5.41797 22.0678H5.81326C5.81326 21.5543 5.14424 21.1248 4.49772 20.7099C4.05805 20.4274 3.50986 20.076 3.50986 19.8623H3.11523C3.11523 20.2818 3.65523 20.6279 4.2799 21.0289C4.78716 21.3544 5.41797 21.7594 5.41797 22.0678Z" fill="#FFD731"/>
<path d="M5.41797 24.2472H5.81326C5.81326 23.7331 5.14424 23.3043 4.49772 22.8894C4.05805 22.6068 3.50986 22.2555 3.50986 22.0417H3.11523C3.11523 22.4606 3.65523 22.8074 4.2799 23.2084C4.78716 23.5339 5.41797 23.9389 5.41797 24.2472Z" fill="#FFD731"/>
<path d="M11.5357 7.15137L6.90906 14.616L11.5064 17.2456L16.1331 14.6167L11.5357 7.15137ZM15.3698 14.1237L11.718 12.525L11.731 8.21471L15.3698 14.1237ZM11.3227 12.5356L7.67437 14.127L11.3357 8.22001L11.3227 12.5356ZM7.6095 14.575L11.3221 12.9558L11.3105 16.6918L7.6095 14.575ZM11.7167 12.9472L15.4326 14.5737L11.7051 16.6911L11.7167 12.9472Z" fill="#FFD731"/>
<path d="M11.507 17.9293L6.90149 15.1925L11.5064 21.9366L16.1549 15.1873L11.507 17.9293ZM11.7186 18.2529L14.8352 16.4127L11.7186 20.9388V18.2529ZM11.3241 18.2694V20.9758L8.21363 16.4213L11.3241 18.2694Z" fill="#FFD731"/>
<path d="M11.5241 5.05278C10.9655 5.05226 10.4299 4.83696 10.0349 4.45412C9.63995 4.07128 9.41778 3.5522 9.41724 3.01078C9.41778 2.46937 9.63995 1.95028 10.0349 1.56745C10.4299 1.18461 10.9655 0.969276 11.5241 0.96875C12.0826 0.96945 12.6181 1.18484 13.0131 1.56764C13.408 1.95044 13.6302 2.46942 13.631 3.01078C13.6302 3.55214 13.408 4.07113 13.0131 4.45392C12.6181 4.83672 12.0826 5.05208 11.5241 5.05278ZM11.5241 1.33534C11.0658 1.33586 10.6264 1.51255 10.3024 1.82664C9.9783 2.14073 9.796 2.56659 9.79546 3.01078C9.796 3.45497 9.9783 3.88081 10.3024 4.1949C10.6264 4.50899 11.0658 4.68567 11.5241 4.6862C11.9823 4.68567 12.4216 4.50898 12.7456 4.19487C13.0695 3.88076 13.2516 3.45491 13.252 3.01078C13.2511 2.567 13.0687 2.14164 12.7448 1.82796C12.4209 1.51428 11.982 1.33786 11.5241 1.33734V1.33534Z" fill="#FFD731"/>
<path d="M11.5244 4.26862C11.1804 4.26862 10.8505 4.13616 10.6073 3.90038C10.364 3.66461 10.2273 3.34482 10.2273 3.01138C10.2273 2.67794 10.364 2.35816 10.6073 2.12238C10.8505 1.88661 11.1804 1.75415 11.5244 1.75415C11.8685 1.75415 12.1984 1.88661 12.4416 2.12238C12.6849 2.35816 12.8216 2.67794 12.8216 3.01138C12.8216 3.34482 12.6849 3.66461 12.4416 3.90038C12.1984 4.13616 11.8685 4.26862 11.5244 4.26862ZM11.5244 2.15117C11.2891 2.15117 11.0633 2.2418 10.8969 2.40312C10.7304 2.56444 10.6369 2.78324 10.6369 3.01138C10.6369 3.23952 10.7304 3.45832 10.8969 3.61964C11.0633 3.78096 11.2891 3.87159 11.5244 3.87159C11.7598 3.87159 11.9856 3.78096 12.152 3.61964C12.3185 3.45832 12.412 3.23952 12.412 3.01138C12.4116 2.78347 12.3179 2.565 12.1515 2.40396C11.9851 2.24293 11.7596 2.1525 11.5244 2.1525V2.15117Z" fill="#FFD731"/>
<path d="M11.521 3.36608C11.7231 3.36608 11.8869 3.20729 11.8869 3.01141C11.8869 2.81553 11.7231 2.65674 11.521 2.65674C11.3189 2.65674 11.155 2.81553 11.155 3.01141C11.155 3.20729 11.3189 3.36608 11.521 3.36608Z" fill="#FFD731"/>
<path d="M17.4637 4.1367C16.327 3.02941 14.8839 2.26462 13.3087 1.93457C13.3978 2.07306 13.4693 2.22145 13.5217 2.37657C14.909 2.72157 16.1744 3.42317 17.1845 4.40732C18.6435 5.81329 19.4836 7.71259 19.5282 9.70623H17.7184C17.6754 8.44355 17.2237 7.22598 16.4273 6.22584C15.6309 5.2257 14.5301 4.49368 13.2808 4.1334C13.2014 4.25003 13.1099 4.35843 13.0077 4.45695C14.2452 4.77644 15.3393 5.48285 16.1203 6.46655C16.9013 7.45024 17.3255 8.65624 17.3271 9.89747V10.0887H19.9262V9.89747C19.9292 8.82713 19.713 7.76685 19.2903 6.77801C18.8676 5.78917 18.2468 4.89141 17.4637 4.1367Z" fill="#FFD731"/>
<path d="M9.76238 4.1334C8.51303 4.49368 7.41219 5.2257 6.61579 6.22584C5.81939 7.22598 5.36778 8.44355 5.32478 9.70623H3.51488C3.55982 7.71265 4.39984 5.81345 5.85862 4.40732C6.86875 3.4233 8.13417 2.72172 9.52137 2.37657C9.57398 2.22143 9.64572 2.07303 9.73505 1.93457C8.15962 2.2646 6.71637 3.02939 5.5794 4.1367C4.79645 4.89147 4.17573 5.78927 3.75316 6.77811C3.33058 7.76694 3.11457 8.82718 3.11758 9.89747V10.0887H5.71661V9.89747C5.71841 8.65618 6.14283 7.45016 6.92395 6.46648C7.70507 5.4828 8.79924 4.77641 10.0368 4.45695C9.93408 4.35853 9.84215 4.25012 9.76238 4.1334Z" fill="#FFD731"/>
<path d="M9.96746 2.2771C9.81727 2.30577 9.66773 2.33862 9.5189 2.37568C9.44959 2.58072 9.41431 2.79515 9.41443 3.01092C9.4138 3.40978 9.53474 3.79997 9.76199 4.13251C9.89079 4.09546 10.0212 4.06237 10.1531 4.03326C9.91944 3.7406 9.79263 3.38099 9.79265 3.01092C9.79227 2.75657 9.85209 2.50554 9.96746 2.2771Z" fill="#FFD731"/>
<path d="M11.5237 1.33729C11.7525 1.33748 11.979 1.38181 12.19 1.46769C12.401 1.55357 12.5922 1.6793 12.7526 1.83754C12.9403 1.86401 13.1267 1.89709 13.311 1.93547C13.1221 1.64051 12.8587 1.39712 12.5457 1.22831C12.2328 1.05949 11.8805 0.970825 11.5223 0.970703C11.1642 0.970763 10.8119 1.05939 10.4989 1.22821C10.1859 1.39703 9.9225 1.64047 9.73364 1.93547C9.91797 1.89709 10.1043 1.86401 10.2921 1.83754C10.4527 1.6789 10.6444 1.55291 10.8558 1.46701C11.0673 1.38111 11.2944 1.33702 11.5237 1.33729Z" fill="#FFD731"/>
<path d="M11.5239 4.68852C11.1547 4.68771 10.7957 4.5717 10.4998 4.35767C10.3433 4.38458 10.1894 4.41722 10.0383 4.4556C10.2337 4.64466 10.4655 4.79457 10.7206 4.89675C10.9758 4.99894 11.2492 5.05139 11.5252 5.05113C11.8013 5.05139 12.0747 4.99894 12.3299 4.89675C12.585 4.79457 12.8168 4.64466 13.0122 4.4556C12.8606 4.41722 12.7063 4.3848 12.5507 4.35767C12.2541 4.57224 11.894 4.68828 11.5239 4.68852Z" fill="#FFD731"/>
<path d="M13.2491 3.01092C13.2495 3.38105 13.1227 3.74077 12.8887 4.03326C13.0211 4.06237 13.1518 4.09546 13.2806 4.13251C13.5075 3.79983 13.6284 3.40974 13.628 3.01092C13.6279 2.79511 13.5924 2.58069 13.5229 2.37568C13.375 2.33862 13.2255 2.30577 13.0743 2.2771C13.1897 2.50554 13.2495 2.75657 13.2491 3.01092Z" fill="#FFD731"/>
</svg>
