<svg width="20" height="20" viewBox="0 0 20 20" fill="none" xmlns="http://www.w3.org/2000/svg">
<path d="M9.99495 19.1666C7.49079 19.1666 7.19558 19.1534 6.21834 19.1107C5.45628 19.0857 4.70407 18.931 3.99412 18.6533C2.76577 18.1759 1.79446 17.2056 1.3169 15.9789C1.04949 15.2674 0.90526 14.5156 0.890379 13.7558C0.833374 12.782 0.833374 12.4629 0.833374 9.98162C0.833374 7.47395 0.846607 7.1812 0.890379 6.21046C0.905585 5.45167 1.04981 4.70099 1.3169 3.99046C1.79395 2.76206 2.76682 1.79096 3.99717 1.31507C4.70836 1.04692 5.46032 0.90252 6.22038 0.888142C7.19253 0.833252 7.51216 0.833252 9.99495 0.833252C12.5195 0.833252 12.8096 0.846466 13.7716 0.888142C14.5336 0.902644 15.2875 1.04703 16.0009 1.31507C17.2309 1.7915 18.2036 2.76241 18.6811 3.99046C18.9531 4.71134 19.0981 5.47376 19.1097 6.244C19.1667 7.2178 19.1667 7.53596 19.1667 10.0162C19.1667 12.4964 19.1525 12.8217 19.1097 13.7843C19.0945 14.5448 18.95 15.2973 18.6822 16.0094C18.2034 17.237 17.2306 18.2076 16.0009 18.6848C15.2886 18.9513 14.5361 19.0953 13.7756 19.1107C12.8035 19.1666 12.4849 19.1666 9.99495 19.1666ZM9.96034 2.44235C7.47043 2.44235 7.21187 2.45455 6.23972 2.49826C5.65947 2.50593 5.08483 2.61285 4.54076 2.81438C3.73734 3.12137 3.1016 3.75361 2.7909 4.55461C2.58752 5.10381 2.48043 5.6839 2.47431 6.26942C2.42036 7.25439 2.42036 7.51258 2.42036 9.98162C2.42036 12.4212 2.42952 12.717 2.47431 13.6959C2.48343 14.2755 2.59046 14.8494 2.7909 15.3934C3.10206 16.1939 3.73769 16.8256 4.54076 17.1326C5.08446 17.3355 5.65934 17.4424 6.23972 17.4487C7.2251 17.5056 7.48468 17.5056 9.96034 17.5056C12.4574 17.5056 12.7159 17.4934 13.6799 17.4487C14.2606 17.4417 14.8357 17.3347 15.3799 17.1326C16.1785 16.823 16.8101 16.1926 17.1206 15.3954C17.3236 14.8458 17.4307 14.2654 17.4372 13.6796H17.4484C17.4922 12.7078 17.4922 12.4486 17.4922 9.96536C17.4922 7.48208 17.481 7.22085 17.4372 6.2501C17.4281 5.67116 17.321 5.09793 17.1206 4.55461C16.8108 3.75623 16.1791 3.12471 15.3799 2.81438C14.8358 2.61184 14.2606 2.50488 13.6799 2.49826C12.6956 2.44235 12.438 2.44235 9.96034 2.44235ZM9.99495 14.6768C8.09137 14.678 6.37452 13.534 5.6451 11.7782C4.91568 10.0225 5.31736 8.00083 6.66282 6.65615C8.00827 5.31147 10.0325 4.90862 11.7914 5.63547C13.5503 6.36232 14.6975 8.0757 14.6979 9.97654C14.6951 12.5697 12.5918 14.6717 9.99495 14.6768ZM9.99495 6.92505C8.30835 6.92505 6.94109 8.29034 6.94109 9.97451C6.94109 11.6587 8.30835 13.024 9.99495 13.024C11.6816 13.024 13.0488 11.6587 13.0488 9.97451C13.0449 8.29196 11.6799 6.92896 9.99495 6.92505ZM14.8811 6.2003C14.2759 6.19805 13.7867 5.70688 13.7878 5.1025C13.789 4.49812 14.2799 4.00876 14.8852 4.00876C15.4904 4.00876 15.9814 4.49811 15.9826 5.10249C15.9828 5.39408 15.8668 5.67378 15.6601 5.87977C15.4535 6.08577 15.1731 6.20111 14.8811 6.2003Z" fill="#FFD731"/>
</svg>
