<svg width="34" height="46" viewBox="0 0 34 46" fill="none" xmlns="http://www.w3.org/2000/svg">
<path d="M33.5649 45.5011H0.5V42.6846H33.5649V45.5011ZM1.11206 44.9089H32.954V43.2799H1.11206V44.9089Z" fill="#F5C34B"/>
<path d="M30.762 41.0383H3.30396V38.2239H30.762V41.0383ZM3.91179 40.4462H30.1468V38.8161H3.91179V40.4462Z" fill="#F5C34B"/>
<path d="M32.1219 43.259H1.94287V40.4456H32.1219V43.259ZM2.5539 42.6668H31.5109V41.0377H2.55493L2.5539 42.6668Z" fill="#F5C34B"/>
<path d="M8.85691 14.6245H3.30396V14.0322H8.85691V14.6245Z" fill="#F5C34B"/>
<path d="M30.761 14.6245H25.208V14.0322H30.761V14.6245Z" fill="#F5C34B"/>
<path d="M30.7609 16.0034H25.208V16.5956H30.7609V16.0034Z" fill="#F5C34B"/>
<path d="M30.7609 36.25H25.208V36.8422H30.7609V36.25Z" fill="#F5C34B"/>
<path d="M30.0474 36.8411H25.8708V16.0034H30.0474V36.8411ZM26.4818 36.2479H29.4364V16.5956H26.4818V36.2479Z" fill="#F5C34B"/>
<path d="M26.4818 19.6651H25.8708C25.8708 18.8701 26.9057 18.2051 27.9068 17.5627C28.5886 17.1262 29.4364 16.5811 29.4364 16.2512H30.0474C30.0474 16.8998 29.2122 17.4357 28.2439 18.0576C27.4585 18.5606 26.4818 19.1887 26.4818 19.6651Z" fill="#F5C34B"/>
<path d="M26.4818 23.0433H25.8708C25.8708 22.2482 26.9057 21.5833 27.9068 20.9408C28.5886 20.5034 29.4364 19.9594 29.4364 19.6284H30.0474C30.0474 20.278 29.2122 20.8138 28.2439 21.4347C27.4585 21.9388 26.4818 22.5658 26.4818 23.0433Z" fill="#F5C34B"/>
<path d="M26.4818 26.4178H25.8708C25.8708 25.6217 26.9057 24.9578 27.9068 24.3154C28.5886 23.8779 29.4364 23.3339 29.4364 23.0029H30.0474C30.0474 23.6515 29.2122 24.1883 28.2439 24.8092C27.4585 25.3133 26.4818 25.9404 26.4818 26.4178Z" fill="#F5C34B"/>
<path d="M26.4818 29.791H25.8708C25.8708 28.996 26.9057 28.331 27.9068 27.6886C28.5886 27.2522 29.4364 26.7071 29.4364 26.3772H30.0474C30.0474 27.0257 29.2122 27.5616 28.2439 28.1835C27.4585 28.6866 26.4818 29.3146 26.4818 29.791Z" fill="#F5C34B"/>
<path d="M26.4818 33.1695H25.8708C25.8708 32.3745 26.9057 31.7095 27.9068 31.0671C28.5886 30.6296 29.4364 30.0856 29.4364 29.7546H30.0474C30.0474 30.4042 29.2122 30.9401 28.2439 31.5609C27.4585 32.065 26.4818 32.6921 26.4818 33.1695Z" fill="#F5C34B"/>
<path d="M26.4818 36.5441H25.8708C25.8708 35.748 26.9057 35.084 27.9068 34.4416C28.5886 34.0041 29.4364 33.4601 29.4364 33.1292H30.0474C30.0474 33.7777 29.2122 34.3146 28.2439 34.9355C27.4585 35.4396 26.4818 36.0666 26.4818 36.5441Z" fill="#F5C34B"/>
<path d="M8.85688 16.0034H3.30396V16.5956H8.85688V16.0034Z" fill="#F5C34B"/>
<path d="M8.85688 36.25H3.30396V36.8422H8.85688V36.25Z" fill="#F5C34B"/>
<path d="M4.01709 16.0034H8.19468V36.8411H4.01709V16.0034ZM7.58262 16.5956H4.62812V36.2458H7.58262V16.5956Z" fill="#F5C34B"/>
<path d="M7.58262 19.6651H8.19468C8.19468 18.8701 7.15878 18.2051 6.15771 17.5627C5.47694 17.1262 4.62812 16.5811 4.62812 16.2512H4.01709C4.01709 16.8998 4.85321 17.4357 5.82045 18.0576C6.60587 18.5606 7.58262 19.1887 7.58262 19.6651Z" fill="#F5C34B"/>
<path d="M7.58262 23.0433H8.19468C8.19468 22.2482 7.15878 21.5833 6.15771 20.9408C5.47694 20.5034 4.62812 19.9594 4.62812 19.6284H4.01709C4.01709 20.278 4.85321 20.8138 5.82045 21.4347C6.60587 21.9388 7.58262 22.5658 7.58262 23.0433Z" fill="#F5C34B"/>
<path d="M7.58262 26.4178H8.19468C8.19468 25.6217 7.15878 24.9578 6.15771 24.3154C5.47694 23.8779 4.62812 23.3339 4.62812 23.0029H4.01709C4.01709 23.6515 4.85321 24.1883 5.82045 24.8092C6.60587 25.3133 7.58262 25.9404 7.58262 26.4178Z" fill="#F5C34B"/>
<path d="M7.58262 29.791H8.19468C8.19468 28.996 7.15878 28.331 6.15771 27.6886C5.47694 27.2522 4.62812 26.7071 4.62812 26.3772H4.01709C4.01709 27.0257 4.85321 27.5616 5.82045 28.1835C6.60587 28.6866 7.58262 29.3146 7.58262 29.791Z" fill="#F5C34B"/>
<path d="M7.58262 33.1695H8.19468C8.19468 32.3745 7.15878 31.7095 6.15771 31.0671C5.47694 30.6296 4.62812 30.0856 4.62812 29.7546H4.01709C4.01709 30.4042 4.85321 30.9401 5.82045 31.5609C6.60587 32.065 7.58262 32.6921 7.58262 33.1695Z" fill="#F5C34B"/>
<path d="M7.58262 36.5441H8.19468C8.19468 35.748 7.15878 35.084 6.15771 34.4416C5.47694 34.0041 4.62812 33.4601 4.62812 33.1292H4.01709C4.01709 33.7777 4.85321 34.3146 5.82045 34.9355C6.60587 35.4396 7.58262 36.0666 7.58262 36.5441Z" fill="#F5C34B"/>
<path d="M17.0552 10.073L9.89136 21.6312L17.0098 25.7028L24.1737 21.6322L17.0552 10.073ZM22.9919 20.8689L17.3375 18.3935L17.3576 11.7195L22.9919 20.8689ZM16.7254 18.4099L11.0764 20.874L16.7455 11.7277L16.7254 18.4099ZM10.9759 21.5676L16.7244 19.0605L16.7064 24.8453L10.9759 21.5676ZM17.3354 19.0472L23.0892 21.5656L17.3175 24.8442L17.3354 19.0472Z" fill="#F5C34B"/>
<path d="M17.011 26.7617L9.87988 22.524L17.01 32.9665L24.2078 22.5159L17.011 26.7617ZM17.3387 27.2627L22.1644 24.4134L17.3387 31.4214V27.2627ZM16.7278 27.2883V31.4788L11.9116 24.4267L16.7278 27.2883Z" fill="#F5C34B"/>
<path d="M17.0374 6.82367C16.1725 6.82285 15.3432 6.48948 14.7316 5.8967C14.12 5.30392 13.776 4.50018 13.7751 3.66186C13.776 2.82354 14.12 2.0198 14.7316 1.42702C15.3432 0.834235 16.1725 0.500814 17.0374 0.5C17.9022 0.501084 18.7313 0.834594 19.3429 1.42732C19.9544 2.02004 20.2985 2.82362 20.2996 3.66186C20.2985 4.50009 19.9544 5.30368 19.3429 5.8964C18.7313 6.48912 17.9022 6.82258 17.0374 6.82367ZM17.0374 1.06762C16.3278 1.06843 15.6474 1.34201 15.1457 1.82834C14.6439 2.31467 14.3616 2.97408 14.3608 3.66186C14.3616 4.34964 14.6439 5.009 15.1457 5.49533C15.6474 5.98166 16.3278 6.25524 17.0374 6.25605C17.7469 6.25524 18.4271 5.98164 18.9287 5.49528C19.4303 5.00892 19.7123 4.34954 19.7128 3.66186C19.7114 2.97471 19.4291 2.31609 18.9276 1.83039C18.426 1.34469 17.7463 1.07153 17.0374 1.07072V1.06762Z" fill="#F5C34B"/>
<path d="M17.0378 5.60943C16.5051 5.60943 15.9943 5.40434 15.6176 5.03926C15.241 4.67419 15.0293 4.17904 15.0293 3.66275C15.0293 3.14645 15.241 2.65131 15.6176 2.28623C15.9943 1.92116 16.5051 1.71606 17.0378 1.71606C17.5705 1.71606 18.0813 1.92116 18.4579 2.28623C18.8346 2.65131 19.0463 3.14645 19.0463 3.66275C19.0463 4.17904 18.8346 4.67419 18.4579 5.03926C18.0813 5.40434 17.5705 5.60943 17.0378 5.60943ZM17.0378 2.33081C16.6733 2.33081 16.3238 2.47114 16.0661 2.72092C15.8083 2.97071 15.6636 3.30949 15.6636 3.66275C15.6636 4.016 15.8083 4.35478 16.0661 4.60457C16.3238 4.85436 16.6733 4.99469 17.0378 4.99469C17.4022 4.99469 17.7518 4.85436 18.0095 4.60457C18.2672 4.35478 18.412 4.016 18.412 3.66275C18.4114 3.30985 18.2664 2.97157 18.0088 2.72222C17.7511 2.47288 17.4019 2.33286 17.0378 2.33286V2.33081Z" fill="#F5C34B"/>
<path d="M17.0324 4.21211C17.3453 4.21211 17.599 3.96624 17.599 3.66294C17.599 3.35964 17.3453 3.11377 17.0324 3.11377C16.7195 3.11377 16.4658 3.35964 16.4658 3.66294C16.4658 3.96624 16.7195 4.21211 17.0324 4.21211Z" fill="#F5C34B"/>
<path d="M26.2341 5.40535C24.474 3.69084 22.2396 2.50664 19.8006 1.99561C19.9385 2.21004 20.0493 2.43981 20.1304 2.67999C22.2784 3.21419 24.2378 4.30054 25.8018 5.82438C28.0609 8.00137 29.3616 10.9422 29.4308 14.0291H26.6284C26.5619 12.074 25.8625 10.1888 24.6293 8.64015C23.3962 7.09155 21.6918 5.95809 19.7573 5.40025C19.6344 5.58083 19.4927 5.74868 19.3345 5.90123C21.2506 6.39592 22.9447 7.48972 24.154 9.01286C25.3633 10.536 26.0201 12.4034 26.0227 14.3253V14.6214H30.0471V14.3253C30.0516 12.668 29.7169 11.0262 29.0624 9.49513C28.4079 7.96402 27.4466 6.57395 26.2341 5.40535Z" fill="#F5C34B"/>
<path d="M14.3095 5.40025C12.375 5.95809 10.6705 7.09155 9.43738 8.64015C8.20425 10.1888 7.50497 12.074 7.4384 14.0291H4.63596C4.70555 10.9423 6.00624 8.00162 8.26498 5.82438C9.82906 4.30074 11.7884 3.21442 13.9363 2.67999C14.0178 2.43977 14.1289 2.21 14.2672 1.99561C11.8278 2.50662 9.59311 3.69081 7.83264 5.40535C6.62034 6.57403 5.65922 7.96418 5.00491 9.49528C4.3506 11.0264 4.01614 12.668 4.0208 14.3253V14.6214H8.04509V14.3253C8.04788 12.4033 8.70505 10.5359 9.91452 9.01276C11.124 7.48963 12.8182 6.39588 14.7344 5.90123C14.5754 5.74883 14.433 5.58097 14.3095 5.40025Z" fill="#F5C34B"/>
<path d="M14.6271 2.52588C14.3945 2.57028 14.163 2.62114 13.9325 2.67851C13.8252 2.996 13.7706 3.32801 13.7708 3.66211C13.7698 4.27971 13.957 4.88387 14.3089 5.39878C14.5083 5.3414 14.7102 5.29017 14.9146 5.24509C14.5527 4.79194 14.3564 4.23513 14.3564 3.66211C14.3558 3.26829 14.4484 2.8796 14.6271 2.52588Z" fill="#F5C34B"/>
<path d="M17.0366 1.07055C17.3909 1.07084 17.7416 1.13947 18.0683 1.27246C18.3949 1.40544 18.6911 1.60012 18.9393 1.84513C19.23 1.88611 19.5186 1.93734 19.804 1.99676C19.5115 1.54005 19.1037 1.16319 18.6191 0.901801C18.1345 0.640412 17.5891 0.503119 17.0345 0.50293C16.4799 0.503022 15.9344 0.640252 15.4498 0.901651C14.9651 1.16305 14.5573 1.53998 14.2649 1.99676C14.5503 1.93734 14.8389 1.88611 15.1296 1.84513C15.3782 1.59949 15.675 1.40442 16.0025 1.27141C16.33 1.1384 16.6815 1.07012 17.0366 1.07055Z" fill="#F5C34B"/>
<path d="M17.037 6.25984C16.4654 6.2586 15.9094 6.07897 15.4514 5.74756C15.209 5.78922 14.9708 5.83977 14.7368 5.89919C15.0393 6.19194 15.3982 6.42405 15.7933 6.58227C16.1883 6.74049 16.6117 6.82172 17.0391 6.82131C17.4665 6.82172 17.89 6.74049 18.285 6.58227C18.6801 6.42405 19.039 6.19194 19.3415 5.89919C19.1068 5.83977 18.8679 5.78957 18.6269 5.74756C18.1677 6.07981 17.6101 6.25948 17.037 6.25984Z" fill="#F5C34B"/>
<path d="M19.7082 3.66211C19.7088 4.23522 19.5125 4.79221 19.1501 5.24509C19.3552 5.29017 19.5575 5.3414 19.7569 5.39878C20.1083 4.88366 20.2955 4.27964 20.295 3.66211C20.2948 3.32796 20.2399 2.99595 20.1322 2.67851C19.9032 2.62114 19.6716 2.57028 19.4376 2.52588C19.6163 2.8796 19.7088 3.26829 19.7082 3.66211Z" fill="#F5C34B"/>
<svg width="48" height="48" viewBox="0 0 48 48" fill="none" xmlns="http://www.w3.org/2000/svg">
<path d="M40.5649 46.5011H7.5V43.6846H40.5649V46.5011ZM8.11206 45.9089H39.954V44.2799H8.11206V45.9089Z" fill="#FFD731"/>
<path d="M37.7619 42.0383H10.3038V39.2239H37.7619V42.0383ZM10.9117 41.4462H37.1466V39.8161H10.9117V41.4462Z" fill="#FFD731"/>
<path d="M39.1219 44.259H8.94287V41.4456H39.1219V44.259ZM9.5539 43.6668H38.5109V42.0377H9.55493L9.5539 43.6668Z" fill="#FFD731"/>
<path d="M15.8568 15.6245H10.3038V15.0322H15.8568V15.6245Z" fill="#FFD731"/>
<path d="M37.761 15.6245H32.2081V15.0322H37.761V15.6245Z" fill="#FFD731"/>
<path d="M37.761 17.0034H32.2081V17.5956H37.761V17.0034Z" fill="#FFD731"/>
<path d="M37.7609 37.25H32.208V37.8422H37.7609V37.25Z" fill="#FFD731"/>
<path d="M37.0474 37.8411H32.8708V17.0034H37.0474V37.8411ZM33.4818 37.2479H36.4364V17.5956H33.4818V37.2479Z" fill="#FFD731"/>
<path d="M33.4818 20.6651H32.8708C32.8708 19.8701 33.9057 19.2051 34.9068 18.5627C35.5886 18.1262 36.4364 17.5811 36.4364 17.2512H37.0474C37.0474 17.8998 36.2122 18.4357 35.2439 19.0576C34.4585 19.5606 33.4818 20.1887 33.4818 20.6651Z" fill="#FFD731"/>
<path d="M33.4818 24.0433H32.8708C32.8708 23.2482 33.9057 22.5833 34.9068 21.9408C35.5886 21.5034 36.4364 20.9594 36.4364 20.6284H37.0474C37.0474 21.278 36.2122 21.8138 35.2439 22.4347C34.4585 22.9388 33.4818 23.5658 33.4818 24.0433Z" fill="#FFD731"/>
<path d="M33.4818 27.4178H32.8708C32.8708 26.6217 33.9057 25.9578 34.9068 25.3154C35.5886 24.8779 36.4364 24.3339 36.4364 24.0029H37.0474C37.0474 24.6515 36.2122 25.1883 35.2439 25.8092C34.4585 26.3133 33.4818 26.9404 33.4818 27.4178Z" fill="#FFD731"/>
<path d="M33.4818 30.791H32.8708C32.8708 29.996 33.9057 29.331 34.9068 28.6886C35.5886 28.2522 36.4364 27.7071 36.4364 27.3772H37.0474C37.0474 28.0257 36.2122 28.5616 35.2439 29.1835C34.4585 29.6866 33.4818 30.3146 33.4818 30.791Z" fill="#FFD731"/>
<path d="M33.4818 34.1695H32.8708C32.8708 33.3745 33.9057 32.7095 34.9068 32.0671C35.5886 31.6296 36.4364 31.0856 36.4364 30.7546H37.0474C37.0474 31.4042 36.2122 31.9401 35.2439 32.5609C34.4585 33.065 33.4818 33.6921 33.4818 34.1695Z" fill="#FFD731"/>
<path d="M33.4818 37.5441H32.8708C32.8708 36.748 33.9057 36.084 34.9068 35.4416C35.5886 35.0041 36.4364 34.4601 36.4364 34.1292H37.0474C37.0474 34.7777 36.2122 35.3146 35.2439 35.9355C34.4585 36.4396 33.4818 37.0666 33.4818 37.5441Z" fill="#FFD731"/>
<path d="M15.8568 17.0034H10.3038V17.5956H15.8568V17.0034Z" fill="#FFD731"/>
<path d="M15.8569 37.25H10.304V37.8422H15.8569V37.25Z" fill="#FFD731"/>
<path d="M11.0171 17.0034H15.1947V37.8411H11.0171V17.0034ZM14.5826 17.5956H11.6281V37.2458H14.5826V17.5956Z" fill="#FFD731"/>
<path d="M14.5826 20.6651H15.1947C15.1947 19.8701 14.1588 19.2051 13.1577 18.5627C12.4769 18.1262 11.6281 17.5811 11.6281 17.2512H11.0171C11.0171 17.8998 11.8532 18.4357 12.8204 19.0576C13.6059 19.5606 14.5826 20.1887 14.5826 20.6651Z" fill="#FFD731"/>
<path d="M14.5826 24.0433H15.1947C15.1947 23.2482 14.1588 22.5833 13.1577 21.9408C12.4769 21.5034 11.6281 20.9594 11.6281 20.6284H11.0171C11.0171 21.278 11.8532 21.8138 12.8204 22.4347C13.6059 22.9388 14.5826 23.5658 14.5826 24.0433Z" fill="#FFD731"/>
<path d="M14.5826 27.4178H15.1947C15.1947 26.6217 14.1588 25.9578 13.1577 25.3154C12.4769 24.8779 11.6281 24.3339 11.6281 24.0029H11.0171C11.0171 24.6515 11.8532 25.1883 12.8204 25.8092C13.6059 26.3133 14.5826 26.9404 14.5826 27.4178Z" fill="#FFD731"/>
<path d="M14.5826 30.791H15.1947C15.1947 29.996 14.1588 29.331 13.1577 28.6886C12.4769 28.2522 11.6281 27.7071 11.6281 27.3772H11.0171C11.0171 28.0257 11.8532 28.5616 12.8204 29.1835C13.6059 29.6866 14.5826 30.3146 14.5826 30.791Z" fill="#FFD731"/>
<path d="M14.5826 34.1695H15.1947C15.1947 33.3745 14.1588 32.7095 13.1577 32.0671C12.4769 31.6296 11.6281 31.0856 11.6281 30.7546H11.0171C11.0171 31.4042 11.8532 31.9401 12.8204 32.5609C13.6059 33.065 14.5826 33.6921 14.5826 34.1695Z" fill="#FFD731"/>
<path d="M14.5826 37.5441H15.1947C15.1947 36.748 14.1588 36.084 13.1577 35.4416C12.4769 35.0041 11.6281 34.4601 11.6281 34.1292H11.0171C11.0171 34.7777 11.8532 35.3146 12.8204 35.9355C13.6059 36.4396 14.5826 37.0666 14.5826 37.5441Z" fill="#FFD731"/>
<path d="M24.0552 11.073L16.8914 22.6312L24.0098 26.7028L31.1737 22.6322L24.0552 11.073ZM29.9919 21.8689L24.3375 19.3935L24.3576 12.7195L29.9919 21.8689ZM23.7254 19.4099L18.0764 21.874L23.7455 12.7277L23.7254 19.4099ZM17.9759 22.5676L23.7244 20.0605L23.7064 25.8453L17.9759 22.5676ZM24.3354 20.0472L30.0892 22.5656L24.3175 25.8442L24.3354 20.0472Z" fill="#FFD731"/>
<path d="M24.011 27.7617L16.8798 23.524L24.01 33.9665L31.2077 23.5159L24.011 27.7617ZM24.3386 28.2627L29.1643 25.4134L24.3386 32.4214V28.2627ZM23.7277 28.2883V32.4788L18.9115 25.4267L23.7277 28.2883Z" fill="#FFD731"/>
<path d="M24.0373 7.82367C23.1724 7.82285 22.3431 7.48948 21.7315 6.8967C21.1199 6.30392 20.7759 5.50018 20.7751 4.66186C20.7759 3.82354 21.1199 3.0198 21.7315 2.42702C22.3431 1.83424 23.1724 1.50081 24.0373 1.5C24.9022 1.50108 25.7313 1.83459 26.3428 2.42732C26.9543 3.02004 27.2984 3.82362 27.2996 4.66186C27.2984 5.50009 26.9543 6.30368 26.3428 6.8964C25.7313 7.48912 24.9022 7.82258 24.0373 7.82367ZM24.0373 2.06762C23.3277 2.06843 22.6474 2.34201 22.1456 2.82834C21.6438 3.31467 21.3616 3.97408 21.3607 4.66186C21.3616 5.34964 21.6438 6.009 22.1456 6.49533C22.6474 6.98166 23.3277 7.25524 24.0373 7.25605C24.7468 7.25524 25.427 6.98164 25.9286 6.49528C26.4302 6.00892 26.7122 5.34954 26.7128 4.66186C26.7114 3.97471 26.429 3.31609 25.9275 2.83039C25.426 2.34469 24.7463 2.07153 24.0373 2.07072V2.06762Z" fill="#FFD731"/>
<path d="M24.0378 6.60943C23.5052 6.60943 22.9943 6.40434 22.6177 6.03926C22.241 5.67419 22.0294 5.17904 22.0294 4.66275C22.0294 4.14645 22.241 3.65131 22.6177 3.28623C22.9943 2.92116 23.5052 2.71606 24.0378 2.71606C24.5705 2.71606 25.0813 2.92116 25.458 3.28623C25.8347 3.65131 26.0463 4.14645 26.0463 4.66275C26.0463 5.17904 25.8347 5.67419 25.458 6.03926C25.0813 6.40434 24.5705 6.60943 24.0378 6.60943ZM24.0378 3.33081C23.6734 3.33081 23.3238 3.47114 23.0661 3.72092C22.8084 3.97071 22.6636 4.30949 22.6636 4.66275C22.6636 5.016 22.8084 5.35478 23.0661 5.60457C23.3238 5.85436 23.6734 5.99469 24.0378 5.99469C24.4023 5.99469 24.7518 5.85436 25.0096 5.60457C25.2673 5.35478 25.4121 5.016 25.4121 4.66275C25.4115 4.30985 25.2665 3.97157 25.0088 3.72222C24.7512 3.47288 24.4019 3.33286 24.0378 3.33286V3.33081Z" fill="#FFD731"/>
<path d="M24.0324 5.21211C24.3453 5.21211 24.599 4.96624 24.599 4.66294C24.599 4.35964 24.3453 4.11377 24.0324 4.11377C23.7195 4.11377 23.4658 4.35964 23.4658 4.66294C23.4658 4.96624 23.7195 5.21211 24.0324 5.21211Z" fill="#FFD731"/>
<path d="M33.2341 6.40535C31.4741 4.69084 29.2397 3.50664 26.8006 2.99561C26.9386 3.21004 27.0494 3.43981 27.1305 3.67999C29.2785 4.21419 31.2379 5.30054 32.8018 6.82438C35.0609 9.00137 36.3617 11.9422 36.4308 15.0291H33.6285C33.5619 13.074 32.8625 11.1888 31.6294 9.64015C30.3963 8.09155 28.6919 6.95809 26.7574 6.40025C26.6345 6.58083 26.4928 6.74868 26.3345 6.90123C28.2506 7.39592 29.9447 8.48972 31.154 10.0129C32.3633 11.536 33.0202 13.4034 33.0227 15.3253V15.6214H37.0471V15.3253C37.0516 13.668 36.717 12.0262 36.0625 10.4951C35.408 8.96402 34.4466 7.57395 33.2341 6.40535Z" fill="#FFD731"/>
<path d="M21.3095 6.40025C19.375 6.95809 17.6705 8.09155 16.4373 9.64015C15.2042 11.1888 14.5049 13.074 14.4383 15.0291H11.6359C11.7055 11.9423 13.0062 9.00162 15.2649 6.82438C16.829 5.30074 18.7884 4.21442 20.9363 3.67999C21.0177 3.43977 21.1288 3.21 21.2671 2.99561C18.8278 3.50662 16.593 4.69081 14.8326 6.40535C13.6203 7.57403 12.6592 8.96418 12.0048 10.4953C11.3505 12.0264 11.0161 13.668 11.0207 15.3253V15.6214H15.045V15.3253C15.0478 13.4033 15.705 11.5359 16.9145 10.0128C18.1239 8.48963 19.8181 7.39588 21.7344 6.90123C21.5753 6.74883 21.433 6.58097 21.3095 6.40025Z" fill="#FFD731"/>
<path d="M21.6271 3.52588C21.3945 3.57028 21.163 3.62114 20.9325 3.67851C20.8252 3.996 20.7706 4.32801 20.7708 4.66211C20.7698 5.27971 20.957 5.88387 21.3089 6.39878C21.5083 6.3414 21.7102 6.29017 21.9146 6.24509C21.5527 5.79194 21.3564 5.23513 21.3564 4.66211C21.3558 4.26829 21.4484 3.8796 21.6271 3.52588Z" fill="#FFD731"/>
<path d="M24.0366 2.07055C24.391 2.07084 24.7417 2.13947 25.0683 2.27246C25.395 2.40544 25.6911 2.60012 25.9394 2.84513C26.2301 2.88611 26.5187 2.93734 26.8041 2.99676C26.5116 2.54005 26.1038 2.16319 25.6192 1.9018C25.1346 1.64041 24.5892 1.50312 24.0346 1.50293C23.4799 1.50302 22.9345 1.64025 22.4499 1.90165C21.9652 2.16305 21.5574 2.53998 21.265 2.99676C21.5504 2.93734 21.8389 2.88611 22.1296 2.84513C22.3783 2.59949 22.6751 2.40442 23.0026 2.27141C23.33 2.1384 23.6816 2.07012 24.0366 2.07055Z" fill="#FFD731"/>
<path d="M24.037 7.25984C23.4654 7.2586 22.9094 7.07897 22.4514 6.74756C22.209 6.78922 21.9708 6.83977 21.7368 6.89919C22.0393 7.19194 22.3982 7.42405 22.7933 7.58227C23.1883 7.74049 23.6117 7.82172 24.0391 7.82131C24.4665 7.82172 24.89 7.74049 25.285 7.58227C25.6801 7.42405 26.039 7.19194 26.3415 6.89919C26.1068 6.83977 25.8679 6.78957 25.6269 6.74756C25.1677 7.07981 24.6101 7.25948 24.037 7.25984Z" fill="#FFD731"/>
<path d="M26.7082 4.66211C26.7088 5.23522 26.5124 5.79221 26.1501 6.24509C26.3552 6.29017 26.5574 6.3414 26.7569 6.39878C27.1083 5.88366 27.2954 5.27964 27.2949 4.66211C27.2948 4.32796 27.2398 3.99595 27.1321 3.67851C26.9031 3.62114 26.6716 3.57028 26.4376 3.52588C26.6162 3.8796 26.7088 4.26829 26.7082 4.66211Z" fill="#FFD731"/>
</svg>
