<svg width="20" height="20" viewBox="0 0 20 20" fill="none" xmlns="http://www.w3.org/2000/svg">
<path d="M9.99483 19.1666C7.49066 19.1666 7.19546 19.1534 6.21822 19.1107C5.45615 19.0857 4.70395 18.931 3.994 18.6533C2.76564 18.1759 1.79434 17.2056 1.31678 15.9789C1.04937 15.2674 0.905138 14.5156 0.890257 13.7558C0.833252 12.782 0.833252 12.4629 0.833252 9.98162C0.833252 7.47395 0.846485 7.1812 0.890257 6.21046C0.905463 5.45167 1.04969 4.70099 1.31678 3.99046C1.79382 2.76206 2.7667 1.79096 3.99705 1.31507C4.70824 1.04692 5.4602 0.90252 6.22026 0.888142C7.1924 0.833252 7.51204 0.833252 9.99483 0.833252C12.5194 0.833252 12.8095 0.846466 13.7714 0.888142C14.5335 0.902644 15.2874 1.04703 16.0008 1.31507C17.2307 1.7915 18.2034 2.76241 18.681 3.99046C18.9529 4.71134 19.0979 5.47376 19.1096 6.244C19.1666 7.2178 19.1666 7.53596 19.1666 10.0162C19.1666 12.4964 19.1523 12.8217 19.1096 13.7843C19.0944 14.5448 18.9498 15.2973 18.682 16.0094C18.2033 17.237 17.2305 18.2076 16.0008 18.6848C15.2884 18.9513 14.536 19.0953 13.7755 19.1107C12.8034 19.1666 12.4847 19.1666 9.99483 19.1666ZM9.96022 2.44235C7.47031 2.44235 7.21175 2.45455 6.2396 2.49826C5.65935 2.50593 5.08471 2.61285 4.54064 2.81438C3.73722 3.12137 3.10148 3.75361 2.79078 4.55461C2.5874 5.10381 2.48031 5.6839 2.47419 6.26942C2.42024 7.25439 2.42024 7.51258 2.42024 9.98162C2.42024 12.4212 2.4294 12.717 2.47419 13.6959C2.4833 14.2755 2.59034 14.8494 2.79078 15.3934C3.10194 16.1939 3.73757 16.8256 4.54064 17.1326C5.08434 17.3355 5.65921 17.4424 6.2396 17.4487C7.22498 17.5056 7.48456 17.5056 9.96022 17.5056C12.4573 17.5056 12.7158 17.4934 13.6798 17.4487C14.2605 17.4417 14.8355 17.3347 15.3798 17.1326C16.1784 16.823 16.8099 16.1926 17.1205 15.3954C17.3235 14.8458 17.4306 14.2654 17.4371 13.6796H17.4483C17.4921 12.7078 17.4921 12.4486 17.4921 9.96536C17.4921 7.48208 17.4809 7.22085 17.4371 6.2501C17.428 5.67116 17.3209 5.09793 17.1205 4.55461C16.8107 3.75623 16.179 3.12471 15.3798 2.81438C14.8357 2.61184 14.2605 2.50488 13.6798 2.49826C12.6955 2.44235 12.4379 2.44235 9.96022 2.44235ZM9.99483 14.6768C8.09125 14.678 6.3744 13.534 5.64498 11.7782C4.91555 10.0225 5.31724 8.00083 6.66269 6.65615C8.00815 5.31147 10.0324 4.90862 11.7913 5.63547C13.5502 6.36232 14.6974 8.0757 14.6978 9.97654C14.695 12.5697 12.5917 14.6717 9.99483 14.6768ZM9.99483 6.92505C8.30823 6.92505 6.94097 8.29034 6.94097 9.97451C6.94097 11.6587 8.30823 13.024 9.99483 13.024C11.6814 13.024 13.0487 11.6587 13.0487 9.97451C13.0448 8.29196 11.6798 6.92896 9.99483 6.92505ZM14.881 6.2003C14.2758 6.19805 13.7866 5.70688 13.7877 5.1025C13.7888 4.49812 14.2798 4.00876 14.8851 4.00876C15.4903 4.00876 15.9813 4.49811 15.9824 5.10249C15.9827 5.39408 15.8667 5.67378 15.66 5.87977C15.4533 6.08577 15.173 6.20111 14.881 6.2003Z" fill="#F5C34B"/>
</svg>
