<svg width="34" height="46" viewBox="0 0 34 46" fill="none" xmlns="http://www.w3.org/2000/svg">
<path d="M33.5649 45.5011H0.5V42.6846H33.5649V45.5011ZM1.11206 44.9089H32.954V43.2799H1.11206V44.9089Z" fill="#FFD731"/>
<path d="M30.762 41.0383H3.30396V38.2239H30.762V41.0383ZM3.91179 40.4462H30.1468V38.8161H3.91179V40.4462Z" fill="#FFD731"/>
<path d="M32.1219 43.259H1.94287V40.4456H32.1219V43.259ZM2.5539 42.6668H31.5109V41.0377H2.55493L2.5539 42.6668Z" fill="#FFD731"/>
<path d="M8.85691 14.6245H3.30396V14.0322H8.85691V14.6245Z" fill="#FFD731"/>
<path d="M30.761 14.6245H25.208V14.0322H30.761V14.6245Z" fill="#FFD731"/>
<path d="M30.7609 16.0034H25.208V16.5956H30.7609V16.0034Z" fill="#FFD731"/>
<path d="M30.7609 36.25H25.208V36.8422H30.7609V36.25Z" fill="#FFD731"/>
<path d="M30.0474 36.8411H25.8708V16.0034H30.0474V36.8411ZM26.4818 36.2479H29.4364V16.5956H26.4818V36.2479Z" fill="#FFD731"/>
<path d="M26.4818 19.6651H25.8708C25.8708 18.8701 26.9057 18.2051 27.9068 17.5627C28.5886 17.1262 29.4364 16.5811 29.4364 16.2512H30.0474C30.0474 16.8998 29.2122 17.4357 28.2439 18.0576C27.4585 18.5606 26.4818 19.1887 26.4818 19.6651Z" fill="#FFD731"/>
<path d="M26.4818 23.0433H25.8708C25.8708 22.2482 26.9057 21.5833 27.9068 20.9408C28.5886 20.5034 29.4364 19.9594 29.4364 19.6284H30.0474C30.0474 20.278 29.2122 20.8138 28.2439 21.4347C27.4585 21.9388 26.4818 22.5658 26.4818 23.0433Z" fill="#FFD731"/>
<path d="M26.4818 26.4178H25.8708C25.8708 25.6217 26.9057 24.9578 27.9068 24.3154C28.5886 23.8779 29.4364 23.3339 29.4364 23.0029H30.0474C30.0474 23.6515 29.2122 24.1883 28.2439 24.8092C27.4585 25.3133 26.4818 25.9404 26.4818 26.4178Z" fill="#FFD731"/>
<path d="M26.4818 29.791H25.8708C25.8708 28.996 26.9057 28.331 27.9068 27.6886C28.5886 27.2522 29.4364 26.7071 29.4364 26.3772H30.0474C30.0474 27.0257 29.2122 27.5616 28.2439 28.1835C27.4585 28.6866 26.4818 29.3146 26.4818 29.791Z" fill="#FFD731"/>
<path d="M26.4818 33.1695H25.8708C25.8708 32.3745 26.9057 31.7095 27.9068 31.0671C28.5886 30.6296 29.4364 30.0856 29.4364 29.7546H30.0474C30.0474 30.4042 29.2122 30.9401 28.2439 31.5609C27.4585 32.065 26.4818 32.6921 26.4818 33.1695Z" fill="#FFD731"/>
<path d="M26.4818 36.5441H25.8708C25.8708 35.748 26.9057 35.084 27.9068 34.4416C28.5886 34.0041 29.4364 33.4601 29.4364 33.1292H30.0474C30.0474 33.7777 29.2122 34.3146 28.2439 34.9355C27.4585 35.4396 26.4818 36.0666 26.4818 36.5441Z" fill="#FFD731"/>
<path d="M8.85688 16.0034H3.30396V16.5956H8.85688V16.0034Z" fill="#FFD731"/>
<path d="M8.85688 36.25H3.30396V36.8422H8.85688V36.25Z" fill="#FFD731"/>
<path d="M4.01709 16.0034H8.19468V36.8411H4.01709V16.0034ZM7.58262 16.5956H4.62812V36.2458H7.58262V16.5956Z" fill="#FFD731"/>
<path d="M7.58262 19.6651H8.19468C8.19468 18.8701 7.15878 18.2051 6.15771 17.5627C5.47694 17.1262 4.62812 16.5811 4.62812 16.2512H4.01709C4.01709 16.8998 4.85321 17.4357 5.82045 18.0576C6.60587 18.5606 7.58262 19.1887 7.58262 19.6651Z" fill="#FFD731"/>
<path d="M7.58262 23.0433H8.19468C8.19468 22.2482 7.15878 21.5833 6.15771 20.9408C5.47694 20.5034 4.62812 19.9594 4.62812 19.6284H4.01709C4.01709 20.278 4.85321 20.8138 5.82045 21.4347C6.60587 21.9388 7.58262 22.5658 7.58262 23.0433Z" fill="#FFD731"/>
<path d="M7.58262 26.4178H8.19468C8.19468 25.6217 7.15878 24.9578 6.15771 24.3154C5.47694 23.8779 4.62812 23.3339 4.62812 23.0029H4.01709C4.01709 23.6515 4.85321 24.1883 5.82045 24.8092C6.60587 25.3133 7.58262 25.9404 7.58262 26.4178Z" fill="#FFD731"/>
<path d="M7.58262 29.791H8.19468C8.19468 28.996 7.15878 28.331 6.15771 27.6886C5.47694 27.2522 4.62812 26.7071 4.62812 26.3772H4.01709C4.01709 27.0257 4.85321 27.5616 5.82045 28.1835C6.60587 28.6866 7.58262 29.3146 7.58262 29.791Z" fill="#FFD731"/>
<path d="M7.58262 33.1695H8.19468C8.19468 32.3745 7.15878 31.7095 6.15771 31.0671C5.47694 30.6296 4.62812 30.0856 4.62812 29.7546H4.01709C4.01709 30.4042 4.85321 30.9401 5.82045 31.5609C6.60587 32.065 7.58262 32.6921 7.58262 33.1695Z" fill="#FFD731"/>
<path d="M7.58262 36.5441H8.19468C8.19468 35.748 7.15878 35.084 6.15771 34.4416C5.47694 34.0041 4.62812 33.4601 4.62812 33.1292H4.01709C4.01709 33.7777 4.85321 34.3146 5.82045 34.9355C6.60587 35.4396 7.58262 36.0666 7.58262 36.5441Z" fill="#FFD731"/>
<path d="M17.0552 10.073L9.89136 21.6312L17.0098 25.7028L24.1737 21.6322L17.0552 10.073ZM22.9919 20.8689L17.3375 18.3935L17.3576 11.7195L22.9919 20.8689ZM16.7254 18.4099L11.0764 20.874L16.7455 11.7277L16.7254 18.4099ZM10.9759 21.5676L16.7244 19.0605L16.7064 24.8453L10.9759 21.5676ZM17.3354 19.0472L23.0892 21.5656L17.3175 24.8442L17.3354 19.0472Z" fill="#FFD731"/>
<path d="M17.011 26.7617L9.87988 22.524L17.01 32.9665L24.2078 22.5159L17.011 26.7617ZM17.3387 27.2627L22.1644 24.4134L17.3387 31.4214V27.2627ZM16.7278 27.2883V31.4788L11.9116 24.4267L16.7278 27.2883Z" fill="#FFD731"/>
<path d="M17.0374 6.82367C16.1725 6.82285 15.3432 6.48948 14.7316 5.8967C14.12 5.30392 13.776 4.50018 13.7751 3.66186C13.776 2.82354 14.12 2.0198 14.7316 1.42702C15.3432 0.834235 16.1725 0.500814 17.0374 0.5C17.9022 0.501084 18.7313 0.834594 19.3429 1.42732C19.9544 2.02004 20.2985 2.82362 20.2996 3.66186C20.2985 4.50009 19.9544 5.30368 19.3429 5.8964C18.7313 6.48912 17.9022 6.82258 17.0374 6.82367ZM17.0374 1.06762C16.3278 1.06843 15.6474 1.34201 15.1457 1.82834C14.6439 2.31467 14.3616 2.97408 14.3608 3.66186C14.3616 4.34964 14.6439 5.009 15.1457 5.49533C15.6474 5.98166 16.3278 6.25524 17.0374 6.25605C17.7469 6.25524 18.4271 5.98164 18.9287 5.49528C19.4303 5.00892 19.7123 4.34954 19.7128 3.66186C19.7114 2.97471 19.4291 2.31609 18.9276 1.83039C18.426 1.34469 17.7463 1.07153 17.0374 1.07072V1.06762Z" fill="#FFD731"/>
<path d="M17.0378 5.60943C16.5051 5.60943 15.9943 5.40434 15.6176 5.03926C15.241 4.67419 15.0293 4.17904 15.0293 3.66275C15.0293 3.14645 15.241 2.65131 15.6176 2.28623C15.9943 1.92116 16.5051 1.71606 17.0378 1.71606C17.5705 1.71606 18.0813 1.92116 18.4579 2.28623C18.8346 2.65131 19.0463 3.14645 19.0463 3.66275C19.0463 4.17904 18.8346 4.67419 18.4579 5.03926C18.0813 5.40434 17.5705 5.60943 17.0378 5.60943ZM17.0378 2.33081C16.6733 2.33081 16.3238 2.47114 16.0661 2.72092C15.8083 2.97071 15.6636 3.30949 15.6636 3.66275C15.6636 4.016 15.8083 4.35478 16.0661 4.60457C16.3238 4.85436 16.6733 4.99469 17.0378 4.99469C17.4022 4.99469 17.7518 4.85436 18.0095 4.60457C18.2672 4.35478 18.412 4.016 18.412 3.66275C18.4114 3.30985 18.2664 2.97157 18.0088 2.72222C17.7511 2.47288 17.4019 2.33286 17.0378 2.33286V2.33081Z" fill="#FFD731"/>
<path d="M17.0324 4.21211C17.3453 4.21211 17.599 3.96624 17.599 3.66294C17.599 3.35964 17.3453 3.11377 17.0324 3.11377C16.7195 3.11377 16.4658 3.35964 16.4658 3.66294C16.4658 3.96624 16.7195 4.21211 17.0324 4.21211Z" fill="#FFD731"/>
<path d="M26.2341 5.40535C24.474 3.69084 22.2396 2.50664 19.8006 1.99561C19.9385 2.21004 20.0493 2.43981 20.1304 2.67999C22.2784 3.21419 24.2378 4.30054 25.8018 5.82438C28.0609 8.00137 29.3616 10.9422 29.4308 14.0291H26.6284C26.5619 12.074 25.8625 10.1888 24.6293 8.64015C23.3962 7.09155 21.6918 5.95809 19.7573 5.40025C19.6344 5.58083 19.4927 5.74868 19.3345 5.90123C21.2506 6.39592 22.9447 7.48972 24.154 9.01286C25.3633 10.536 26.0201 12.4034 26.0227 14.3253V14.6214H30.0471V14.3253C30.0516 12.668 29.7169 11.0262 29.0624 9.49513C28.4079 7.96402 27.4466 6.57395 26.2341 5.40535Z" fill="#FFD731"/>
<path d="M14.3095 5.40025C12.375 5.95809 10.6705 7.09155 9.43738 8.64015C8.20425 10.1888 7.50497 12.074 7.4384 14.0291H4.63596C4.70555 10.9423 6.00624 8.00162 8.26498 5.82438C9.82906 4.30074 11.7884 3.21442 13.9363 2.67999C14.0178 2.43977 14.1289 2.21 14.2672 1.99561C11.8278 2.50662 9.59311 3.69081 7.83264 5.40535C6.62034 6.57403 5.65922 7.96418 5.00491 9.49528C4.3506 11.0264 4.01614 12.668 4.0208 14.3253V14.6214H8.04509V14.3253C8.04788 12.4033 8.70505 10.5359 9.91452 9.01276C11.124 7.48963 12.8182 6.39588 14.7344 5.90123C14.5754 5.74883 14.433 5.58097 14.3095 5.40025Z" fill="#FFD731"/>
<path d="M14.6271 2.52588C14.3945 2.57028 14.163 2.62114 13.9325 2.67851C13.8252 2.996 13.7706 3.32801 13.7708 3.66211C13.7698 4.27971 13.957 4.88387 14.3089 5.39878C14.5083 5.3414 14.7102 5.29017 14.9146 5.24509C14.5527 4.79194 14.3564 4.23513 14.3564 3.66211C14.3558 3.26829 14.4484 2.8796 14.6271 2.52588Z" fill="#FFD731"/>
<path d="M17.0366 1.07055C17.3909 1.07084 17.7416 1.13947 18.0683 1.27246C18.3949 1.40544 18.6911 1.60012 18.9393 1.84513C19.23 1.88611 19.5186 1.93734 19.804 1.99676C19.5115 1.54005 19.1037 1.16319 18.6191 0.901801C18.1345 0.640412 17.5891 0.503119 17.0345 0.50293C16.4799 0.503022 15.9344 0.640252 15.4498 0.901651C14.9651 1.16305 14.5573 1.53998 14.2649 1.99676C14.5503 1.93734 14.8389 1.88611 15.1296 1.84513C15.3782 1.59949 15.675 1.40442 16.0025 1.27141C16.33 1.1384 16.6815 1.07012 17.0366 1.07055Z" fill="#FFD731"/>
<path d="M17.037 6.25984C16.4654 6.2586 15.9094 6.07897 15.4514 5.74756C15.209 5.78922 14.9708 5.83977 14.7368 5.89919C15.0393 6.19194 15.3982 6.42405 15.7933 6.58227C16.1883 6.74049 16.6117 6.82172 17.0391 6.82131C17.4665 6.82172 17.89 6.74049 18.285 6.58227C18.6801 6.42405 19.039 6.19194 19.3415 5.89919C19.1068 5.83977 18.8679 5.78957 18.6269 5.74756C18.1677 6.07981 17.6101 6.25948 17.037 6.25984Z" fill="#FFD731"/>
<path d="M19.7082 3.66211C19.7088 4.23522 19.5125 4.79221 19.1501 5.24509C19.3552 5.29017 19.5575 5.3414 19.7569 5.39878C20.1083 4.88366 20.2955 4.27964 20.295 3.66211C20.2948 3.32796 20.2399 2.99595 20.1322 2.67851C19.9032 2.62114 19.6716 2.57028 19.4376 2.52588C19.6163 2.8796 19.7088 3.26829 19.7082 3.66211Z" fill="#FFD731"/>
</svg>
