<svg width="48" height="48" viewBox="0 0 48 48" fill="none" xmlns="http://www.w3.org/2000/svg">
<path d="M40.5649 46.5011H7.5V43.6846H40.5649V46.5011ZM8.11206 45.9089H39.954V44.2799H8.11206V45.9089Z" fill="#FFD731"/>
<path d="M37.7619 42.0383H10.3038V39.2239H37.7619V42.0383ZM10.9117 41.4462H37.1466V39.8161H10.9117V41.4462Z" fill="#FFD731"/>
<path d="M39.1219 44.259H8.94287V41.4456H39.1219V44.259ZM9.5539 43.6668H38.5109V42.0377H9.55493L9.5539 43.6668Z" fill="#FFD731"/>
<path d="M15.8568 15.6245H10.3038V15.0322H15.8568V15.6245Z" fill="#FFD731"/>
<path d="M37.761 15.6245H32.2081V15.0322H37.761V15.6245Z" fill="#FFD731"/>
<path d="M37.761 17.0034H32.2081V17.5956H37.761V17.0034Z" fill="#FFD731"/>
<path d="M37.7609 37.25H32.208V37.8422H37.7609V37.25Z" fill="#FFD731"/>
<path d="M37.0474 37.8411H32.8708V17.0034H37.0474V37.8411ZM33.4818 37.2479H36.4364V17.5956H33.4818V37.2479Z" fill="#FFD731"/>
<path d="M33.4818 20.6651H32.8708C32.8708 19.8701 33.9057 19.2051 34.9068 18.5627C35.5886 18.1262 36.4364 17.5811 36.4364 17.2512H37.0474C37.0474 17.8998 36.2122 18.4357 35.2439 19.0576C34.4585 19.5606 33.4818 20.1887 33.4818 20.6651Z" fill="#FFD731"/>
<path d="M33.4818 24.0433H32.8708C32.8708 23.2482 33.9057 22.5833 34.9068 21.9408C35.5886 21.5034 36.4364 20.9594 36.4364 20.6284H37.0474C37.0474 21.278 36.2122 21.8138 35.2439 22.4347C34.4585 22.9388 33.4818 23.5658 33.4818 24.0433Z" fill="#FFD731"/>
<path d="M33.4818 27.4178H32.8708C32.8708 26.6217 33.9057 25.9578 34.9068 25.3154C35.5886 24.8779 36.4364 24.3339 36.4364 24.0029H37.0474C37.0474 24.6515 36.2122 25.1883 35.2439 25.8092C34.4585 26.3133 33.4818 26.9404 33.4818 27.4178Z" fill="#FFD731"/>
<path d="M33.4818 30.791H32.8708C32.8708 29.996 33.9057 29.331 34.9068 28.6886C35.5886 28.2522 36.4364 27.7071 36.4364 27.3772H37.0474C37.0474 28.0257 36.2122 28.5616 35.2439 29.1835C34.4585 29.6866 33.4818 30.3146 33.4818 30.791Z" fill="#FFD731"/>
<path d="M33.4818 34.1695H32.8708C32.8708 33.3745 33.9057 32.7095 34.9068 32.0671C35.5886 31.6296 36.4364 31.0856 36.4364 30.7546H37.0474C37.0474 31.4042 36.2122 31.9401 35.2439 32.5609C34.4585 33.065 33.4818 33.6921 33.4818 34.1695Z" fill="#FFD731"/>
<path d="M33.4818 37.5441H32.8708C32.8708 36.748 33.9057 36.084 34.9068 35.4416C35.5886 35.0041 36.4364 34.4601 36.4364 34.1292H37.0474C37.0474 34.7777 36.2122 35.3146 35.2439 35.9355C34.4585 36.4396 33.4818 37.0666 33.4818 37.5441Z" fill="#FFD731"/>
<path d="M15.8568 17.0034H10.3038V17.5956H15.8568V17.0034Z" fill="#FFD731"/>
<path d="M15.8569 37.25H10.304V37.8422H15.8569V37.25Z" fill="#FFD731"/>
<path d="M11.0171 17.0034H15.1947V37.8411H11.0171V17.0034ZM14.5826 17.5956H11.6281V37.2458H14.5826V17.5956Z" fill="#FFD731"/>
<path d="M14.5826 20.6651H15.1947C15.1947 19.8701 14.1588 19.2051 13.1577 18.5627C12.4769 18.1262 11.6281 17.5811 11.6281 17.2512H11.0171C11.0171 17.8998 11.8532 18.4357 12.8204 19.0576C13.6059 19.5606 14.5826 20.1887 14.5826 20.6651Z" fill="#FFD731"/>
<path d="M14.5826 24.0433H15.1947C15.1947 23.2482 14.1588 22.5833 13.1577 21.9408C12.4769 21.5034 11.6281 20.9594 11.6281 20.6284H11.0171C11.0171 21.278 11.8532 21.8138 12.8204 22.4347C13.6059 22.9388 14.5826 23.5658 14.5826 24.0433Z" fill="#FFD731"/>
<path d="M14.5826 27.4178H15.1947C15.1947 26.6217 14.1588 25.9578 13.1577 25.3154C12.4769 24.8779 11.6281 24.3339 11.6281 24.0029H11.0171C11.0171 24.6515 11.8532 25.1883 12.8204 25.8092C13.6059 26.3133 14.5826 26.9404 14.5826 27.4178Z" fill="#FFD731"/>
<path d="M14.5826 30.791H15.1947C15.1947 29.996 14.1588 29.331 13.1577 28.6886C12.4769 28.2522 11.6281 27.7071 11.6281 27.3772H11.0171C11.0171 28.0257 11.8532 28.5616 12.8204 29.1835C13.6059 29.6866 14.5826 30.3146 14.5826 30.791Z" fill="#FFD731"/>
<path d="M14.5826 34.1695H15.1947C15.1947 33.3745 14.1588 32.7095 13.1577 32.0671C12.4769 31.6296 11.6281 31.0856 11.6281 30.7546H11.0171C11.0171 31.4042 11.8532 31.9401 12.8204 32.5609C13.6059 33.065 14.5826 33.6921 14.5826 34.1695Z" fill="#FFD731"/>
<path d="M14.5826 37.5441H15.1947C15.1947 36.748 14.1588 36.084 13.1577 35.4416C12.4769 35.0041 11.6281 34.4601 11.6281 34.1292H11.0171C11.0171 34.7777 11.8532 35.3146 12.8204 35.9355C13.6059 36.4396 14.5826 37.0666 14.5826 37.5441Z" fill="#FFD731"/>
<path d="M24.0552 11.073L16.8914 22.6312L24.0098 26.7028L31.1737 22.6322L24.0552 11.073ZM29.9919 21.8689L24.3375 19.3935L24.3576 12.7195L29.9919 21.8689ZM23.7254 19.4099L18.0764 21.874L23.7455 12.7277L23.7254 19.4099ZM17.9759 22.5676L23.7244 20.0605L23.7064 25.8453L17.9759 22.5676ZM24.3354 20.0472L30.0892 22.5656L24.3175 25.8442L24.3354 20.0472Z" fill="#FFD731"/>
<path d="M24.011 27.7617L16.8798 23.524L24.01 33.9665L31.2077 23.5159L24.011 27.7617ZM24.3386 28.2627L29.1643 25.4134L24.3386 32.4214V28.2627ZM23.7277 28.2883V32.4788L18.9115 25.4267L23.7277 28.2883Z" fill="#FFD731"/>
<path d="M24.0373 7.82367C23.1724 7.82285 22.3431 7.48948 21.7315 6.8967C21.1199 6.30392 20.7759 5.50018 20.7751 4.66186C20.7759 3.82354 21.1199 3.0198 21.7315 2.42702C22.3431 1.83424 23.1724 1.50081 24.0373 1.5C24.9022 1.50108 25.7313 1.83459 26.3428 2.42732C26.9543 3.02004 27.2984 3.82362 27.2996 4.66186C27.2984 5.50009 26.9543 6.30368 26.3428 6.8964C25.7313 7.48912 24.9022 7.82258 24.0373 7.82367ZM24.0373 2.06762C23.3277 2.06843 22.6474 2.34201 22.1456 2.82834C21.6438 3.31467 21.3616 3.97408 21.3607 4.66186C21.3616 5.34964 21.6438 6.009 22.1456 6.49533C22.6474 6.98166 23.3277 7.25524 24.0373 7.25605C24.7468 7.25524 25.427 6.98164 25.9286 6.49528C26.4302 6.00892 26.7122 5.34954 26.7128 4.66186C26.7114 3.97471 26.429 3.31609 25.9275 2.83039C25.426 2.34469 24.7463 2.07153 24.0373 2.07072V2.06762Z" fill="#FFD731"/>
<path d="M24.0378 6.60943C23.5052 6.60943 22.9943 6.40434 22.6177 6.03926C22.241 5.67419 22.0294 5.17904 22.0294 4.66275C22.0294 4.14645 22.241 3.65131 22.6177 3.28623C22.9943 2.92116 23.5052 2.71606 24.0378 2.71606C24.5705 2.71606 25.0813 2.92116 25.458 3.28623C25.8347 3.65131 26.0463 4.14645 26.0463 4.66275C26.0463 5.17904 25.8347 5.67419 25.458 6.03926C25.0813 6.40434 24.5705 6.60943 24.0378 6.60943ZM24.0378 3.33081C23.6734 3.33081 23.3238 3.47114 23.0661 3.72092C22.8084 3.97071 22.6636 4.30949 22.6636 4.66275C22.6636 5.016 22.8084 5.35478 23.0661 5.60457C23.3238 5.85436 23.6734 5.99469 24.0378 5.99469C24.4023 5.99469 24.7518 5.85436 25.0096 5.60457C25.2673 5.35478 25.4121 5.016 25.4121 4.66275C25.4115 4.30985 25.2665 3.97157 25.0088 3.72222C24.7512 3.47288 24.4019 3.33286 24.0378 3.33286V3.33081Z" fill="#FFD731"/>
<path d="M24.0324 5.21211C24.3453 5.21211 24.599 4.96624 24.599 4.66294C24.599 4.35964 24.3453 4.11377 24.0324 4.11377C23.7195 4.11377 23.4658 4.35964 23.4658 4.66294C23.4658 4.96624 23.7195 5.21211 24.0324 5.21211Z" fill="#FFD731"/>
<path d="M33.2341 6.40535C31.4741 4.69084 29.2397 3.50664 26.8006 2.99561C26.9386 3.21004 27.0494 3.43981 27.1305 3.67999C29.2785 4.21419 31.2379 5.30054 32.8018 6.82438C35.0609 9.00137 36.3617 11.9422 36.4308 15.0291H33.6285C33.5619 13.074 32.8625 11.1888 31.6294 9.64015C30.3963 8.09155 28.6919 6.95809 26.7574 6.40025C26.6345 6.58083 26.4928 6.74868 26.3345 6.90123C28.2506 7.39592 29.9447 8.48972 31.154 10.0129C32.3633 11.536 33.0202 13.4034 33.0227 15.3253V15.6214H37.0471V15.3253C37.0516 13.668 36.717 12.0262 36.0625 10.4951C35.408 8.96402 34.4466 7.57395 33.2341 6.40535Z" fill="#FFD731"/>
<path d="M21.3095 6.40025C19.375 6.95809 17.6705 8.09155 16.4373 9.64015C15.2042 11.1888 14.5049 13.074 14.4383 15.0291H11.6359C11.7055 11.9423 13.0062 9.00162 15.2649 6.82438C16.829 5.30074 18.7884 4.21442 20.9363 3.67999C21.0177 3.43977 21.1288 3.21 21.2671 2.99561C18.8278 3.50662 16.593 4.69081 14.8326 6.40535C13.6203 7.57403 12.6592 8.96418 12.0048 10.4953C11.3505 12.0264 11.0161 13.668 11.0207 15.3253V15.6214H15.045V15.3253C15.0478 13.4033 15.705 11.5359 16.9145 10.0128C18.1239 8.48963 19.8181 7.39588 21.7344 6.90123C21.5753 6.74883 21.433 6.58097 21.3095 6.40025Z" fill="#FFD731"/>
<path d="M21.6271 3.52588C21.3945 3.57028 21.163 3.62114 20.9325 3.67851C20.8252 3.996 20.7706 4.32801 20.7708 4.66211C20.7698 5.27971 20.957 5.88387 21.3089 6.39878C21.5083 6.3414 21.7102 6.29017 21.9146 6.24509C21.5527 5.79194 21.3564 5.23513 21.3564 4.66211C21.3558 4.26829 21.4484 3.8796 21.6271 3.52588Z" fill="#FFD731"/>
<path d="M24.0366 2.07055C24.391 2.07084 24.7417 2.13947 25.0683 2.27246C25.395 2.40544 25.6911 2.60012 25.9394 2.84513C26.2301 2.88611 26.5187 2.93734 26.8041 2.99676C26.5116 2.54005 26.1038 2.16319 25.6192 1.9018C25.1346 1.64041 24.5892 1.50312 24.0346 1.50293C23.4799 1.50302 22.9345 1.64025 22.4499 1.90165C21.9652 2.16305 21.5574 2.53998 21.265 2.99676C21.5504 2.93734 21.8389 2.88611 22.1296 2.84513C22.3783 2.59949 22.6751 2.40442 23.0026 2.27141C23.33 2.1384 23.6816 2.07012 24.0366 2.07055Z" fill="#FFD731"/>
<path d="M24.037 7.25984C23.4654 7.2586 22.9094 7.07897 22.4514 6.74756C22.209 6.78922 21.9708 6.83977 21.7368 6.89919C22.0393 7.19194 22.3982 7.42405 22.7933 7.58227C23.1883 7.74049 23.6117 7.82172 24.0391 7.82131C24.4665 7.82172 24.89 7.74049 25.285 7.58227C25.6801 7.42405 26.039 7.19194 26.3415 6.89919C26.1068 6.83977 25.8679 6.78957 25.6269 6.74756C25.1677 7.07981 24.6101 7.25948 24.037 7.25984Z" fill="#FFD731"/>
<path d="M26.7082 4.66211C26.7088 5.23522 26.5124 5.79221 26.1501 6.24509C26.3552 6.29017 26.5574 6.3414 26.7569 6.39878C27.1083 5.88366 27.2954 5.27964 27.2949 4.66211C27.2948 4.32796 27.2398 3.99595 27.1321 3.67851C26.9031 3.62114 26.6716 3.57028 26.4376 3.52588C26.6162 3.8796 26.7088 4.26829 26.7082 4.66211Z" fill="#FFD731"/>
</svg>
