<svg width="128" height="24" viewBox="0 0 128 24" fill="none" xmlns="http://www.w3.org/2000/svg">
<path d="M8.29245 0.505554H0V22.7925H8.29245C13.3091 22.7925 17.0462 20.3767 18.5459 16.1653C19.0307 14.8062 19.2769 13.2869 19.2769 11.649C19.2769 10.0111 19.0411 8.55825 18.5772 7.16531C17.0696 2.93309 13.3208 0.505554 8.29245 0.505554ZM14.4805 14.7854C13.528 17.4462 11.365 18.972 8.54523 18.972H4.07325V4.32602H8.54523C11.335 4.32602 13.498 5.82971 14.4805 8.44879C14.8349 9.44691 15.0134 10.5232 15.0134 11.6477C15.0134 12.7722 14.8388 13.8055 14.4805 14.7841V14.7854Z" fill="#EFEFEF"/>
<path d="M28.3095 6.83044C25.4429 6.83044 23.0844 7.99926 21.6706 10.1193C20.7312 11.4471 20.2334 13.1462 20.2334 15.033C20.2334 16.9198 20.7299 18.6176 21.6693 19.9454C23.0844 22.0667 25.4429 23.2355 28.3082 23.2355C31.1736 23.2355 33.5659 22.0667 34.9797 19.9467C35.9192 18.6176 36.417 16.9185 36.417 15.033C36.417 13.1475 35.9205 11.4484 34.981 10.1206C33.5659 7.99926 31.197 6.83044 28.3082 6.83044H28.3095ZM31.5984 18.1212C30.8674 19.2001 29.6999 19.7955 28.3095 19.7955C26.9192 19.7955 25.783 19.2014 25.0533 18.1212C24.4747 17.2859 24.1816 16.2474 24.1816 15.0343C24.1816 13.8212 24.4747 12.7827 25.0546 11.9474C25.7843 10.8672 26.9401 10.273 28.3108 10.273C29.6816 10.273 30.87 10.8672 31.5997 11.9461C32.1574 12.7996 32.4401 13.8394 32.4401 15.0343C32.4401 16.2292 32.1574 17.269 31.5997 18.1225L31.5984 18.1212Z" fill="#EFEFEF"/>
<path d="M41.7658 7.27216H37.8815V22.7925H41.7658V7.27216Z" fill="#EFEFEF"/>
<path d="M39.8244 0.753174C38.5344 0.753174 37.4841 1.80341 37.4841 3.09341C37.4841 4.3834 38.5344 5.43364 39.8244 5.43364C41.1144 5.43364 42.1646 4.3834 42.1646 3.09341C42.1646 1.80341 41.1144 0.753174 39.8244 0.753174Z" fill="#EFEFEF"/>
<path d="M52.9679 6.83044C50.861 6.83044 49.2817 7.89502 48.2692 9.99419V7.27347H44.3862V22.7938H48.2692V14.7177C48.2692 12.053 49.6087 10.3981 51.7653 10.3981C53.6664 10.3981 54.6293 11.5318 54.6293 13.769V22.7938H58.5123V13.1671C58.5123 9.02083 56.5943 6.83044 52.9653 6.83044H52.9679Z" fill="#EFEFEF"/>
<path d="M70.4076 14.5717H76.339C76.0575 17.1647 73.8293 19.6366 70.6017 19.6366C67.7572 19.6366 64.0814 17.2299 64.0814 11.6907C64.0814 6.15158 67.5253 3.82047 70.7776 3.82047C73.7889 3.82047 75.8959 6.03952 76.0797 8.14911L76.0888 8.21427H80.2845L80.278 8.13218C79.9171 3.91559 76.2842 0 70.7776 0C66.0151 0 62.2428 2.58911 60.5828 7.01679C60.0759 8.40842 59.8192 9.99289 59.8192 11.722C59.8192 13.4511 60.0942 15.1177 60.6141 16.5849C62.0669 20.6933 65.7154 23.2981 69.8434 23.2981C72.985 23.2981 75.4803 21.5351 76.3911 19.1766L76.4106 22.7925H80.2311V10.9715H70.4076V14.5704V14.5717Z" fill="#EFEFEF"/>
<path d="M92.2828 15.3496C92.2828 18.013 91.0032 19.6678 88.9445 19.6678C87.1489 19.6678 86.2381 18.5342 86.2381 16.2969V7.27216H82.3538V16.8976C82.3538 21.1025 84.1663 23.2342 87.7418 23.2342C89.7771 23.2342 91.3029 22.1827 92.2815 20.1083V22.7925H96.1658V7.27216H92.2815V15.3483L92.2828 15.3496Z" fill="#EFEFEF"/>
<path d="M109.743 9.98245C108.726 7.91846 106.999 6.83043 104.729 6.83043C102.459 6.83043 100.558 7.79337 99.2904 9.615C98.3509 11.0079 97.8545 12.8817 97.8545 15.033C97.8545 17.1843 98.3509 19.058 99.2917 20.4523C100.56 22.2726 102.44 23.2355 104.729 23.2355C107.019 23.2355 108.726 22.1475 109.743 20.0835V22.7925H113.628V0.505554H109.743V9.98245ZM108.934 18.2775C108.253 19.2691 107.17 19.7942 105.804 19.7942C104.439 19.7942 103.387 19.2691 102.704 18.2762C102.122 17.467 101.801 16.3152 101.801 15.033C101.801 13.7508 102.122 12.5976 102.704 11.7871C103.387 10.7955 104.458 10.2704 105.803 10.2704C107.148 10.2704 108.251 10.7942 108.934 11.7884C109.504 12.5794 109.806 13.7013 109.806 15.0317C109.806 16.3621 109.505 17.484 108.934 18.2775Z" fill="#EFEFEF"/>
<path d="M121.893 0.0769043C118.519 0.0769043 115.785 2.81195 115.785 6.18418C115.785 9.55641 118.52 12.2915 121.893 12.2915C125.265 12.2915 128 9.55641 128 6.18418C128 2.81195 125.266 0.0769043 121.893 0.0769043ZM121.893 11.3872C119.02 11.3872 116.69 9.05735 116.69 6.18418C116.69 3.31101 119.02 0.981203 121.893 0.981203C124.766 0.981203 127.096 3.31101 127.096 6.18418C127.096 9.05735 124.766 11.3872 121.893 11.3872Z" fill="#EFEFEF"/>
<path d="M119.13 5.2251C119.52 5.2251 119.837 4.90891 119.837 4.51886C119.837 4.12882 119.52 3.81262 119.13 3.81262C118.74 3.81262 118.424 4.12882 118.424 4.51886C118.424 4.90891 118.74 5.2251 119.13 5.2251Z" fill="#EFEFEF"/>
<path d="M119.13 7.14319C118.732 7.14319 118.424 7.44158 118.424 7.84943C118.424 8.25727 118.732 8.55567 119.13 8.55567C119.529 8.55567 119.837 8.25727 119.837 7.84943C119.837 7.44158 119.538 7.14319 119.13 7.14319Z" fill="#EFEFEF"/>
<path d="M122.471 3.07385H120.697V9.29449H122.471C123.854 9.29449 124.887 8.62213 125.308 7.45071C125.443 7.07153 125.511 6.64544 125.511 6.18417C125.511 5.7229 125.446 5.32418 125.316 4.93457C124.895 3.75143 123.858 3.07385 122.47 3.07385H122.471ZM124.46 7.14711C124.161 7.98886 123.469 8.47228 122.56 8.47228H121.554V3.89606H122.56C123.46 3.89606 124.153 4.37297 124.461 5.2043C124.569 5.49748 124.623 5.81802 124.623 6.18417C124.623 6.55032 124.568 6.87477 124.461 7.14711H124.46Z" fill="#EFEFEF"/>
</svg>
