<svg width="68" height="88" viewBox="0 0 68 88" fill="none" xmlns="http://www.w3.org/2000/svg">
<rect width="68" height="88" fill="#F5C34B"/>
<path d="M56.2908 76H10V71.9316H56.2908V76ZM10.8569 75.1446H55.4355V72.7915H10.8569V75.1446Z" fill="#354B37"/>
<path d="M52.3661 69.5556H13.9248V65.4902H52.3661V69.5556ZM14.7758 68.7002H51.5047V66.3456H14.7758V68.7002Z" fill="#354B37"/>
<path d="M54.2712 72.7631H12.0205V68.6992H54.2712V72.7631ZM12.8759 71.9077H53.4157V69.5546H12.8774L12.8759 71.9077Z" fill="#354B37"/>
<path d="M21.6989 31.4004H13.9248V30.5449H21.6989V31.4004Z" fill="#354B37"/>
<path d="M52.3659 31.4004H44.5918V30.5449H52.3659V31.4004Z" fill="#354B37"/>
<path d="M52.3659 33.3965H44.5918V34.2519H52.3659V33.3965Z" fill="#354B37"/>
<path d="M52.3659 62.6367H44.5918V63.4921H52.3659V62.6367Z" fill="#354B37"/>
<path d="M51.3667 63.4954H45.5195V33.3965H51.3667V63.4954ZM46.3748 62.6385H50.5113V34.2519H46.3748V62.6385Z" fill="#354B37"/>
<path d="M46.3748 38.6851H45.5195C45.5195 37.5367 46.9684 36.5762 48.3698 35.6483C49.3244 35.0178 50.5113 34.2304 50.5113 33.7539H51.3667C51.3667 34.6907 50.1975 35.4648 48.8419 36.3631C47.7423 37.0897 46.3748 37.9969 46.3748 38.6851Z" fill="#354B37"/>
<path d="M46.3748 43.5615H45.5195C45.5195 42.413 46.9684 41.4526 48.3698 40.5246C49.3244 39.8927 50.5113 39.1069 50.5113 38.6289H51.3667C51.3667 39.5672 50.1975 40.3412 48.8419 41.238C47.7423 41.9661 46.3748 42.8718 46.3748 43.5615Z" fill="#354B37"/>
<path d="M46.3748 48.4385H45.5195C45.5195 47.2886 46.9684 46.3296 48.3698 45.4017C49.3244 44.7697 50.5113 43.9839 50.5113 43.5059H51.3667C51.3667 44.4427 50.1975 45.2181 48.8419 46.115C47.7423 46.8431 46.3748 47.7488 46.3748 48.4385Z" fill="#354B37"/>
<path d="M46.3748 53.312H45.5195C45.5195 52.1635 46.9684 51.2031 48.3698 50.2751C49.3244 49.6447 50.5113 48.8574 50.5113 48.3809H51.3667C51.3667 49.3177 50.1975 50.0916 48.8419 50.99C47.7423 51.7166 46.3748 52.6238 46.3748 53.312Z" fill="#354B37"/>
<path d="M46.3748 58.1885H45.5195C45.5195 57.0401 46.9684 56.0796 48.3698 55.1517C49.3244 54.5197 50.5113 53.7339 50.5113 53.2559H51.3667C51.3667 54.1941 50.1975 54.9681 48.8419 55.865C47.7423 56.5931 46.3748 57.4988 46.3748 58.1885Z" fill="#354B37"/>
<path d="M46.3748 63.0654H45.5195C45.5195 61.9155 46.9684 60.9565 48.3698 60.0286C49.3244 59.3967 50.5113 58.6108 50.5113 58.1328H51.3667C51.3667 59.0696 50.1975 59.8452 48.8419 60.742C47.7423 61.4701 46.3748 62.3758 46.3748 63.0654Z" fill="#354B37"/>
<path d="M21.6989 33.3965H13.9248V34.2519H21.6989V33.3965Z" fill="#354B37"/>
<path d="M21.6989 62.6367H13.9248V63.4921H21.6989V62.6367Z" fill="#354B37"/>
<path d="M14.9238 33.3965H20.7725V63.4954H14.9238V33.3965ZM19.9156 34.2519H15.7793V62.6355H19.9156V34.2519Z" fill="#354B37"/>
<path d="M19.9156 38.6851H20.7725C20.7725 37.5367 19.3222 36.5762 17.9207 35.6483C16.9676 35.0178 15.7793 34.2304 15.7793 33.7539H14.9238C14.9238 34.6907 16.0944 35.4648 17.4485 36.3631C18.5481 37.0897 19.9156 37.9969 19.9156 38.6851Z" fill="#354B37"/>
<path d="M19.9156 43.5615H20.7725C20.7725 42.413 19.3222 41.4526 17.9207 40.5246C16.9676 39.8927 15.7793 39.1069 15.7793 38.6289H14.9238C14.9238 39.5672 16.0944 40.3412 17.4485 41.238C18.5481 41.9661 19.9156 42.8718 19.9156 43.5615Z" fill="#354B37"/>
<path d="M19.9156 48.4385H20.7725C20.7725 47.2886 19.3222 46.3296 17.9207 45.4017C16.9676 44.7697 15.7793 43.9839 15.7793 43.5059H14.9238C14.9238 44.4427 16.0944 45.2181 17.4485 46.115C18.5481 46.8431 19.9156 47.7488 19.9156 48.4385Z" fill="#354B37"/>
<path d="M19.9156 53.312H20.7725C20.7725 52.1635 19.3222 51.2031 17.9207 50.2751C16.9676 49.6447 15.7793 48.8574 15.7793 48.3809H14.9238C14.9238 49.3177 16.0944 50.0916 17.4485 50.99C18.5481 51.7166 19.9156 52.6238 19.9156 53.312Z" fill="#354B37"/>
<path d="M19.9156 58.1885H20.7725C20.7725 57.0401 19.3222 56.0796 17.9207 55.1517C16.9676 54.5197 15.7793 53.7339 15.7793 53.2559H14.9238C14.9238 54.1941 16.0944 54.9681 17.4485 55.865C18.5481 56.5931 19.9156 57.4988 19.9156 58.1885Z" fill="#354B37"/>
<path d="M19.9156 63.0654H20.7725C20.7725 61.9155 19.3222 60.9565 17.9207 60.0286C16.9676 59.3967 15.7793 58.6108 15.7793 58.1328H14.9238C14.9238 59.0696 16.0944 59.8452 17.4485 60.742C18.5481 61.4701 19.9156 62.3758 19.9156 63.0654Z" fill="#354B37"/>
<path d="M33.1769 24.8262L23.1475 41.5213L33.1133 47.4025L43.1427 41.5228L33.1769 24.8262ZM41.4882 40.4202L33.572 36.8447L33.6002 27.2044L41.4882 40.4202ZM32.7151 36.8684L24.8065 40.4276L32.7433 27.2162L32.7151 36.8684ZM24.6658 41.4295L32.7137 37.8082L32.6886 46.1639L24.6658 41.4295ZM33.5691 37.7889L41.6244 41.4266L33.544 46.1624L33.5691 37.7889Z" fill="#354B37"/>
<path d="M33.1155 48.9356L23.1318 42.8145L33.114 57.8981L43.1909 42.8027L33.1155 48.9356ZM33.5742 49.6592L40.3301 45.5436L33.5742 55.6663V49.6592ZM32.7189 49.6962V55.7492L25.9762 45.5628L32.7189 49.6962Z" fill="#354B37"/>
<path d="M33.1521 20.1342C31.9412 20.133 30.7802 19.6515 29.924 18.7952C29.0677 17.939 28.5861 16.778 28.585 15.5671C28.5861 14.3562 29.0677 13.1953 29.924 12.339C30.7802 11.4828 31.9412 11.0012 33.1521 11C34.3629 11.0016 35.5236 11.4833 36.3798 12.3395C37.2359 13.1956 37.7176 14.3563 37.7192 15.5671C37.7176 16.7779 37.2359 17.9386 36.3798 18.7948C35.5236 19.6509 34.3629 20.1326 33.1521 20.1342ZM33.1521 11.8199C32.1586 11.8211 31.2062 12.2162 30.5037 12.9187C29.8012 13.6212 29.406 14.5737 29.4048 15.5671C29.406 16.5606 29.8012 17.513 30.5037 18.2155C31.2062 18.9179 32.1586 19.3131 33.1521 19.3143C34.1454 19.3131 35.0977 18.9179 35.7999 18.2154C36.5022 17.5129 36.897 16.5605 36.8977 15.5671C36.8958 14.5746 36.5005 13.6232 35.7983 12.9217C35.0962 12.2201 34.1446 11.8255 33.1521 11.8244V11.8199Z" fill="#354B37"/>
<path d="M33.1527 18.3796C32.4069 18.3796 31.6918 18.0834 31.1645 17.556C30.6371 17.0287 30.3408 16.3135 30.3408 15.5677C30.3408 14.822 30.6371 14.1068 31.1645 13.5794C31.6918 13.0521 32.4069 12.7559 33.1527 12.7559C33.8984 12.7559 34.6136 13.0521 35.1409 13.5794C35.6682 14.1068 35.9646 14.822 35.9646 15.5677C35.9646 16.3135 35.6682 17.0287 35.1409 17.556C34.6136 18.0834 33.8984 18.3796 33.1527 18.3796ZM33.1527 13.6438C32.6424 13.6438 32.1531 13.8465 31.7923 14.2073C31.4315 14.5681 31.2288 15.0575 31.2288 15.5677C31.2288 16.078 31.4315 16.5673 31.7923 16.9281C32.1531 17.2889 32.6424 17.4916 33.1527 17.4916C33.6629 17.4916 34.1523 17.2889 34.5131 16.9281C34.8739 16.5673 35.0766 16.078 35.0766 15.5677C35.0758 15.058 34.8728 14.5694 34.5121 14.2092C34.1514 13.849 33.6624 13.6468 33.1527 13.6468V13.6438Z" fill="#354B37"/>
<path d="M33.1458 16.3638C33.5839 16.3638 33.939 16.0087 33.939 15.5706C33.939 15.1325 33.5839 14.7773 33.1458 14.7773C32.7077 14.7773 32.3525 15.1325 32.3525 15.5706C32.3525 16.0087 32.7077 16.3638 33.1458 16.3638Z" fill="#354B37"/>
<path d="M46.0276 18.0873C43.5635 15.6108 40.4354 13.9003 37.0207 13.1621C37.2139 13.4718 37.3689 13.8037 37.4824 14.1507C40.4897 14.9223 43.2329 16.4914 45.4223 18.6926C48.5851 21.8371 50.4062 26.085 50.503 30.5439H46.5797C46.4865 27.7198 45.5074 24.9967 43.781 22.7598C42.0546 20.5229 39.6684 18.8857 36.9601 18.0799C36.7881 18.3408 36.5897 18.5832 36.3682 18.8036C39.0507 19.5181 41.4224 21.098 43.1154 23.2981C44.8085 25.4982 45.7281 28.1955 45.7316 30.9716V31.3993H51.3658V30.9716C51.3721 28.5777 50.9036 26.2063 49.9873 23.9947C49.071 21.7832 47.7251 19.7753 46.0276 18.0873Z" fill="#354B37"/>
<path d="M29.333 18.0799C26.6247 18.8857 24.2384 20.5229 22.512 22.7598C20.7856 24.9967 19.8066 27.7198 19.7134 30.5439H15.79C15.8874 26.0851 17.7084 21.8375 20.8706 18.6926C23.0603 16.4917 25.8034 14.9226 28.8105 14.1507C28.9246 13.8037 29.0801 13.4718 29.2737 13.1621C25.8586 13.9002 22.73 15.6107 20.2654 18.0873C18.5681 19.7754 17.2226 21.7834 16.3065 23.995C15.3905 26.2065 14.9222 28.5778 14.9288 30.9716V31.3993H20.5628V30.9716C20.5667 28.1954 21.4867 25.4981 23.18 23.298C24.8732 21.0979 27.2451 19.5181 29.9278 18.8036C29.7052 18.5834 29.5059 18.341 29.333 18.0799Z" fill="#354B37"/>
<path d="M29.7779 13.9297C29.4524 13.9938 29.1282 14.0673 28.8056 14.1502C28.6553 14.6087 28.5789 15.0883 28.5791 15.5709C28.5777 16.463 28.8399 17.3357 29.3325 18.0794C29.6117 17.9965 29.8943 17.9225 30.1804 17.8574C29.6738 17.2029 29.3989 16.3986 29.399 15.5709C29.3982 15.0021 29.5278 14.4406 29.7779 13.9297Z" fill="#354B37"/>
<path d="M33.1518 11.8238C33.6479 11.8242 34.1389 11.9234 34.5962 12.1155C35.0536 12.3075 35.4681 12.5887 35.8157 12.9426C36.2227 13.0018 36.6267 13.0758 37.0262 13.1617C36.6168 12.502 36.0459 11.9576 35.3674 11.5801C34.6889 11.2025 33.9254 11.0042 33.1489 11.0039C32.3725 11.004 31.6088 11.2023 30.9303 11.5798C30.2518 11.9574 29.6809 12.5019 29.2715 13.1617C29.6711 13.0758 30.075 13.0018 30.482 12.9426C30.8302 12.5878 31.2457 12.306 31.7041 12.1139C32.1626 11.9218 32.6547 11.8232 33.1518 11.8238Z" fill="#354B37"/>
<path d="M33.1519 19.32C32.3517 19.3182 31.5733 19.0588 30.932 18.5801C30.5926 18.6403 30.2592 18.7133 29.9316 18.7991C30.3551 19.222 30.8576 19.5572 31.4107 19.7858C31.9638 20.0143 32.5564 20.1316 33.1548 20.131C33.7533 20.1316 34.346 20.0143 34.8991 19.7858C35.4522 19.5572 35.9547 19.222 36.3782 18.7991C36.0496 18.7133 35.7152 18.6408 35.3778 18.5801C34.7349 19.06 33.9542 19.3195 33.1519 19.32Z" fill="#354B37"/>
<path d="M36.8917 15.5709C36.8925 16.3987 36.6177 17.2033 36.1104 17.8574C36.3975 17.9225 36.6807 17.9965 36.9599 18.0794C37.4518 17.3354 37.7138 16.4629 37.7131 15.5709C37.7129 15.0882 37.6359 14.6087 37.4852 14.1502C37.1646 14.0673 36.8404 13.9938 36.5129 13.9297C36.7629 14.4406 36.8925 15.0021 36.8917 15.5709Z" fill="#354B37"/>
</svg>
