<svg width="20" height="19" viewBox="0 0 20 19" fill="none" xmlns="http://www.w3.org/2000/svg">
<path d="M9.99489 18.8157C7.49073 18.8157 7.19552 18.8025 6.21828 18.7598C5.45622 18.7348 4.70401 18.5801 3.99406 18.3024C2.7657 17.825 1.7944 16.8548 1.31684 15.628C1.04943 14.9165 0.905199 14.1648 0.890318 13.4049C0.833313 12.4311 0.833313 12.112 0.833313 9.63073C0.833313 7.12306 0.846546 6.83031 0.890318 5.85957C0.905524 5.10078 1.04975 4.3501 1.31684 3.63956C1.79389 2.41117 2.76676 1.44007 3.99711 0.964175C4.7083 0.696028 5.46026 0.551629 6.22032 0.537251C7.19247 0.482361 7.5121 0.482361 9.99489 0.482361C12.5194 0.482361 12.8095 0.495575 13.7715 0.537251C14.5335 0.551753 15.2875 0.696138 16.0008 0.964175C17.2308 1.4406 18.2035 2.41152 18.6811 3.63956C18.953 4.36045 19.098 5.12287 19.1096 5.89311C19.1666 6.86691 19.1666 7.18507 19.1666 9.66529C19.1666 12.1455 19.1524 12.4708 19.1096 13.4334C19.0945 14.1939 18.9499 14.9464 18.6821 15.6585C18.2033 16.8861 17.2306 17.8567 16.0008 18.3339C15.2885 18.6004 14.5361 18.7444 13.7756 18.7598C12.8034 18.8157 12.4848 18.8157 9.99489 18.8157ZM9.96028 2.09146C7.47037 2.09146 7.21181 2.10366 6.23966 2.14736C5.65941 2.15504 5.08477 2.26196 4.5407 2.46349C3.73728 2.77048 3.10154 3.40272 2.79084 4.20371C2.58746 4.75292 2.48037 5.33301 2.47425 5.91853C2.4203 6.9035 2.4203 7.16169 2.4203 9.63073C2.4203 12.0703 2.42946 12.3661 2.47425 13.345C2.48337 13.9246 2.5904 14.4985 2.79084 15.0425C3.102 15.843 3.73763 16.4747 4.5407 16.7817C5.0844 16.9846 5.65928 17.0915 6.23966 17.0978C7.22504 17.1548 7.48462 17.1548 9.96028 17.1548C12.4573 17.1548 12.7159 17.1426 13.6799 17.0978C14.2605 17.0908 14.8356 16.9838 15.3799 16.7817C16.1784 16.4721 16.81 15.8418 17.1206 15.0445C17.3235 14.4949 17.4306 13.9145 17.4371 13.3287H17.4483C17.4921 12.3569 17.4921 12.0977 17.4921 9.61447C17.4921 7.13119 17.4809 6.86996 17.4371 5.89921C17.428 5.32027 17.321 4.74704 17.1206 4.20371C16.8107 3.40534 16.179 2.77382 15.3799 2.46349C14.8357 2.26095 14.2606 2.15399 13.6799 2.14736C12.6955 2.09146 12.438 2.09146 9.96028 2.09146ZM9.99489 14.3259C8.09131 14.3271 6.37446 13.1831 5.64504 11.4273C4.91562 9.67157 5.3173 7.64994 6.66275 6.30526C8.00821 4.96058 10.0324 4.55773 11.7913 5.28458C13.5502 6.01143 14.6974 7.72481 14.6978 9.62565C14.695 12.2188 12.5917 14.3208 9.99489 14.3259ZM9.99489 6.57416C8.30829 6.57416 6.94103 7.93945 6.94103 9.62361C6.94103 11.3078 8.30829 12.6731 9.99489 12.6731C11.6815 12.6731 13.0487 11.3078 13.0487 9.62361C13.0448 7.94107 11.6799 6.57807 9.99489 6.57416ZM14.8811 5.84941C14.2758 5.84716 13.7867 5.35599 13.7878 4.75161C13.7889 4.14723 14.2799 3.65787 14.8851 3.65787C15.4904 3.65787 15.9814 4.14722 15.9825 4.7516C15.9828 5.04319 15.8667 5.32289 15.6601 5.52888C15.4534 5.73488 15.1731 5.85021 14.8811 5.84941Z" fill="white"/>
</svg>
