<svg width="165" height="100" viewBox="0 0 165 100" fill="none" xmlns="http://www.w3.org/2000/svg">
<rect x="0.5" y="0.5" width="164" height="99" rx="3.5" fill="white"/>
<path d="M53.6332 89.1719V70.9561H55.819V87.1944H65.3309V89.1719H53.6332Z" fill="#00501E"/>
<path d="M67.5501 89.1719V70.9561H78.7662V72.9335H69.7359V79.0232H77.0541V81.0006H69.7359V87.1944H78.8959V89.1719H67.5501Z" fill="#00501E"/>
<path d="M81.1152 89.1719V70.9561H85.7502L92.0993 87.792H92.8305V70.9561H94.9908V89.1719H90.3558L84.0322 72.3084H83.2754V89.1719H81.1152V89.1719Z" fill="#00501E"/>
<path d="M104.151 89.5359C102.832 89.5359 101.652 89.302 100.613 88.8342C99.5708 88.3663 98.7511 87.6587 98.1536 86.7132C97.556 85.7677 97.2552 84.5844 97.2552 83.1612V82.6148H99.4155V83.1612C99.4155 84.6709 99.8578 85.7933 100.742 86.5304C101.627 87.2675 102.763 87.6371 104.151 87.6371C105.574 87.6371 106.657 87.3167 107.404 86.6739C108.149 86.0331 108.522 85.2252 108.522 84.2542C108.522 83.578 108.353 83.0394 108.015 82.6403C107.677 82.2413 107.203 81.917 106.596 81.6654C105.989 81.4138 105.277 81.1936 104.461 81.001L103.109 80.6629C102.051 80.3857 101.114 80.0476 100.298 79.6486C99.4824 79.2496 98.8455 78.7247 98.3855 78.0741C97.9255 77.4235 97.6956 76.5861 97.6956 75.5639C97.6956 74.5398 97.9511 73.6553 98.4641 72.9103C98.9752 72.1653 99.6966 71.5913 100.624 71.1923C101.552 70.7933 102.623 70.5928 103.838 70.5928C105.071 70.5928 106.175 70.8051 107.156 71.2297C108.137 71.6542 108.908 72.2793 109.472 73.1029C110.036 73.9265 110.317 74.9644 110.317 76.2126V77.3055H108.157V76.2126C108.157 75.3281 107.97 74.6165 107.597 74.0779C107.223 73.5413 106.712 73.1403 106.061 72.8808C105.411 72.6213 104.67 72.4896 103.836 72.4896C102.639 72.4896 101.676 72.755 100.949 73.2838C100.219 73.8125 99.8558 74.5634 99.8558 75.5345C99.8558 76.1772 100.011 76.6962 100.324 77.0952C100.636 77.4942 101.078 77.8205 101.65 78.0702C102.222 78.3218 102.909 78.5439 103.707 78.7346L105.059 79.0727C106.116 79.2987 107.066 79.6054 107.909 79.9965C108.75 80.3877 109.423 80.9165 109.926 81.5848C110.429 82.2531 110.681 83.1239 110.681 84.1991C110.681 85.2743 110.411 86.212 109.875 87.01C109.336 87.8081 108.577 88.4292 107.599 88.8715C106.62 89.3158 105.47 89.5359 104.151 89.5359Z" fill="#00501E"/>
<path d="M82.1963 47.2992C81.6184 47.2992 67.902 47.1793 57.4132 36.6885C57.1911 36.4664 56.9748 36.2443 56.7625 36.0182C54.5669 33.6987 53.5231 30.9429 53.7453 28.0474C53.9399 25.494 55.1153 23.0173 57.0574 21.0752C58.9995 19.1331 61.4742 17.9577 64.0296 17.7631C66.7049 17.5586 69.2622 18.4353 71.4657 20.3027C71.7036 17.425 72.8928 14.9974 74.9273 13.2499C76.8713 11.5811 79.4542 10.6631 82.1983 10.6631C84.9423 10.6631 87.5272 11.5811 89.4693 13.2499C91.5057 14.9974 92.693 17.425 92.9328 20.3027C95.1363 18.4353 97.6936 17.5586 100.369 17.7631C102.922 17.9577 105.399 19.1331 107.339 21.0752C109.281 23.0173 110.457 25.4921 110.651 28.0474C110.871 30.9429 109.828 33.6987 107.634 36.0182C107.422 36.2423 107.204 36.4664 106.983 36.6885C96.4906 47.1793 82.7762 47.2992 82.1963 47.2992ZM64.7844 19.9155C62.406 19.9155 60.173 21.0202 58.5847 22.6084C55.7286 25.4646 54.4332 30.4141 58.3331 34.5361C58.5316 34.7464 58.7341 34.9548 58.9425 35.1632C68.8062 45.0269 82.0646 45.1409 82.1983 45.1409C82.33 45.1409 95.6139 45.0013 105.454 35.1632C105.662 34.9548 105.865 34.7464 106.063 34.5361C109.963 30.4161 108.666 25.4646 105.81 22.6104C102.954 19.7543 98.0042 18.4589 93.8842 22.3568C93.6738 22.5554 93.4655 22.7578 93.2571 22.9662C93.0959 23.1274 92.9426 23.2905 92.7893 23.4537L90.7293 25.6257L90.8099 22.6419C90.8158 22.4158 90.8236 22.1878 90.8236 21.9578C90.8236 21.6649 90.8197 21.374 90.8118 21.0831C90.6546 15.4121 86.2377 12.8273 82.2002 12.8273C78.1628 12.8273 73.7439 15.4102 73.5887 21.0831C73.5808 21.372 73.5769 21.663 73.5769 21.9578C73.5769 22.1819 73.5828 22.404 73.5887 22.6242L73.6673 25.6257L71.6151 23.4596C71.4598 23.2945 71.3026 23.1293 71.1414 22.9662C70.933 22.7578 70.7247 22.5554 70.5144 22.3568C68.6804 20.6212 66.6852 19.9155 64.7844 19.9155Z" fill="#00501E"/>
<path d="M110.29 63.2172C106.423 64.9942 102.006 65.458 97.8273 64.5185C93.7741 63.6064 90.2202 61.4953 87.4899 58.3954C87.7572 58.5802 88.0324 58.7591 88.3154 58.9301C90.6506 60.3375 93.2453 61.0451 95.84 61.0451C98.1457 61.0451 100.453 60.4869 102.58 59.3625C102.732 59.2839 102.881 59.2013 103.03 59.1168L101.961 57.2376C101.831 57.3123 101.702 57.3831 101.57 57.4519C97.727 59.4824 93.1903 59.3448 89.4319 57.0804C85.5851 54.7629 83.2873 50.7077 83.2873 46.2338V45.4004H83.2676H81.125H81.1054V46.2338C81.1054 50.7077 78.8075 54.7629 74.9607 57.0804C71.2023 59.3448 66.6656 59.4844 62.8227 57.4519C62.691 57.3831 62.5613 57.3123 62.4315 57.2376L61.3622 59.1168C61.5116 59.2013 61.661 59.2839 61.8123 59.3625C63.9392 60.4869 66.2449 61.0451 68.5526 61.0451C71.1473 61.0451 73.74 60.3375 76.0772 58.9301C76.3603 58.761 76.6354 58.5821 76.9028 58.3954C74.1725 61.4953 70.6185 63.6064 66.5653 64.5185C62.3863 65.46 57.9695 64.9961 54.103 63.2172L53.016 65.1003C55.9055 66.4605 59.0781 67.1564 62.2645 67.1564C63.8645 67.1564 65.4665 66.9814 67.0391 66.6276C71.8864 65.5367 76.0949 62.9027 79.2046 59.0146C79.9319 58.1065 80.5648 57.1315 81.1034 56.1113V67.1564H83.2656V56.074C83.8101 57.1079 84.449 58.0966 85.1841 59.0146C88.2958 62.9027 92.5023 65.5347 97.3496 66.6276C98.9222 66.9814 100.524 67.1564 102.124 67.1564C105.311 67.1564 108.483 66.4605 111.373 65.1003L110.29 63.2172Z" fill="#00501E"/>
<path d="M80.7909 35.8477H79.2183C79.2183 33.5066 76.9401 31.5999 74.1391 31.5999C71.338 31.5999 69.0598 33.5046 69.0598 35.8477H67.4872C67.4872 32.6397 70.4711 30.0273 74.1391 30.0273C77.807 30.0273 80.7909 32.6377 80.7909 35.8477Z" fill="#00501E"/>
<path d="M75.9475 35.8814C77.197 35.8814 78.21 34.8685 78.21 33.6189C78.21 32.3694 77.197 31.3564 75.9475 31.3564C74.6979 31.3564 73.685 32.3694 73.685 33.6189C73.685 34.8685 74.6979 35.8814 75.9475 35.8814Z" fill="#00501E"/>
<path d="M96.9211 35.8477H95.3486C95.3486 33.5066 93.0704 31.5999 90.2693 31.5999C87.4682 31.5999 85.19 33.5046 85.19 35.8477H83.6175C83.6175 32.6397 86.6014 30.0273 90.2693 30.0273C93.9372 30.0273 96.9211 32.6377 96.9211 35.8477Z" fill="#00501E"/>
<path d="M92.0797 35.8814C93.3292 35.8814 94.3422 34.8685 94.3422 33.6189C94.3422 32.3694 93.3292 31.3564 92.0797 31.3564C90.8301 31.3564 89.8172 32.3694 89.8172 33.6189C89.8172 34.8685 90.8301 35.8814 92.0797 35.8814Z" fill="#00501E"/>
<path d="M82.1707 41.6287C80.3171 41.6287 78.5991 40.6753 77.7971 39.203L79.179 38.4502C79.7117 39.4252 80.8852 40.0561 82.1727 40.0561C83.4602 40.0561 84.6337 39.4252 85.1664 38.4502L86.5463 39.203C85.7423 40.6753 84.0244 41.6287 82.1707 41.6287Z" fill="#00501E"/>
<rect x="0.5" y="0.5" width="164" height="99" rx="3.5" stroke="#EEECEA"/>
</svg>
