<svg width="165" height="100" viewBox="0 0 165 100" fill="none" xmlns="http://www.w3.org/2000/svg">
<g clip-path="url(#clip0_149_452)">
<path d="M161.979 0.5H4.02134C2.07655 0.5 0.5 2.08283 0.5 4.03535V96.9646C0.5 98.9172 2.07655 100.5 4.02134 100.5H161.979C163.923 100.5 165.5 98.9172 165.5 96.9646V4.03535C165.5 2.08283 163.923 0.5 161.979 0.5Z" fill="white"/>
<path d="M161 0.5H4C2.067 0.5 0.5 2.067 0.5 4V96C0.5 97.933 2.067 99.5 4 99.5H161C162.933 99.5 164.5 97.933 164.5 96V4C164.5 2.067 162.933 0.5 161 0.5Z" stroke="#EEECEA"/>
<path fill-rule="evenodd" clip-rule="evenodd" d="M126.035 39.7403C126.035 37.6738 127.673 36 129.693 36C131.713 36 133.351 37.6738 133.351 39.7403C133.351 41.8068 131.713 43.4806 129.693 43.4806C127.673 43.4806 126.035 41.8034 126.035 39.7403ZM15.7811 36.4565H9V63.6776H22.7082L20.9947 57.0074H15.7811V36.4565ZM44.0728 52.5339C44.0728 59.4839 39.1235 63.9972 32.693 63.9972C26.2625 63.9972 21.4691 59.5238 21.4691 52.5339C21.4691 45.5838 26.3407 41.0705 32.7711 41.0705C39.2016 41.0705 44.0728 45.5838 44.0728 52.5339ZM37.5645 52.5737C37.5645 49.8578 35.4602 47.5409 32.7711 47.5409C30.043 47.5409 27.9774 49.7778 27.9774 52.5339C27.9774 55.2498 30.0039 57.6065 32.693 57.6065C35.3821 57.6065 37.5645 55.3298 37.5645 52.5737ZM66.6263 55.4098H59.8452C59.0266 56.6479 57.7796 57.2453 56.1819 57.2453C53.6097 57.2453 51.5826 55.248 51.5826 52.572C51.5826 50.0158 53.3753 47.8187 56.22 47.8187C57.8958 47.8588 59.1429 48.5779 59.9614 49.9759H66.3528C65.3004 44.5435 61.3643 41.0685 55.9091 41.0685C49.4399 41.0685 44.9581 45.5423 44.9581 52.5318C44.9581 59.5213 49.5177 63.9952 56.0242 63.9952C61.521 63.9972 65.4962 61.0417 66.6263 55.4098ZM90.4659 41.3899V63.6779H83.8003V60.5222C82.5142 62.6002 80.137 63.9972 77.0568 63.9972C71.7178 63.9972 67.5088 59.4438 67.5088 52.4941C67.5088 45.5444 71.7205 41.0702 77.0983 41.0702C80.1761 41.0702 82.5546 42.4683 83.8017 44.5452V41.3899H90.4659ZM83.6848 52.4158C83.6848 49.6996 81.4245 47.4228 78.7742 47.4228C76.0464 47.4228 73.747 49.5399 73.747 52.3753C73.747 55.1317 75.8126 57.4084 78.7742 57.4084C81.5801 57.407 83.6848 55.2903 83.6848 52.4158ZM102.763 50.0989C99.9572 49.4599 98.632 49.1004 98.632 47.9423C98.632 46.9837 99.684 46.3444 101.243 46.3444C103.076 46.3444 104.009 47.2233 104.205 48.6613H110.397C109.93 44.0676 106.816 40.9123 101.399 40.9123C95.6701 40.9123 92.3575 43.988 92.3575 48.0621C92.3575 52.8151 96.2158 53.9736 100.035 54.9322L100.16 54.9668C102.878 55.7017 104.088 56.029 104.088 57.1698C104.088 58.2482 102.802 58.8477 101.204 58.8477C99.333 58.8477 98.2807 57.8489 98.1261 56.3712H91.4612C91.7724 60.685 95.631 64 101.399 64C106.972 64 110.674 61.1255 110.674 57.1698C110.557 52.2142 106.855 51.0959 102.763 50.0971V50.0989ZM134.332 52.5356C134.332 59.5255 138.891 63.999 145.4 63.999C150.895 63.999 154.87 61.0434 156 55.4101H149.219C148.4 56.6482 147.153 57.2456 145.556 57.2456C142.984 57.2456 140.956 55.2484 140.956 52.5723C140.956 50.0161 142.749 47.819 145.595 47.819C147.269 47.8592 148.516 48.5783 149.335 49.9763H155.727C154.675 44.5438 150.738 41.0688 145.283 41.0688C138.814 41.0702 134.332 45.544 134.332 52.5339V52.5356ZM120.403 47.0637H124.751V41.3899H120.403V36.1136L113.739 37.8521V41.3899H110.894V47.0616H113.739V55.9275C113.739 61.3994 116.662 63.6765 121.378 63.6765H124.676V57.7759H122.54C121.098 57.7759 120.403 57.1068 120.403 55.7883V47.0637ZM126.421 44.3527V63.5796H133.158V44.3506L126.421 44.3527Z" fill="#0099FF"/>
</g>
<defs>
<clipPath id="clip0_149_452">
<rect width="165" height="100" fill="white"/>
</clipPath>
</defs>
</svg>
