<svg width="163" height="118" viewBox="0 0 163 118" fill="none" xmlns="http://www.w3.org/2000/svg">
<rect x="0.494398" y="0.494398" width="162.011" height="117.011" rx="3.5056" fill="white"/>
<path d="M81.5 31.3137C66.2098 31.3137 53.8137 43.7086 53.8137 59C53.8137 74.2915 66.2098 86.6863 81.5 86.6863C96.7902 86.6863 109.186 74.2902 109.186 59C109.186 43.7098 96.7902 31.3137 81.5 31.3137Z" fill="#2B2B2B"/>
<path d="M68.9759 54.6532C70.7428 54.6532 72.1752 53.2209 72.1752 51.4539C72.1752 49.687 70.7428 48.2546 68.9759 48.2546C67.209 48.2546 65.7766 49.687 65.7766 51.4539C65.7766 53.2209 67.209 54.6532 68.9759 54.6532Z" fill="white"/>
<path d="M68.9759 63.3455C67.1708 63.3455 65.7766 64.699 65.7766 66.5448C65.7766 68.3905 67.1708 69.7441 68.9759 69.7441C70.8217 69.7441 72.1752 68.3905 72.1752 66.5448C72.1752 64.699 70.8217 63.3455 68.9759 63.3455Z" fill="white"/>
<path d="M84.1232 44.9016H76.0757V73.0998H84.1232C90.3889 73.0998 95.0746 70.0531 96.9856 64.741C97.6009 63.0183 97.9097 61.0913 97.9097 59.0019C97.9211 57.0797 97.6215 55.1682 97.0225 53.3416C95.114 47.9766 90.4123 44.9016 84.1232 44.9016ZM93.1341 63.3678C91.7806 67.1823 88.6428 69.3738 84.5206 69.3738H79.9579V48.6276H84.5194C88.6034 48.6276 91.7437 50.7896 93.1329 54.5598C93.6251 55.8875 93.8626 57.3408 93.8626 59.0019C93.8626 60.6631 93.6202 62.1299 93.1341 63.3678Z" fill="white"/>
<rect x="0.494398" y="0.494398" width="162.011" height="117.011" rx="3.5056" stroke="#EEECEA" stroke-width="0.988796"/>
</svg>
