<svg width="184" height="120" viewBox="0 0 184 120" fill="none" xmlns="http://www.w3.org/2000/svg">
<rect x="0.5" y="0.5" width="183" height="119" rx="3.5" fill="white"/>
<g clip-path="url(#clip0_41_128)">
<path d="M55.1158 49.2388C53.87 51.5453 51.7985 53.3094 49.3063 54.186C46.8142 55.0627 44.0807 54.9888 41.6406 53.9787C42.8864 51.6723 44.9579 49.9081 47.45 49.0315C49.9423 48.1548 52.6757 48.2288 55.1158 49.2388Z" fill="#1E1D34"/>
<path d="M25.262 64.9713C26.0973 67.2707 27.7267 69.2053 29.8633 70.4341C31.9998 71.663 34.5066 72.1075 36.9422 71.6893C39.3778 71.2713 41.5859 70.0172 43.178 68.1481C44.7701 66.2792 45.644 63.9148 45.6457 61.4716V61.4057C45.6457 61.254 45.6457 61.1023 45.6457 60.9545V60.9079C45.5548 59.5612 44.9367 58.3026 43.9221 57.3992C42.9076 56.4958 41.5767 56.0187 40.2122 56.0693C38.8475 56.1199 37.5565 56.6942 36.6135 57.6702C35.6703 58.6462 35.1492 59.9472 35.1607 61.2966C35.1602 62.65 34.6254 63.9496 33.6702 64.9189C32.715 65.8884 31.4148 66.4512 30.0461 66.4878H29.751C28.1311 66.4584 26.5612 65.9281 25.262 64.9713Z" fill="#1E1D34"/>
<path d="M29.9006 65.1424C32.0517 65.1424 33.7956 63.4189 33.7956 61.2928C33.7956 59.1669 32.0517 57.4434 29.9006 57.4434C27.7495 57.4434 26.0056 59.1669 26.0056 61.2928C26.0056 63.4189 27.7495 65.1424 29.9006 65.1424Z" fill="#1E1D34"/>
<path d="M26.0726 76.9904C21.9117 74.6062 18.8761 70.6897 17.6307 66.0983C16.3852 61.5069 17.0313 56.6149 19.4276 52.4934C19.9285 51.6395 20.4982 50.8268 21.1311 50.0631L21.1587 50.0281L29.2712 40.6066C30.2753 41.4529 30.8982 42.6586 31.003 43.9588C31.1078 45.2589 30.6858 46.5469 29.8299 47.5396L24.9631 53.1855C23.8079 54.5773 22.957 56.1906 22.4642 57.9237C21.9715 59.6568 21.8476 61.472 22.1003 63.2547C22.353 65.0376 22.9768 66.7492 23.9325 68.2817C24.8881 69.8143 26.1548 71.1345 27.6526 72.159C29.1504 73.1832 30.8467 73.8898 32.6346 74.2338C34.4225 74.5777 36.2631 74.5516 38.0403 74.1573C39.8175 73.7628 41.4927 73.0086 42.9602 71.9422C44.4278 70.8759 45.6556 69.5204 46.5664 67.9615C46.9277 67.3393 47.237 66.6891 47.4911 66.0172L50.005 59.0181C50.4538 57.7991 51.3716 56.8045 52.5587 56.2511C53.7458 55.6976 55.106 55.63 56.3433 56.0629L52.1532 67.7514C51.2258 70.19 49.7725 72.3999 47.8944 74.2279C46.0161 76.0558 43.758 77.458 41.2765 78.3369C38.7951 79.2159 36.1501 79.5509 33.5246 79.3183C30.8991 79.0858 28.3563 78.2913 26.0726 76.9904Z" fill="#1E1D34"/>
<path d="M122.046 51.0742L116.039 68.9609C115.758 69.7973 115.217 70.5252 114.494 71.0408C113.771 71.5566 112.902 71.8344 112.01 71.8344H111.046L106.282 57.63L102.477 68.9609C102.195 69.7982 101.653 70.5267 100.929 71.0425C100.204 71.5583 99.3335 71.8353 98.4405 71.8344H97.4767L90.5129 51.0742H91.8506C92.7424 51.0742 93.6115 51.3518 94.3346 51.8676C95.0578 52.3834 95.5982 53.1112 95.8793 53.9477L99.499 64.7147L104.082 51.0664H105.42C106.314 51.0665 107.185 51.345 107.91 51.8622C108.634 52.3794 109.175 53.1091 109.457 53.9477L113.064 64.7147L116.684 53.9399C116.965 53.1034 117.505 52.3757 118.229 51.8598C118.952 51.3441 119.821 51.0664 120.713 51.0664L122.046 51.0742Z" fill="#1E1D34"/>
<path d="M54.5925 71.8343L61.5642 51.0741H62.5321C63.4254 51.0708 64.2971 51.3465 65.0227 51.8618C65.7484 52.3771 66.2907 53.1058 66.5725 53.9438L72.5802 71.8305H71.2387C70.348 71.8299 69.48 71.5523 68.7578 71.0374C68.0354 70.5224 67.4953 69.7959 67.2139 68.9608L63.5942 58.1821L59.9747 68.9608C59.6955 69.7975 59.1559 70.5259 58.4333 71.0418C57.7105 71.5578 56.8414 71.8352 55.9499 71.8343H54.5925Z" fill="#1E1D34"/>
<path d="M74.7793 71.8343V51.1052H82.526C83.5594 51.0973 84.5841 51.2906 85.5418 51.6741C86.4995 52.0576 87.3716 52.6238 88.1078 53.3404C88.8442 54.0569 89.4306 54.9098 89.8333 55.8503C90.2361 56.7908 90.4477 57.8005 90.4556 58.8217C90.4637 59.8429 90.2681 60.8558 89.88 61.8023C89.492 62.749 88.9192 63.6108 88.1942 64.3383C87.4692 65.0661 86.6061 65.6457 85.6545 66.0439C84.703 66.4418 83.6813 66.6508 82.648 66.6587H81.6958V63.4003C81.6958 63.2872 81.7185 63.1751 81.7624 63.0705C81.8063 62.9661 81.8708 62.8712 81.9519 62.7913C82.0332 62.7115 82.1295 62.6483 82.2354 62.6053C82.3412 62.5622 82.4548 62.5405 82.5694 62.5409C83.5096 62.5484 84.4185 62.2058 85.1146 61.5812C85.8109 60.9564 86.2436 60.0955 86.3265 59.1698C86.3644 58.6692 86.2975 58.1663 86.1298 57.6924C85.9622 57.2186 85.6975 56.784 85.3523 56.4158C85.0071 56.0477 84.5887 55.7538 84.1234 55.5525C83.6582 55.3513 83.156 55.2471 82.648 55.2464H78.9576V67.6893C78.9591 68.2326 78.8523 68.7711 78.6431 69.2736C78.4337 69.7762 78.1264 70.2332 77.7383 70.6181C77.3501 71.003 76.889 71.3087 76.3813 71.5174C75.8736 71.726 75.3293 71.8337 74.7793 71.8343Z" fill="#1E1D34"/>
<path d="M124.21 51.1052V67.7047C124.21 68.2472 124.318 68.7841 124.528 69.285C124.738 69.7861 125.046 70.2413 125.434 70.6247C125.822 71.0082 126.283 71.3124 126.789 71.52C127.296 71.7275 127.84 71.8343 128.389 71.8343V55.2464C128.39 54.7031 128.283 54.1649 128.074 53.6625C127.864 53.1601 127.557 52.7035 127.169 52.3188C126.781 51.9341 126.32 51.6289 125.812 51.4207C125.304 51.2124 124.76 51.1052 124.21 51.1052Z" fill="#1E1D34"/>
<path d="M156.519 55.2464V59.4108H164.848C164.848 59.9536 164.741 60.4913 164.531 60.9929C164.321 61.4946 164.014 61.9505 163.626 62.3347C163.238 62.7189 162.777 63.0238 162.27 63.2319C161.763 63.4402 161.219 63.5475 160.67 63.5481H156.519V67.7047H167C166.999 68.7997 166.558 69.8494 165.775 70.6236C164.992 71.3979 163.93 71.8332 162.822 71.8343H152.341V51.1052H167C166.999 52.2001 166.558 53.2499 165.775 54.0241C164.992 54.7983 163.93 55.2337 162.822 55.2347L156.519 55.2464Z" fill="#1E1D34"/>
<path d="M149.331 51.1052V71.8343H147.328C146.657 71.8345 145.995 71.6746 145.399 71.3679C144.803 71.0613 144.291 70.617 143.906 70.0729L135.577 58.3143V67.7047C135.576 68.7998 135.135 69.8494 134.352 70.6236C133.568 71.3979 132.506 71.8332 131.398 71.8343V51.1052H133.401C134.073 51.1056 134.734 51.2658 135.33 51.5724C135.926 51.879 136.438 52.323 136.824 52.8667L145.153 64.6369V55.2464C145.151 54.7029 145.257 54.1645 145.466 53.6619C145.675 53.1593 145.983 52.7025 146.371 52.3177C146.759 51.9329 147.221 51.6277 147.729 51.4196C148.237 51.2116 148.781 51.1047 149.331 51.1052Z" fill="#1E1D34"/>
</g>
<rect x="0.5" y="0.5" width="183" height="119" rx="3.5" stroke="#EEECEA"/>
<defs>
<clipPath id="clip0_41_128">
<rect width="150" height="38.7868" fill="white" transform="translate(17 40.6066)"/>
</clipPath>
</defs>
</svg>
