<svg width="163" height="118" viewBox="0 0 163 118" fill="none" xmlns="http://www.w3.org/2000/svg">
<rect x="0.494398" y="0.494398" width="162.011" height="117.011" rx="3.5056" fill="white"/>
<path d="M48.587 54.9574L55.1026 59.0038L48.587 63.0571C49.0607 61.7964 49.3393 60.4312 49.3393 59.0038C49.3393 57.5759 49.0607 56.2181 48.587 54.9574V54.9574ZM27.0367 54.9574C26.563 56.2181 26.2844 57.5829 26.2844 59.0038C26.2844 60.4312 26.5561 61.7894 27.0367 63.0502L20.5211 59.0038L27.0367 54.9574ZM37.8121 49.8876C42.858 49.8876 46.9168 53.9544 46.9168 59.0038C46.9168 64.0527 42.8515 68.113 37.8121 68.113C32.7652 68.113 28.6999 64.0462 28.6999 59.0038C28.6999 53.9619 32.7722 49.8876 37.8121 49.8876V49.8876ZM37.8121 45.4581L36.6842 46.1547L32.2219 48.9264C31.902 49.1075 31.596 49.2956 31.2965 49.5045L16.0175 59.0038L31.2965 68.4961C31.6025 68.7051 31.9159 68.9001 32.2428 69.0812L37.8186 72.5425L43.3038 69.1299C43.3177 69.123 43.3317 69.1091 43.3456 69.1021C43.6864 68.914 44.0207 68.7051 44.3411 68.4822L59.6132 59.0038L44.3342 49.5115C44.0277 49.3025 43.7148 49.1005 43.3874 48.9194L37.8121 45.4581Z" fill="#181819"/>
<path d="M61.8548 61.1557C61.1518 61.1627 60.3861 61.3507 59.6135 61.8035L40.0671 73.9421L40.2627 74.0606C40.8119 74.381 41.5358 74.6039 42.3369 74.5894C43.0399 74.583 43.8056 74.3949 44.5777 73.9421L48.4201 71.553L64.1171 61.7965L63.9156 61.6712C63.3653 61.3647 62.6553 61.1488 61.8548 61.1557Z" fill="#181819"/>
<path d="M33.2872 43.4105C32.5842 43.4174 31.8185 43.6055 31.0458 44.0582L27.2034 46.4469L11.5 56.2038C12.5159 56.8865 14.2354 57.2347 16.0101 56.2038L35.5569 44.0652L35.3619 43.9468C34.8116 43.6194 34.0947 43.3965 33.2872 43.4105Z" fill="#181819"/>
<path d="M104.666 49.2413H101.344V68.8573H104.666V57.3804H107.613V54.0121H104.666V49.2413Z" fill="#181819"/>
<path d="M144.592 54.0121V49.2413H141.27V68.8573H144.592V57.3804H147.539V54.0121H144.592Z" fill="#181819"/>
<path d="M94.6368 68.8574H97.9071V54.0122H94.6368V68.8574Z" fill="#181819"/>
<path d="M97.881 49.2412H94.661V52.6751H97.881V49.2412Z" fill="#181819"/>
<path d="M87.9388 65.589H82.2934V54.0121H79.0256V65.589H74.1235C73.4484 65.589 72.9006 65.0418 72.9006 64.3661V54.0121H69.6323V65.7886C69.6323 67.4836 71.0065 68.8573 72.7011 68.8573H91.2071V54.0121H87.9388V65.589Z" fill="#181819"/>
<path d="M119.697 54.0122H109.77V68.8479H113.038V57.2804H118.275C118.95 57.2804 119.498 57.8277 119.498 58.5033V68.8479H122.766V57.0804C122.766 55.3858 121.392 54.0122 119.697 54.0122Z" fill="#181819"/>
<path d="M130.299 57.13C131.798 56.3335 133.246 56.6061 134.467 57.6181L128.194 60.953C128.064 59.3604 128.75 57.9539 130.299 57.13ZM134.652 65.1919C132.742 66.2069 130.533 65.6601 129.15 63.6824L139.371 58.249C139.197 57.8335 138.984 57.4395 138.742 57.0653C138.688 56.9793 138.63 56.8987 138.574 56.8156C137.197 54.8603 134.927 53.5792 132.355 53.5792C131.343 53.5792 130.38 53.7807 129.497 54.1394C129.431 54.1672 129.365 54.1926 129.299 54.2225C129.029 54.3409 128.771 54.4772 128.518 54.6255C128.287 54.7613 128.07 54.9086 127.858 55.0608C125.976 56.4449 124.75 58.6684 124.75 61.1839C124.75 65.3845 128.154 68.7896 132.355 68.7896C136.169 68.7896 139.318 65.9785 139.866 62.3172C139.047 62.3147 136.863 62.3088 136.848 62.3078C136.573 63.5466 135.788 64.5879 134.652 65.1919Z" fill="#181819"/>
<path d="M151.5 68.8478H148.181V65.5293H151.5V68.8478Z" fill="#41BEA5"/>
<rect x="0.494398" y="0.494398" width="162.011" height="117.011" rx="3.5056" stroke="#EEECEA" stroke-width="0.988796"/>
</svg>
