<svg width="185" height="120" viewBox="0 0 185 120" fill="none" xmlns="http://www.w3.org/2000/svg">
<rect x="0.5" y="0.5" width="184" height="119" rx="3.5" fill="white"/>
<path d="M150.009 60.0799C149.23 59.5643 148.371 59.1977 147.557 58.7393C147.03 58.4414 146.469 58.1779 146.01 57.7997C145.231 57.1581 145.392 55.8977 146.205 55.3477C147.374 54.5685 149.31 55.0039 149.517 56.5966C149.517 56.631 149.551 56.6539 149.585 56.6539H151.35C151.396 56.6539 151.43 56.6195 151.419 56.5737C151.327 55.4737 150.903 54.557 150.124 53.9727C149.379 53.4112 148.531 53.1133 147.626 53.1133C142.963 53.1133 142.539 58.0518 145.048 59.6102C145.334 59.7935 147.798 61.031 148.669 61.5695C149.54 62.1081 149.815 63.0935 149.436 63.8727C149.093 64.5831 148.199 65.0758 147.305 65.0185C146.331 64.9612 145.575 64.4341 145.311 63.6091C145.266 63.4602 145.243 63.1737 145.243 63.0477C145.243 63.0133 145.208 62.9789 145.174 62.9789H143.26C143.226 62.9789 143.192 63.0133 143.192 63.0477C143.192 64.4341 143.535 65.2018 144.475 65.9008C145.357 66.5654 146.32 66.8404 147.317 66.8404C149.929 66.8404 151.281 65.3622 151.556 63.8268C151.797 62.3258 151.35 60.9737 150.009 60.0799Z" fill="#161616"/>
<path d="M66.925 53.3652H66.0771H65.149C65.1146 53.3652 65.0917 53.3882 65.0802 53.4111L63.5104 58.5902C63.4875 58.659 63.3959 58.659 63.3729 58.5902L61.8031 53.4111C61.7917 53.3767 61.7688 53.3652 61.7344 53.3652H60.8063H59.9584H58.8125C58.7782 53.3652 58.7438 53.3996 58.7438 53.434V66.6569C58.7438 66.6913 58.7782 66.7257 58.8125 66.7257H60.7261C60.7604 66.7257 60.7948 66.6913 60.7948 66.6569V56.6079C60.7948 56.5277 60.9094 56.5163 60.9323 56.585L62.5136 61.7986L62.6281 62.1652C62.6396 62.1996 62.6625 62.2111 62.6969 62.2111H64.1636C64.1979 62.2111 64.2209 62.1881 64.2323 62.1652L64.3469 61.7986L65.9281 56.585C65.9511 56.5048 66.0656 56.5277 66.0656 56.6079V66.6569C66.0656 66.6913 66.1 66.7257 66.1344 66.7257H68.0479C68.0823 66.7257 68.1167 66.6913 68.1167 66.6569V53.434C68.1167 53.3996 68.0823 53.3652 68.0479 53.3652H66.925Z" fill="#161616"/>
<path d="M120.71 53.3652C120.676 53.3652 120.653 53.3882 120.642 53.4111L119.072 58.5902C119.049 58.659 118.957 58.659 118.934 58.5902L117.365 53.4111C117.353 53.3767 117.33 53.3652 117.296 53.3652H114.385C114.351 53.3652 114.317 53.3996 114.317 53.434V66.6569C114.317 66.6913 114.351 66.7257 114.385 66.7257H116.299C116.333 66.7257 116.368 66.6913 116.368 66.6569V56.6079C116.368 56.5277 116.482 56.5163 116.505 56.585L118.086 61.7986L118.201 62.1652C118.213 62.1996 118.235 62.2111 118.27 62.2111H119.736C119.771 62.2111 119.794 62.1881 119.805 62.1652L119.92 61.7986L121.501 56.585C121.524 56.5048 121.639 56.5277 121.639 56.6079V66.6569C121.639 66.6913 121.673 66.7257 121.707 66.7257H123.621C123.655 66.7257 123.69 66.6913 123.69 66.6569V53.434C123.69 53.3996 123.655 53.3652 123.621 53.3652H120.71Z" fill="#161616"/>
<path d="M96.0292 53.3652H92.4657H90.5521H86.9886C86.9542 53.3652 86.9198 53.3996 86.9198 53.434V55.084C86.9198 55.1184 86.9542 55.1527 86.9886 55.1527H90.4834V66.6569C90.4834 66.6913 90.5177 66.7257 90.5521 66.7257H92.4657C92.5 66.7257 92.5344 66.6913 92.5344 66.6569V55.1527H96.0292C96.0636 55.1527 96.0979 55.1184 96.0979 55.084V53.434C96.0979 53.3996 96.075 53.3652 96.0292 53.3652Z" fill="#161616"/>
<path d="M107.316 66.7256H109.057C109.103 66.7256 109.138 66.6798 109.126 66.6339L105.528 53.3652C105.517 53.3308 105.494 53.3193 105.459 53.3193H104.795H103.626H102.961C102.927 53.3193 102.904 53.3423 102.893 53.3652L99.2948 66.6339C99.2834 66.6798 99.3177 66.7256 99.3636 66.7256H101.105C101.14 66.7256 101.163 66.7027 101.174 66.6798L102.217 62.8183C102.228 62.7839 102.251 62.7725 102.285 62.7725H106.135C106.17 62.7725 106.193 62.7954 106.204 62.8183L107.247 66.6798C107.258 66.7027 107.293 66.7256 107.316 66.7256ZM102.744 60.8818L104.142 55.7141C104.165 55.6454 104.256 55.6454 104.279 55.7141L105.677 60.8818C105.689 60.9277 105.654 60.9735 105.608 60.9735H102.813C102.767 60.9735 102.732 60.9277 102.744 60.8818Z" fill="#161616"/>
<path d="M137.016 66.7256H138.757C138.803 66.7256 138.838 66.6798 138.826 66.6339L135.228 53.3652C135.217 53.3308 135.194 53.3193 135.159 53.3193H134.495H133.326H132.661C132.627 53.3193 132.604 53.3423 132.593 53.3652L128.995 66.6339C128.983 66.6798 129.018 66.7256 129.064 66.7256H130.805C130.84 66.7256 130.863 66.7027 130.874 66.6798L131.917 62.8183C131.928 62.7839 131.951 62.7725 131.985 62.7725H135.835C135.87 62.7725 135.893 62.7954 135.904 62.8183L136.947 66.6798C136.958 66.7027 136.981 66.7256 137.016 66.7256ZM132.444 60.8818L133.842 55.7141C133.865 55.6454 133.956 55.6454 133.979 55.7141L135.377 60.8818C135.389 60.9277 135.354 60.9735 135.308 60.9735H132.513C132.467 60.9735 132.432 60.9277 132.444 60.8818Z" fill="#161616"/>
<path d="M75.8855 64.7665V60.6645C75.8855 60.6301 75.9198 60.5957 75.9542 60.5957H81.0532C81.0875 60.5957 81.1219 60.5613 81.1219 60.527V58.877C81.1219 58.8426 81.0875 58.8082 81.0532 58.8082H75.9542C75.9198 58.8082 75.8855 58.7738 75.8855 58.7395V55.2332C75.8855 55.1988 75.9198 55.1645 75.9542 55.1645H81.7521C81.7865 55.1645 81.8209 55.1301 81.8209 55.0957V53.4457C81.8209 53.4113 81.7865 53.377 81.7521 53.377H75.8855H73.9032C73.8688 53.377 73.8344 53.4113 73.8344 53.4457V55.1645V58.8197V60.6072V64.8467V66.6572C73.8344 66.6915 73.8688 66.7259 73.9032 66.7259H75.8855H81.9927C82.0271 66.7259 82.0615 66.6915 82.0615 66.6572V64.9155C82.0615 64.8811 82.0271 64.8467 81.9927 64.8467H75.9427C75.9084 64.8353 75.8855 64.8124 75.8855 64.7665Z" fill="#161616"/>
<path d="M167.495 66.6113L160.872 59.7707C160.849 59.7478 160.849 59.702 160.872 59.679L166.83 53.4915C166.876 53.4457 166.842 53.377 166.784 53.377H164.344C164.321 53.377 164.309 53.3884 164.298 53.3999L159.245 58.6478C159.199 58.6936 159.13 58.6592 159.13 58.602V53.4457C159.13 53.4113 159.096 53.377 159.061 53.377H157.148C157.114 53.377 157.079 53.4113 157.079 53.4457V66.6686C157.079 66.703 157.114 66.7374 157.148 66.7374H159.061C159.096 66.7374 159.13 66.703 159.13 66.6686V60.8478C159.13 60.7905 159.21 60.7561 159.245 60.802L164.974 66.7145C164.985 66.7259 165.008 66.7374 165.02 66.7374H167.46C167.506 66.7259 167.541 66.6457 167.495 66.6113Z" fill="#161616"/>
<path d="M45.6698 46.25L34.0854 54.8438L36.2396 49.7792L45.6698 46.25Z" fill="#E17726" stroke="#E17726" stroke-linecap="round" stroke-linejoin="round"/>
<path d="M18.949 46.25L30.4302 54.924L28.3792 49.7792L18.949 46.25Z" fill="#E27625" stroke="#E27625" stroke-linecap="round" stroke-linejoin="round"/>
<path d="M41.499 66.1758L38.4167 70.8966L45.0167 72.7185L46.9073 66.2789L41.499 66.1758Z" fill="#E27625" stroke="#E27625" stroke-linecap="round" stroke-linejoin="round"/>
<path d="M17.7229 66.2789L19.6021 72.7185L26.1906 70.8966L23.1198 66.1758L17.7229 66.2789Z" fill="#E27625" stroke="#E27625" stroke-linecap="round" stroke-linejoin="round"/>
<path d="M25.8354 58.2007L24.0021 60.9736L30.5334 61.2715L30.3156 54.2246L25.8354 58.2007Z" fill="#E27625" stroke="#E27625" stroke-linecap="round" stroke-linejoin="round"/>
<path d="M38.7833 58.2008L34.2344 54.1445L34.0854 61.2716L40.6167 60.9737L38.7833 58.2008Z" fill="#E27625" stroke="#E27625" stroke-linecap="round" stroke-linejoin="round"/>
<path d="M26.1906 70.8971L30.1438 68.9835L26.7406 66.3252L26.1906 70.8971Z" fill="#E27625" stroke="#E27625" stroke-linecap="round" stroke-linejoin="round"/>
<path d="M34.475 68.9835L38.4167 70.8971L37.8781 66.3252L34.475 68.9835Z" fill="#E27625" stroke="#E27625" stroke-linecap="round" stroke-linejoin="round"/>
<path d="M38.4167 70.8969L34.475 68.9834L34.7958 71.5501L34.7615 72.6386L38.4167 70.8969Z" fill="#D5BFB2" stroke="#D5BFB2" stroke-linecap="round" stroke-linejoin="round"/>
<path d="M26.1906 70.8969L29.8573 72.6386L29.8344 71.5501L30.1438 68.9834L26.1906 70.8969Z" fill="#D5BFB2" stroke="#D5BFB2" stroke-linecap="round" stroke-linejoin="round"/>
<path d="M29.926 64.6287L26.649 63.6662L28.9635 62.6006L29.926 64.6287Z" fill="#233447" stroke="#233447" stroke-linecap="round" stroke-linejoin="round"/>
<path d="M34.6927 64.6287L35.6552 62.6006L37.9813 63.6662L34.6927 64.6287Z" fill="#233447" stroke="#233447" stroke-linecap="round" stroke-linejoin="round"/>
<path d="M26.1906 70.8966L26.7636 66.1758L23.1198 66.2789L26.1906 70.8966Z" fill="#CC6228" stroke="#CC6228" stroke-linecap="round" stroke-linejoin="round"/>
<path d="M37.8552 66.1758L38.4167 70.8966L41.499 66.2789L37.8552 66.1758Z" fill="#CC6228" stroke="#CC6228" stroke-linecap="round" stroke-linejoin="round"/>
<path d="M40.6167 60.9736L34.0854 61.2716L34.6927 64.6288L35.6552 62.6007L37.9813 63.6663L40.6167 60.9736Z" fill="#CC6228" stroke="#CC6228" stroke-linecap="round" stroke-linejoin="round"/>
<path d="M26.649 63.6663L28.9636 62.6007L29.9261 64.6288L30.5334 61.2716L24.0021 60.9736L26.649 63.6663Z" fill="#CC6228" stroke="#CC6228" stroke-linecap="round" stroke-linejoin="round"/>
<path d="M24.0021 60.9736L26.7406 66.3247L26.649 63.6663L24.0021 60.9736Z" fill="#E27525" stroke="#E27525" stroke-linecap="round" stroke-linejoin="round"/>
<path d="M37.9813 63.6663L37.8781 66.3247L40.6167 60.9736L37.9813 63.6663Z" fill="#E27525" stroke="#E27525" stroke-linecap="round" stroke-linejoin="round"/>
<path d="M30.5333 61.2715L29.9261 64.6288L30.6938 68.5934L30.8656 63.3684L30.5333 61.2715Z" fill="#E27525" stroke="#E27525" stroke-linecap="round" stroke-linejoin="round"/>
<path d="M34.0854 61.2715L33.7646 63.3569L33.925 68.5934L34.6927 64.6288L34.0854 61.2715Z" fill="#E27525" stroke="#E27525" stroke-linecap="round" stroke-linejoin="round"/>
<path d="M34.6927 64.6295L33.925 68.5941L34.475 68.9837L37.8781 66.3253L37.9813 63.667L34.6927 64.6295Z" fill="#F5841F" stroke="#F5841F" stroke-linecap="round" stroke-linejoin="round"/>
<path d="M26.649 63.667L26.7406 66.3253L30.1437 68.9837L30.6937 68.5941L29.926 64.6295L26.649 63.667Z" fill="#F5841F" stroke="#F5841F" stroke-linecap="round" stroke-linejoin="round"/>
<path d="M34.7615 72.6381L34.7959 71.5496L34.4979 71.2975H30.1209L29.8344 71.5496L29.8573 72.6381L26.1906 70.8965L27.474 71.9506L30.075 73.7496H34.5323L37.1448 71.9506L38.4167 70.8965L34.7615 72.6381Z" fill="#C0AC9D" stroke="#C0AC9D" stroke-linecap="round" stroke-linejoin="round"/>
<path d="M34.475 68.9833L33.925 68.5938H30.6938L30.1438 68.9833L29.8344 71.55L30.1208 71.2979H34.4979L34.7958 71.55L34.475 68.9833Z" fill="#161616" stroke="#161616" stroke-linecap="round" stroke-linejoin="round"/>
<path d="M46.1625 55.4052L47.1365 50.6615L45.6698 46.25L34.475 54.5573L38.7833 58.201L44.8677 59.9771L46.2083 58.4073L45.624 57.9833L46.5521 57.1354L45.8417 56.5854L46.7698 55.875L46.1625 55.4052Z" fill="#763E1A" stroke="#763E1A" stroke-linecap="round" stroke-linejoin="round"/>
<path d="M17.4823 50.6615L18.4677 55.4052L17.8375 55.875L18.7771 56.5854L18.0667 57.1354L18.9948 57.9833L18.4104 58.4073L19.7511 59.9771L25.8354 58.201L30.1438 54.5573L18.949 46.25L17.4823 50.6615Z" fill="#763E1A" stroke="#763E1A" stroke-linecap="round" stroke-linejoin="round"/>
<path d="M44.8677 59.9772L38.7834 58.2012L40.6167 60.9741L37.8781 66.3251L41.499 66.2793H46.9073L44.8677 59.9772Z" fill="#F5841F" stroke="#F5841F" stroke-linecap="round" stroke-linejoin="round"/>
<path d="M25.8354 58.2012L19.7511 59.9772L17.7229 66.2793H23.1198L26.7406 66.3251L24.0021 60.9741L25.8354 58.2012Z" fill="#F5841F" stroke="#F5841F" stroke-linecap="round" stroke-linejoin="round"/>
<path d="M34.0854 61.272L34.475 54.5574L36.2396 49.7793H28.3792L30.1438 54.5574L30.5333 61.272L30.6823 63.3803L30.6938 68.5939H33.925L33.9365 63.3803L34.0854 61.272Z" fill="#F5841F" stroke="#F5841F" stroke-linecap="round" stroke-linejoin="round"/>
<rect x="0.5" y="0.5" width="184" height="119" rx="3.5" stroke="#EEECEA"/>
</svg>
