<svg width="165" height="100" viewBox="0 0 165 100" fill="none" xmlns="http://www.w3.org/2000/svg">
<rect x="0.5" y="0.5" width="164" height="99" rx="3.5" fill="white"/>
<path d="M21.5613 35.3455L35.582 49.3662C35.7482 49.534 35.8414 49.7608 35.8414 49.9972C35.8414 50.2335 35.7482 50.4601 35.582 50.6281C35.4962 50.7166 35.3927 50.7859 35.2782 50.8316C35.1637 50.8776 35.0409 50.8986 34.9177 50.8936H20.9238C20.8057 50.8946 20.6888 50.872 20.5796 50.8271C20.4704 50.7825 20.3711 50.7166 20.2879 50.6331C20.2044 50.5496 20.1382 50.4504 20.0936 50.3411C20.0487 50.2322 20.0261 50.115 20.0271 49.9972V35.9699C20.0282 35.7927 20.082 35.6196 20.1815 35.4729C20.2808 35.3261 20.4215 35.2121 20.5856 35.1454C20.75 35.0785 20.9304 35.0619 21.1039 35.0977C21.2775 35.1331 21.4366 35.2195 21.5613 35.3455Z" fill="#E23CA7"/>
<path d="M48.3342 64.648L34.3138 50.6273C34.1473 50.4595 34.0541 50.2327 34.0541 49.9964C34.0541 49.76 34.1473 49.5334 34.3138 49.3654C34.4012 49.2798 34.5052 49.2126 34.6191 49.1682C34.7333 49.1236 34.8554 49.1026 34.9778 49.1065H49.005C49.2411 49.1065 49.4674 49.2002 49.6342 49.3672C49.8012 49.534 49.8949 49.7603 49.8949 49.9964V64.0236C49.8959 64.141 49.8734 64.2576 49.8293 64.3663C49.7849 64.475 49.7195 64.5739 49.6365 64.6572C49.5538 64.7407 49.4556 64.8068 49.3472 64.852C49.2387 64.8972 49.1224 64.9203 49.005 64.9203C48.8816 64.9224 48.759 64.8993 48.6448 64.8525C48.5308 64.8055 48.4274 64.736 48.3407 64.648" fill="#D00A8E"/>
<path d="M35.5814 50.6278L21.5607 64.6482C21.4746 64.7367 21.3712 64.8065 21.2569 64.8533C21.1427 64.9003 21.0201 64.9231 20.8967 64.9207C20.7785 64.9215 20.6617 64.8989 20.5525 64.8543C20.4432 64.8094 20.344 64.7435 20.2605 64.66C20.1773 64.5765 20.1111 64.4775 20.0664 64.3683C20.0218 64.2591 19.9992 64.142 20 64.0241V49.9968C20 49.8794 20.0231 49.7631 20.0683 49.6547C20.1134 49.5462 20.1796 49.4478 20.2631 49.3651C20.3463 49.2824 20.4453 49.217 20.554 49.1726C20.6627 49.1282 20.7791 49.1059 20.8967 49.1067H34.9505C35.1298 49.0993 35.3073 49.1461 35.4593 49.2411C35.6116 49.3364 35.7316 49.4753 35.8033 49.6397C35.8752 49.8043 35.8955 49.9866 35.8618 50.163C35.8282 50.3392 35.7421 50.5015 35.6148 50.6278" fill="#DC1A97"/>
<path d="M20.2923 63.393L34.313 49.3723C34.3986 49.2838 34.5023 49.2145 34.6165 49.1688C34.731 49.1229 34.8539 49.1019 34.977 49.1068C35.2131 49.1068 35.4394 49.2006 35.6064 49.3673C35.7731 49.5343 35.8671 49.7606 35.8671 49.9967V64.0239C35.8679 64.1413 35.8456 64.2579 35.8012 64.3666C35.7568 64.4753 35.6915 64.5743 35.6088 64.6575C35.5261 64.741 35.4276 64.8069 35.3191 64.8521C35.2107 64.8973 35.0944 64.9206 34.977 64.9206H20.9232C20.8056 64.9217 20.6888 64.8986 20.5803 64.8529C20.4719 64.8072 20.3737 64.74 20.2923 64.6549C20.2083 64.5727 20.1416 64.4745 20.0962 64.3661C20.0507 64.2579 20.0271 64.1416 20.0271 64.0239C20.0271 63.9066 20.0507 63.79 20.0962 63.6818C20.1416 63.5734 20.2083 63.4752 20.2923 63.393Z" fill="#D70A8F"/>
<path d="M34.3134 49.3657L48.3341 35.3451C48.4208 35.2579 48.5245 35.1894 48.6387 35.1437C48.7529 35.098 48.8753 35.0762 48.9982 35.0793C49.115 35.0793 49.2308 35.1024 49.3387 35.1471C49.4469 35.192 49.5448 35.2574 49.6275 35.3401C49.7102 35.4228 49.7759 35.521 49.8205 35.6289C49.8652 35.7368 49.8883 35.8526 49.8883 35.9695V49.9967C49.8891 50.1141 49.8667 50.2306 49.8224 50.3394C49.778 50.4481 49.7126 50.547 49.6299 50.6303C49.5472 50.7138 49.4487 50.7799 49.3406 50.8248C49.2321 50.87 49.1158 50.8934 48.9982 50.8934H34.9512C34.7719 50.8989 34.5949 50.8506 34.4434 50.7545C34.2919 50.6584 34.1727 50.5192 34.1013 50.3546C34.0299 50.19 34.0094 50.008 34.0422 49.8315C34.0753 49.6554 34.1606 49.4931 34.2869 49.3657" fill="#BB0F8F"/>
<path d="M49.6083 36.6073L35.5879 50.628C35.4999 50.7139 35.3962 50.7816 35.2822 50.8273C35.1683 50.8727 35.0464 50.8953 34.9236 50.8937C34.8057 50.8945 34.6886 50.8719 34.5793 50.8273C34.4701 50.7824 34.3711 50.7165 34.2876 50.633C34.2041 50.5495 34.1382 50.4502 34.0933 50.3413C34.0487 50.232 34.0261 50.1149 34.0269 49.997V35.9698C34.0269 35.8522 34.0502 35.7361 34.0951 35.6277C34.1403 35.5192 34.2065 35.4208 34.29 35.3381C34.3732 35.2553 34.4722 35.19 34.5809 35.1456C34.6896 35.1012 34.8062 35.0789 34.9236 35.0797H48.9508C49.0734 35.0752 49.1955 35.096 49.3097 35.1403C49.4239 35.185 49.5279 35.2525 49.6148 35.3388C49.7816 35.5077 49.875 35.7356 49.875 35.9729C49.875 36.2106 49.7816 36.4382 49.6148 36.6073" fill="#A4158E"/>
<path fill-rule="evenodd" clip-rule="evenodd" d="M71.5122 41.4111C69.0065 41.4111 66.8374 42.5328 65.4909 44.3283H65.3415V41.9347H61.1155V60.5217H65.4161V51.0598C65.4161 47.8436 67.5852 45.6369 70.4275 45.6369C73.0829 45.6369 74.8408 47.5818 74.8408 50.4989V60.5217H79.1414V49.8257C79.1414 44.5901 76.1497 41.4111 71.5122 41.4111ZM91.8569 41.4111C86.1349 41.4111 82.2079 45.7493 82.2079 51.247C82.2079 56.5202 85.761 61.0453 91.8569 61.0453C96.2326 61.0453 99.8602 58.7265 101.057 54.6874H96.6065C95.8584 56.1836 94.0259 57.1186 91.9317 57.081C89.0145 57.0062 86.9951 55.0991 86.6585 52.7053H101.356C101.917 46.3104 98.0275 41.4111 91.8569 41.4111ZM91.782 45.3754C94.3998 45.3754 96.3447 46.8713 96.9058 49.1898H86.7333C87.2566 46.9085 89.2015 45.3754 91.782 45.3754ZM113.81 61.0453C119.756 61.0453 123.72 56.7071 123.72 51.2094C123.72 45.712 119.793 41.4111 113.81 41.4111C107.714 41.4111 103.75 45.712 103.75 51.2094C103.75 56.7071 107.751 61.0453 113.81 61.0453ZM113.81 56.9313C110.369 56.9313 108.088 54.3884 108.088 51.247C108.088 48.0678 110.332 45.5624 113.81 45.5624C117.176 45.5624 119.42 48.0678 119.42 51.247C119.42 54.3508 117.176 56.9313 113.81 56.9313ZM137.371 41.4111C134.865 41.4111 132.696 42.5328 131.35 44.3283H131.2V41.9347H126.974V60.5217H131.275V51.0598C131.275 47.8436 133.444 45.6369 136.286 45.6369C138.942 45.6369 140.699 47.5818 140.699 50.4989V60.5217H145V49.8257C145 44.5901 142.008 41.4111 137.371 41.4111Z" fill="#040606"/>
<rect x="0.5" y="0.5" width="164" height="99" rx="3.5" stroke="#EEECEA"/>
</svg>
