<svg width="185" height="120" viewBox="0 0 185 120" fill="none" xmlns="http://www.w3.org/2000/svg">
<rect x="0.5" y="0.5" width="184" height="119" rx="3.5" fill="white"/>
<path d="M19.3736 42.4157L36.1984 59.2405C36.3979 59.4419 36.5097 59.7141 36.5097 59.9977C36.5097 60.2812 36.3979 60.5532 36.1984 60.7548C36.0954 60.861 35.9713 60.9442 35.8339 60.999C35.6965 61.0541 35.549 61.0793 35.4013 61.0734H18.6086C18.4668 61.0746 18.3266 61.0475 18.1955 60.9936C18.0644 60.9401 17.9453 60.861 17.8455 60.7608C17.7453 60.6606 17.6659 60.5415 17.6123 60.4104C17.5584 60.2797 17.5313 60.1391 17.5326 59.9977V43.165C17.5338 42.9523 17.5984 42.7446 17.7178 42.5685C17.8369 42.3924 18.0058 42.2556 18.2028 42.1756C18.4 42.0953 18.6165 42.0754 18.8247 42.1183C19.033 42.1608 19.2239 42.2645 19.3736 42.4157Z" fill="#E23CA7"/>
<path d="M51.5009 77.5784L34.6764 60.7536C34.4767 60.5522 34.3648 60.28 34.3648 59.9964C34.3648 59.7128 34.4767 59.4409 34.6764 59.2393C34.7813 59.1365 34.9061 59.0559 35.0429 59.0026C35.1799 58.9491 35.3264 58.9239 35.4733 58.9286H52.306C52.5892 58.9286 52.8608 59.0411 53.0609 59.2415C53.2613 59.4415 53.3738 59.7131 53.3738 59.9964V76.8291C53.375 76.9699 53.348 77.1098 53.295 77.2403C53.2418 77.3707 53.1633 77.4895 53.0637 77.5894C52.9645 77.6896 52.8467 77.769 52.7165 77.8232C52.5864 77.8774 52.4468 77.9051 52.306 77.9051C52.1579 77.9076 52.0107 77.8799 51.8737 77.8238C51.7369 77.7674 51.6128 77.6839 51.5088 77.5784" fill="#D00A8E"/>
<path d="M36.1976 60.7535L19.3728 77.578C19.2695 77.6842 19.1453 77.768 19.0083 77.8241C18.8712 77.8805 18.7241 77.9079 18.576 77.9051C18.4342 77.906 18.294 77.8789 18.1629 77.8254C18.0318 77.7715 17.9127 77.6924 17.8125 77.5922C17.7126 77.492 17.6332 77.3732 17.5797 77.2421C17.5261 77.1111 17.499 76.9705 17.5 76.8291V59.9964C17.5 59.8555 17.5277 59.7159 17.5819 59.5858C17.6361 59.4557 17.7155 59.3375 17.8157 59.2383C17.9156 59.139 18.0343 59.0606 18.1648 59.0073C18.2952 58.9541 18.4348 58.9273 18.576 58.9282H35.4405C35.6557 58.9194 35.8687 58.9755 36.0511 59.0896C36.2339 59.2039 36.3779 59.3706 36.4639 59.5679C36.5502 59.7654 36.5745 59.9841 36.5342 60.1958C36.4938 60.4072 36.3905 60.602 36.2377 60.7535" fill="#DC1A97"/>
<path d="M17.8508 76.0721L34.6756 59.2473C34.7783 59.1411 34.9028 59.0579 35.0398 59.0031C35.1772 58.9479 35.3247 58.9227 35.4724 58.9287C35.7557 58.9287 36.0273 59.0412 36.2277 59.2413C36.4278 59.4417 36.5406 59.7133 36.5406 59.9965V76.8292C36.5415 76.9701 36.5147 77.11 36.4615 77.2404C36.4082 77.3709 36.3298 77.4896 36.2305 77.5895C36.1313 77.6897 36.0131 77.7688 35.883 77.823C35.7529 77.8772 35.6133 77.9052 35.4724 77.9052H18.6079C18.4668 77.9065 18.3265 77.8788 18.1964 77.8239C18.0663 77.7691 17.9484 77.6885 17.8508 77.5864C17.7499 77.4877 17.6699 77.3699 17.6154 77.2398C17.5609 77.11 17.5325 76.9704 17.5325 76.8292C17.5325 76.6884 17.5609 76.5485 17.6154 76.4187C17.6699 76.2885 17.7499 76.1707 17.8508 76.0721Z" fill="#D70A8F"/>
<path d="M34.6761 59.2386L51.5009 42.4138C51.6049 42.3092 51.7293 42.2269 51.8664 42.1721C52.0035 42.1173 52.1503 42.0911 52.2978 42.0949C52.438 42.0949 52.5769 42.1226 52.7064 42.1762C52.8362 42.2301 52.9538 42.3085 53.053 42.4078C53.1523 42.507 53.231 42.6249 53.2846 42.7544C53.3382 42.8839 53.3659 43.0228 53.3659 43.163V59.9957C53.3668 60.1366 53.3401 60.2765 53.2868 60.4069C53.2336 60.5374 53.1551 60.6562 53.0558 60.756C52.9566 60.8562 52.8384 60.9356 52.7086 60.9895C52.5785 61.0437 52.4389 61.0718 52.2978 61.0718H35.4414C35.2262 61.0784 35.0139 61.0204 34.8321 60.9051C34.6503 60.7898 34.5072 60.6228 34.4215 60.4252C34.3358 60.2276 34.3112 60.0093 34.3506 59.7976C34.3903 59.5861 34.4927 59.3914 34.6443 59.2386" fill="#BB0F8F"/>
<path d="M53.0298 43.9285L36.2053 60.7533C36.0997 60.8563 35.9753 60.9376 35.8385 60.9925C35.7018 61.047 35.5556 61.0741 35.4081 61.0722C35.2667 61.0731 35.1261 61.046 34.9951 60.9925C34.864 60.9386 34.7452 60.8595 34.645 60.7593C34.5448 60.6591 34.4657 60.54 34.4118 60.4092C34.3583 60.2782 34.3312 60.1376 34.3321 59.9962V43.1635C34.3321 43.0223 34.3602 42.883 34.414 42.7529C34.4682 42.6228 34.5476 42.5046 34.6478 42.4054C34.7477 42.3061 34.8665 42.2277 34.9969 42.1744C35.1274 42.1212 35.2673 42.0944 35.4081 42.0953H52.2408C52.388 42.09 52.5345 42.1149 52.6715 42.1681C52.8086 42.2217 52.9334 42.3027 53.0377 42.4063C53.2377 42.6089 53.3499 42.8824 53.3499 43.1672C53.3499 43.4524 53.2377 43.7256 53.0377 43.9285" fill="#A4158E"/>
<path fill-rule="evenodd" clip-rule="evenodd" d="M79.3145 49.6929C76.3076 49.6929 73.7047 51.039 72.089 53.1935H71.9097V50.3212H66.8384V72.6256H71.9992V61.2713C71.9992 57.4118 74.6021 54.7639 78.0129 54.7639C81.1993 54.7639 83.3088 57.0977 83.3088 60.5983V72.6256H88.4695V59.7904C88.4695 53.5076 84.8795 49.6929 79.3145 49.6929ZM103.728 49.6929C96.8618 49.6929 92.1494 54.8987 92.1494 61.4959C92.1494 67.8238 96.4131 73.2539 103.728 73.2539C108.979 73.2539 113.332 70.4714 114.768 65.6245H109.428C108.53 67.4198 106.331 68.5418 103.818 68.4968C100.317 68.407 97.894 66.1185 97.4901 63.2459H115.127C115.801 55.5721 111.133 49.6929 103.728 49.6929ZM103.638 54.45C106.78 54.45 109.113 56.2451 109.787 59.0273H97.5799C98.2078 56.2898 100.542 54.45 103.638 54.45ZM130.072 73.2539C137.207 73.2539 141.964 68.0481 141.964 61.4509C141.964 54.854 137.252 49.6929 130.072 49.6929C122.757 49.6929 117.999 54.854 117.999 61.4509C117.999 68.0481 122.801 73.2539 130.072 73.2539ZM130.072 68.3172C125.943 68.3172 123.205 65.2656 123.205 61.4959C123.205 57.6809 125.898 54.6744 130.072 54.6744C134.111 54.6744 136.803 57.6809 136.803 61.4959C136.803 65.2205 134.111 68.3172 130.072 68.3172ZM158.345 49.6929C155.338 49.6929 152.735 51.039 151.119 53.1935H150.94V50.3212H145.869V72.6256H151.03V61.2713C151.03 57.4118 153.633 54.7639 157.043 54.7639C160.23 54.7639 162.339 57.0977 162.339 60.5983V72.6256H167.5V59.7904C167.5 53.5076 163.91 49.6929 158.345 49.6929Z" fill="#040606"/>
<rect x="0.5" y="0.5" width="184" height="119" rx="3.5" stroke="#EEECEA"/>
</svg>
