<svg width="24" height="24" viewBox="0 0 24 24" fill="none" xmlns="http://www.w3.org/2000/svg">
<g clip-path="url(#clip0_30395_2078)">
<rect width="24" height="24" rx="12" fill="#9757D7"/>
<rect y="-6.49988" width="24" height="35.9956"/>
<circle cx="12" cy="12" r="12" fill="#2B2B2B"/>
<path d="M9.44141 5.27997V18.72H13.6654C17.2174 18.72 19.2142 16.9344 19.2142 13.248V10.752C19.2142 7.06557 17.2174 5.27997 13.6654 5.27997H9.44141ZM11.3422 6.98877H13.6846C16.0846 6.98877 17.3134 8.19837 17.3134 10.6944V13.3056C17.3134 15.7824 16.123 17.0112 13.6846 17.0112H11.3422V6.98877Z" fill="#F6F7FB"/>
<path d="M4.64062 8.37735C4.64062 9.24135 5.29343 9.87495 6.13823 9.87495C7.00223 9.87495 7.63583 9.24135 7.63583 8.37735C7.63583 7.51335 7.00223 6.87975 6.13823 6.87975C5.29343 6.87975 4.64062 7.51335 4.64062 8.37735ZM4.64062 15.443C4.64062 16.307 5.29343 16.9406 6.13823 16.9406C7.00223 16.9406 7.63583 16.307 7.63583 15.443C7.63583 14.579 7.00223 13.9454 6.13823 13.9454C5.29343 13.9454 4.64062 14.579 4.64062 15.443Z" fill="#F6F7FB"/>
</g>
<rect x="0.5" y="0.5" width="23" height="23" rx="11.5" stroke="#FCFCFD"/>
<defs>
<clipPath id="clip0_30395_2078">
<rect width="24" height="24" rx="12" fill="white"/>
</clipPath>
</defs>
</svg>
