<svg width="250" height="180" viewBox="0 0 250 180" fill="none" xmlns="http://www.w3.org/2000/svg">
<rect x="0.754167" y="0.754167" width="248.492" height="178.492" rx="5.27917" fill="white"/>
<g clip-path="url(#clip0_110_479)">
<path d="M87.1542 61.4037L74.0376 66.6839V54.2052L87.1542 48.9297V61.4037Z" fill="#6F17F4"/>
<path d="M50.8867 78.9811H51.0357C53.6106 74.3481 58.0247 72.29 63.2443 72.29H65.8192V85.1599C63.98 84.1308 62.2153 83.912 60.1526 83.912C52.7259 83.912 50.8867 88.8383 50.8867 95.3105V110.536H37.5V72.8022H50.8867V78.9811Z" fill="#6F17F4"/>
<path d="M87.1449 72.8022H74.0376V110.536H87.1449V72.8022Z" fill="#6F17F4"/>
<path d="M159.354 72.8022H146.242V110.536H159.354V72.8022Z" fill="#6F17F4"/>
<path d="M212.5 91.7064C212.5 104.502 201.907 111.789 189.773 111.789C177.639 111.789 167.046 104.581 167.046 91.7064C167.046 78.8319 177.639 71.5542 189.773 71.5542C201.907 71.5542 212.5 78.8366 212.5 91.7064ZM181.168 91.7064C181.168 96.4883 184.33 100.167 189.773 100.167C195.216 100.167 198.378 96.4883 198.378 91.7064C198.378 86.9244 195.216 83.1715 189.773 83.1715C184.33 83.1715 181.168 87.0688 181.168 91.7064Z" fill="#6F17F4"/>
<path d="M159.354 61.4037L146.242 66.6839V54.2052L159.354 48.9297V61.4037Z" fill="#6F17F4"/>
<path d="M108.382 77.0674H108.531C110.957 73.3145 115.52 71.5498 119.934 71.5498C131.188 71.5498 138.983 80.9647 138.983 91.7765C138.983 102.588 131.258 111.784 120.078 111.784C115.739 111.784 111.255 110.238 108.382 106.928V125.688L94.9951 131.07V72.8023H108.382V77.0674V77.0674ZM107.939 91.702C107.939 96.484 111.101 100.162 116.544 100.162C121.987 100.162 125.149 96.484 125.149 91.702C125.149 86.92 121.987 83.1671 116.544 83.1671C111.101 83.1671 107.939 87.0644 107.939 91.702Z" fill="#6F17F4"/>
</g>
<rect x="0.754167" y="0.754167" width="248.492" height="178.492" rx="5.27917" stroke="#EEECEA" stroke-width="1.50833"/>
<defs>
<clipPath id="clip0_110_479">
<rect width="175" height="82.1407" fill="white" transform="translate(37.5 48.9297)"/>
</clipPath>
</defs>
</svg>
