<svg width="185" height="120" viewBox="0 0 185 120" fill="none" xmlns="http://www.w3.org/2000/svg">
<rect x="0.5" y="0.5" width="184" height="119" rx="3.5" fill="white"/>
<g clip-path="url(#clip0_109_326)">
<path d="M82.8928 39.6716C82.2211 39.468 81.5242 39.36 80.8224 39.3508C79.9917 39.3039 79.1691 39.5362 78.4857 40.0106C78.2052 40.2204 77.9803 40.4955 77.8305 40.8121C77.6807 41.1286 77.6105 41.4769 77.626 41.8268C77.6278 42.1902 77.7213 42.5472 77.8981 42.8648C78.0749 43.1823 78.329 43.45 78.637 43.6429C79.5342 44.2289 80.4999 44.7026 81.5125 45.0534C82.3315 45.3357 83.1203 45.6987 83.8674 46.137C84.5259 46.5475 85.0761 47.1101 85.4717 47.7776C85.9126 48.5805 86.1221 49.49 86.077 50.4049C86.0891 51.3281 85.8371 52.2354 85.3506 53.0201C84.8592 53.8052 84.1591 54.4382 83.3286 54.8483C82.3528 55.3156 81.2805 55.5458 80.1989 55.5203C79.105 55.5246 78.0183 55.3445 76.9843 54.9876C76.0128 54.6643 75.0916 54.2058 74.248 53.6255L75.3196 51.7064C75.9983 52.2144 76.7465 52.6222 77.5413 52.9172C78.313 53.2221 79.1331 53.3862 79.9628 53.4015C80.8708 53.4116 81.7595 53.1387 82.5053 52.6206C82.8604 52.3734 83.1464 52.0395 83.3361 51.6506C83.5258 51.2618 83.6128 50.8308 83.5889 50.3988C83.6027 50.0209 83.5277 49.645 83.37 49.3012C83.2123 48.9574 82.9763 48.6554 82.6809 48.4193C81.9021 47.8357 81.0412 47.3705 80.1262 47.039C79.2573 46.7236 78.4117 46.3474 77.5958 45.913C76.9149 45.5438 76.3238 45.0292 75.8644 44.4056C75.3574 43.7028 75.1016 42.85 75.1379 41.9842C75.1159 41.3388 75.2376 40.6967 75.4941 40.1041C75.7506 39.5115 76.1355 38.9834 76.6211 38.5577C77.6992 37.654 79.0645 37.1645 80.4713 37.1775C82.3717 37.1651 84.2406 37.6626 85.8833 38.6183L84.9571 40.5131C84.2985 40.1651 83.607 39.8833 82.8928 39.6716V39.6716Z" fill="#010000"/>
<path d="M92.2578 45.453L92.5605 44.9808L99.9339 37.3047H103.052L95.5995 45.0292L103.469 55.3206H100.4L93.8318 46.5669L92.3062 48.0379V55.3024H89.8666V37.3047H92.3365V44.5692L92.2578 45.453Z" fill="#010000"/>
<path d="M108.954 37.3047V55.3206H106.533V37.3047H108.954Z" fill="#010000"/>
<path d="M116.279 37.3047V52.9778H125.45V55.3206H113.864V37.3047H116.279Z" fill="#010000"/>
<path d="M131.504 37.3047V52.9778H140.676V55.3206H129.089V37.3047H131.504Z" fill="#010000"/>
<path d="M90.0665 82.4899L85.8288 71.7264L81.222 82.5383L74.0422 63.7718H76.8633L81.5428 76.8357L84.6605 68.6632L82.7233 63.7476H85.1448L90.1512 76.5815L94.5886 63.7476H97.1796L90.0665 82.4899Z" fill="#010000"/>
<path d="M107.659 76.9568H100.733L98.8141 81.6787H96.3926L104.262 62.9121H104.408L112.278 81.6787H109.487L107.659 76.9568ZM106.835 74.8622L104.268 68.2818L101.605 74.8622H106.835Z" fill="#010000"/>
<path d="M117.835 63.6748V79.3479H127V81.6786H115.413V63.6748H117.835Z" fill="#010000"/>
<path d="M133.054 63.6748V79.3479H142.225V81.6786H130.632V63.6748H133.054Z" fill="#010000"/>
<path d="M157.572 63.6748V65.9934H148.279V71.4417H156.579V73.8087H148.279V79.3661H157.923V81.6786H145.864V63.6748H157.572Z" fill="#010000"/>
<path d="M172.5 63.6748V65.9934H167.657V81.6786H165.236V65.9934H160.526V63.6748H172.5Z" fill="#010000"/>
<path d="M22.87 59.9576L12.5 52.1362V58.2929C12.5 58.2929 20.0551 62.1854 19.8855 62.0643C19.716 61.9433 22.87 59.9576 22.87 59.9576Z" fill="url(#paint0_linear_109_326)"/>
<path d="M22.87 59.9457L12.5 67.755V61.6105C12.5 61.6105 20.0551 57.724 19.8855 57.8451C19.716 57.9661 22.87 59.9457 22.87 59.9457Z" fill="url(#paint1_linear_109_326)"/>
<path d="M33.3611 74.0752L28.0641 83.3495L34.2873 83.4282L36.3153 73.5728L33.3611 74.0752Z" fill="url(#paint2_linear_109_326)"/>
<path d="M43.6222 83.4099L36.0187 70.1401L35.0985 74.6259L38.9547 83.4099H43.6222Z" fill="url(#paint3_linear_109_326)"/>
<path d="M28.0641 36.6509L37.3808 56.4526L59.1863 67.9244L59.2226 61.6649L41.1583 53.3773L34.2873 36.8022L28.0641 36.6509Z" fill="url(#paint4_linear_109_326)"/>
<path d="M12.5 83.4102H28.0641L28.0641 67.846H12.5L12.5 83.4102Z" fill="black"/>
<path d="M15.6177 80.2983H24.9525V70.9635H15.6177L15.6177 80.2983Z" fill="white"/>
<path d="M20.2791 77.1868C21.1383 77.1868 21.8349 76.4902 21.8349 75.631C21.8349 74.7718 21.1383 74.0752 20.2791 74.0752C19.4198 74.0752 18.7233 74.7718 18.7233 75.631C18.7233 76.4902 19.4198 77.1868 20.2791 77.1868Z" fill="black"/>
<path d="M43.6283 83.4102H59.1924V67.846H43.6283V83.4102Z" fill="black"/>
<path d="M46.7399 80.2983H56.0747V70.9635H46.7399V80.2983Z" fill="white"/>
<path d="M51.4072 77.1868C52.2665 77.1868 52.9631 76.4902 52.9631 75.631C52.9631 74.7718 52.2665 74.0752 51.4072 74.0752C50.548 74.0752 49.8514 74.7718 49.8514 75.631C49.8514 76.4902 50.548 77.1868 51.4072 77.1868Z" fill="black"/>
<path d="M12.5 52.1362H28.0641L28.0641 36.5721H12.5L12.5 52.1362Z" fill="black"/>
<path d="M15.6177 49.0249H24.9525V39.6901H15.6177L15.6177 49.0249Z" fill="white"/>
<path d="M20.2791 45.907C21.1383 45.907 21.8349 45.2105 21.8349 44.3512C21.8349 43.492 21.1383 42.7954 20.2791 42.7954C19.4198 42.7954 18.7233 43.492 18.7233 44.3512C18.7233 45.2105 19.4198 45.907 20.2791 45.907Z" fill="black"/>
<path d="M37.399 58.4385H18.7233V61.5501H37.399V58.4385Z" fill="black"/>
<path d="M31.1757 55.3208H28.0641V58.4324H31.1757V55.3208Z" fill="black"/>
<path d="M24.9465 55.3208H21.8348V58.4324H24.9465V55.3208Z" fill="black"/>
<path d="M34.2874 52.209H31.1758V58.4322H34.2874V52.209Z" fill="black"/>
<path d="M59.1863 42.9468H37.3989V46.0584H59.1863V42.9468Z" fill="black"/>
<path d="M59.1863 46.0586H49.8514V49.1702H59.1863V46.0586Z" fill="black"/>
<path d="M59.1863 36.7236H56.0747V39.8352H59.1863V36.7236Z" fill="black"/>
<path d="M59.1863 49.1763H56.0747V52.2879H59.1863V49.1763Z" fill="black"/>
<path d="M52.9631 36.7236H49.8514V39.8352H52.9631V36.7236Z" fill="black"/>
<path d="M56.2139 39.9805H53.1023V43.0921H56.2139V39.9805Z" fill="black"/>
<path d="M49.8455 52.2876H40.5106V55.3992H49.8455V52.2876Z" fill="black"/>
<path d="M56.0748 52.2876H52.9631V55.3992H56.0748V52.2876Z" fill="black"/>
<path d="M52.9631 55.3208H49.8514V58.4324H52.9631V55.3208Z" fill="black"/>
<path d="M59.2227 61.5864H56.1111V64.698H59.2227V61.5864Z" fill="black"/>
<path d="M59.1863 55.3208H56.0747V58.4324H59.1863V55.3208Z" fill="black"/>
<path d="M52.9631 49.1763H49.8514V52.2879H52.9631V49.1763Z" fill="black"/>
<path d="M46.7338 49.1763H43.6222V52.2879H46.7338V49.1763Z" fill="black"/>
<path d="M43.6222 46.0586H40.5106V49.1702H43.6222V46.0586Z" fill="black"/>
<path d="M46.7338 36.7236H43.6222V39.8352H46.7338V36.7236Z" fill="black"/>
<path d="M37.399 36.7236H34.2874V39.8352H37.399V36.7236Z" fill="black"/>
<path d="M46.7338 39.8354H43.6222V42.9471H46.7338V39.8354Z" fill="black"/>
<path d="M43.6222 39.8354H40.5106V42.9471H43.6222V39.8354Z" fill="black"/>
<path d="M49.8515 39.8354H46.7399V42.9471H49.8515V39.8354Z" fill="black"/>
<path d="M34.2874 67.7729H31.1758V74.0749H34.2874V67.7729Z" fill="black"/>
<path d="M40.5105 67.7729H37.3989V74.0749H40.5105V67.7729Z" fill="black"/>
<path d="M37.399 67.7729H34.2874V77.1865H37.399V67.7729Z" fill="black"/>
<path d="M37.399 64.6436H34.2874V67.7915H37.399V64.6436Z" fill="black"/>
<path d="M40.5105 77.1685H37.3989V80.3164H40.5105V77.1685Z" fill="black"/>
<path d="M34.2874 61.5498H24.9525V64.6614H34.2874V61.5498Z" fill="black"/>
<path d="M21.8349 61.5498H18.7233V64.6614H21.8349V61.5498Z" fill="black"/>
<path d="M31.1757 64.6616H28.0641V67.7732H31.1757V64.6616Z" fill="black"/>
<path d="M18.7232 61.5498H15.6116V64.6614H18.7232V61.5498Z" fill="black"/>
<path d="M22.6702 55.3208H15.6116V58.4324H22.6702V55.3208Z" fill="black"/>
<path d="M28.0641 36.5723L33.9544 49.1761L39.3603 49.0248L34.2873 36.7236L28.0641 36.5723Z" fill="url(#paint5_linear_109_326)"/>
<path d="M47.0244 61.5498H59.1864V67.8457L47.0244 61.5498Z" fill="url(#paint6_linear_109_326)"/>
</g>
<rect x="0.5" y="0.5" width="184" height="119" rx="3.5" stroke="#EEECEA"/>
<defs>
<linearGradient id="paint0_linear_109_326" x1="15.4179" y1="59.9758" x2="18.0815" y2="55.3568" gradientUnits="userSpaceOnUse">
<stop stop-color="white" stop-opacity="0"/>
<stop offset="0.46" stop-color="#DDDDDD" stop-opacity="0.1"/>
<stop offset="0.82" stop-color="#737372" stop-opacity="0.43"/>
<stop offset="1" stop-color="#1D1E1C" stop-opacity="0.7"/>
</linearGradient>
<linearGradient id="paint1_linear_109_326" x1="15.4179" y1="59.9336" x2="18.0815" y2="64.5526" gradientUnits="userSpaceOnUse">
<stop stop-color="white" stop-opacity="0"/>
<stop offset="0.49" stop-color="#D7D8D7" stop-opacity="0.1"/>
<stop offset="0.88" stop-color="#5B5C5B" stop-opacity="0.43"/>
<stop offset="1" stop-color="#1D1E1C" stop-opacity="0.6"/>
</linearGradient>
<linearGradient id="paint2_linear_109_326" x1="35.9158" y1="80.6132" x2="31.1696" y2="77.8709" gradientUnits="userSpaceOnUse">
<stop stop-color="white" stop-opacity="0"/>
<stop offset="0.65" stop-color="#B8B8B7" stop-opacity="0.09"/>
<stop offset="1" stop-color="#1D1E1C" stop-opacity="0.3"/>
</linearGradient>
<linearGradient id="paint3_linear_109_326" x1="36.2971" y1="78.8091" x2="39.8446" y2="76.7629" gradientUnits="userSpaceOnUse">
<stop stop-color="white" stop-opacity="0"/>
<stop offset="0.69" stop-color="#7E7F7E" stop-opacity="0.23"/>
<stop offset="1" stop-color="#1D1E1C" stop-opacity="0.4"/>
</linearGradient>
<linearGradient id="paint4_linear_109_326" x1="46.7398" y1="49.176" x2="38.422" y2="57.4939" gradientUnits="userSpaceOnUse">
<stop stop-color="white" stop-opacity="0"/>
<stop offset="0.62" stop-color="#D3D3D3" stop-opacity="0.08"/>
<stop offset="0.95" stop-color="#3F403E" stop-opacity="0.34"/>
<stop offset="1" stop-color="#1D1E1C" stop-opacity="0.4"/>
</linearGradient>
<linearGradient id="paint5_linear_109_326" x1="40.6801" y1="46.7365" x2="26.817" y2="38.7334" gradientUnits="userSpaceOnUse">
<stop stop-color="white" stop-opacity="0"/>
<stop offset="0.62" stop-color="#D3D3D3" stop-opacity="0.08"/>
<stop offset="0.95" stop-color="#3F403E" stop-opacity="0.34"/>
<stop offset="1" stop-color="#1D1E1C" stop-opacity="0.4"/>
</linearGradient>
<linearGradient id="paint6_linear_109_326" x1="50.0634" y1="58.5048" x2="59.2953" y2="67.7367" gradientUnits="userSpaceOnUse">
<stop stop-color="white" stop-opacity="0"/>
<stop offset="0.62" stop-color="#D3D3D3" stop-opacity="0.08"/>
<stop offset="0.95" stop-color="#3F403E" stop-opacity="0.34"/>
<stop offset="1" stop-color="#1D1E1C" stop-opacity="0.4"/>
</linearGradient>
<clipPath id="clip0_109_326">
<rect width="160" height="46.8559" fill="white" transform="translate(12.5 36.5723)"/>
</clipPath>
</defs>
</svg>
