<svg width="184" height="120" viewBox="0 0 184 120" fill="none" xmlns="http://www.w3.org/2000/svg">
<path d="M180 0.5H4C2.067 0.5 0.5 2.067 0.5 4V116C0.5 117.933 2.067 119.5 4 119.5H180C181.933 119.5 183.5 117.933 183.5 116V4C183.5 2.067 181.933 0.5 180 0.5Z" fill="white"/>
<path d="M180 0.5H4C2.067 0.5 0.5 2.067 0.5 4V116C0.5 117.933 2.067 119.5 4 119.5H180C181.933 119.5 183.5 117.933 183.5 116V4C183.5 2.067 181.933 0.5 180 0.5Z" stroke="#EEECEA"/>
<path d="M58.2997 42.498V69.1427L42.8981 78.0252L27.4991 69.1427V42.498H58.2997Z" fill="#8FFA9E"/>
<path d="M27.997 68.8548L42.9005 77.4493L57.804 68.8548V42.9962H27.997V68.8548ZM42.9005 78.5985L27.0009 69.4307V42H58.7976V69.4307L42.9005 78.5985V78.5985Z" fill="#053B7D"/>
<path d="M42.8981 42.498L58.2997 51.3779V69.1427L42.8981 78.0252L27.4991 69.1427V51.3779L42.8981 42.498Z" fill="#7AD1F2"/>
<path d="M27.9971 68.8552L42.9006 77.4497L57.8041 68.8552V51.6663L42.898 43.0718L27.9971 51.6663V68.8552ZM43.1497 78.4537H42.6516L27.25 69.5738L27.001 69.1432V51.3783L27.25 50.9477L42.6516 42.0679H43.1497L58.5487 50.9503L58.7977 51.3809V69.1432L58.5487 69.5738L43.1497 78.4563V78.4537Z" fill="#053B7D"/>
<path d="M42.8981 42.498L58.2997 69.1427L42.8981 78.0252L27.4991 69.1427L42.8981 42.498Z" fill="#F2FCFF"/>
<path d="M28.1788 68.9612L42.8981 77.4493L57.6174 68.9612L42.8981 43.4916L28.1788 68.9612ZM42.8981 78.5233C42.8125 78.5233 42.7269 78.4999 42.6491 78.4558L27.2501 69.5734C27.136 69.5086 27.0529 69.3996 27.0166 69.2725C26.9829 69.1454 27.0011 69.0079 27.0659 68.8937L42.4675 42.249C42.5583 42.096 42.7217 42 42.8981 42C43.0745 42 43.2405 42.0934 43.3288 42.249L58.7277 68.8937C58.7952 69.0079 58.8107 69.1454 58.777 69.2725C58.7433 69.3996 58.6603 69.5086 58.5461 69.5734L43.1472 78.4558C43.0693 78.4999 42.9837 78.5233 42.8981 78.5233" fill="#053B7D"/>
<path d="M58.2997 69.6414C58.2167 69.6414 58.1285 69.6206 58.0507 69.5739L27.2501 51.8116C27.0115 51.6741 26.931 51.3706 27.0685 51.132C27.206 50.8933 27.5095 50.8129 27.7482 50.9504L58.5488 68.7126C58.7874 68.8501 58.8678 69.1536 58.7304 69.3923C58.6396 69.5531 58.4709 69.6414 58.2997 69.6414Z" fill="#053B7D"/>
<path d="M27.4991 69.6414C27.3279 69.6414 27.1593 69.5532 27.0685 69.3924C26.931 69.1537 27.014 68.8502 27.25 68.7127L58.0506 50.9479C58.2893 50.8104 58.5928 50.8934 58.7303 51.1294C58.8678 51.3681 58.7847 51.6716 58.5487 51.8091L27.7481 69.574C27.6703 69.6181 27.5847 69.6414 27.4991 69.6414" fill="#053B7D"/>
<path d="M43.3987 42.5156H42.4026V78.0246H43.3987V42.5156Z" fill="#053B7D"/>
<path d="M89.2897 51.7156C92.0499 51.7156 94.3431 53.8169 94.7504 56.5512H83.829C84.2363 53.8169 86.5295 51.7156 89.2897 51.7156V51.7156ZM89.2897 63.13C86.5295 63.13 84.2363 61.0287 83.829 58.2944H91.7438V58.2867H96.556V57.4254C96.556 53.3188 93.2951 49.9775 89.2897 49.9775C85.2843 49.9775 82.0234 53.3188 82.0234 57.4254C82.0234 61.532 85.2843 64.8733 89.2897 64.8733C92.1718 64.8733 94.7582 63.1403 95.9282 60.4502H93.9748C92.976 62.1027 91.2172 63.1326 89.2897 63.1326" fill="#053B7D"/>
<path d="M73.735 63.1296C70.6895 63.1296 68.2094 60.5692 68.2094 57.4225C68.2094 54.2757 70.6869 51.7153 73.735 51.7153C75.7066 51.7153 77.4395 52.7893 78.4175 54.3977H80.3735C79.2398 51.7957 76.6924 49.9746 73.735 49.9746C69.7296 49.9746 66.4688 53.3159 66.4688 57.4225C66.4688 61.529 69.7296 64.8703 73.735 64.8703C76.6171 64.8703 79.2061 63.1374 80.3735 60.4473H78.4201C77.4213 62.0998 75.6625 63.1296 73.735 63.1296Z" fill="#053B7D"/>
<path d="M100.094 53.1424V50.2344H98.3536V64.6087H100.094V57.8768C100.094 55.2878 101.895 53.0024 104.372 52.4394C104.992 52.2993 105.677 52.2267 106.409 52.2267V50.486C105.547 50.486 104.733 50.5716 103.986 50.7428C102.429 51.0956 101.083 51.9673 100.092 53.1424" fill="#053B7D"/>
<path d="M136.174 53.1424V50.2344H134.433V64.6087H136.174V57.8768C136.174 55.2878 137.974 53.0024 140.452 52.4394C141.072 52.2993 141.757 52.2267 142.488 52.2267V50.486C141.627 50.486 140.812 50.5716 140.065 50.7428C138.509 51.0956 137.162 51.9673 136.171 53.1424" fill="#053B7D"/>
<path d="M112.04 52.2413H116.578V50.5006H112.04V47.0322H110.297V50.5006H108.323V52.2413H110.297V64.3898H116.79V62.6491H112.04V52.2413Z" fill="#053B7D"/>
<path d="M125.201 63.1425C122.046 63.1425 119.481 60.5769 119.481 57.4224C119.481 54.2679 122.046 51.7023 125.201 51.7023C128.355 51.7023 130.921 54.2679 130.921 57.4224C130.921 60.5769 128.355 63.1425 125.201 63.1425ZM125.201 49.959C121.086 49.959 117.74 53.3081 117.74 57.4224C117.74 61.5368 121.086 64.8832 125.201 64.8832C129.315 64.8832 132.662 61.5368 132.662 57.4224C132.662 53.3081 129.315 49.959 125.201 49.959" fill="#053B7D"/>
<path d="M149.949 63.1425C147.025 63.1425 144.647 60.5769 144.647 57.4224C144.647 54.2679 147.025 51.7023 149.949 51.7023C152.873 51.7023 155.252 54.2679 155.252 57.4224C155.252 60.5769 152.873 63.1425 149.949 63.1425ZM155.259 50.234V52.5272C153.967 50.9551 152.066 49.959 149.949 49.959C146.066 49.959 142.906 53.3055 142.906 57.4198C142.906 61.5342 146.066 64.8806 149.949 64.8806C152.066 64.8806 153.967 63.8845 155.259 62.315V64.6057H157V50.234H155.259V50.234Z" fill="#053B7D"/>
</svg>
