<svg width="163" height="118" viewBox="0 0 163 118" fill="none" xmlns="http://www.w3.org/2000/svg">
<rect x="0.494398" y="0.494398" width="162.011" height="117.011" rx="3.5056" fill="white"/>
<path d="M20.5613 44.3453L34.582 58.366C34.7482 58.5337 34.8414 58.7606 34.8414 58.9969C34.8414 59.2332 34.7482 59.4598 34.582 59.6279C34.4962 59.7164 34.3927 59.7857 34.2782 59.8314C34.1637 59.8773 34.0409 59.8983 33.9177 59.8933H19.9238C19.8057 59.8944 19.6888 59.8718 19.5796 59.8269C19.4704 59.7823 19.3711 59.7164 19.2879 59.6329C19.2044 59.5494 19.1382 59.4501 19.0936 59.3409C19.0487 59.2319 19.0261 59.1148 19.0271 58.9969V44.9697C19.0282 44.7924 19.082 44.6194 19.1815 44.4726C19.2808 44.3258 19.4215 44.2119 19.5856 44.1452C19.75 44.0782 19.9304 44.0617 20.1039 44.0974C20.2775 44.1329 20.4366 44.2192 20.5613 44.3453Z" fill="#E23CA7"/>
<path d="M47.3342 73.648L33.3138 59.6273C33.1473 59.4595 33.0541 59.2327 33.0541 58.9964C33.0541 58.76 33.1473 58.5334 33.3138 58.3654C33.4012 58.2798 33.5052 58.2126 33.6191 58.1682C33.7333 58.1236 33.8554 58.1026 33.9778 58.1065H48.005C48.2411 58.1065 48.4674 58.2002 48.6342 58.3672C48.8012 58.534 48.8949 58.7603 48.8949 58.9964V73.0236C48.8959 73.141 48.8734 73.2576 48.8293 73.3663C48.7849 73.475 48.7195 73.5739 48.6365 73.6572C48.5538 73.7407 48.4556 73.8068 48.3472 73.852C48.2387 73.8972 48.1224 73.9203 48.005 73.9203C47.8816 73.9224 47.759 73.8993 47.6448 73.8525C47.5308 73.8055 47.4274 73.736 47.3407 73.648" fill="#D00A8E"/>
<path d="M34.5814 59.6278L20.5607 73.6482C20.4746 73.7367 20.3712 73.8065 20.2569 73.8533C20.1427 73.9003 20.0201 73.9231 19.8967 73.9207C19.7785 73.9215 19.6617 73.8989 19.5525 73.8543C19.4432 73.8094 19.344 73.7435 19.2605 73.66C19.1773 73.5765 19.1111 73.4775 19.0664 73.3683C19.0218 73.2591 18.9992 73.142 19 73.0241V58.9968C19 58.8794 19.0231 58.7631 19.0683 58.6547C19.1134 58.5462 19.1796 58.4478 19.2631 58.3651C19.3463 58.2824 19.4453 58.217 19.554 58.1726C19.6627 58.1282 19.7791 58.1059 19.8967 58.1067H33.9505C34.1298 58.0993 34.3073 58.1461 34.4593 58.2411C34.6116 58.3364 34.7316 58.4753 34.8033 58.6397C34.8752 58.8043 34.8955 58.9866 34.8618 59.163C34.8282 59.3392 34.7421 59.5015 34.6148 59.6278" fill="#DC1A97"/>
<path d="M19.2923 72.3927L33.313 58.3721C33.3986 58.2836 33.5023 58.2143 33.6165 58.1686C33.731 58.1226 33.8539 58.1016 33.977 58.1066C34.2131 58.1066 34.4394 58.2003 34.6064 58.3671C34.7731 58.5341 34.8671 58.7604 34.8671 58.9965V73.0237C34.8679 73.1411 34.8456 73.2577 34.8012 73.3664C34.7568 73.4751 34.6915 73.574 34.6088 73.6573C34.5261 73.7408 34.4276 73.8067 34.3191 73.8518C34.2107 73.897 34.0944 73.9204 33.977 73.9204H19.9232C19.8056 73.9214 19.6888 73.8983 19.5803 73.8526C19.4719 73.8069 19.3737 73.7397 19.2923 73.6547C19.2083 73.5725 19.1416 73.4743 19.0962 73.3658C19.0507 73.2577 19.0271 73.1413 19.0271 73.0237C19.0271 72.9063 19.0507 72.7898 19.0962 72.6816C19.1416 72.5731 19.2083 72.4749 19.2923 72.3927Z" fill="#D70A8F"/>
<path d="M33.3134 58.3655L47.3341 44.3448C47.4208 44.2576 47.5245 44.1891 47.6387 44.1434C47.7529 44.0977 47.8753 44.0759 47.9982 44.0791C48.115 44.0791 48.2308 44.1022 48.3387 44.1468C48.4469 44.1917 48.5448 44.2571 48.6275 44.3398C48.7102 44.4225 48.7759 44.5207 48.8205 44.6287C48.8652 44.7366 48.8883 44.8524 48.8883 44.9692V58.9965C48.8891 59.1138 48.8667 59.2304 48.8224 59.3391C48.778 59.4478 48.7126 59.5468 48.6299 59.63C48.5472 59.7135 48.4487 59.7797 48.3406 59.8246C48.2321 59.8698 48.1158 59.8931 47.9982 59.8931H33.9512C33.7719 59.8986 33.5949 59.8503 33.4434 59.7542C33.2919 59.6581 33.1727 59.519 33.1013 59.3543C33.0299 59.1897 33.0094 59.0077 33.0422 58.8313C33.0753 58.6551 33.1606 58.4928 33.2869 58.3655" fill="#BB0F8F"/>
<path d="M48.6083 45.6071L34.5879 59.6278C34.4999 59.7136 34.3962 59.7814 34.2822 59.827C34.1683 59.8725 34.0464 59.8951 33.9236 59.8935C33.8057 59.8943 33.6886 59.8717 33.5793 59.827C33.4701 59.7821 33.3711 59.7162 33.2876 59.6327C33.2041 59.5492 33.1382 59.45 33.0933 59.341C33.0487 59.2318 33.0261 59.1147 33.0269 58.9968V44.9696C33.0269 44.8519 33.0502 44.7359 33.0951 44.6274C33.1403 44.519 33.2065 44.4205 33.29 44.3378C33.3732 44.2551 33.4722 44.1897 33.5809 44.1453C33.6896 44.101 33.8062 44.0787 33.9236 44.0794H47.9508C48.0734 44.075 48.1955 44.0957 48.3097 44.1401C48.4239 44.1847 48.5279 44.2522 48.6148 44.3386C48.7816 44.5074 48.875 44.7353 48.875 44.9727C48.875 45.2103 48.7816 45.438 48.6148 45.6071" fill="#A4158E"/>
<path fill-rule="evenodd" clip-rule="evenodd" d="M70.5122 50.4113C68.0065 50.4113 65.8374 51.5329 64.4909 53.3284H64.3415V50.9348H60.1155V69.5218H64.4161V60.0599C64.4161 56.8437 66.5852 54.637 69.4275 54.637C72.0829 54.637 73.8408 56.5819 73.8408 59.499V69.5218H78.1414V58.8258C78.1414 53.5902 75.1497 50.4113 70.5122 50.4113ZM90.8569 50.4113C85.1349 50.4113 81.2079 54.7494 81.2079 60.2471C81.2079 65.5203 84.761 70.0454 90.8569 70.0454C95.2326 70.0454 98.8602 67.7267 100.057 63.6876H95.6065C94.8584 65.1837 93.0259 66.1187 90.9317 66.0811C88.0145 66.0063 85.9951 64.0993 85.6585 61.7054H100.356C100.917 55.3105 97.0275 50.4113 90.8569 50.4113ZM90.782 54.3755C93.3998 54.3755 95.3447 55.8714 95.9058 58.1899H85.7333C86.2566 55.9087 88.2015 54.3755 90.782 54.3755ZM112.81 70.0454C118.756 70.0454 122.72 65.7072 122.72 60.2096C122.72 54.7121 118.793 50.4113 112.81 50.4113C106.714 50.4113 102.75 54.7121 102.75 60.2096C102.75 65.7072 106.751 70.0454 112.81 70.0454ZM112.81 65.9315C109.369 65.9315 107.088 63.3885 107.088 60.2471C107.088 57.0679 109.332 54.5625 112.81 54.5625C116.176 54.5625 118.42 57.0679 118.42 60.2471C118.42 63.3509 116.176 65.9315 112.81 65.9315ZM136.371 50.4113C133.865 50.4113 131.696 51.5329 130.35 53.3284H130.2V50.9348H125.974V69.5218H130.275V60.0599C130.275 56.8437 132.444 54.637 135.286 54.637C137.942 54.637 139.699 56.5819 139.699 59.499V69.5218H144V58.8258C144 53.5902 141.008 50.4113 136.371 50.4113Z" fill="#040606"/>
<rect x="0.494398" y="0.494398" width="162.011" height="117.011" rx="3.5056" stroke="#EEECEA" stroke-width="0.988796"/>
</svg>
