<svg width="163" height="118" viewBox="0 0 163 118" fill="none" xmlns="http://www.w3.org/2000/svg">
<rect x="0.494398" y="0.494398" width="162.011" height="117.011" rx="3.5056" fill="white"/>
<path d="M74.2946 43.7541C73.7908 43.6014 73.2681 43.5204 72.7418 43.5135C72.1188 43.4783 71.5019 43.6525 70.9892 44.0083C70.7789 44.1657 70.6103 44.372 70.4979 44.6094C70.3855 44.8468 70.3329 45.1081 70.3445 45.3704C70.3458 45.643 70.416 45.9108 70.5486 46.1489C70.6811 46.3871 70.8718 46.5878 71.1027 46.7325C71.7757 47.172 72.4999 47.5273 73.2594 47.7904C73.8736 48.0021 74.4652 48.2744 75.0256 48.6031C75.5194 48.911 75.932 49.3329 76.2287 49.8335C76.5594 50.4357 76.7166 51.1179 76.6828 51.804C76.6918 52.4964 76.5028 53.1769 76.1379 53.7654C75.7694 54.3543 75.2443 54.829 74.6215 55.1366C73.8896 55.4871 73.0854 55.6597 72.2741 55.6406C71.4538 55.6438 70.6387 55.5087 69.8632 55.241C69.1346 54.9986 68.4437 54.6547 67.811 54.2195L68.6147 52.7802C69.1237 53.1612 69.6849 53.467 70.281 53.6883C70.8597 53.917 71.4749 54.04 72.0971 54.0515C72.7781 54.0591 73.4446 53.8544 74.004 53.4658C74.2703 53.2804 74.4848 53.03 74.6271 52.7383C74.7693 52.4467 74.8346 52.1235 74.8167 51.7995C74.827 51.516 74.7708 51.2341 74.6525 50.9763C74.5343 50.7184 74.3572 50.4919 74.1357 50.3148C73.5516 49.8771 72.9059 49.5283 72.2197 49.2796C71.568 49.0431 70.9338 48.7609 70.3218 48.4351C69.8112 48.1582 69.3679 47.7722 69.0233 47.3046C68.6431 46.7775 68.4512 46.1378 68.4785 45.4885C68.4619 45.0045 68.5532 44.5229 68.7456 44.0784C68.9379 43.634 69.2266 43.2379 69.5908 42.9187C70.3994 42.2408 71.4234 41.8738 72.4785 41.8835C73.9038 41.8742 75.3055 42.2473 76.5375 42.9641L75.8428 44.3852C75.3488 44.1242 74.8302 43.9128 74.2946 43.7541V43.7541Z" fill="#010000"/>
<path d="M81.3183 48.0902L81.5453 47.7361L87.0754 41.979H89.4137L83.8246 47.7724L89.7269 55.4909H87.425L82.4988 48.9257L81.3546 50.0289V55.4773H79.5249V41.979H81.3773V47.4274L81.3183 48.0902Z" fill="#010000"/>
<path d="M93.8405 41.979V55.4909H92.0244V41.979H93.8405Z" fill="#010000"/>
<path d="M99.3343 41.979V53.7338H106.213V55.4909H97.5227V41.979H99.3343Z" fill="#010000"/>
<path d="M110.753 41.979V53.7338H117.632V55.4909H108.942V41.979H110.753Z" fill="#010000"/>
<path d="M79.6748 75.8673L76.4966 67.7947L73.0414 75.9036L67.6566 61.8287H69.7724L73.282 71.6267L75.6203 65.4973L74.1674 61.8105H75.9835L79.7383 71.436L83.0664 61.8105H85.0096L79.6748 75.8673Z" fill="#010000"/>
<path d="M92.8689 71.7176H87.6748L86.2356 75.259H84.4194L90.3218 61.1841H90.4308L96.3332 75.259H94.2401L92.8689 71.7176ZM92.2514 70.1466L90.3264 65.2113L88.3286 70.1466H92.2514Z" fill="#010000"/>
<path d="M100.501 61.7559V73.5107H107.375V75.2587H98.6849V61.7559H100.501Z" fill="#010000"/>
<path d="M111.915 61.7559V73.5107H118.794V75.2587H110.099V61.7559H111.915Z" fill="#010000"/>
<path d="M130.304 61.7559V63.4948H123.334V67.5811H129.559V69.3563H123.334V73.5243H130.567V75.2587H121.523V61.7559H130.304Z" fill="#010000"/>
<path d="M141.5 61.7559V63.4948H137.868V75.2587H136.052V63.4948H132.519V61.7559H141.5Z" fill="#010000"/>
<path d="M29.2775 58.9681L21.5 53.1021V57.7195C21.5 57.7195 27.1663 60.6389 27.0392 60.5481C26.912 60.4573 29.2775 58.9681 29.2775 58.9681Z" fill="url(#paint0_linear_109_390)"/>
<path d="M29.2775 58.9594L21.5 64.8164V60.208C21.5 60.208 27.1663 57.2931 27.0392 57.3839C26.912 57.4747 29.2775 58.9594 29.2775 58.9594Z" fill="url(#paint1_linear_109_390)"/>
<path d="M37.1459 69.556L33.1731 76.5118L37.8405 76.5708L39.3615 69.1792L37.1459 69.556Z" fill="url(#paint2_linear_109_390)"/>
<path d="M44.8417 76.5573L39.1391 66.605L38.449 69.9693L41.3411 76.5573H44.8417Z" fill="url(#paint3_linear_109_390)"/>
<path d="M33.1731 41.4883L40.1606 56.3396L56.5148 64.9434L56.542 60.2488L42.9938 54.0331L37.8405 41.6018L33.1731 41.4883Z" fill="url(#paint4_linear_109_390)"/>
<path d="M21.5 76.5571H33.1731V64.884H21.5V76.5571Z" fill="black"/>
<path d="M23.8382 74.2236H30.8394V67.2225H23.8382V74.2236Z" fill="white"/>
<path d="M27.3343 71.8904C27.9788 71.8904 28.5012 71.3679 28.5012 70.7235C28.5012 70.0791 27.9788 69.5566 27.3343 69.5566C26.6899 69.5566 26.1675 70.0791 26.1675 70.7235C26.1675 71.3679 26.6899 71.8904 27.3343 71.8904Z" fill="black"/>
<path d="M44.8462 76.5571H56.5193V64.884H44.8462V76.5571Z" fill="black"/>
<path d="M47.18 74.2236H54.1812V67.2225H47.18V74.2236Z" fill="white"/>
<path d="M50.6805 71.8904C51.325 71.8904 51.8474 71.3679 51.8474 70.7235C51.8474 70.0791 51.325 69.5566 50.6805 69.5566C50.0361 69.5566 49.5137 70.0791 49.5137 70.7235C49.5137 71.3679 50.0361 71.8904 50.6805 71.8904Z" fill="black"/>
<path d="M21.5 53.1021H33.1731V41.429H21.5V53.1021Z" fill="black"/>
<path d="M23.8382 50.7686H30.8394V43.7674H23.8382V50.7686Z" fill="white"/>
<path d="M27.3343 48.4304C27.9788 48.4304 28.5012 47.908 28.5012 47.2635C28.5012 46.6191 27.9788 46.0967 27.3343 46.0967C26.6899 46.0967 26.1675 46.6191 26.1675 47.2635C26.1675 47.908 26.6899 48.4304 27.3343 48.4304Z" fill="black"/>
<path d="M40.1743 57.8291H26.1675V60.1628H40.1743V57.8291Z" fill="black"/>
<path d="M35.5068 55.4907H33.1731V57.8244H35.5068V55.4907Z" fill="black"/>
<path d="M30.8348 55.4907H28.5011V57.8244H30.8348V55.4907Z" fill="black"/>
<path d="M37.8405 53.1567H35.5068V57.8242H37.8405V53.1567Z" fill="black"/>
<path d="M56.5148 46.21H40.1743V48.5437H56.5148V46.21Z" fill="black"/>
<path d="M56.5148 48.5435H49.5137V50.8772H56.5148V48.5435Z" fill="black"/>
<path d="M56.5149 41.543H54.1812V43.8767H56.5149V41.543Z" fill="black"/>
<path d="M56.5149 50.8823H54.1812V53.216H56.5149V50.8823Z" fill="black"/>
<path d="M51.8474 41.543H49.5137V43.8767H51.8474V41.543Z" fill="black"/>
<path d="M54.2855 43.9858H51.9518V46.3196H54.2855V43.9858Z" fill="black"/>
<path d="M49.5091 53.2158H42.5079V55.5495H49.5091V53.2158Z" fill="black"/>
<path d="M54.181 53.2158H51.8473V55.5495H54.181V53.2158Z" fill="black"/>
<path d="M51.8474 55.4907H49.5137V57.8244H51.8474V55.4907Z" fill="black"/>
<path d="M56.5421 60.1899H54.2084V62.5237H56.5421V60.1899Z" fill="black"/>
<path d="M56.5149 55.4907H54.1812V57.8244H56.5149V55.4907Z" fill="black"/>
<path d="M51.8474 50.8823H49.5137V53.216H51.8474V50.8823Z" fill="black"/>
<path d="M47.1754 50.8823H44.8417V53.216H47.1754V50.8823Z" fill="black"/>
<path d="M44.8416 48.5435H42.5079V50.8772H44.8416V48.5435Z" fill="black"/>
<path d="M47.1754 41.543H44.8417V43.8767H47.1754V41.543Z" fill="black"/>
<path d="M40.1742 41.543H37.8405V43.8767H40.1742V41.543Z" fill="black"/>
<path d="M47.1754 43.8765H44.8417V46.2102H47.1754V43.8765Z" fill="black"/>
<path d="M44.8416 43.8765H42.5079V46.2102H44.8416V43.8765Z" fill="black"/>
<path d="M49.5136 43.8765H47.1799V46.2102H49.5136V43.8765Z" fill="black"/>
<path d="M37.8405 64.8296H35.5068V69.556H37.8405V64.8296Z" fill="black"/>
<path d="M42.508 64.8296H40.1743V69.556H42.508V64.8296Z" fill="black"/>
<path d="M40.1742 64.8296H37.8405V71.8897H40.1742V64.8296Z" fill="black"/>
<path d="M40.1742 62.4824H37.8405V64.8434H40.1742V62.4824Z" fill="black"/>
<path d="M42.508 71.8765H40.1743V74.2374H42.508V71.8765Z" fill="black"/>
<path d="M37.8405 60.1621H30.8394V62.4958H37.8405V60.1621Z" fill="black"/>
<path d="M28.5012 60.1621H26.1675V62.4958H28.5012V60.1621Z" fill="black"/>
<path d="M35.5068 62.4961H33.1731V64.8298H35.5068V62.4961Z" fill="black"/>
<path d="M26.1673 60.1621H23.8336V62.4958H26.1673V60.1621Z" fill="black"/>
<path d="M29.1276 55.4907H23.8336V57.8244H29.1276V55.4907Z" fill="black"/>
<path d="M33.1731 41.4292L37.5908 50.8821L41.6453 50.7686L37.8405 41.5427L33.1731 41.4292Z" fill="url(#paint5_linear_109_390)"/>
<path d="M47.3933 60.1621H56.5148V64.884L47.3933 60.1621Z" fill="url(#paint6_linear_109_390)"/>
<rect x="0.494398" y="0.494398" width="162.011" height="117.011" rx="3.5056" stroke="#EEECEA" stroke-width="0.988796"/>
<defs>
<linearGradient id="paint0_linear_109_390" x1="23.6884" y1="58.9817" x2="25.6862" y2="55.5175" gradientUnits="userSpaceOnUse">
<stop stop-color="white" stop-opacity="0"/>
<stop offset="0.46" stop-color="#DDDDDD" stop-opacity="0.1"/>
<stop offset="0.82" stop-color="#737372" stop-opacity="0.43"/>
<stop offset="1" stop-color="#1D1E1C" stop-opacity="0.7"/>
</linearGradient>
<linearGradient id="paint1_linear_109_390" x1="23.6884" y1="58.9503" x2="25.6862" y2="62.4146" gradientUnits="userSpaceOnUse">
<stop stop-color="white" stop-opacity="0"/>
<stop offset="0.49" stop-color="#D7D8D7" stop-opacity="0.1"/>
<stop offset="0.88" stop-color="#5B5C5B" stop-opacity="0.43"/>
<stop offset="1" stop-color="#1D1E1C" stop-opacity="0.6"/>
</linearGradient>
<linearGradient id="paint2_linear_109_390" x1="39.0619" y1="74.4596" x2="35.5023" y2="72.4028" gradientUnits="userSpaceOnUse">
<stop stop-color="white" stop-opacity="0"/>
<stop offset="0.65" stop-color="#B8B8B7" stop-opacity="0.09"/>
<stop offset="1" stop-color="#1D1E1C" stop-opacity="0.3"/>
</linearGradient>
<linearGradient id="paint3_linear_109_390" x1="39.348" y1="73.1067" x2="42.0086" y2="71.5721" gradientUnits="userSpaceOnUse">
<stop stop-color="white" stop-opacity="0"/>
<stop offset="0.69" stop-color="#7E7F7E" stop-opacity="0.23"/>
<stop offset="1" stop-color="#1D1E1C" stop-opacity="0.4"/>
</linearGradient>
<linearGradient id="paint4_linear_109_390" x1="47.1799" y1="50.8822" x2="40.9415" y2="57.1205" gradientUnits="userSpaceOnUse">
<stop stop-color="white" stop-opacity="0"/>
<stop offset="0.62" stop-color="#D3D3D3" stop-opacity="0.08"/>
<stop offset="0.95" stop-color="#3F403E" stop-opacity="0.34"/>
<stop offset="1" stop-color="#1D1E1C" stop-opacity="0.4"/>
</linearGradient>
<linearGradient id="paint5_linear_109_390" x1="42.6351" y1="49.0524" x2="32.2378" y2="43.0501" gradientUnits="userSpaceOnUse">
<stop stop-color="white" stop-opacity="0"/>
<stop offset="0.62" stop-color="#D3D3D3" stop-opacity="0.08"/>
<stop offset="0.95" stop-color="#3F403E" stop-opacity="0.34"/>
<stop offset="1" stop-color="#1D1E1C" stop-opacity="0.4"/>
</linearGradient>
<linearGradient id="paint6_linear_109_390" x1="49.6725" y1="57.8783" x2="56.5965" y2="64.8023" gradientUnits="userSpaceOnUse">
<stop stop-color="white" stop-opacity="0"/>
<stop offset="0.62" stop-color="#D3D3D3" stop-opacity="0.08"/>
<stop offset="0.95" stop-color="#3F403E" stop-opacity="0.34"/>
<stop offset="1" stop-color="#1D1E1C" stop-opacity="0.4"/>
</linearGradient>
</defs>
</svg>
