<svg width="163" height="118" viewBox="0 0 163 118" fill="none" xmlns="http://www.w3.org/2000/svg">
<path d="M159 0.494141H3.99998C2.0639 0.494141 0.494385 2.06365 0.494385 3.99974V114C0.494385 115.936 2.0639 117.505 3.99998 117.505H159C160.936 117.505 162.505 115.936 162.505 114V3.99974C162.505 2.06365 160.936 0.494141 159 0.494141Z" fill="white"/>
<path d="M159 0.494141H3.99998C2.0639 0.494141 0.494385 2.06365 0.494385 3.99974V114C0.494385 115.936 2.0639 117.505 3.99998 117.505H159C160.936 117.505 162.505 115.936 162.505 114V3.99974C162.505 2.06365 160.936 0.494141 159 0.494141Z" stroke="#EEECEA" stroke-width="0.988796"/>
<path fill-rule="evenodd" clip-rule="evenodd" d="M118.52 50.1805C118.52 48.4233 119.912 47 121.63 47C123.348 47 124.741 48.4233 124.741 50.1805C124.741 51.9378 123.348 53.3611 121.63 53.3611C119.912 53.3611 118.52 51.9349 118.52 50.1805ZM24.7662 47.3882H19V70.5354H30.6566L29.1996 64.8634H24.7662V47.3882ZM48.8238 61.0594C48.8238 66.9693 44.6152 70.8071 39.1471 70.8071C33.679 70.8071 29.603 67.0032 29.603 61.0594C29.603 55.1495 33.7455 51.3116 39.2135 51.3116C44.6816 51.3116 48.8238 55.1495 48.8238 61.0594ZM43.2895 61.0933C43.2895 58.7838 41.5002 56.8137 39.2135 56.8137C36.8937 56.8137 35.1372 58.7158 35.1372 61.0594C35.1372 63.3689 36.8605 65.3729 39.1471 65.3729C41.4338 65.3729 43.2895 63.4369 43.2895 61.0933ZM68.002 63.5049H62.2357C61.5396 64.5577 60.4793 65.0657 59.1207 65.0657C56.9334 65.0657 55.2097 63.3673 55.2097 61.0918C55.2097 58.9182 56.7341 57.0499 59.1531 57.0499C60.5781 57.084 61.6385 57.6955 62.3345 58.8843H67.7694C66.8745 54.2649 63.5275 51.3099 58.8887 51.3099C53.3877 51.3099 49.5766 55.1142 49.5766 61.0577C49.5766 67.0011 53.4538 70.8054 58.9866 70.8054C63.6607 70.8071 67.041 68.294 68.002 63.5049ZM88.2737 51.5832V70.5356H82.6057V67.8522C81.5121 69.6192 79.4906 70.8071 76.8714 70.8071C72.3315 70.8071 68.7524 66.9352 68.7524 61.0256C68.7524 55.116 72.3338 51.3114 76.9067 51.3114C79.5239 51.3114 81.5464 52.5003 82.6069 54.2663V51.5832H88.2737ZM82.5075 60.959C82.5075 58.6493 80.5855 56.7133 78.3318 56.7133C76.0122 56.7133 74.057 58.5135 74.057 60.9246C74.057 63.2685 75.8134 65.2044 78.3318 65.2044C80.7178 65.2032 82.5075 63.4033 82.5075 60.959ZM98.7304 58.9889C96.3446 58.4455 95.2177 58.1398 95.2177 57.155C95.2177 56.3399 96.1122 55.7963 97.4379 55.7963C98.9966 55.7963 99.79 56.5436 99.9566 57.7664H105.222C104.825 53.8602 102.177 51.1771 97.5706 51.1771C92.6991 51.1771 89.8822 53.7925 89.8822 57.2569C89.8822 61.2986 93.1631 62.2837 96.4107 63.0988L96.517 63.1282C98.8282 63.7531 99.8571 64.0315 99.8571 65.0015C99.8571 65.9185 98.7636 66.4283 97.4048 66.4283C95.8138 66.4283 94.919 65.579 94.7875 64.3225H89.1201C89.3847 67.9906 92.6658 70.8095 97.5706 70.8095C102.31 70.8095 105.457 68.3652 105.457 65.0015C105.358 60.7876 102.21 59.8366 98.7304 58.9873V58.9889ZM125.575 61.0609C125.575 67.0047 129.452 70.8087 134.986 70.8087C139.659 70.8087 143.039 68.2954 144 63.5052H138.234C137.537 64.558 136.477 65.066 135.119 65.066C132.932 65.066 131.207 63.3677 131.207 61.0921C131.207 58.9185 132.732 57.0502 135.152 57.0502C136.576 57.0844 137.636 57.6958 138.332 58.8846H143.768C142.873 54.2651 139.526 51.3102 134.887 51.3102C129.386 51.3114 125.575 55.1156 125.575 61.0594V61.0609ZM113.73 56.4079H117.428V51.5832H113.73V47.0966L108.064 48.5749V51.5832H105.645V56.4061H108.064V63.9452C108.064 68.5981 110.549 70.5344 114.56 70.5344H117.364V65.5169H115.548C114.321 65.5169 113.73 64.948 113.73 63.8268V56.4079ZM118.848 54.1026V70.452H124.577V54.1009L118.848 54.1026Z" fill="#0099FF"/>
</svg>
