<svg width="163" height="118" viewBox="0 0 163 118" fill="none" xmlns="http://www.w3.org/2000/svg">
<path d="M159 0.494141H3.99998C2.0639 0.494141 0.494385 2.06365 0.494385 3.99974V114C0.494385 115.936 2.0639 117.505 3.99998 117.505H159C160.936 117.505 162.505 115.936 162.505 114V3.99974C162.505 2.06365 160.936 0.494141 159 0.494141Z" fill="white"/>
<g clip-path="url(#clip0_160_554)">
<path d="M69.6414 56.5014C69.6414 57.1554 69.5737 57.7823 69.4382 58.3823C69.3028 58.9756 69.1064 59.5317 68.8491 60.0509C68.5985 60.57 68.2904 61.0486 67.9248 61.4868C67.559 61.9183 67.1426 62.2992 66.6753 62.6295L70.4033 66.6745H68.1482C67.8232 66.6745 67.5286 66.6307 67.2645 66.543C67.0072 66.4554 66.7701 66.2936 66.5534 66.0577L64.3999 63.6913C64.0546 63.7857 63.6991 63.8565 63.3334 63.9037C62.9745 63.9509 62.5986 63.9745 62.2059 63.9745C61.0953 63.9745 60.0795 63.7891 59.1585 63.4183C58.2443 63.0408 57.4587 62.5183 56.8019 61.8509C56.1518 61.1834 55.6473 60.3947 55.2884 59.4846C54.9294 58.5677 54.75 57.5733 54.75 56.5014C54.75 55.4295 54.9294 54.4385 55.2884 53.5284C55.6473 52.6115 56.1518 51.8194 56.8019 51.1519C57.4587 50.4845 58.2443 49.9654 59.1585 49.5946C60.0795 49.2171 61.0953 49.0283 62.2059 49.0283C63.3165 49.0283 64.3289 49.2171 65.2431 49.5946C66.1573 49.9722 66.9394 50.4946 67.5895 51.162C68.2396 51.8227 68.7441 52.6115 69.1031 53.5284C69.462 54.4385 69.6414 55.4295 69.6414 56.5014ZM66.8379 56.5014C66.8379 55.6992 66.7295 54.9812 66.5128 54.3474C66.3029 53.707 65.9981 53.1643 65.5986 52.7193C65.1991 52.2744 64.7115 51.9339 64.1359 51.698C63.567 51.4621 62.9237 51.3441 62.2059 51.3441C61.488 51.3441 60.8413 51.4621 60.2657 51.698C59.6901 51.9339 59.1992 52.2744 58.7928 52.7193C58.3933 53.1643 58.0852 53.707 57.8685 54.3474C57.6518 54.9812 57.5434 55.6992 57.5434 56.5014C57.5434 57.3036 57.6518 58.025 57.8685 58.6655C58.0852 59.2992 58.3933 59.8385 58.7928 60.2834C59.1992 60.7217 59.6901 61.0587 60.2657 61.2947C60.8413 61.5306 61.488 61.6486 62.2059 61.6486C62.9237 61.6486 63.567 61.5306 64.1359 61.2947C64.7115 61.0587 65.1991 60.7217 65.5986 60.2834C65.9981 59.8385 66.3029 59.2992 66.5128 58.6655C66.7295 58.025 66.8379 57.3036 66.8379 56.5014Z" fill="#10151B"/>
<path d="M73.1419 53.4375V60.0308C73.1419 60.6645 73.2875 61.1566 73.5787 61.5072C73.8767 61.851 74.3202 62.0229 74.9094 62.0229C75.3428 62.0229 75.7491 61.9286 76.1283 61.7397C76.5075 61.5442 76.8664 61.278 77.205 60.9409V53.4375H79.7141V63.8128H78.1802C77.8551 63.8128 77.6418 63.6611 77.5402 63.3577L77.3676 62.5285C77.1509 62.7443 76.9274 62.9431 76.6972 63.1252C76.4669 63.3005 76.2197 63.4521 75.9556 63.5803C75.6983 63.7016 75.4173 63.796 75.1125 63.8634C74.8146 63.9376 74.4929 63.9746 74.1475 63.9746C73.5787 63.9746 73.0742 63.8802 72.634 63.6915C72.2006 63.496 71.8349 63.2229 71.5369 62.8724C71.239 62.5218 71.0121 62.1072 70.8563 61.6285C70.7074 61.1431 70.6329 60.6105 70.6329 60.0308V53.4375H73.1419Z" fill="#10151B"/>
<path d="M84.2518 53.4378V63.8132H81.7431V53.4378H84.2518ZM84.6278 50.4142C84.6278 50.6299 84.5834 50.8322 84.4952 51.0209C84.4077 51.2097 84.2888 51.3749 84.1397 51.5165C83.9976 51.658 83.8287 51.7726 83.6318 51.8602C83.4356 51.9412 83.2258 51.9817 83.0022 51.9817C82.7855 51.9817 82.5791 51.9412 82.3829 51.8602C82.1929 51.7726 82.0274 51.658 81.8852 51.5165C81.7431 51.3749 81.6275 51.2097 81.5393 51.0209C81.458 50.8322 81.4177 50.6299 81.4177 50.4142C81.4177 50.1917 81.458 49.9828 81.5393 49.7872C81.6275 49.5917 81.7431 49.4232 81.8852 49.2816C82.0274 49.14 82.1929 49.0288 82.3829 48.9479C82.5791 48.8602 82.7855 48.8164 83.0022 48.8164C83.2258 48.8164 83.4356 48.8602 83.6318 48.9479C83.8287 49.0288 83.9976 49.14 84.1397 49.2816C84.2888 49.4232 84.4077 49.5917 84.4952 49.7872C84.5834 49.9828 84.6278 50.1917 84.6278 50.4142Z" fill="#10151B"/>
<path d="M93.6069 55.6325C93.5323 55.7269 93.4578 55.8011 93.3833 55.855C93.3156 55.909 93.2138 55.9359 93.0784 55.9359C92.9499 55.9359 92.8248 55.8988 92.7025 55.8247C92.5808 55.7438 92.4352 55.6562 92.2663 55.5618C92.0968 55.4607 91.8938 55.373 91.6566 55.2988C91.4262 55.2179 91.1384 55.1775 90.7932 55.1775C90.353 55.1775 89.9667 55.2584 89.6352 55.4202C89.3029 55.5752 89.0254 55.8011 88.8019 56.0977C88.5852 56.3943 88.4232 56.755 88.3145 57.1798C88.2065 57.5977 88.1518 58.073 88.1518 58.6056C88.1518 59.1584 88.2099 59.6505 88.3247 60.082C88.4464 60.5134 88.6194 60.8775 88.8429 61.1741C89.0664 61.464 89.3371 61.6865 89.6557 61.8416C89.9736 61.9899 90.3324 62.064 90.7323 62.064C91.1316 62.064 91.4535 62.0169 91.6969 61.9225C91.9478 61.8214 92.1576 61.7135 92.3272 61.5988C92.496 61.4775 92.6416 61.3696 92.764 61.2753C92.8925 61.1741 93.0347 61.1236 93.1905 61.1236C93.3936 61.1236 93.546 61.2011 93.6472 61.3562L94.3684 62.2663C94.0908 62.5899 93.7894 62.863 93.4647 63.0854C93.1393 63.3011 92.8009 63.4764 92.4488 63.6112C92.1036 63.7393 91.7447 63.8304 91.3722 63.8843C90.9996 63.9382 90.6305 63.9652 90.2648 63.9652C89.6215 63.9652 89.0152 63.8472 88.4464 63.6112C87.8777 63.3685 87.38 63.018 86.9534 62.5596C86.5337 62.1012 86.1981 61.5416 85.9479 60.8809C85.7038 60.2135 85.5822 59.455 85.5822 58.6056C85.5822 57.8438 85.6902 57.1393 85.9069 56.4921C86.1304 55.8381 86.4558 55.2753 86.8823 54.8033C87.3089 54.3247 87.8373 53.9505 88.4669 53.6808C89.0965 53.4112 89.8211 53.2764 90.6407 53.2764C91.4194 53.2764 92.1002 53.4011 92.6826 53.6505C93.2719 53.8999 93.7996 54.2573 94.2672 54.7224L93.6069 55.6325Z" fill="#10151B"/>
<path d="M97.6913 48.7861V57.3918H98.1589C98.3284 57.3918 98.4603 57.3682 98.5547 57.321C98.6497 57.2738 98.7515 57.1861 98.8595 57.0581L101.45 53.8727C101.565 53.7378 101.687 53.6333 101.815 53.5592C101.945 53.4783 102.113 53.4379 102.323 53.4379H104.62L101.379 57.2907C101.264 57.4322 101.145 57.5637 101.023 57.685C100.901 57.7997 100.77 57.9008 100.627 57.9884C100.77 58.0895 100.895 58.2075 101.003 58.3424C101.111 58.4772 101.22 58.6221 101.328 58.7772L104.802 63.8132H102.537C102.34 63.8132 102.174 63.7795 102.039 63.7121C101.904 63.6447 101.782 63.53 101.673 63.3682L99.0222 59.4345C98.9204 59.2794 98.8192 59.1783 98.7174 59.1311C98.6162 59.0839 98.4637 59.0603 98.26 59.0603H97.6913V63.8132H95.1825V48.7861H97.6913Z" fill="#10151B"/>
<path d="M107.124 49.1904C107.245 49.1904 107.347 49.1971 107.428 49.2107C107.509 49.2174 107.58 49.2376 107.641 49.2713C107.709 49.2983 107.774 49.3421 107.834 49.4028C107.895 49.4567 107.963 49.5309 108.038 49.6253L115.747 59.4039C115.72 59.168 115.7 58.9388 115.686 58.7163C115.679 58.4871 115.676 58.2748 115.676 58.0793V49.1904H118.084V63.813H116.672C116.455 63.813 116.276 63.7793 116.133 63.7119C115.991 63.6445 115.852 63.5231 115.717 63.3478L108.038 53.6095C108.058 53.8253 108.071 54.041 108.078 54.2567C108.092 54.4657 108.098 54.6579 108.098 54.8332V63.813H105.691V49.1904H107.124Z" fill="#10151B"/>
<path d="M124.541 53.2764C125.32 53.2764 126.024 53.4011 126.654 53.6505C127.29 53.8999 127.832 54.2539 128.279 54.7123C128.726 55.1707 129.072 55.7303 129.315 56.391C129.559 57.0517 129.681 57.7899 129.681 58.6056C129.681 59.4281 129.559 60.1697 129.315 60.8304C129.072 61.491 128.726 62.0539 128.279 62.5191C127.832 62.9843 127.29 63.3416 126.654 63.591C126.024 63.8405 125.32 63.9652 124.541 63.9652C123.762 63.9652 123.055 63.8405 122.418 63.591C121.782 63.3416 121.236 62.9843 120.782 62.5191C120.336 62.0539 119.987 61.491 119.737 60.8304C119.492 60.1697 119.371 59.4281 119.371 58.6056C119.371 57.7899 119.492 57.0517 119.737 56.391C119.987 55.7303 120.336 55.1707 120.782 54.7123C121.236 54.2539 121.782 53.8999 122.418 53.6505C123.055 53.4011 123.762 53.2764 124.541 53.2764ZM124.541 62.0438C125.408 62.0438 126.048 61.754 126.461 61.1741C126.881 60.5944 127.091 59.7449 127.091 58.6258C127.091 57.5067 126.881 56.6539 126.461 56.0673C126.048 55.4808 125.408 55.1876 124.541 55.1876C123.661 55.1876 123.011 55.4842 122.591 56.0775C122.171 56.664 121.961 57.5134 121.961 58.6258C121.961 59.7382 122.171 60.5876 122.591 61.1741C123.011 61.754 123.661 62.0438 124.541 62.0438Z" fill="#10151B"/>
<path d="M138.16 63.8132C137.835 63.8132 137.621 63.6615 137.52 63.3581L137.317 62.357C137.101 62.5997 136.874 62.8188 136.636 63.0143C136.399 63.2098 136.142 63.3783 135.865 63.5199C135.593 63.6615 135.299 63.7693 134.981 63.8435C134.669 63.9244 134.331 63.9649 133.965 63.9649C133.396 63.9649 132.875 63.8469 132.401 63.6109C131.926 63.375 131.517 63.0345 131.172 62.5896C130.833 62.1379 130.569 61.5817 130.379 60.921C130.196 60.2603 130.105 59.5053 130.105 58.6559C130.105 57.8873 130.21 57.1727 130.42 56.512C130.63 55.8513 130.931 55.2783 131.323 54.7929C131.717 54.3075 132.187 53.93 132.736 53.6603C133.284 53.3839 133.901 53.2457 134.584 53.2457C135.167 53.2457 135.664 53.3401 136.078 53.5288C136.491 53.7109 136.86 53.9569 137.185 54.2671V48.7861H139.694V63.8132H138.16ZM134.818 61.9828C135.34 61.9828 135.783 61.875 136.149 61.6592C136.515 61.4435 136.86 61.1368 137.185 60.739V56.0873C136.9 55.7435 136.589 55.5007 136.25 55.3592C135.919 55.2176 135.56 55.1468 135.173 55.1468C134.794 55.1468 134.449 55.2176 134.137 55.3592C133.833 55.5007 133.572 55.7165 133.355 56.0064C133.145 56.2895 132.983 56.6535 132.868 57.0985C132.753 57.5367 132.695 58.0558 132.695 58.6559C132.695 59.2626 132.743 59.7783 132.837 60.203C132.939 60.621 133.081 60.9648 133.264 61.2345C133.447 61.4974 133.67 61.6896 133.934 61.8109C134.199 61.9255 134.493 61.9828 134.818 61.9828Z" fill="#10151B"/>
<path d="M145.907 53.2764C146.564 53.2764 147.166 53.3808 147.715 53.5898C148.27 53.7988 148.748 54.1056 149.147 54.51C149.547 54.9078 149.858 55.4 150.081 55.9865C150.305 56.5662 150.417 57.2303 150.417 57.9786C150.417 58.1674 150.407 58.3258 150.386 58.4539C150.372 58.5752 150.342 58.673 150.295 58.7472C150.254 58.8146 150.197 58.8652 150.122 58.8989C150.048 58.9258 149.953 58.9393 149.838 58.9393H143.398C143.472 60.0045 143.76 60.7865 144.261 61.2854C144.762 61.7842 145.426 62.0337 146.252 62.0337C146.659 62.0337 147.007 61.9865 147.298 61.8921C147.596 61.7978 147.853 61.6933 148.07 61.5786C148.294 61.464 148.486 61.3595 148.649 61.2652C148.819 61.1708 148.981 61.1236 149.137 61.1236C149.238 61.1236 149.327 61.1438 149.401 61.1842C149.476 61.2247 149.54 61.282 149.594 61.3562L150.325 62.2663C150.048 62.5899 149.736 62.863 149.391 63.0854C149.046 63.3011 148.683 63.4764 148.304 63.6112C147.931 63.7393 147.549 63.8304 147.156 63.8843C146.77 63.9382 146.394 63.9652 146.028 63.9652C145.304 63.9652 144.63 63.8472 144.007 63.6112C143.384 63.3685 142.842 63.0146 142.382 62.5495C141.921 62.0775 141.559 61.4977 141.295 60.8101C141.031 60.1157 140.899 59.3135 140.899 58.4033C140.899 57.6955 141.014 57.0314 141.244 56.4112C141.474 55.7842 141.803 55.2415 142.23 54.7831C142.663 54.3179 143.188 53.9505 143.804 53.6808C144.427 53.4112 145.128 53.2764 145.907 53.2764ZM145.957 55.0662C145.226 55.0662 144.654 55.2718 144.241 55.6831C143.828 56.0943 143.563 56.6775 143.448 57.4325H148.162C148.162 57.1089 148.117 56.8056 148.03 56.5224C147.942 56.2326 147.806 55.9797 147.623 55.764C147.441 55.5483 147.21 55.3797 146.933 55.2584C146.655 55.1303 146.33 55.0662 145.957 55.0662Z" fill="#10151B"/>
<path fill-rule="evenodd" clip-rule="evenodd" d="M28.5 67.4375C31.4711 67.4375 34.1656 66.2528 36.1367 64.33C36.1908 64.2773 36.2772 64.2773 36.3306 64.3307L40.8743 68.8744L45.5905 73.5905C45.6925 73.6925 45.5875 73.8625 45.4506 73.8169L37.9242 71.3081C37.8852 71.295 37.8425 71.3003 37.8077 71.3222C35.1118 73.0186 31.9205 74 28.5 74C18.835 74 11 66.165 11 56.5C11 46.835 18.835 39 28.5 39C38.165 39 46 46.835 46 56.5C46 60.6281 44.5707 64.4223 42.1799 67.4148C42.1294 67.4781 42.035 67.4829 41.9777 67.4256L32.7376 58.1856C32.6356 58.0836 32.7407 57.9136 32.8775 57.9591L38.7493 59.9164C38.821 59.9403 38.8985 59.9016 38.9215 59.8297C39.2566 58.7798 39.4375 57.661 39.4375 56.5C39.4375 50.4594 34.5406 45.5625 28.5 45.5625C22.4594 45.5625 17.5625 50.4594 17.5625 56.5C17.5625 62.5406 22.4594 67.4375 28.5 67.4375Z" fill="#00A4D6"/>
</g>
<defs>
<clipPath id="clip0_160_554">
<rect width="140" height="35" fill="white" transform="translate(11 39)"/>
</clipPath>
</defs>
</svg>
