<svg width="163" height="118" viewBox="0 0 163 118" fill="none" xmlns="http://www.w3.org/2000/svg">
<path d="M159 0.494141H3.99998C2.0639 0.494141 0.494385 2.06365 0.494385 3.99974V114C0.494385 115.936 2.0639 117.505 3.99998 117.505H159C160.936 117.505 162.505 115.936 162.505 114V3.99974C162.505 2.06365 160.936 0.494141 159 0.494141Z" fill="white"/>
<path d="M69.8225 61.2211C70.7135 61.2211 71.5142 61.4097 72.2246 61.787C72.935 62.1643 73.4929 62.686 73.8982 63.3523C74.3036 64.0185 74.5063 64.769 74.5063 65.6039C74.5063 66.4387 74.3036 67.1892 73.8982 67.8554C73.4929 68.5217 72.935 69.0434 72.2246 69.4207C71.5142 69.798 70.7135 69.9866 69.8225 69.9866C68.9315 69.9866 68.1308 69.798 67.4204 69.4207C66.71 69.0434 66.1521 68.5217 65.7468 67.8554C65.3414 67.1892 65.1387 66.4387 65.1387 65.6039C65.1387 64.769 65.3414 64.0185 65.7468 63.3523C66.1521 62.686 66.71 62.1643 67.4204 61.787C68.1308 61.4097 68.9315 61.2211 69.8225 61.2211ZM113.783 61.2211C114.336 61.2211 114.882 61.2833 115.42 61.4077C115.958 61.5321 116.432 61.7148 116.841 61.9556L116.106 63.7255C115.304 63.2921 114.525 63.0753 113.771 63.0753C113.297 63.0753 112.952 63.1456 112.735 63.2861C112.518 63.4265 112.41 63.6091 112.41 63.8339C112.41 64.0587 112.538 64.2272 112.795 64.3396C113.052 64.452 113.466 64.5684 114.035 64.6888C114.678 64.8252 115.209 64.9717 115.631 65.1283C116.052 65.2848 116.417 65.5336 116.727 65.8748C117.036 66.2159 117.19 66.6795 117.19 67.2655C117.19 67.7712 117.05 68.2287 116.769 68.6381C116.488 69.0475 116.066 69.3746 115.504 69.6194C114.943 69.8642 114.26 69.9866 113.458 69.9866C112.775 69.9866 112.113 69.9023 111.471 69.7338C110.829 69.5652 110.307 69.3405 109.906 69.0595L110.688 67.3016C111.065 67.5504 111.503 67.7511 112.001 67.9036C112.498 68.0561 112.988 68.1324 113.47 68.1324C114.385 68.1324 114.842 67.9036 114.842 67.4461C114.842 67.2053 114.712 67.0267 114.451 66.9103C114.19 66.7939 113.771 66.6715 113.193 66.543C112.558 66.4066 112.029 66.2601 111.603 66.1035C111.178 65.947 110.813 65.6962 110.508 65.351C110.203 65.0058 110.05 64.5403 110.05 63.9543C110.05 63.4406 110.191 62.977 110.471 62.5636C110.752 62.1502 111.172 61.8231 111.73 61.5823C112.288 61.3415 112.972 61.2211 113.783 61.2211ZM59.6121 61.3897C60.5352 61.3897 61.354 61.5622 62.0684 61.9074C62.7828 62.2526 63.3367 62.7422 63.73 63.3764C64.1233 64.0105 64.32 64.753 64.32 65.6039C64.32 66.4547 64.1233 67.1972 63.73 67.8314C63.3367 68.4655 62.7828 68.9552 62.0684 69.3003C61.354 69.6455 60.5352 69.8181 59.6121 69.8181H55.6267V61.3897H59.6121ZM77.7211 61.3897L80.6831 66.2541L83.5728 61.3897H85.5354L85.5595 69.8181H83.3681L83.3441 65.351L81.1768 68.9873H80.1172L77.9619 65.4714V69.8181H75.7585V61.3897H77.7211ZM92.3022 61.3897L96.0348 69.8181H93.5545L92.8922 68.1805H89.3282L88.666 69.8181H86.2338L89.9543 61.3897H92.3022ZM99.0931 61.3897V69.8181H96.7091V61.3897H99.0931ZM102.753 61.3897L106.474 65.8808V61.3897H108.81V69.8181H106.847L103.127 65.3269V69.8181H100.791V61.3897H102.753ZM69.8225 63.1958C69.3971 63.1958 69.0118 63.2961 68.6666 63.4968C68.3215 63.6974 68.0485 63.9804 67.8479 64.3456C67.6472 64.7109 67.5468 65.1303 67.5468 65.6039C67.5468 66.0775 67.6472 66.4969 67.8479 66.8621C68.0485 67.2273 68.3215 67.5103 68.6666 67.711C69.0118 67.9116 69.3971 68.012 69.8225 68.012C70.2479 68.012 70.6332 67.9116 70.9784 67.711C71.3236 67.5103 71.5965 67.2273 71.7972 66.8621C71.9978 66.4969 72.0982 66.0775 72.0982 65.6039C72.0982 65.1303 71.9978 64.7109 71.7972 64.3456C71.5965 63.9804 71.3236 63.6974 70.9784 63.4968C70.6332 63.2961 70.2479 63.1958 69.8225 63.1958ZM59.5158 63.2921H58.0107V67.9156H59.5158C60.2382 67.9156 60.8182 67.711 61.2556 67.3016C61.6931 66.8922 61.9119 66.3263 61.9119 65.6039C61.9119 64.8814 61.6931 64.3155 61.2556 63.9061C60.8182 63.4968 60.2382 63.2921 59.5158 63.2921ZM91.1102 63.7255L90.0266 66.4226H92.1939L91.1102 63.7255ZM57.9385 48.2545V52.854C57.9385 54.2026 58.4723 54.8768 59.5399 54.8768C60.5994 54.8768 61.1292 54.2026 61.1292 52.854V48.2545H63.4771V52.9262C63.4771 54.1785 63.13 55.1457 62.4356 55.828C61.7413 56.5103 60.768 56.8515 59.5158 56.8515C58.2636 56.8515 57.2903 56.5103 56.596 55.828C55.9016 55.1457 55.5544 54.1785 55.5544 52.9262V48.2545H57.9385ZM94.4816 48.0859C95.3726 48.0859 96.1733 48.2746 96.8837 48.6518C97.5941 49.0291 98.1519 49.5509 98.5573 50.2171C98.9627 50.8834 99.1654 51.6339 99.1654 52.4687C99.1654 53.3035 98.9627 54.054 98.5573 54.7203C98.1519 55.3865 97.5941 55.9083 96.8837 56.2856C96.1733 56.6628 95.3726 56.8515 94.4816 56.8515C93.5906 56.8515 92.7899 56.6628 92.0795 56.2856C91.3691 55.9083 90.8112 55.3865 90.4059 54.7203C90.0005 54.054 89.7978 53.3035 89.7978 52.4687C89.7978 51.6339 90.0005 50.8834 90.4059 50.2171C90.8112 49.5509 91.3691 49.0291 92.0795 48.6518C92.7899 48.2746 93.5906 48.0859 94.4816 48.0859ZM78.0823 48.0859C78.6362 48.0859 79.182 48.1481 79.7199 48.2726C80.2577 48.397 80.7313 48.5796 81.1406 48.8204L80.4062 50.5904C79.6035 50.1569 78.8248 49.9402 78.0703 49.9402C77.5967 49.9402 77.2515 50.0104 77.0348 50.1509C76.8181 50.2914 76.7097 50.474 76.7097 50.6987C76.7097 50.9235 76.8381 51.0921 77.095 51.2044C77.3519 51.3168 77.7653 51.4332 78.3352 51.5536C78.9774 51.6901 79.5091 51.8366 79.9306 51.9931C80.352 52.1496 80.7172 52.3985 81.0263 52.7396C81.3353 53.0808 81.4898 53.5443 81.4898 54.1303C81.4898 54.636 81.3493 55.0935 81.0684 55.5029C80.7875 55.9123 80.366 56.2394 79.8041 56.4842C79.2422 56.7291 78.5599 56.8515 77.7572 56.8515C77.0749 56.8515 76.4127 56.7672 75.7706 56.5986C75.1284 56.43 74.6066 56.2053 74.2053 55.9243L74.9879 54.1664C75.3652 54.4153 75.8027 54.6159 76.3003 54.7685C76.798 54.921 77.2877 54.9972 77.7693 54.9972C78.6844 54.9972 79.1419 54.7685 79.1419 54.3109C79.1419 54.0701 79.0115 53.8915 78.7506 53.7751C78.4897 53.6587 78.0703 53.5363 77.4923 53.4079C76.8582 53.2714 76.3284 53.1249 75.903 52.9684C75.4776 52.8119 75.1123 52.561 74.8073 52.2159C74.5023 51.8707 74.3498 51.4051 74.3498 50.8191C74.3498 50.3054 74.4902 49.8419 74.7712 49.4285C75.0521 49.0151 75.4715 48.688 76.0294 48.4472C76.5873 48.2063 77.2716 48.0859 78.0823 48.0859ZM89.3403 48.2545V50.1449H86.7636V56.6829H84.3796V50.1449H81.7908V48.2545H89.3403ZM67.0532 48.2545L70.7737 52.7456V48.2545H73.1096V56.6829H71.147L67.4264 52.1918V56.6829H65.0906V48.2545H67.0532ZM104.271 48.2545C105.033 48.2545 105.695 48.3809 106.257 48.6338C106.819 48.8866 107.253 49.2478 107.558 49.7174C107.863 50.187 108.015 50.7389 108.015 51.373C108.015 52.0072 107.863 52.557 107.558 53.0226C107.253 53.4881 106.819 53.8473 106.257 54.1002C105.695 54.3531 105.033 54.4795 104.271 54.4795H102.802V56.6829H100.418V48.2545H104.271ZM123.222 48.2545L126.955 56.6829H124.475L123.812 55.0454H120.248L119.586 56.6829H117.154L120.874 48.2545H123.222ZM131.94 48.2545C133.015 48.2545 133.834 48.4532 134.396 48.8505C134.958 49.2479 135.239 49.7837 135.239 50.4579C135.239 50.8593 135.141 51.2185 134.944 51.5356C134.747 51.8526 134.468 52.1035 134.107 52.2881C134.589 52.4567 134.966 52.7195 135.239 53.0768C135.512 53.434 135.648 53.8654 135.648 54.3711C135.648 55.1096 135.351 55.6795 134.757 56.0809C134.163 56.4822 133.304 56.6829 132.181 56.6829H127.629V48.2545H131.94ZM139.272 48.2545V54.7925H143.294V56.6829H136.888V48.2545H139.272ZM150.843 48.2545V50.0967H146.593V51.5175H150.338V53.2995H146.593V54.8407H151V56.6829H144.233V48.2545H150.843ZM113.144 48.2545C113.907 48.2545 114.569 48.3809 115.131 48.6338C115.693 48.8866 116.127 49.2478 116.432 49.7174C116.737 50.187 116.889 50.7389 116.889 51.373C116.889 52.0072 116.737 52.557 116.432 53.0226C116.127 53.4881 115.693 53.8473 115.131 54.1002C114.569 54.3531 113.907 54.4795 113.144 54.4795H111.676V56.6829H109.291V48.2545H113.144ZM131.988 53.2513H129.989V54.9611H131.988C132.823 54.9611 133.24 54.6761 133.24 54.1062C133.24 53.5363 132.823 53.2513 131.988 53.2513ZM94.4816 50.0606C94.0561 50.0606 93.6709 50.1609 93.3257 50.3616C92.9805 50.5623 92.7076 50.8452 92.5069 51.2105C92.3063 51.5757 92.2059 51.9951 92.2059 52.4687C92.2059 52.9423 92.3063 53.3617 92.5069 53.7269C92.7076 54.0922 92.9805 54.3751 93.3257 54.5758C93.6709 54.7765 94.0561 54.8768 94.4816 54.8768C94.907 54.8768 95.2923 54.7765 95.6375 54.5758C95.9826 54.3751 96.2556 54.0922 96.4562 53.7269C96.6569 53.3617 96.7573 52.9423 96.7573 52.4687C96.7573 51.9951 96.6569 51.5757 96.4562 51.2105C96.2556 50.8452 95.9826 50.5623 95.6375 50.3616C95.2923 50.1609 94.907 50.0606 94.4816 50.0606ZM122.03 50.5904L120.947 53.2875H123.114L122.03 50.5904ZM104.126 50.1328H102.802V52.6011H104.126C104.616 52.6011 104.985 52.4948 105.234 52.2821C105.483 52.0694 105.607 51.7663 105.607 51.373C105.607 50.9797 105.483 50.6747 105.234 50.4579C104.985 50.2412 104.616 50.1328 104.126 50.1328ZM113 50.1328H111.676V52.6011H113C113.49 52.6011 113.859 52.4948 114.108 52.2821C114.357 52.0694 114.481 51.7663 114.481 51.373C114.481 50.9797 114.357 50.6747 114.108 50.4579C113.859 50.2412 113.49 50.1328 113 50.1328ZM131.627 49.9763H129.989V51.6018H131.627C132.429 51.6018 132.831 51.3289 132.831 50.783C132.831 50.2452 132.429 49.9763 131.627 49.9763Z" fill="black"/>
<path fill-rule="evenodd" clip-rule="evenodd" d="M46.0271 43.5469V55.5874L11 69.8172L46.0271 43.5469Z" fill="#2FE9FF"/>
<path fill-rule="evenodd" clip-rule="evenodd" d="M39.4595 43V63.7973C39.4595 69.8426 34.5588 74.7433 28.5135 74.7433C22.4682 74.7433 17.5676 69.8426 17.5676 63.7973V55.0406L24.1351 51.4284V63.7973C24.1351 65.9132 25.8504 67.6284 27.9662 67.6284C30.0821 67.6284 31.7973 65.9132 31.7973 63.7973V47.2142L39.4595 43Z" fill="#4C47F7"/>
</svg>
