<svg width="163" height="118" viewBox="0 0 163 118" fill="none" xmlns="http://www.w3.org/2000/svg">
<path d="M159 0.494141H3.99998C2.0639 0.494141 0.494385 2.06365 0.494385 3.99974V114C0.494385 115.936 2.0639 117.505 3.99998 117.505H159C160.936 117.505 162.505 115.936 162.505 114V3.99974C162.505 2.06365 160.936 0.494141 159 0.494141Z" fill="white"/>
<path d="M52.6332 97.9766V79.7607H54.819V95.9991H64.3309V97.9766H52.6332Z" fill="#00501E"/>
<path d="M66.5501 97.9766V79.7607H77.7662V81.7382H68.7359V87.8278H76.0541V89.8053H68.7359V95.9991H77.8959V97.9766H66.5501Z" fill="#00501E"/>
<path d="M80.1152 97.9766V79.7607H84.7502L91.0993 96.5967H91.8305V79.7607H93.9908V97.9766H89.3558L83.0322 81.1131H82.2754V97.9766H80.1152V97.9766Z" fill="#00501E"/>
<path d="M103.151 98.3406C101.832 98.3406 100.652 98.1067 99.6126 97.6388C98.5708 97.171 97.7511 96.4634 97.1536 95.5179C96.556 94.5724 96.2552 93.3891 96.2552 91.9659V91.4195H98.4155V91.9659C98.4155 93.4756 98.8578 94.598 99.7423 95.3351C100.627 96.0722 101.763 96.4418 103.151 96.4418C104.574 96.4418 105.657 96.1214 106.404 95.4786C107.149 94.8378 107.522 94.0299 107.522 93.0588C107.522 92.3827 107.353 91.8441 107.015 91.445C106.677 91.046 106.203 90.7217 105.596 90.4701C104.989 90.2185 104.277 89.9983 103.461 89.8057L102.109 89.4676C101.051 89.1904 100.114 88.8523 99.2981 88.4533C98.4824 88.0543 97.8455 87.5294 97.3855 86.8788C96.9255 86.2282 96.6956 85.3908 96.6956 84.3686C96.6956 83.3445 96.9511 82.46 97.4641 81.715C97.9752 80.97 98.6966 80.396 99.6244 79.997C100.552 79.598 101.623 79.3975 102.838 79.3975C104.071 79.3975 105.175 79.6098 106.156 80.0343C107.137 80.4589 107.908 81.084 108.472 81.9076C109.036 82.7312 109.317 83.7691 109.317 85.0173V86.1102H107.157V85.0173C107.157 84.1328 106.97 83.4212 106.597 82.8826C106.223 82.346 105.712 81.945 105.061 81.6855C104.411 81.426 103.67 81.2943 102.836 81.2943C101.639 81.2943 100.676 81.5597 99.9487 82.0885C99.2195 82.6172 98.8558 83.3681 98.8558 84.3391C98.8558 84.9819 99.0111 85.5009 99.3237 85.8999C99.6362 86.2989 100.078 86.6252 100.65 86.8749C101.222 87.1265 101.909 87.3486 102.707 87.5393L104.059 87.8773C105.116 88.1034 106.066 88.41 106.909 88.8012C107.75 89.1924 108.423 89.7211 108.926 90.3895C109.429 91.0578 109.681 91.9286 109.681 93.0038C109.681 94.079 109.411 95.0167 108.875 95.8147C108.336 96.6128 107.577 97.2339 106.599 97.6762C105.62 98.1204 104.47 98.3406 103.151 98.3406Z" fill="#00501E"/>
<path d="M81.1963 56.1039C80.6184 56.1039 66.902 55.984 56.4132 45.4932C56.1911 45.2711 55.9748 45.049 55.7625 44.8229C53.5669 42.5034 52.5231 39.7476 52.7453 36.8521C52.9399 34.2987 54.1153 31.822 56.0574 29.8799C57.9995 27.9378 60.4742 26.7624 63.0296 26.5678C65.7049 26.3633 68.2622 27.24 70.4657 29.1074C70.7036 26.2297 71.8928 23.8021 73.9273 22.0546C75.8713 20.3857 78.4542 19.4678 81.1983 19.4678C83.9423 19.4678 86.5272 20.3857 88.4693 22.0546C90.5057 23.8021 91.693 26.2297 91.9328 29.1074C94.1363 27.24 96.6936 26.3633 99.3689 26.5678C101.922 26.7624 104.399 27.9378 106.339 29.8799C108.281 31.822 109.457 34.2968 109.651 36.8521C109.871 39.7476 108.828 42.5034 106.634 44.8229C106.422 45.047 106.204 45.2711 105.983 45.4932C95.4906 55.984 81.7762 56.1039 81.1963 56.1039ZM63.7844 28.7202C61.406 28.7202 59.173 29.8249 57.5847 31.4131C54.7286 34.2692 53.4332 39.2188 57.3331 43.3408C57.5316 43.5511 57.7341 43.7595 57.9425 43.9678C67.8062 53.8316 81.0646 53.9456 81.1983 53.9456C81.33 53.9456 94.6139 53.806 104.454 43.9678C104.662 43.7595 104.865 43.5511 105.063 43.3408C108.963 39.2208 107.666 34.2692 104.81 31.4151C101.954 28.559 97.0042 27.2636 92.8842 31.1615C92.6738 31.3601 92.4655 31.5625 92.2571 31.7709C92.0959 31.9321 91.9426 32.0952 91.7893 32.2584L89.7293 34.4304L89.8099 31.4465C89.8158 31.2205 89.8236 30.9925 89.8236 30.7625C89.8236 30.4696 89.8197 30.1787 89.8118 29.8878C89.6546 24.2168 85.2377 21.632 81.2002 21.632C77.1628 21.632 72.7439 24.2149 72.5887 29.8878C72.5808 30.1767 72.5769 30.4676 72.5769 30.7625C72.5769 30.9866 72.5828 31.2087 72.5887 31.4289L72.6673 34.4304L70.6151 32.2643C70.4598 32.0991 70.3026 31.934 70.1414 31.7709C69.933 31.5625 69.7247 31.3601 69.5144 31.1615C67.6804 29.4258 65.6852 28.7202 63.7844 28.7202Z" fill="#00501E"/>
<path d="M109.29 72.0219C105.423 73.7988 101.006 74.2627 96.8273 73.3231C92.7741 72.4111 89.2202 70.3 86.4899 67.2001C86.7572 67.3849 87.0324 67.5637 87.3154 67.7348C89.6506 69.1422 92.2453 69.8498 94.84 69.8498C97.1457 69.8498 99.4534 69.2916 101.58 68.1672C101.732 68.0886 101.881 68.006 102.03 67.9215L100.961 66.0423C100.831 66.117 100.702 66.1878 100.57 66.2566C96.727 68.2871 92.1903 68.1495 88.4319 65.8851C84.5851 63.5675 82.2873 59.5124 82.2873 55.0385V54.2051H82.2676H80.125H80.1054V55.0385C80.1054 59.5124 77.8075 63.5675 73.9607 65.8851C70.2023 68.1495 65.6656 68.2891 61.8227 66.2566C61.691 66.1878 61.5613 66.117 61.4315 66.0423L60.3622 67.9215C60.5116 68.006 60.661 68.0886 60.8123 68.1672C62.9392 69.2916 65.2449 69.8498 67.5526 69.8498C70.1473 69.8498 72.74 69.1422 75.0772 67.7348C75.3603 67.5657 75.6354 67.3868 75.9028 67.2001C73.1725 70.3 69.6185 72.4111 65.5653 73.3231C61.3863 74.2647 56.9695 73.8008 53.103 72.0219L52.016 73.905C54.9055 75.2652 58.0781 75.9611 61.2645 75.9611C62.8645 75.9611 64.4665 75.7861 66.0391 75.4323C70.8864 74.3414 75.0949 71.7074 78.2046 67.8193C78.9319 66.9111 79.5648 65.9362 80.1034 64.916V75.9611H82.2656V64.8786C82.8101 65.9126 83.449 66.9013 84.1841 67.8193C87.2958 71.7074 91.5023 74.3394 96.3496 75.4323C97.9222 75.7861 99.5242 75.9611 101.124 75.9611C104.311 75.9611 107.483 75.2652 110.373 73.905L109.29 72.0219Z" fill="#00501E"/>
<path d="M79.7909 44.6524H78.2183C78.2183 42.3113 75.9401 40.4046 73.1391 40.4046C70.338 40.4046 68.0598 42.3093 68.0598 44.6524H66.4872C66.4872 41.4444 69.4711 38.832 73.1391 38.832C76.807 38.832 79.7909 41.4424 79.7909 44.6524Z" fill="#00501E"/>
<path d="M74.9475 44.6861C76.197 44.6861 77.21 43.6731 77.21 42.4236C77.21 41.1741 76.197 40.1611 74.9475 40.1611C73.6979 40.1611 72.685 41.1741 72.685 42.4236C72.685 43.6731 73.6979 44.6861 74.9475 44.6861Z" fill="#00501E"/>
<path d="M95.9211 44.6524H94.3486C94.3486 42.3113 92.0704 40.4046 89.2693 40.4046C86.4682 40.4046 84.19 42.3093 84.19 44.6524H82.6175C82.6175 41.4444 85.6014 38.832 89.2693 38.832C92.9372 38.832 95.9211 41.4424 95.9211 44.6524Z" fill="#00501E"/>
<path d="M91.0797 44.6861C92.3292 44.6861 93.3422 43.6731 93.3422 42.4236C93.3422 41.1741 92.3292 40.1611 91.0797 40.1611C89.8301 40.1611 88.8172 41.1741 88.8172 42.4236C88.8172 43.6731 89.8301 44.6861 91.0797 44.6861Z" fill="#00501E"/>
<path d="M81.1707 50.4334C79.3171 50.4334 77.5991 49.48 76.7971 48.0077L78.179 47.2549C78.7117 48.2299 79.8852 48.8608 81.1727 48.8608C82.4602 48.8608 83.6337 48.2299 84.1664 47.2549L85.5463 48.0077C84.7423 49.48 83.0244 50.4334 81.1707 50.4334Z" fill="#00501E"/>
</svg>
