<svg width="163" height="118" viewBox="0 0 163 118" fill="none" xmlns="http://www.w3.org/2000/svg">
<path d="M159 0.494141H3.99998C2.0639 0.494141 0.494385 2.06365 0.494385 3.99974V114C0.494385 115.936 2.0639 117.505 3.99998 117.505H159C160.936 117.505 162.505 115.936 162.505 114V3.99974C162.505 2.06365 160.936 0.494141 159 0.494141Z" fill="white"/>
<path d="M26.8435 46.6529C27.5804 45.8423 28.391 45.1054 29.349 44.5158C28.0963 44.2211 26.7698 44 25.4434 44C17.4111 44.1474 11 50.7059 11 58.6645C11 66.9915 17.7059 73.4763 25.3697 73.4763C26.6961 73.4763 28.0226 73.3289 29.2753 72.9605C28.391 72.2973 27.5804 71.5604 26.8435 70.7498C17.6322 70.5287 13.6529 64.6334 13.6529 58.6645C13.6529 52.6955 18.0743 46.3581 26.8435 46.6529Z" fill="black"/>
<path d="M39.371 73.4026C37.2339 73.4026 35.1706 73.0342 33.1809 72.1499C31.4124 71.413 29.7912 70.3076 28.4647 68.9075C27.1383 67.5811 26.1066 65.9599 25.4434 64.1913C24.0433 60.5804 24.0433 56.6011 25.4434 53.064C26.1066 51.2954 27.1383 49.7479 28.391 48.4214C29.7175 47.0213 31.3387 45.916 33.1072 45.1791C35.0969 44.3685 37.1602 44 39.2973 44C41.4343 44 43.4976 44.4421 45.4136 45.3264C47.1822 46.137 48.7297 47.3161 49.9824 48.7899C51.2352 50.19 52.1932 51.8112 52.7827 53.5061C53.4459 55.1273 53.7407 56.8959 53.7407 58.6645C53.7407 60.4331 53.3722 62.2016 52.7827 63.8228C52.4879 64.7071 52.0458 65.5177 51.6036 66.3283C51.0878 67.1389 50.572 67.8758 49.9824 68.6127C48.7297 70.0865 47.1822 71.2656 45.4136 72.0762C43.4976 72.9605 41.4343 73.4026 39.371 73.4026ZM39.1499 46.5055C31.9282 46.5055 26.9909 52.7692 26.9909 58.6645C26.9172 65.2966 32.223 70.7498 38.8551 70.8235C38.9288 70.8235 39.0025 70.8235 39.0762 70.8235C46.6664 70.8235 51.1615 64.6334 51.1615 58.6645C51.2352 52.7692 46.5927 46.5055 39.1499 46.5055Z" fill="black"/>
<path d="M34.36 50.3379C35.1706 49.9694 36.0549 49.601 36.9392 49.3799C38.8551 51.9591 40.3289 54.4645 40.3289 58.8123C40.2553 62.2021 39.0762 65.4445 36.9392 68.0237C36.0549 67.8026 35.2443 67.4341 34.4337 66.992C36.5707 64.7076 37.7498 61.6862 37.7498 58.5912C37.7498 55.5699 36.5707 52.5486 34.36 50.3379Z" fill="#CF6035"/>
<path d="M63.3817 46.7153V52.021H64.4133C64.4133 52.021 65.8135 47.8944 67.6557 47.8944H70.0875V62.5588C70.0875 64.0326 69.1295 64.4011 67.2136 64.4011V65.3591H77.604V64.4011C77.604 64.4011 74.73 64.4748 74.73 62.5588V47.8207H76.8671C78.4146 47.8207 79.5936 49.7366 80.4042 51.9473H81.5096V46.6416H63.3817V46.7153Z" fill="black"/>
<path d="M95.2161 65.3579H85.3415V64.2526C87.4786 64.2526 88.0681 63.8104 88.0681 62.3366V49.367C88.0681 48.5564 87.3312 48.1143 86.6679 47.9669C86.2258 47.8195 85.7837 47.7458 85.2678 47.7458V46.7142H96.0267C97.4268 46.6405 98.8269 46.8615 100.153 47.3037C101.996 47.9669 102.954 49.2933 102.954 51.0619C102.954 51.9462 102.733 52.9042 102.217 53.6411C101.775 54.3043 101.259 54.8201 100.669 55.1886C99.9323 55.6307 99.1954 55.9992 98.3848 56.1466C98.4585 56.2203 103.175 62.1155 104.133 63.2209C104.796 63.8841 105.754 64.2526 106.712 64.2526H106.786V65.3579H99.5638C97.0583 61.3786 93.5949 57.0309 93.5212 56.9572H92.7106V62.3366C92.6369 63.0735 93.079 63.663 93.7423 63.9578C94.1844 64.1789 94.6265 64.2526 95.1424 64.2526C95.2161 64.2526 95.2161 64.2526 95.2161 64.2526V65.3579ZM92.7106 47.8932V55.6308H93.9633C96.3951 55.6308 97.7953 54.0832 97.7953 51.4304C97.7953 48.3354 95.4372 47.8932 93.9633 47.8932H92.7106Z" fill="black"/>
<path d="M126.314 46.6408H125.061L124.324 47.304C122.703 46.5671 121.008 46.1987 119.239 46.125C113.712 46.125 108.849 49.4411 108.849 56.2206C108.849 63.0002 114.007 65.8004 118.871 65.8004C121.818 65.8004 124.692 65.0635 127.198 63.5897V56.6628H119.902V57.6944C119.902 57.6944 122.703 57.6208 122.703 59.6104V63.2949C121.745 64.1055 120.492 64.474 119.239 64.474C116.955 64.474 114.081 62.558 114.081 55.9259C114.081 49.2937 117.25 47.304 119.239 47.304C121.229 47.304 123.661 48.1883 125.282 53.4204H126.461L126.314 46.6408Z" fill="black"/>
<path d="M149.231 46.7145H147.905L147.168 47.3777C145.694 46.5671 143.999 46.125 142.304 46.125C136.778 46.125 132.061 49.7358 132.061 56.2943C132.061 62.8528 136.851 65.8004 142.304 65.8004C147.758 65.8004 150.042 60.6421 150.042 60.6421L148.937 59.9052C148.937 59.9052 146.8 63.9582 143.041 63.9582C139.283 63.9582 137.294 60.7895 137.294 55.8522C137.294 50.9149 138.988 47.3777 142.304 47.3777C145.621 47.3777 147.168 50.6201 148.052 53.4941H149.305L149.231 46.7145Z" fill="black"/>
<path d="M64.5607 73.4639H151" stroke="black" stroke-width="3" stroke-linecap="round"/>
</svg>
