<svg width="163" height="118" viewBox="0 0 163 118" fill="none" xmlns="http://www.w3.org/2000/svg">
<path d="M159 0.494141H3.99998C2.0639 0.494141 0.494385 2.06365 0.494385 3.99974V114C0.494385 115.936 2.0639 117.505 3.99998 117.505H159C160.936 117.505 162.505 115.936 162.505 114V3.99974C162.505 2.06365 160.936 0.494141 159 0.494141Z" fill="white"/>
<path d="M32.0779 40.1335C30.8673 39.4386 28.8874 39.4386 27.6768 40.1335L9.20127 50.7319C7.98919 51.4268 7 53.1313 7 54.5197V75.7195C7 77.1078 7.98919 78.8123 9.20127 79.5073L27.6768 90.1072C28.8874 90.8006 30.8673 90.8006 32.0779 90.1072L50.5534 79.5073C51.764 78.8123 52.7532 77.1078 52.7532 75.7195V54.5211C52.7532 53.1313 51.764 51.4268 50.5534 50.7334L32.0779 40.1335Z" fill="#87F96E"/>
<path d="M61.2043 58.4519C61.2047 58.3006 61.265 58.1556 61.372 58.0485C61.479 57.9415 61.624 57.8812 61.7754 57.8809H72.368C72.5193 57.8812 72.6644 57.9415 72.7714 58.0485C72.8784 58.1556 72.9387 58.3006 72.9391 58.4519V59.6174C72.9387 59.7686 72.8783 59.9135 72.7713 60.0203C72.6642 60.1271 72.5192 60.187 72.368 60.187H64.2403C64.089 60.1874 63.9439 60.2477 63.8369 60.3547C63.7299 60.4617 63.6696 60.6068 63.6692 60.7581V65.0354C63.6696 65.1867 63.7299 65.3317 63.8369 65.4387C63.9439 65.5458 64.089 65.606 64.2403 65.6064H71.727C71.8779 65.6068 72.0226 65.6669 72.1293 65.7737C72.2361 65.8804 72.2962 66.0251 72.2966 66.176V67.3415C72.2962 67.4926 72.2361 67.6374 72.1294 67.7444C72.0227 67.8514 71.8781 67.9118 71.727 67.9126H64.2403C64.0891 67.9126 63.9441 67.9726 63.837 68.0793C63.73 68.1861 63.6696 68.331 63.6692 68.4822V73.1703C63.6696 73.3216 63.7299 73.4667 63.8369 73.5737C63.9439 73.6807 64.089 73.741 64.2403 73.7414H72.8356C72.9866 73.7418 73.1312 73.8019 73.238 73.9086C73.3447 74.0154 73.4049 74.16 73.4052 74.311V75.4765C73.4049 75.6275 73.3448 75.7724 73.2381 75.8793C73.1314 75.9863 72.9867 76.0468 72.8356 76.0475H61.7754C61.624 76.0472 61.479 75.9869 61.372 75.8798C61.265 75.7728 61.2047 75.6278 61.2043 75.4765V58.4519Z" fill="#062F4F"/>
<path d="M81.7981 65.321C81.7977 65.4723 81.7374 65.6174 81.6304 65.7244C81.5234 65.8314 81.3783 65.8917 81.227 65.8921H79.0549C78.9039 65.8925 78.7592 65.9526 78.6525 66.0593C78.5458 66.1661 78.4856 66.3107 78.4852 66.4617V70.8409C78.4852 71.1541 78.4852 71.6684 78.4852 71.9816C78.4852 71.9816 78.4852 72.0923 78.5042 72.4187C78.5149 72.7273 78.58 73.0316 78.6965 73.3175C78.8022 73.5765 78.9802 73.7995 79.2093 73.96C79.4409 74.1217 79.7774 74.2033 80.2291 74.2033C80.5129 74.2021 80.7961 74.1763 81.0755 74.1261L81.3669 74.0751C81.6451 73.9469 81.8709 74.0999 81.8709 74.4145V75.3775C81.8624 75.5446 81.8089 75.7063 81.716 75.8456C81.6232 75.9848 81.4945 76.0964 81.3435 76.1685C81.1681 76.22 80.9881 76.2542 80.806 76.2705C80.4683 76.3223 80.1277 76.3524 79.7862 76.3609C78.8956 76.3609 78.2065 76.2365 77.7189 75.9879C77.2735 75.7782 76.8985 75.4436 76.6394 75.0249C76.4057 74.6202 76.2658 74.1681 76.2301 73.7021C76.1864 73.2156 76.1776 72.7974 76.1776 72.7974C76.1776 72.4828 76.1645 71.97 76.1645 71.6553V66.4544C76.1641 66.3034 76.104 66.1588 75.9972 66.052C75.8905 65.9453 75.7458 65.8852 75.5949 65.8848H74.0652C73.914 65.884 73.7692 65.8236 73.6622 65.7167C73.5553 65.6097 73.4949 65.4649 73.4941 65.3137V64.4513C73.4949 64.3 73.5553 64.1552 73.6622 64.0483C73.7692 63.9414 73.914 63.8809 74.0652 63.8802H75.5949C75.7458 63.8798 75.8905 63.8197 75.9972 63.7129C76.104 63.6062 76.1641 63.4615 76.1645 63.3106V61.0437C76.1649 60.8924 76.2252 60.7474 76.3322 60.6403C76.4392 60.5333 76.5842 60.473 76.7356 60.4727H77.9011C78.0524 60.473 78.1974 60.5333 78.3044 60.6403C78.4115 60.7474 78.4717 60.8924 78.4721 61.0437V63.3178C78.4725 63.4688 78.5327 63.6135 78.6394 63.7202C78.7461 63.8269 78.8908 63.8871 79.0417 63.8875H81.2139C81.3652 63.8879 81.5103 63.9481 81.6173 64.0552C81.7243 64.1622 81.7846 64.3072 81.785 64.4585L81.7981 65.321Z" fill="#062F4F"/>
<path d="M83.7488 57.2195C83.7492 57.0682 83.8095 56.9231 83.9165 56.8161C84.0235 56.7091 84.1685 56.6488 84.3199 56.6484H85.4853C85.6364 56.6492 85.7811 56.7097 85.8878 56.8166C85.9945 56.9236 86.0546 57.0684 86.0549 57.2195V65.1927C86.0462 65.3835 86.055 65.5747 86.0812 65.7638C86.2069 65.6145 86.3222 65.4568 86.4264 65.2918C86.7448 64.8454 87.1514 64.469 87.621 64.1861C88.3848 63.7716 89.2434 63.5632 90.1122 63.5815C90.6835 63.5801 91.2512 63.6711 91.7934 63.851C92.3198 64.0226 92.8022 64.3076 93.2065 64.6858C93.6297 65.0955 93.9584 65.5927 94.1695 66.1426C94.4084 66.7326 94.4827 67.6664 94.4827 67.6664C94.5089 67.9782 94.5293 68.491 94.5293 68.8057V75.4838C94.5286 75.6353 94.4679 75.7803 94.3607 75.8873C94.2535 75.9943 94.1083 76.0545 93.9568 76.0549H92.7913C92.64 76.0545 92.495 75.9942 92.3879 75.8872C92.2809 75.7802 92.2206 75.6351 92.2203 75.4838V69.4423C92.2203 69.1276 92.2028 68.6148 92.178 68.3016C92.1532 68.0009 92.0895 67.7046 91.9886 67.4202C91.8579 67.0533 91.6474 66.72 91.3724 66.4442C91.1221 66.2001 90.8197 66.0158 90.4881 65.9051C90.1525 65.7942 89.8013 65.7381 89.4479 65.7391C88.9924 65.7344 88.5397 65.8124 88.112 65.9692C87.7002 66.1236 87.3308 66.3732 87.0339 66.6977C86.7069 67.0654 86.4616 67.4984 86.3143 67.968C86.198 68.3769 86.1242 68.7968 86.0943 69.2209C86.0739 69.5356 86.0579 70.0484 86.0579 70.3616V75.4838C86.0575 75.6349 85.9974 75.7797 85.8907 75.8867C85.784 75.9937 85.6393 76.0541 85.4882 76.0549H84.3228C84.1714 76.0545 84.0264 75.9942 83.9194 75.8872C83.8124 75.7802 83.7521 75.6351 83.7517 75.4838L83.7488 57.2195Z" fill="#062F4F"/>
<path d="M98.9173 63.8877H97.7489C97.4335 63.8877 97.1778 64.1434 97.1778 64.4588V75.487C97.1778 75.8024 97.4335 76.0581 97.7489 76.0581H98.9173C99.2326 76.0581 99.4883 75.8024 99.4883 75.487V64.4588C99.4883 64.1434 99.2326 63.8877 98.9173 63.8877Z" fill="#062F4F"/>
<path d="M111.258 66.7422C111.14 66.8433 110.99 66.8989 110.835 66.8989C110.68 66.8989 110.529 66.8433 110.412 66.7422C110.13 66.4955 109.82 66.2824 109.49 66.107C108.963 65.8643 108.388 65.7457 107.808 65.7603C107.237 65.748 106.67 65.8677 106.152 66.1099C105.691 66.3326 105.287 66.6575 104.97 67.0598C104.65 67.4746 104.409 67.9447 104.258 68.4467C104.095 68.9747 104.013 69.5243 104.015 70.0769C104.012 70.6237 104.108 71.1664 104.297 71.6794C104.475 72.1669 104.745 72.6156 105.093 73.0007C105.437 73.3794 105.857 73.6817 106.325 73.888C106.836 74.1083 107.388 74.2175 107.944 74.2085C108.519 74.224 109.09 74.1053 109.612 73.8617C109.928 73.6929 110.222 73.4844 110.486 73.2411C110.596 73.1355 110.743 73.0773 110.896 73.0789C111.048 73.0805 111.194 73.1419 111.302 73.2499L112.138 74.0875C112.191 74.1388 112.232 74.2004 112.26 74.2685C112.287 74.3366 112.3 74.4097 112.298 74.4831C112.296 74.5565 112.278 74.6287 112.247 74.695C112.215 74.7613 112.17 74.8204 112.115 74.8684C112.115 74.8684 111.241 75.6376 110.45 75.929C109.639 76.2222 108.783 76.3702 107.921 76.366C107.038 76.3768 106.162 76.2196 105.339 75.9028C104.586 75.6119 103.901 75.1707 103.324 74.6062C102.752 74.0378 102.305 73.3553 102.013 72.603C101.697 71.78 101.54 70.9045 101.551 70.023C101.541 69.1373 101.698 68.2577 102.013 67.4298C102.303 66.6721 102.744 65.9816 103.31 65.4005C103.88 64.8272 104.561 64.3774 105.313 64.0791C106.142 63.753 107.028 63.5917 107.919 63.6042C108.793 63.6014 109.66 63.7625 110.474 64.0791C111.286 64.3952 112.161 65.1557 112.161 65.1557C112.217 65.2017 112.262 65.2592 112.293 65.3243C112.324 65.3894 112.34 65.4604 112.341 65.5325C112.342 65.6045 112.327 65.6759 112.298 65.7417C112.268 65.8075 112.225 65.866 112.17 65.9133L111.258 66.7422Z" fill="#062F4F"/>
<path d="M114.843 58.4514C114.844 58.3001 114.904 58.1551 115.011 58.0481C115.118 57.941 115.263 57.8807 115.414 57.8804H116.737C116.888 57.8811 117.033 57.9415 117.14 58.0485C117.247 58.1554 117.308 58.3002 117.308 58.4514V64.8615C117.309 65.0126 117.37 65.1572 117.477 65.2639C117.584 65.3706 117.728 65.4307 117.879 65.4311H126.162C126.313 65.4307 126.458 65.3704 126.564 65.2633C126.671 65.1563 126.731 65.0112 126.731 64.86V58.45C126.732 58.2986 126.792 58.1536 126.899 58.0466C127.006 57.9396 127.151 57.8793 127.302 57.8789H128.626C128.778 57.8797 128.922 57.9401 129.029 58.0471C129.136 58.1541 129.196 58.2989 129.196 58.45V75.4832C129.196 75.6343 129.136 75.7792 129.029 75.8861C128.922 75.9931 128.778 76.0536 128.626 76.0543H127.302C127.151 76.0539 127.006 75.9937 126.899 75.8866C126.792 75.7796 126.732 75.6346 126.731 75.4832V68.3113C126.731 68.1602 126.671 68.0154 126.564 67.9084C126.457 67.8014 126.313 67.741 126.162 67.7402H117.879C117.728 67.7406 117.583 67.8009 117.476 67.9079C117.369 68.0149 117.309 68.1599 117.308 68.3113V75.4832C117.308 75.6345 117.247 75.7793 117.14 75.8862C117.033 75.9931 116.888 76.0536 116.737 76.0543H115.414C115.263 76.0539 115.118 75.9937 115.011 75.8866C114.904 75.7796 114.844 75.6346 114.843 75.4832V58.4514Z" fill="#062F4F"/>
<path d="M142.009 75.4821C142.008 75.6334 141.948 75.7782 141.841 75.8851C141.734 75.992 141.589 76.0524 141.438 76.0532H140.272C140.121 76.0528 139.976 75.9925 139.869 75.8855C139.762 75.7785 139.702 75.6335 139.701 75.4821V74.7537C139.71 74.563 139.701 74.3718 139.675 74.1826C139.55 74.3327 139.434 74.4909 139.33 74.6561C139.012 75.1032 138.604 75.4797 138.134 75.7618C137.37 76.1752 136.512 76.383 135.644 76.365C135.068 76.3692 134.496 76.2781 133.95 76.0955C133.428 75.9214 132.951 75.6367 132.55 75.2607C132.127 74.8534 131.798 74.3587 131.587 73.8111C131.348 73.2197 131.272 72.2873 131.272 72.2873C131.247 71.9741 131.227 71.4613 131.227 71.1481V64.4583C131.228 64.3072 131.288 64.1625 131.395 64.0558C131.502 63.9491 131.647 63.8891 131.798 63.8887H132.963C133.115 63.8887 133.26 63.9486 133.367 64.0554C133.474 64.1622 133.534 64.3071 133.534 64.4583V70.5071C133.534 70.8203 133.552 71.3331 133.575 71.6463C133.601 71.947 133.665 72.2432 133.766 72.5277C133.896 72.895 134.107 73.2285 134.382 73.5038C134.632 73.7482 134.935 73.9325 135.267 74.0428C135.602 74.155 135.953 74.2116 136.307 74.2103C136.762 74.2145 137.215 74.136 137.643 73.9787C138.054 73.8238 138.424 73.5743 138.721 73.2503C139.048 72.8822 139.294 72.4486 139.44 71.9785C139.557 71.5696 139.63 71.1497 139.659 70.7256C139.679 70.4124 139.697 69.8996 139.697 69.5849V64.4583C139.697 64.3071 139.758 64.1622 139.865 64.0554C139.972 63.9486 140.117 63.8887 140.268 63.8887H141.433C141.585 63.8891 141.729 63.9491 141.836 64.0558C141.943 64.1625 142.004 64.3072 142.004 64.4583L142.009 75.4821Z" fill="#062F4F"/>
<path d="M150.533 74.212C151.106 74.221 151.674 74.1114 152.202 73.89C152.679 73.6903 153.107 73.3924 153.461 73.0159C153.814 72.63 154.085 72.1759 154.256 71.6815C154.633 70.5744 154.633 69.3737 154.256 68.2667C154.085 67.772 153.814 67.3175 153.461 66.9308C153.107 66.5547 152.678 66.2569 152.202 66.0567C151.131 65.6293 149.936 65.6293 148.865 66.0567C148.389 66.2569 147.96 66.5547 147.606 66.9308C147.253 67.3175 146.982 67.772 146.811 68.2667C146.434 69.3737 146.434 70.5744 146.811 71.6815C146.982 72.1759 147.253 72.63 147.606 73.0159C147.96 73.3924 148.388 73.6903 148.865 73.89C149.392 74.1115 149.96 74.2211 150.533 74.212M144.217 57.2195C144.218 57.0684 144.278 56.9236 144.385 56.8166C144.491 56.7097 144.636 56.6492 144.787 56.6484H145.952C146.104 56.6492 146.249 56.7096 146.355 56.8166C146.462 56.9235 146.523 57.0683 146.524 57.2195V65.0646C146.514 65.2553 146.523 65.4465 146.55 65.6356C146.692 65.5012 146.827 65.3581 146.952 65.2073C147.351 64.7718 147.823 64.4085 148.346 64.1336C149.115 63.7656 149.958 63.5768 150.811 63.5815C151.687 63.5691 152.556 63.7351 153.366 64.0695C154.104 64.3779 154.768 64.8374 155.317 65.4186C155.865 66.0034 156.289 66.6932 156.563 67.4465C156.859 68.2563 157.008 69.1131 157 69.9755C157.008 70.8338 156.86 71.6864 156.563 72.4915C156.285 73.2427 155.861 73.9318 155.317 74.5194C154.771 75.1068 154.106 75.5711 153.366 75.8815C152.556 76.2154 151.687 76.381 150.811 76.3681C149.981 76.3662 149.161 76.1822 148.41 75.8291C147.868 75.5497 147.378 75.1797 146.961 74.735C146.832 74.587 146.695 74.4464 146.55 74.314C146.523 74.503 146.514 74.6943 146.524 74.885V75.4838C146.523 75.635 146.462 75.7798 146.355 75.8868C146.249 75.9937 146.104 76.0541 145.952 76.0549H144.787C144.636 76.0541 144.491 75.9937 144.385 75.8867C144.278 75.7797 144.218 75.6349 144.217 75.4838V57.2195Z" fill="#062F4F"/>
<path d="M100.164 58.8643C100.16 58.7787 100.135 58.6953 100.092 58.6209C100.049 58.5465 99.9898 58.4832 99.9181 58.436L98.7061 57.7367C98.6295 57.6979 98.5449 57.6777 98.4591 57.6777C98.3733 57.6777 98.2887 57.6979 98.2122 57.7367L97.0016 58.436C96.9297 58.4831 96.8699 58.5464 96.8269 58.6208C96.7839 58.6952 96.7589 58.7786 96.7539 58.8643V60.2629C96.7589 60.3486 96.7839 60.432 96.8269 60.5064C96.8699 60.5808 96.9297 60.6441 97.0016 60.6912L98.2122 61.3905C98.2889 61.4286 98.3734 61.4484 98.4591 61.4484C98.5448 61.4484 98.6293 61.4286 98.7061 61.3905L99.9181 60.6912C99.9898 60.644 100.049 60.5806 100.092 60.5063C100.135 60.4319 100.16 60.3485 100.164 60.2629V58.8643Z" fill="#87F96E"/>
<path d="M25.7116 63.3085L12.6758 55.7826C12.435 56.3226 12.3066 56.906 12.2985 57.4973V72.8406C12.309 73.5795 12.5066 74.3037 12.873 74.9455C13.2394 75.5873 13.7625 76.1257 14.3934 76.5104L27.8822 84.2986C28.3594 84.5357 28.8758 84.6838 29.4061 84.7356V79.6673C28.7705 79.6069 28.1559 79.408 27.6054 79.0846L27.585 79.0744L18.2613 73.6928C17.7864 73.3825 17.4105 72.7707 17.4105 72.2855C17.4105 71.8004 17.7864 71.6212 18.2613 71.8601L18.2919 71.8791L18.3298 71.898L18.3691 71.9213L25.5309 76.0573L27.872 77.4092C28.3506 77.6509 28.8697 77.802 29.4032 77.855V72.7765C28.7968 72.7171 28.2099 72.5299 27.6812 72.2273V72.2273L27.6462 72.2069L27.6025 72.1836L27.5894 72.1748L18.34 66.8355C18.3327 66.8355 18.324 66.8268 18.3152 66.821L18.2905 66.8064L18.2628 66.7904C17.8403 66.5194 17.5038 65.9746 17.5038 65.5448C17.5038 65.115 17.8403 64.9621 18.2628 65.1733L18.3123 65.2039L27.7584 70.6568C28.266 70.933 28.8238 71.1049 29.3988 71.1623V65.4414L25.7116 63.3085ZM33.4459 60.5508L18.0909 51.686L14.4488 53.7882C13.9347 54.0931 13.4885 54.5002 13.1377 54.9842L29.8417 64.6299L34.7949 61.7687C34.4336 61.2728 33.9726 60.858 33.4415 60.5508M32.0138 70.6102L32.0896 70.5679L35.6413 68.5196V64.3997C35.6413 64.3837 35.6413 64.3677 35.6413 64.3502C35.6413 63.7394 35.5133 63.1355 35.2655 62.5772L30.305 65.4414V71.158C30.9078 71.0959 31.4912 70.9094 32.0182 70.6102M47.4038 57.541C47.404 56.9356 47.2785 56.3368 47.0352 55.7826L41.6828 58.8754C41.8588 59.276 41.9732 59.7008 42.0222 60.1356L42.0514 60.1924V60.5435C42.0514 60.577 42.0514 60.6076 42.0514 60.6411C42.0514 60.6746 42.0514 60.727 42.0514 60.7708V66.4437L32.0211 72.2346H32.0007C31.4785 72.5289 30.9013 72.7124 30.305 72.7736V77.839C30.9005 77.7801 31.4773 77.5986 31.9992 77.3058L42.0514 71.5003V78.3969L45.2185 76.5672C45.2268 76.5591 45.2361 76.5522 45.2462 76.5468C45.9034 76.1599 46.4481 75.6082 46.8265 74.9461C47.2049 74.2841 47.4039 73.5347 47.4038 72.7721C47.4038 72.72 47.4077 72.6678 47.4154 72.6162V57.6837C47.4076 57.6356 47.4037 57.5868 47.4038 57.538M31.9992 79.1428L31.957 79.1632C31.4463 79.4389 30.8856 79.6094 30.3079 79.6644V84.74C30.8972 84.68 31.468 84.4995 31.9847 84.2097L35.6413 82.0958V77.0363L31.9992 79.1428ZM46.9551 35.3476L33.6134 27.6453C33.566 27.6252 33.5198 27.6023 33.475 27.5769C32.79 27.1859 32.0122 26.9868 31.2236 27.0007C30.435 27.0145 29.6647 27.2407 28.9938 27.6555C28.9306 27.694 28.8644 27.7272 28.7957 27.7546L27.2893 28.6287L25.9651 29.3935L39.853 56.8359L39.8749 56.8592C40.4013 57.1659 40.8582 57.5786 41.2166 58.0712L46.5676 54.9711C46.2752 54.5674 45.916 54.2166 45.5055 53.9338" fill="#062F4F"/>
</svg>
