<svg width="163" height="118" viewBox="0 0 163 118" fill="none" xmlns="http://www.w3.org/2000/svg">
<path d="M159 0.494141H3.99998C2.0639 0.494141 0.494385 2.06365 0.494385 3.99974V114C0.494385 115.936 2.0639 117.505 3.99998 117.505H159C160.936 117.505 162.505 115.936 162.505 114V3.99974C162.505 2.06365 160.936 0.494141 159 0.494141Z" fill="white"/>
<path d="M159 0.494141H3.99998C2.0639 0.494141 0.494385 2.06365 0.494385 3.99974V114C0.494385 115.936 2.0639 117.505 3.99998 117.505H159C160.936 117.505 162.505 115.936 162.505 114V3.99974C162.505 2.06365 160.936 0.494141 159 0.494141Z" stroke="#EEECEA" stroke-width="0.988796"/>
<g clip-path="url(#clip0_195_790)">
<path fill-rule="evenodd" clip-rule="evenodd" d="M41.7619 34C28.0862 34 17 45.0981 17 58.7881C17 72.4782 28.0862 83.5763 41.7619 83.5763C55.4376 83.5763 66.5238 72.4782 66.5238 58.7881C66.5238 45.0981 55.4376 34 41.7619 34Z" fill="#4360DF"/>
<path fill-rule="evenodd" clip-rule="evenodd" d="M42.5933 57.7016C43.8367 57.8311 45.0802 57.9607 46.6088 57.8754C50.7506 57.6443 53.2595 55.5162 53.0815 52.3352C52.9 49.0989 49.5622 47.1049 46.2225 47.2913C40.78 47.5948 36.7777 52.3783 36.327 57.8454C37.0661 57.6722 37.8442 57.5687 38.5778 57.5277C40.1066 57.4426 41.35 57.572 42.5933 57.7016ZM31.9241 64.7769C32.0958 67.7436 35.258 69.5715 38.422 69.4005C43.578 69.1222 47.3699 64.7374 47.7968 59.7257C47.0965 59.8847 46.3596 59.9797 45.6644 60.0171C44.2161 60.0953 43.0381 59.9766 41.8601 59.8578C40.6821 59.739 39.5041 59.6203 38.0558 59.6985C34.1322 59.9104 31.7552 61.861 31.9241 64.7769Z" fill="white"/>
<path d="M76.1602 62.9041H79.7395C79.7395 63.5111 79.9104 63.9468 80.2524 64.2114C80.5944 64.4759 81.0336 64.6081 81.5699 64.6081C82.0129 64.6081 82.3744 64.5265 82.6542 64.3631C82.9417 64.1919 83.0855 63.9157 83.0855 63.5344C83.0855 63.3088 83.0234 63.1259 82.899 62.9859C82.7824 62.838 82.5998 62.7097 82.3511 62.6007C82.1024 62.4839 81.7837 62.3673 81.395 62.2505C81.0064 62.1338 80.5401 61.986 79.9959 61.807C79.5063 61.6515 79.0438 61.492 78.6086 61.3285C78.181 61.1574 77.8041 60.9473 77.4776 60.6983C77.1511 60.4493 76.8948 60.1458 76.7081 59.788C76.5294 59.43 76.44 58.9865 76.44 58.4574C76.44 57.8504 76.5604 57.3253 76.8015 56.8818C77.0423 56.4383 77.3805 56.0725 77.8158 55.7846C78.251 55.4968 78.7717 55.2828 79.3781 55.1427C79.9842 54.9948 80.6528 54.9209 81.3833 54.9209C82.2772 54.9209 83.0467 55.0221 83.6919 55.2244C84.337 55.4267 84.8655 55.7029 85.2776 56.053C85.6895 56.4032 85.9926 56.8156 86.1869 57.2902C86.389 57.7648 86.49 58.2745 86.49 58.8192H82.8873C82.8873 58.3445 82.7631 57.9749 82.5143 57.7104C82.2734 57.4459 81.9042 57.3137 81.4066 57.3137C81.0258 57.3137 80.6994 57.3993 80.4273 57.5704C80.1553 57.7337 80.0193 57.9827 80.0193 58.3173C80.0193 58.5429 80.0815 58.7258 80.2058 58.8658C80.338 58.9982 80.5284 59.1187 80.7771 59.2278C81.0258 59.3366 81.3328 59.4494 81.6982 59.5662C82.0635 59.6752 82.4832 59.8074 82.9573 59.9629C83.4703 60.1031 83.9484 60.2586 84.3914 60.4298C84.8345 60.601 85.223 60.8111 85.5573 61.0601C85.8993 61.3014 86.1674 61.6086 86.3617 61.9821C86.5638 62.3479 86.6649 62.8147 86.6649 63.3827C86.6649 64.0519 86.525 64.6237 86.2452 65.0984C85.9653 65.5653 85.5884 65.9464 85.1143 66.2421C84.6478 66.5378 84.1038 66.7479 83.482 66.8724C82.8602 67.0046 82.2072 67.0708 81.5232 67.0708C79.8211 67.0708 78.4997 66.7169 77.5592 66.0087C76.6265 65.2929 76.1602 64.258 76.1602 62.9041Z" fill="black"/>
<path d="M87.5743 57.9555V55.2361H89.3816V51.8164H93.0191V55.2361H95.6424V57.9555H93.0191V62.0755C93.0191 62.5034 93.0579 62.8458 93.1357 63.1025C93.2135 63.3516 93.3222 63.5499 93.4621 63.6977C93.6098 63.8379 93.7847 63.9312 93.9868 63.9779C94.1966 64.0168 94.4299 64.0362 94.6863 64.0362C94.8418 64.0362 95.04 64.0323 95.2809 64.0245C95.5219 64.0091 95.7317 63.9856 95.9105 63.9546V66.7556C95.6385 66.8023 95.2966 66.8452 94.8845 66.8841C94.4803 66.923 94.0024 66.9423 93.4506 66.9423C93.023 66.9423 92.5722 66.9113 92.0981 66.849C91.624 66.7868 91.1847 66.6234 90.7806 66.3589C90.3764 66.0943 90.0422 65.6897 89.7779 65.145C89.5137 64.5925 89.3816 63.8379 89.3816 62.8807V57.9555H87.5743Z" fill="black"/>
<path fill-rule="evenodd" clip-rule="evenodd" d="M97.3678 58.5858C97.0958 59.3249 96.9598 60.1264 96.9598 60.99C96.9598 61.8537 97.0958 62.6552 97.3678 63.3943C97.6476 64.1335 98.0324 64.7716 98.522 65.3084C99.0196 65.8453 99.5986 66.2693 100.259 66.5805C100.928 66.8918 101.643 67.0474 102.405 67.0474C103.291 67.0474 104.052 66.8607 104.69 66.4872C105.327 66.1138 105.789 65.6624 106.077 65.1334V66.7556H109.726V55.2361H106.077V56.8818C105.758 56.3216 105.28 55.8585 104.643 55.4928C104.013 55.1271 103.267 54.9443 102.405 54.9443C101.635 54.9443 100.92 55.0999 100.259 55.4111C99.5986 55.7224 99.0196 56.1464 98.522 56.6834C98.0324 57.2124 97.6476 57.8465 97.3678 58.5858ZM100.784 62.1338C100.652 61.7681 100.586 61.3868 100.586 60.99C100.586 60.5933 100.652 60.2197 100.784 59.8696C100.924 59.5195 101.11 59.2082 101.343 58.9359C101.585 58.6635 101.872 58.4496 102.206 58.2939C102.541 58.1384 102.914 58.0605 103.326 58.0605C103.745 58.0605 104.122 58.1384 104.457 58.2939C104.791 58.4496 105.074 58.6635 105.308 58.9359C105.549 59.2082 105.735 59.5195 105.867 59.8696C106.007 60.2197 106.077 60.5933 106.077 60.99C106.077 61.3946 106.007 61.7759 105.867 62.1338C105.735 62.4917 105.549 62.8031 105.308 63.0676C105.074 63.3243 104.787 63.5344 104.445 63.6977C104.111 63.8534 103.738 63.9312 103.326 63.9312C102.914 63.9312 102.541 63.8534 102.206 63.6977C101.872 63.5344 101.585 63.3243 101.343 63.0676C101.11 62.8031 100.924 62.4917 100.784 62.1338Z" fill="black"/>
<path d="M111.685 57.9555V55.2361H113.492V51.8164H117.13V55.2361H119.753V57.9555H117.13V62.0755C117.13 62.5034 117.169 62.8458 117.246 63.1025C117.324 63.3516 117.432 63.5499 117.573 63.6977C117.721 63.8379 117.895 63.9312 118.097 63.9779C118.307 64.0168 118.54 64.0362 118.797 64.0362C118.953 64.0362 119.151 64.0323 119.391 64.0245C119.633 64.0091 119.842 63.9856 120.021 63.9546V66.7556C119.749 66.8023 119.407 66.8452 118.995 66.8841C118.591 66.923 118.112 66.9423 117.561 66.9423C117.133 66.9423 116.682 66.9113 116.208 66.849C115.734 66.7868 115.295 66.6234 114.891 66.3589C114.487 66.0943 114.152 65.6897 113.889 65.145C113.624 64.5925 113.492 63.8379 113.492 62.8807V57.9555H111.685Z" fill="black"/>
<path d="M121.829 62.0758V55.2363H125.455V61.1421C125.455 61.9668 125.602 62.6398 125.898 63.1612C126.193 63.6747 126.721 63.9315 127.484 63.9315C128.245 63.9315 128.804 63.6708 129.161 63.1495C129.527 62.6203 129.71 61.9084 129.71 61.0136V55.2363H133.359V66.7559H129.71V65.1103C129.391 65.7172 128.905 66.1918 128.252 66.5341C127.599 66.8765 126.818 67.0477 125.909 67.0477C125.116 67.0477 124.463 66.9232 123.95 66.6742C123.445 66.4253 123.033 66.1101 122.715 65.7288C122.349 65.2853 122.108 64.7718 121.991 64.1883C121.883 63.6046 121.829 62.9005 121.829 62.0758Z" fill="black"/>
<path d="M135.714 62.9041H139.294C139.294 63.5111 139.464 63.9468 139.807 64.2114C140.147 64.4759 140.587 64.6081 141.124 64.6081C141.566 64.6081 141.928 64.5265 142.209 64.3631C142.496 64.1919 142.639 63.9157 142.639 63.5344C142.639 63.3088 142.578 63.1259 142.452 62.9859C142.337 62.838 142.154 62.7097 141.905 62.6007C141.657 62.4839 141.337 62.3673 140.949 62.2505C140.561 62.1338 140.093 61.986 139.55 61.807C139.06 61.6515 138.597 61.492 138.162 61.3285C137.735 61.1574 137.358 60.9473 137.032 60.6983C136.705 60.4493 136.449 60.1458 136.262 59.788C136.083 59.43 135.994 58.9865 135.994 58.4574C135.994 57.8504 136.114 57.3253 136.355 56.8818C136.597 56.4383 136.934 56.0725 137.369 55.7846C137.805 55.4968 138.325 55.2828 138.932 55.1427C139.538 54.9948 140.206 54.9209 140.937 54.9209C141.831 54.9209 142.6 55.0221 143.245 55.2244C143.891 55.4267 144.42 55.7029 144.832 56.053C145.244 56.4032 145.546 56.8156 145.741 57.2902C145.943 57.7648 146.044 58.2745 146.044 58.8192H142.441C142.441 58.3445 142.318 57.9749 142.068 57.7104C141.828 57.4459 141.457 57.3137 140.961 57.3137C140.579 57.3137 140.253 57.3993 139.981 57.5704C139.709 57.7337 139.573 57.9827 139.573 58.3173C139.573 58.5429 139.635 58.7258 139.76 58.8658C139.892 58.9982 140.082 59.1187 140.331 59.2278C140.579 59.3366 140.887 59.4494 141.251 59.5662C141.618 59.6752 142.037 59.8074 142.511 59.9629C143.024 60.1031 143.502 60.2586 143.945 60.4298C144.389 60.601 144.777 60.8111 145.111 61.0601C145.453 61.3014 145.721 61.6086 145.916 61.9821C146.118 62.3479 146.219 62.8147 146.219 63.3827C146.219 64.0519 146.079 64.6237 145.799 65.0984C145.519 65.5653 145.141 65.9464 144.668 66.2421C144.202 66.5378 143.657 66.7479 143.036 66.8724C142.414 67.0046 141.761 67.0708 141.077 67.0708C139.375 67.0708 138.054 66.7169 137.113 66.0087C136.18 65.2929 135.714 64.258 135.714 62.9041Z" fill="black"/>
</g>
<defs>
<clipPath id="clip0_195_790">
<rect width="130" height="49.5763" fill="white" transform="translate(17 34)"/>
</clipPath>
</defs>
</svg>
