<svg width="163" height="118" viewBox="0 0 163 118" fill="none" xmlns="http://www.w3.org/2000/svg">
<path d="M159 0.494141H3.99998C2.0639 0.494141 0.494385 2.06365 0.494385 3.99974V114C0.494385 115.936 2.0639 117.505 3.99998 117.505H159C160.936 117.505 162.505 115.936 162.505 114V3.99974C162.505 2.06365 160.936 0.494141 159 0.494141Z" fill="white"/>
<path d="M159 0.494141H3.99998C2.0639 0.494141 0.494385 2.06365 0.494385 3.99974V114C0.494385 115.936 2.0639 117.505 3.99998 117.505H159C160.936 117.505 162.505 115.936 162.505 114V3.99974C162.505 2.06365 160.936 0.494141 159 0.494141Z" stroke="#EEECEA" stroke-width="0.988796"/>
<g clip-path="url(#clip0_195_786)">
<path d="M32.2908 63.1285C32.2908 67.7503 29.7355 70.8166 25.8042 70.8166C23.9841 70.8166 22.4957 70.0277 21.5051 68.6245V70.6507H17V49.7603H21.5053V57.4751C22.4959 56.0945 23.926 55.3054 25.7012 55.3054C29.6595 55.3054 32.2908 58.43 32.2908 63.1281M27.7588 62.9935C27.7588 60.6848 26.4811 59.0532 24.6029 59.0532C22.7828 59.0532 21.5053 60.6849 21.5053 62.9935C21.5053 65.3514 22.7828 66.9609 24.6029 66.9609C26.4811 66.9564 27.7588 65.3291 27.7588 62.9935Z" fill="#044E97"/>
<path d="M39.347 51.1143C39.347 52.634 38.3563 53.7054 36.9801 53.7054C35.5948 53.7054 34.6086 52.6386 34.6086 51.1143C34.6086 49.6215 35.5994 48.5547 36.9801 48.5547C38.3607 48.5547 39.347 49.6215 39.347 51.1143M34.7117 55.476H39.1945V70.6505H34.7117V55.476Z" fill="#044E97"/>
<path d="M51.8801 69.8256C50.7498 70.5139 49.4514 70.8769 48.128 70.8746C45.4204 70.8746 43.4659 69.2161 43.4659 66.0645V59.3627H41.5114V56.1799H43.4705V51.957H47.9488V56.1529H51.6202V59.3626H47.9443V65.3024C47.9443 66.4857 48.4106 66.9923 49.2444 66.9565C49.7152 66.9565 50.3159 66.7638 50.9927 66.4499L51.8801 69.8256Z" fill="#044E97"/>
<path d="M130.079 60.6002V70.5565H125.476V62.0078C125.476 60.1339 124.512 58.991 122.988 58.991C121.235 59.0492 120.168 60.6002 120.168 62.7341V70.5522H115.533V62.0078C115.533 60.134 114.596 58.991 113.072 58.991C111.297 59.0492 110.198 60.6002 110.198 62.7341V70.5522H105.594V54.772H110.198V57.3811C111.189 55.5072 112.852 54.5705 114.963 54.5391C117.317 54.5391 119.061 55.8838 119.787 58.1118C120.724 55.7673 122.495 54.5659 124.875 54.5391C128.044 54.5389 130.079 56.9148 130.079 60.5996" fill="#044E97"/>
<path d="M146.974 64.0297H136.816C137.278 65.9036 138.506 66.9524 140.223 66.9524C141.473 66.9524 142.711 66.3966 143.679 65.3433L146.118 67.9522C144.647 69.7096 142.473 70.727 139.824 70.727C135.112 70.727 132.163 67.5084 132.163 62.7073C132.163 57.8165 135.224 54.5889 139.698 54.5889C144.777 54.598 147.288 58.2604 146.974 64.0297M142.527 61.3041C142.527 59.3722 141.402 58.117 139.743 58.117C138.143 58.117 137.035 59.4035 136.744 61.3041H142.527Z" fill="#044E97"/>
<path d="M85.2197 40.0061C82.2067 39.0262 79.0073 38.7594 75.8736 39.2268C72.7399 39.6943 69.7577 40.8832 67.1619 42.6998C66.4435 42.1915 65.5682 41.9543 64.6915 42.0304C63.8147 42.1065 62.9933 42.4908 62.3732 43.1152C61.7531 43.7397 61.3744 44.5637 61.3044 45.4409C61.2344 46.3181 61.4776 47.1918 61.9908 47.9066C60.2317 50.477 59.0821 53.4148 58.6295 56.4965C58.1769 59.5781 58.4332 62.7224 59.3789 65.6901C60.3245 68.6577 61.9347 71.3706 64.0869 73.6222C66.239 75.8738 68.8764 77.6048 71.7984 78.6835C72.0451 78.7783 72.2965 78.8606 72.5515 78.9301C75.1055 79.7719 77.8013 80.098 80.4824 79.8895C83.1634 79.6809 85.7763 78.9418 88.1694 77.7151C88.9592 77.3132 89.7224 76.861 90.4543 76.3614L92.3205 78.2397C92.4864 78.4099 92.6793 78.3651 92.7598 78.141L94.6838 72.5011C96.8028 69.9256 98.2611 66.8718 98.9319 63.6048C99.6028 60.3379 99.4659 56.9565 98.5333 53.7544C97.6007 50.5523 95.9005 47.6263 93.5803 45.2305C91.2602 42.8347 88.3902 41.0415 85.2197 40.0066V40.0061ZM96.6823 65.2709C96.0291 67.2848 95.0393 69.1734 93.7549 70.8566L87.5821 72.9363C87.5352 72.9445 87.4917 72.9664 87.4572 72.9993C87.4227 73.0321 87.3986 73.0744 87.3881 73.1209C87.3775 73.1674 87.381 73.2159 87.3979 73.2605C87.4149 73.305 87.4447 73.3435 87.4835 73.3712L89.1978 75.0965C88.6091 75.4843 87.9994 75.8391 87.3715 76.1594C83.6786 78.0373 79.4672 78.6372 75.3968 77.8654C71.3265 77.0936 67.627 74.9936 64.8779 71.8942C62.1288 68.7949 60.4853 64.8713 60.2047 60.7379C59.9241 56.6046 61.0224 52.4948 63.3275 49.0524C63.4988 49.1391 63.6765 49.2125 63.8591 49.272C64.5603 49.4998 65.3133 49.5142 66.0227 49.3133C66.7321 49.1125 67.3658 48.7054 67.8435 48.1438C68.3212 47.5822 68.6212 46.8913 68.7056 46.1589C68.79 45.4265 68.6549 44.6855 68.3175 44.0299C70.6822 42.4095 73.3877 41.3542 76.2251 40.9456C79.0624 40.537 81.9557 40.786 84.6816 41.6734C84.9059 41.7496 85.13 41.826 85.3585 41.911C89.909 43.5731 93.6348 46.9396 95.748 51.2989C97.8613 55.6583 98.1963 60.6686 96.6823 65.2704V65.2709Z" fill="#044E97"/>
<path d="M81.7944 61.9493C83.1976 60.4834 84.1613 59.2864 84.6813 58.3451C85.1932 57.4475 85.4649 56.4331 85.4702 55.3999C85.4702 53.5215 84.8113 52.0422 83.5158 50.9484C82.2567 49.8719 80.649 49.2903 78.9926 49.3121C77.2713 49.3121 75.8637 49.6797 74.7564 50.4239C73.6447 51.1634 72.6241 52.2527 71.6947 53.6919L75.2495 55.7988C76.3702 54.0192 77.5566 53.1286 78.8087 53.1271C79.1192 53.116 79.4286 53.1697 79.7173 53.2847C80.0059 53.3997 80.2675 53.5735 80.4853 53.7951C80.7002 54.0143 80.8689 54.2745 80.9813 54.5602C81.0938 54.8459 81.1477 55.1513 81.1399 55.4583C81.1399 56.1172 80.8888 56.803 80.3867 57.5157C79.8847 58.2286 79.0449 59.1805 77.8674 60.3714L72.0352 66.3468V69.6552H86.062V65.6699H78.2082L81.7944 61.9493V61.9493Z" fill="#044E97"/>
</g>
<defs>
<clipPath id="clip0_195_786">
<rect width="130" height="40.9503" fill="white" transform="translate(17 39)"/>
</clipPath>
</defs>
</svg>
