<svg width="24" height="24" viewBox="0 0 24 24" fill="none" xmlns="http://www.w3.org/2000/svg">
<mask id="path-1-inside-1_203_1112" fill="white">
<path fill-rule="evenodd" clip-rule="evenodd" d="M5.27419 2.04399C7.09819 0.819851 8.96628 0.197971 11.3626 0.0118488C11.8514 -0.0273865 13.1474 0.0361266 13.7636 0.124406C18.6246 0.839224 22.6786 4.60974 23.7104 9.36947C24.1799 11.5436 24.0772 13.7471 23.4121 15.7793C22.5856 18.3011 20.8007 20.632 18.6148 22.0717C16.9179 23.1832 14.9322 23.8149 12.6584 23.9716C9.24497 24.2114 5.89035 22.9235 3.37182 20.4017C1.2101 18.2472 0.0950779 15.549 0.00715934 12.2437C-0.0369224 10.6623 0.119568 9.52126 0.559895 8.20884C1.35704 5.82407 3.17125 3.44935 5.27419 2.04399ZM16.8885 2.13693C15.666 1.54448 14.5512 1.20656 13.3431 1.06458C10.3649 0.716858 7.39648 1.5739 5.02954 3.45916C4.51623 3.87039 3.58708 4.82038 3.18594 5.34932C2.08071 6.80838 1.39108 8.37534 1.083 10.1431C0.960794 10.8582 0.960794 12.8119 1.0879 13.6199C1.47924 16.1807 2.49631 18.1788 4.30072 19.9414C6.00742 21.6065 8.13975 22.6249 10.6044 22.953C11.1424 23.0216 12.4921 23.0216 13.1474 22.9481C14.908 22.757 16.5902 22.1646 17.9643 21.244C20.478 19.5694 22.2532 17.0083 22.8057 14.2565C23.7937 9.33023 21.3339 4.29634 16.8885 2.13693ZM7.32345 6.55409C7.54851 6.10853 7.85659 5.85865 8.33096 5.74119C8.50214 5.70195 8.81023 5.76081 9.03994 5.87361C9.9397 6.33389 10.2527 8.29761 9.61202 9.49723C9.34313 10.0066 8.94713 10.266 8.43357 10.266C7.60214 10.266 7.02026 9.34544 7.02026 8.0134C7.02026 7.4207 7.11308 6.96533 7.32345 6.55409ZM15.1278 5.7455C14.5018 5.88748 14.0911 6.35757 13.9003 7.16557C13.7928 7.60623 13.7928 8.42895 13.8954 8.8598C14.1107 9.73131 14.6142 10.2652 15.2304 10.2652C15.9102 10.2652 16.4091 9.78526 16.6486 8.89413C16.7659 8.45837 16.7659 7.56209 16.6535 7.13124C16.4578 6.40661 16.0912 5.92181 15.6266 5.78473C15.3773 5.71117 15.3039 5.70626 15.1278 5.7455ZM18.3314 14.4957C18.0478 14.0796 17.8962 13.7711 17.8913 13.6144C17.8913 13.531 18.0331 13.6485 18.4926 14.1088C19.1283 14.7454 19.5635 15.0489 20.0673 15.2056C20.3411 15.2937 20.3753 15.3574 20.1454 15.3574C20.0771 15.3574 19.7883 15.3035 19.5096 15.2351C19.2307 15.1664 18.9961 15.1176 18.9863 15.1225C18.9814 15.1323 18.9277 15.2596 18.869 15.4065C18.6197 16.0529 17.9692 16.9636 17.3873 17.4877C16.9813 17.855 16.1697 18.3987 15.6757 18.6336C14.5019 19.1919 13.25 19.4661 11.8759 19.471C8.75589 19.4757 6.32062 18.0801 5.17621 15.6416C5.06846 15.4114 4.98054 15.1961 4.98054 15.1666C4.98054 15.0982 4.97074 15.0982 4.54046 15.2108C4.33988 15.2645 4.0318 15.3184 3.85572 15.3332L3.53784 15.3577L3.72372 15.289C4.37417 15.0293 5.01482 14.5838 5.6065 13.9668C5.92438 13.6338 6.00764 13.5703 6.00764 13.6583C6.00274 13.8199 5.84625 14.1431 5.59205 14.4957C5.4696 14.6671 5.37189 14.8434 5.37189 14.8827C5.37189 14.9268 5.46005 15.1274 5.56756 15.3381C6.43303 17.0129 8.28177 18.1929 10.5557 18.5161C11.6168 18.6679 13.2111 18.5894 14.1745 18.3447C15.4803 18.0117 16.5072 17.4386 17.4069 16.5377C17.9058 16.0431 18.4879 15.2498 18.5562 14.9805C18.5807 14.9023 18.5173 14.7699 18.3314 14.4957Z"/>
</mask>
<path fill-rule="evenodd" clip-rule="evenodd" d="M5.27419 2.04399C7.09819 0.819851 8.96628 0.197971 11.3626 0.0118488C11.8514 -0.0273865 13.1474 0.0361266 13.7636 0.124406C18.6246 0.839224 22.6786 4.60974 23.7104 9.36947C24.1799 11.5436 24.0772 13.7471 23.4121 15.7793C22.5856 18.3011 20.8007 20.632 18.6148 22.0717C16.9179 23.1832 14.9322 23.8149 12.6584 23.9716C9.24497 24.2114 5.89035 22.9235 3.37182 20.4017C1.2101 18.2472 0.0950779 15.549 0.00715934 12.2437C-0.0369224 10.6623 0.119568 9.52126 0.559895 8.20884C1.35704 5.82407 3.17125 3.44935 5.27419 2.04399ZM16.8885 2.13693C15.666 1.54448 14.5512 1.20656 13.3431 1.06458C10.3649 0.716858 7.39648 1.5739 5.02954 3.45916C4.51623 3.87039 3.58708 4.82038 3.18594 5.34932C2.08071 6.80838 1.39108 8.37534 1.083 10.1431C0.960794 10.8582 0.960794 12.8119 1.0879 13.6199C1.47924 16.1807 2.49631 18.1788 4.30072 19.9414C6.00742 21.6065 8.13975 22.6249 10.6044 22.953C11.1424 23.0216 12.4921 23.0216 13.1474 22.9481C14.908 22.757 16.5902 22.1646 17.9643 21.244C20.478 19.5694 22.2532 17.0083 22.8057 14.2565C23.7937 9.33023 21.3339 4.29634 16.8885 2.13693ZM7.32345 6.55409C7.54851 6.10853 7.85659 5.85865 8.33096 5.74119C8.50214 5.70195 8.81023 5.76081 9.03994 5.87361C9.9397 6.33389 10.2527 8.29761 9.61202 9.49723C9.34313 10.0066 8.94713 10.266 8.43357 10.266C7.60214 10.266 7.02026 9.34544 7.02026 8.0134C7.02026 7.4207 7.11308 6.96533 7.32345 6.55409ZM15.1278 5.7455C14.5018 5.88748 14.0911 6.35757 13.9003 7.16557C13.7928 7.60623 13.7928 8.42895 13.8954 8.8598C14.1107 9.73131 14.6142 10.2652 15.2304 10.2652C15.9102 10.2652 16.4091 9.78526 16.6486 8.89413C16.7659 8.45837 16.7659 7.56209 16.6535 7.13124C16.4578 6.40661 16.0912 5.92181 15.6266 5.78473C15.3773 5.71117 15.3039 5.70626 15.1278 5.7455ZM18.3314 14.4957C18.0478 14.0796 17.8962 13.7711 17.8913 13.6144C17.8913 13.531 18.0331 13.6485 18.4926 14.1088C19.1283 14.7454 19.5635 15.0489 20.0673 15.2056C20.3411 15.2937 20.3753 15.3574 20.1454 15.3574C20.0771 15.3574 19.7883 15.3035 19.5096 15.2351C19.2307 15.1664 18.9961 15.1176 18.9863 15.1225C18.9814 15.1323 18.9277 15.2596 18.869 15.4065C18.6197 16.0529 17.9692 16.9636 17.3873 17.4877C16.9813 17.855 16.1697 18.3987 15.6757 18.6336C14.5019 19.1919 13.25 19.4661 11.8759 19.471C8.75589 19.4757 6.32062 18.0801 5.17621 15.6416C5.06846 15.4114 4.98054 15.1961 4.98054 15.1666C4.98054 15.0982 4.97074 15.0982 4.54046 15.2108C4.33988 15.2645 4.0318 15.3184 3.85572 15.3332L3.53784 15.3577L3.72372 15.289C4.37417 15.0293 5.01482 14.5838 5.6065 13.9668C5.92438 13.6338 6.00764 13.5703 6.00764 13.6583C6.00274 13.8199 5.84625 14.1431 5.59205 14.4957C5.4696 14.6671 5.37189 14.8434 5.37189 14.8827C5.37189 14.9268 5.46005 15.1274 5.56756 15.3381C6.43303 17.0129 8.28177 18.1929 10.5557 18.5161C11.6168 18.6679 13.2111 18.5894 14.1745 18.3447C15.4803 18.0117 16.5072 17.4386 17.4069 16.5377C17.9058 16.0431 18.4879 15.2498 18.5562 14.9805C18.5807 14.9023 18.5173 14.7699 18.3314 14.4957Z" fill="#424242"/>
<path d="M11.3626 0.0118488L11.44 1.00885L11.4426 1.00864L11.3626 0.0118488ZM5.27419 2.04399L5.82982 2.87542L5.83145 2.87433L5.27419 2.04399ZM13.7636 0.124406L13.9091 -0.864961L13.9054 -0.865486L13.7636 0.124406ZM23.7104 9.36947L24.6879 9.1584L24.6877 9.15762L23.7104 9.36947ZM23.4121 15.7793L24.3624 16.0907L24.3625 16.0904L23.4121 15.7793ZM18.6148 22.0717L19.1628 22.9082L19.1648 22.9068L18.6148 22.0717ZM12.6584 23.9716L12.5896 22.974L12.5883 22.9741L12.6584 23.9716ZM3.37182 20.4017L4.07939 19.6951L4.07774 19.6934L3.37182 20.4017ZM0.00715934 12.2437L1.00681 12.2171L1.00677 12.2158L0.00715934 12.2437ZM0.559895 8.20884L1.50796 8.52692L1.50831 8.52586L0.559895 8.20884ZM13.3431 1.06458L13.4598 0.0714157L13.4591 0.0713275L13.3431 1.06458ZM16.8885 2.13693L17.3254 1.23744L17.3246 1.23703L16.8885 2.13693ZM5.02954 3.45916L4.40651 2.67695L4.4043 2.67873L5.02954 3.45916ZM3.18594 5.34932L2.38916 4.74505L2.38882 4.74551L3.18594 5.34932ZM1.083 10.1431L0.0978412 9.97145L0.0972891 9.97468L1.083 10.1431ZM1.0879 13.6199L2.07643 13.4688L2.07575 13.4645L1.0879 13.6199ZM4.30072 19.9414L3.60194 20.6568L3.6024 20.6572L4.30072 19.9414ZM10.6044 22.953L10.4724 23.9442L10.4778 23.9449L10.6044 22.953ZM13.1474 22.9481L13.0396 21.9539L13.0359 21.9543L13.1474 22.9481ZM17.9643 21.244L17.4099 20.4118L17.4078 20.4132L17.9643 21.244ZM22.8057 14.2565L23.7862 14.4533L23.7862 14.4531L22.8057 14.2565ZM8.33096 5.74119L8.10755 4.76646L8.09906 4.76841L8.0906 4.7705L8.33096 5.74119ZM7.32345 6.55409L8.21374 7.00952L8.21604 7.00496L7.32345 6.55409ZM9.03994 5.87361L9.49537 4.98333L9.48807 4.9796L9.48072 4.97599L9.03994 5.87361ZM9.61202 9.49723L8.72992 9.02615L8.7277 9.03035L9.61202 9.49723ZM13.9003 7.16557L14.8719 7.4026L14.8736 7.39536L13.9003 7.16557ZM15.1278 5.7455L14.9103 4.76943L14.9066 4.77027L15.1278 5.7455ZM13.8954 8.8598L12.9226 9.09149L12.9246 9.0996L13.8954 8.8598ZM16.6486 8.89413L15.683 8.63418L15.6829 8.63457L16.6486 8.89413ZM16.6535 7.13124L17.6211 6.87878L17.6189 6.87054L16.6535 7.13124ZM15.6266 5.78473L15.3436 6.74385L15.3436 6.74385L15.6266 5.78473ZM17.8913 13.6144H16.8913V13.63L16.8918 13.6456L17.8913 13.6144ZM18.3314 14.4957L19.1591 13.9345L19.1578 13.9326L18.3314 14.4957ZM18.4926 14.1088L17.7848 14.8152L17.785 14.8154L18.4926 14.1088ZM20.0673 15.2056L20.3734 14.2536L20.3643 14.2508L20.0673 15.2056ZM19.5096 15.2351L19.2706 16.2061L19.2712 16.2062L19.5096 15.2351ZM18.9863 15.1225L18.5385 14.2284L18.2405 14.3776L18.0916 14.6757L18.9863 15.1225ZM18.869 15.4065L17.9405 15.0349L17.936 15.0466L18.869 15.4065ZM17.3873 17.4877L16.7181 16.7446L16.7165 16.7461L17.3873 17.4877ZM15.6757 18.6336L15.2463 17.7305L15.2462 17.7305L15.6757 18.6336ZM11.8759 19.471L11.8774 20.471L11.8795 20.471L11.8759 19.471ZM5.17621 15.6416L4.27048 16.0655L4.27095 16.0665L5.17621 15.6416ZM4.54046 15.2108L4.28738 14.2433L4.28182 14.2448L4.54046 15.2108ZM3.85572 15.3332L3.93264 16.3302L3.93899 16.3297L3.85572 15.3332ZM3.53784 15.3577L3.19134 14.4196L3.61476 16.3547L3.53784 15.3577ZM3.72372 15.289L4.07023 16.2271L4.08243 16.2226L4.09451 16.2177L3.72372 15.289ZM5.6065 13.9668L6.32825 14.6589L6.32985 14.6573L5.6065 13.9668ZM6.00764 13.6583L7.00718 13.6886L7.00764 13.6734V13.6583H6.00764ZM5.59205 14.4957L4.78085 13.9109L4.77835 13.9144L5.59205 14.4957ZM5.56756 15.3381L4.67685 15.7927L4.67916 15.7971L5.56756 15.3381ZM10.5557 18.5161L10.6973 17.5262L10.6964 17.5261L10.5557 18.5161ZM14.1745 18.3447L14.4207 19.3139L14.4216 19.3137L14.1745 18.3447ZM17.4069 16.5377L16.7028 15.8275L16.6994 15.831L17.4069 16.5377ZM18.5562 14.9805L17.6019 14.6817L17.5937 14.7079L17.587 14.7346L18.5562 14.9805ZM11.2852 -0.985148C8.73458 -0.787044 6.69765 -0.115667 4.71693 1.21366L5.83145 2.87433C7.49873 1.75537 9.19798 1.18299 11.44 1.00885L11.2852 -0.985148ZM13.9054 -0.865486C13.2393 -0.960922 11.8658 -1.03176 11.2826 -0.984945L11.4426 1.00864C11.837 0.976984 13.0556 1.03318 13.6218 1.1143L13.9054 -0.865486ZM24.6877 9.15762C23.5667 3.98645 19.1778 -0.0901715 13.9091 -0.864954L13.6181 1.11377C18.0713 1.76862 21.7905 5.23302 22.7331 9.58132L24.6877 9.15762ZM24.3625 16.0904C25.0851 13.8827 25.1932 11.4986 24.6879 9.1584L22.7329 9.58054C23.1665 11.5885 23.0694 13.6115 22.4617 15.4682L24.3625 16.0904ZM19.1648 22.9068C21.5402 21.3423 23.4657 18.8266 24.3624 16.0907L22.4618 15.4678C21.7054 17.7757 20.0613 19.9216 18.0648 21.2365L19.1648 22.9068ZM12.7271 24.9693C15.1495 24.8023 17.3049 24.1252 19.1628 22.9082L18.0668 21.2351C16.5309 22.2413 14.7149 22.8275 12.5896 22.974L12.7271 24.9693ZM2.66425 21.1083C5.37826 23.8259 9.013 25.2302 12.7285 24.9692L12.5883 22.9741C9.47694 23.1927 6.40245 22.0212 4.07939 19.6951L2.66425 21.1083ZM-0.992487 12.2703C-0.898348 15.8095 0.307002 18.759 2.66589 21.11L4.07774 19.6934C2.1132 17.7354 1.0885 15.2886 1.00681 12.2171L-0.992487 12.2703ZM-0.388168 7.89076C-0.870759 9.32915 -1.03935 10.5891 -0.992452 12.2716L1.00677 12.2158C0.965505 10.7354 1.10989 9.71337 1.50796 8.52692L-0.388168 7.89076ZM4.71856 1.21256C2.43197 2.74065 0.479168 5.29599 -0.388523 7.89182L1.50831 8.52586C2.23491 6.35214 3.91052 4.15805 5.82982 2.87542L4.71856 1.21256ZM13.2264 2.05774C14.3108 2.1852 15.3182 2.48717 16.4524 3.03683L17.3246 1.23703C16.0137 0.601778 14.7915 0.227927 13.4598 0.071416L13.2264 2.05774ZM5.65256 4.24136C7.81386 2.5199 10.517 1.74141 13.2271 2.05783L13.4591 0.0713275C10.2128 -0.307695 6.97909 0.62791 4.40651 2.67695L5.65256 4.24136ZM3.98272 5.95359C4.33311 5.49157 5.20432 4.60047 5.65478 4.23959L4.4043 2.67873C3.82814 3.14032 2.84106 4.14919 2.38916 4.74505L3.98272 5.95359ZM2.06815 10.3148C2.34811 8.7084 2.97131 7.28881 3.98307 5.95314L2.38882 4.74551C1.19012 6.32796 0.434052 8.04228 0.0978465 9.97145L2.06815 10.3148ZM2.07575 13.4645C2.02483 13.1408 1.99256 12.5146 1.99196 11.8458C1.99135 11.1711 2.02316 10.5781 2.06871 10.3116L0.0972891 9.97468C0.020636 10.4232 -0.00865851 11.1646 -0.00804248 11.8476C-0.00742125 12.5363 0.0238623 13.291 0.100043 13.7753L2.07575 13.4645ZM4.9995 19.2261C3.35435 17.619 2.43584 15.8207 2.07642 13.4688L0.0993725 13.7709C0.52265 16.5407 1.63826 18.7385 3.60194 20.6568L4.9995 19.2261ZM10.7364 21.9617C8.47533 21.6607 6.54454 20.7334 4.99904 19.2256L3.6024 20.6572C5.47029 22.4795 7.80417 23.589 10.4724 23.9442L10.7364 21.9617ZM13.0359 21.9543C12.4475 22.0204 11.1787 22.0181 10.731 21.961L10.4778 23.9449C11.1062 24.0251 12.5367 24.0229 13.259 23.9418L13.0359 21.9543ZM17.4078 20.4132C16.1785 21.2368 14.6528 21.7789 13.0396 21.9539L13.2553 23.9422C15.1632 23.7352 17.002 23.0924 18.5209 22.0748L17.4078 20.4132ZM21.8253 14.0596C21.3293 16.5303 19.7217 18.8716 17.4099 20.4118L18.5188 22.0763C21.2342 20.2672 23.1772 17.4864 23.7862 14.4533L21.8253 14.0596ZM16.4516 3.03642C20.4782 4.99241 22.7256 9.57008 21.8253 14.0598L23.7862 14.4531C24.8617 9.09039 22.1896 3.60028 17.3254 1.23744L16.4516 3.03642ZM8.0906 4.7705C7.32416 4.96029 6.78285 5.40638 6.43085 6.10323L8.21604 7.00496C8.31417 6.81068 8.38903 6.75701 8.57132 6.71187L8.0906 4.7705ZM9.48072 4.97599C9.2768 4.87586 9.05505 4.80649 8.84833 4.76761C8.66237 4.73264 8.38649 4.70253 8.10755 4.76646L8.55437 6.71591C8.51871 6.72409 8.49193 6.72697 8.47717 6.72809C8.46184 6.72926 8.45266 6.72905 8.4505 6.72898C8.44724 6.72888 8.45704 6.72909 8.47868 6.73316C8.49938 6.73705 8.52323 6.74304 8.54707 6.75079C8.57119 6.75864 8.58899 6.76623 8.59917 6.77122L9.48072 4.97599ZM10.4941 9.96831C10.9406 9.13224 11.0273 8.10989 10.8913 7.25171C10.7645 6.45084 10.3787 5.43521 9.49537 4.98333L8.58451 6.76388C8.57586 6.75945 8.63717 6.79015 8.72099 6.94391C8.80171 7.09199 8.87475 7.30451 8.91595 7.56462C9.00128 8.10328 8.92409 8.6626 8.72993 9.02615L10.4941 9.96831ZM8.43357 11.266C9.37231 11.266 10.0813 10.7503 10.4963 9.96411L8.7277 9.03035C8.65491 9.16824 8.5939 9.21826 8.56776 9.23534C8.54754 9.24854 8.51357 9.266 8.43357 9.266V11.266ZM6.02026 8.0134C6.02026 8.81056 6.1923 9.57308 6.56857 10.1715C6.95541 10.7867 7.59634 11.266 8.43357 11.266V9.266C8.4184 9.266 8.40897 9.26396 8.39179 9.25323C8.3695 9.2393 8.32039 9.20028 8.26169 9.10692C8.13917 8.91206 8.02026 8.54829 8.02026 8.0134H6.02026ZM6.43317 6.09867C6.13177 6.68786 6.02026 7.30988 6.02026 8.0134H8.02026C8.02026 7.53153 8.09439 7.2428 8.21372 7.00952L6.43317 6.09867ZM14.8736 7.39536C15.0056 6.83633 15.2044 6.75352 15.349 6.72073L14.9066 4.77027C13.7992 5.02144 13.1767 5.87881 12.9271 6.93578L14.8736 7.39536ZM14.8682 8.62812C14.8428 8.52146 14.8186 8.29626 14.8191 8.01831C14.8196 7.74055 14.8448 7.51353 14.8719 7.40259L12.9288 6.92855C12.8484 7.25827 12.8198 7.66294 12.8191 8.01442C12.8184 8.3657 12.8454 8.76729 12.9227 9.09148L14.8682 8.62812ZM15.2304 9.26516C15.2245 9.26516 15.2209 9.26465 15.213 9.26101C15.2033 9.25648 15.1767 9.24181 15.1383 9.20129C15.057 9.11559 14.944 8.93473 14.8663 8.62L12.9246 9.0996C13.1848 10.1527 13.9286 11.2652 15.2304 11.2652V9.26516ZM15.6829 8.63457C15.5941 8.965 15.4809 9.12597 15.41 9.19441C15.3575 9.24513 15.3121 9.26516 15.2304 9.26516V11.2652C15.8285 11.2652 16.3725 11.0452 16.7992 10.6332C17.2076 10.2389 17.4636 9.71439 17.6143 9.15369L15.6829 8.63457ZM15.6859 7.38369C15.7102 7.47706 15.7377 7.70958 15.7372 8.009C15.7366 8.30886 15.7082 8.54057 15.683 8.63418L17.6142 9.15408C17.7063 8.81193 17.7365 8.37763 17.7372 8.01269C17.7379 7.64732 17.7092 7.21627 17.6211 6.87879L15.6859 7.38369ZM15.3436 6.74385C15.3289 6.73952 15.3699 6.74444 15.4451 6.8432C15.5225 6.94498 15.615 7.12125 15.6881 7.39194L17.6189 6.87054C17.387 6.01184 16.868 5.1084 15.9096 4.82562L15.3436 6.74385ZM15.3453 6.72156C15.3584 6.71864 15.3646 6.71746 15.3664 6.71713C15.3679 6.71687 15.3633 6.71775 15.3542 6.71874C15.3448 6.71978 15.332 6.72079 15.3167 6.72109C15.3012 6.72138 15.2864 6.7209 15.2729 6.71986C15.2461 6.7178 15.2338 6.71425 15.246 6.71703C15.2521 6.71843 15.2627 6.72101 15.2795 6.72555C15.2962 6.7301 15.3171 6.73601 15.3436 6.74385L15.9097 4.82562C15.783 4.78824 15.6132 4.74016 15.4266 4.72578C15.2115 4.70919 15.0379 4.741 14.9103 4.76944L15.3453 6.72156ZM16.8918 13.6456C16.9015 13.9554 17.0294 14.2379 17.1115 14.403C17.2125 14.6062 17.3479 14.8282 17.5051 15.0589L19.1578 13.9326C19.0314 13.7471 18.9492 13.6068 18.9023 13.5125C18.8911 13.4901 18.8831 13.4726 18.8776 13.4597C18.8721 13.4467 18.87 13.4406 18.8701 13.4408C18.8702 13.4411 18.8711 13.4437 18.8724 13.4486C18.8738 13.4534 18.8758 13.4612 18.878 13.4717C18.8822 13.491 18.8892 13.5297 18.8908 13.5832L16.8918 13.6456ZM19.2003 13.4023C18.9774 13.1789 18.7925 12.9987 18.6553 12.8857C18.6179 12.8549 18.5695 12.8169 18.5144 12.7803C18.4714 12.7516 18.3661 12.6838 18.2224 12.6384C18.1115 12.6032 17.6736 12.4879 17.2688 12.8158C16.8962 13.1177 16.8913 13.5315 16.8913 13.6144H18.8913C18.8913 13.6765 18.8909 14.0756 18.5279 14.3698C18.1326 14.69 17.7094 14.5738 17.6189 14.5451C17.4957 14.5061 17.4167 14.4522 17.4065 14.4453C17.3841 14.4305 17.375 14.4223 17.384 14.4297C17.4326 14.4697 17.5483 14.5783 17.7848 14.8152L19.2003 13.4023ZM20.3643 14.2508C20.0892 14.1652 19.7922 13.995 19.2001 13.4021L17.785 14.8154C18.4644 15.4957 19.0378 15.9327 19.7702 16.1605L20.3643 14.2508ZM20.1454 16.3574C20.2184 16.3574 20.3813 16.3556 20.5525 16.305C20.6161 16.2861 20.8627 16.2119 21.0619 15.9731C21.1796 15.8319 21.2777 15.6351 21.2949 15.3961C21.3116 15.1657 21.2473 14.9776 21.1819 14.8521C21.0671 14.632 20.9021 14.5126 20.8512 14.4765C20.7777 14.4244 20.7084 14.3882 20.6611 14.3655C20.5647 14.3191 20.4629 14.2824 20.3734 14.2536L19.7612 16.1576C19.8085 16.1729 19.8137 16.1772 19.7935 16.1675C19.7844 16.1631 19.7455 16.1442 19.6947 16.1082C19.6664 16.0882 19.5163 15.9836 19.4086 15.7769C19.3466 15.6582 19.284 15.4765 19.3001 15.2522C19.3169 15.0192 19.4126 14.828 19.526 14.6921C19.7163 14.4639 19.9461 14.3987 19.9849 14.3872C20.1063 14.3513 20.1873 14.3574 20.1454 14.3574V16.3574ZM19.2712 16.2062C19.4274 16.2446 19.5863 16.2789 19.7191 16.3042C19.8051 16.3206 19.9967 16.3574 20.1454 16.3574V14.3574C20.1716 14.3574 20.1909 14.3586 20.1993 14.3592C20.2088 14.3599 20.215 14.3605 20.2167 14.3607C20.2196 14.361 20.216 14.3607 20.2041 14.3589C20.1805 14.3554 20.1432 14.349 20.0937 14.3396C19.9954 14.3208 19.8705 14.294 19.748 14.2639L19.2712 16.2062ZM19.434 16.0167C19.3729 16.0473 19.3187 16.0665 19.2791 16.0787C19.2386 16.091 19.2033 16.099 19.1762 16.1042C19.1236 16.1144 19.0805 16.1182 19.0545 16.12C19.0031 16.1234 18.9629 16.122 18.9457 16.1212C18.9085 16.1195 18.881 16.116 18.8746 16.1152C18.8573 16.113 18.8489 16.1113 18.857 16.1128C18.8692 16.1149 18.8961 16.1202 18.9388 16.1293C19.0219 16.147 19.1399 16.1739 19.2706 16.2061L19.7486 14.264C19.6004 14.2276 19.4617 14.1958 19.3552 14.1731C19.3032 14.162 19.2522 14.1517 19.209 14.144C19.1893 14.1405 19.1587 14.1352 19.1256 14.131C19.1114 14.1292 19.0775 14.1251 19.0357 14.1232C19.0161 14.1223 18.9741 14.1209 18.9212 14.1244C18.9084 14.1253 18.7319 14.1315 18.5385 14.2284L19.434 16.0167ZM19.7974 15.778C19.8249 15.7091 19.8514 15.6447 19.8712 15.5969C19.8812 15.5729 19.8891 15.5541 19.8944 15.5416C19.8972 15.5352 19.8986 15.5318 19.899 15.5309C19.8993 15.5303 19.8985 15.532 19.8971 15.5351C19.8964 15.5367 19.895 15.5399 19.893 15.5441C19.8916 15.5471 19.8872 15.5568 19.8809 15.5693L18.0916 14.6757C18.0634 14.7322 17.991 14.9089 17.9405 15.035L19.7974 15.778ZM18.0565 18.2307C18.7381 17.6169 19.4883 16.5795 19.802 15.7663L17.936 15.0466C17.751 15.5262 17.2003 16.3103 16.7181 16.7446L18.0565 18.2307ZM16.1052 19.5366C16.6875 19.2597 17.5804 18.6615 18.0582 18.2292L16.7165 16.7461C16.3822 17.0485 15.6519 17.5376 15.2463 17.7305L16.1052 19.5366ZM11.8795 20.471C13.391 20.4656 14.7896 20.1625 16.1053 19.5366L15.2462 17.7305C14.2142 18.2214 13.109 18.4666 11.8723 18.471L11.8795 20.471ZM4.27095 16.0665C5.60989 18.9195 8.4439 20.4761 11.8774 20.471L11.8744 18.471C9.06789 18.4752 7.03135 17.2408 6.08147 15.2168L4.27095 16.0665ZM3.98054 15.1666C3.98054 15.2709 3.99722 15.3523 4.00217 15.3763C4.0096 15.4123 4.01765 15.442 4.02298 15.4607C4.03378 15.4985 4.04536 15.5323 4.05373 15.5559C4.07123 15.6051 4.09227 15.6584 4.11298 15.7088C4.15536 15.812 4.21088 15.9381 4.27048 16.0655L6.08194 15.2178C6.03379 15.1149 5.99147 15.0182 5.96295 14.9488C5.94821 14.9129 5.94054 14.8925 5.93819 14.8859C5.93663 14.8815 5.9405 14.8919 5.94607 14.9114C5.94879 14.9209 5.95485 14.9428 5.96094 14.9723C5.96406 14.9875 5.96836 15.0102 5.97209 15.0383C5.97553 15.0642 5.98054 15.1096 5.98054 15.1666H3.98054ZM4.79352 16.1782C4.90351 16.1495 4.97456 16.1311 5.02437 16.1191C5.08765 16.1039 5.06807 16.1113 5.0195 16.1161C4.99536 16.1184 4.90648 16.1267 4.78966 16.1071C4.66239 16.0858 4.44514 16.0213 4.25518 15.8258C4.06789 15.6331 4.01248 15.4208 3.99427 15.3168C3.98507 15.2643 3.98242 15.2226 3.98144 15.202C3.98091 15.1906 3.98071 15.1816 3.98062 15.1762C3.98054 15.1709 3.98054 15.1672 3.98054 15.1666H5.98054C5.98054 15.1648 5.98239 15.0752 5.96428 14.9718C5.94386 14.8551 5.88432 14.6324 5.68939 14.4319C5.49178 14.2286 5.26338 14.1586 5.11984 14.1346C4.98674 14.1123 4.87647 14.1205 4.82421 14.1256C4.66628 14.1411 4.44885 14.2011 4.28739 14.2433L4.79352 16.1782ZM3.93899 16.3297C4.1786 16.3097 4.5454 16.2447 4.7991 16.1768L4.28182 14.2448C4.13437 14.2843 3.885 14.3272 3.77245 14.3366L3.93899 16.3297ZM3.61476 16.3547L3.93263 16.3302L3.77881 14.3361L3.46093 14.3606L3.61476 16.3547ZM3.37721 14.351L3.19134 14.4196L3.88435 16.2957L4.07023 16.2271L3.37721 14.351ZM4.88475 13.2746C4.37414 13.8071 3.849 14.1622 3.35293 14.3603L4.09451 16.2177C4.89934 15.8964 5.65551 15.3604 6.32825 14.6589L4.88475 13.2746ZM7.00764 13.6583C7.00764 13.5987 7.00555 13.4095 6.905 13.2C6.76946 12.9175 6.48163 12.665 6.08492 12.6271C5.79543 12.5994 5.58032 12.7032 5.51437 12.7365C5.42464 12.7817 5.35591 12.8318 5.31721 12.8615C5.1831 12.9645 5.02664 13.126 4.88315 13.2763L6.32985 14.6573C6.50423 14.4746 6.54835 14.4378 6.53534 14.4478C6.52691 14.4542 6.48349 14.4877 6.4147 14.5224C6.36968 14.5451 6.17112 14.6445 5.89441 14.618C5.73556 14.6028 5.56114 14.5464 5.40282 14.4292C5.24886 14.3152 5.15581 14.1776 5.10189 14.0653C5.00713 13.8678 5.00764 13.6959 5.00764 13.6583H7.00764ZM6.40324 15.0805C6.55592 14.8687 6.68948 14.652 6.79029 14.4475C6.87218 14.2814 6.99784 13.9968 7.00718 13.6886L5.0081 13.628C5.00969 13.5754 5.01651 13.5381 5.02012 13.5208C5.024 13.5023 5.02721 13.493 5.02683 13.4941C5.02567 13.4976 5.01751 13.5204 4.99638 13.5633C4.95418 13.6489 4.88238 13.7701 4.78086 13.9109L6.40324 15.0805ZM6.37189 14.8827C6.37189 14.932 6.36815 14.9734 6.36425 15.0042C6.36028 15.0356 6.35532 15.0622 6.35093 15.0828C6.34237 15.1228 6.33293 15.1538 6.32688 15.1724C6.31505 15.2086 6.30439 15.2325 6.30171 15.2385C6.29566 15.252 6.29568 15.2502 6.30694 15.2302C6.32796 15.193 6.36362 15.136 6.40575 15.077L4.77835 13.9144C4.69803 14.0269 4.62361 14.1437 4.56516 14.2473C4.53668 14.2978 4.50462 14.3581 4.47643 14.421C4.46267 14.4517 4.44342 14.4972 4.42576 14.5513C4.41583 14.5817 4.37189 14.713 4.37189 14.8827H6.37189ZM6.45826 14.8835C6.41143 14.7917 6.37217 14.7086 6.34717 14.6508C6.34121 14.637 6.33679 14.6264 6.33372 14.6187C6.33049 14.6107 6.32981 14.6085 6.33079 14.6113C6.33135 14.6129 6.33283 14.6172 6.33487 14.6237C6.33682 14.6299 6.34014 14.6409 6.34395 14.6556C6.34753 14.6694 6.35337 14.6935 6.3587 14.7248C6.36145 14.7409 6.36456 14.7619 6.36706 14.7866C6.36951 14.8108 6.37189 14.8436 6.37189 14.8827H4.37189C4.37189 15.0199 4.40048 15.1286 4.40781 15.157C4.42003 15.2041 4.43365 15.2452 4.44389 15.2743C4.46473 15.3337 4.48923 15.3933 4.51164 15.445C4.5576 15.5513 4.61618 15.6738 4.67686 15.7927L6.45826 14.8835ZM10.6964 17.5261C8.66509 17.2373 7.14006 16.2029 6.45596 14.879L4.67916 15.7971C5.726 17.823 7.89845 19.1485 10.4149 19.5062L10.6964 17.5261ZM13.9283 17.3755C13.0986 17.5862 11.6364 17.6605 10.6973 17.5262L10.414 19.506C11.5971 19.6753 13.3235 19.5926 14.4207 19.3139L13.9283 17.3755ZM16.6994 15.831C15.9347 16.5967 15.0702 17.0843 13.9274 17.3757L14.4216 19.3137C15.8904 18.9391 17.0797 18.2805 18.1145 17.2443L16.6994 15.831ZM17.587 14.7346C17.6089 14.6481 17.6287 14.6397 17.5605 14.7534C17.5092 14.8388 17.4334 14.9518 17.3379 15.0815C17.1452 15.3431 16.9082 15.6239 16.7029 15.8275L18.111 17.2478C18.4045 16.9568 18.708 16.5937 18.9482 16.2677C19.0691 16.1036 19.1828 15.9368 19.2755 15.7824C19.3512 15.6561 19.4694 15.4476 19.5255 15.2265L17.587 14.7346ZM17.5037 15.0569C17.5448 15.1175 17.5737 15.1623 17.5937 15.1953C17.6147 15.2297 17.6194 15.2407 17.6167 15.2347C17.6155 15.2323 17.592 15.1832 17.5761 15.1019C17.5593 15.0156 17.5453 14.8627 17.6019 14.6817L19.5106 15.2793C19.6424 14.8583 19.482 14.5024 19.4288 14.3885C19.3567 14.2341 19.2555 14.0767 19.1591 13.9345L17.5037 15.0569Z" fill="#D7D866" mask="url(#path-1-inside-1_203_1112)"/>
</svg>
