<svg width="185" height="120" viewBox="0 0 185 120" fill="none" xmlns="http://www.w3.org/2000/svg">
<rect x="0.5" y="0.5" width="184" height="119" rx="3.5" fill="white"/>
<g clip-path="url(#clip0_196_770)">
<path fill-rule="evenodd" clip-rule="evenodd" d="M46.0714 31.3984C30.2918 31.3984 17.5 44.204 17.5 60.0001C17.5 75.7964 30.2918 88.6018 46.0714 88.6018C61.8511 88.6018 74.6429 75.7964 74.6429 60.0001C74.6429 44.204 61.8511 31.3984 46.0714 31.3984Z" fill="#4360DF"/>
<path fill-rule="evenodd" clip-rule="evenodd" d="M47.0309 58.7464C48.4655 58.8959 49.9003 59.0454 51.6641 58.947C56.4431 58.6803 59.338 56.2249 59.1326 52.5545C58.9232 48.8202 55.0719 46.5195 51.2184 46.7346C44.9385 47.0848 40.3205 52.6042 39.8005 58.9124C40.6533 58.7125 41.551 58.5931 42.3975 58.5458C44.1615 58.4475 45.5962 58.5969 47.0309 58.7464ZM34.7202 66.9102C34.9184 70.3334 38.5671 72.4424 42.2178 72.2451C48.1671 71.924 52.5422 66.8647 53.0348 61.082C52.2268 61.2654 51.3765 61.375 50.5744 61.4182C48.9033 61.5084 47.544 61.3714 46.1848 61.2344C44.8256 61.0973 43.4663 60.9603 41.7952 61.0506C37.268 61.295 34.5253 63.5458 34.7202 66.9102Z" fill="white"/>
<path d="M85.7617 64.7495H89.8917C89.8917 65.4499 90.089 65.9525 90.4835 66.2579C90.8781 66.5631 91.3849 66.7156 92.0038 66.7156C92.5149 66.7156 92.932 66.6214 93.2549 66.4329C93.5866 66.2354 93.7525 65.9167 93.7525 65.4767C93.7525 65.2164 93.6808 65.0054 93.5373 64.8438C93.4028 64.6732 93.1921 64.5251 92.9052 64.3994C92.6181 64.2647 92.2504 64.13 91.8019 63.9953C91.3535 63.8607 90.8154 63.6901 90.1876 63.4836C89.6227 63.3041 89.0891 63.1201 88.5868 62.9314C88.0935 62.734 87.6586 62.4916 87.2818 62.2043C86.9052 61.917 86.6093 61.5668 86.394 61.1539C86.1878 60.7409 86.0846 60.2291 86.0846 59.6187C86.0846 58.9183 86.2235 58.3124 86.5017 57.8007C86.7796 57.2889 87.1698 56.8669 87.6721 56.5347C88.1742 56.2025 88.7751 55.9557 89.4747 55.794C90.1741 55.6234 90.9455 55.5381 91.7884 55.5381C92.8199 55.5381 93.7078 55.6549 94.4522 55.8883C95.1966 56.1217 95.8064 56.4404 96.2818 56.8444C96.7571 57.2485 97.1068 57.7243 97.331 58.2719C97.5642 58.8195 97.6807 59.4076 97.6807 60.0362H93.5238C93.5238 59.4884 93.3804 59.0619 93.0934 58.7567C92.8154 58.4515 92.3894 58.299 91.8154 58.299C91.3759 58.299 90.9993 58.3977 90.6854 58.5952C90.3715 58.7837 90.2146 59.071 90.2146 59.457C90.2146 59.7174 90.2864 59.9284 90.4298 60.09C90.5823 60.2426 90.802 60.3817 91.089 60.5075C91.3759 60.6331 91.7302 60.7633 92.1517 60.898C92.5732 61.0238 93.0576 61.1763 93.6046 61.3558C94.1966 61.5175 94.7481 61.697 95.2593 61.8945C95.7705 62.0921 96.2189 62.3345 96.6046 62.6218C96.9991 62.9002 97.3085 63.2547 97.5328 63.6856C97.7659 64.1077 97.8826 64.6463 97.8826 65.3017C97.8826 66.0738 97.7212 66.7337 97.3983 67.2813C97.0754 67.82 96.6404 68.2599 96.0934 68.6011C95.5552 68.9422 94.9275 69.1847 94.21 69.3283C93.4926 69.4808 92.7391 69.5572 91.9499 69.5572C89.9859 69.5572 88.4612 69.1488 87.376 68.3317C86.2998 67.5058 85.7617 66.3116 85.7617 64.7495Z" fill="black"/>
<path d="M98.9319 59.0396V55.9018H101.017V51.9561H105.214V55.9018H108.241V59.0396H105.214V63.7935C105.214 64.2872 105.259 64.6823 105.349 64.9785C105.439 65.2659 105.564 65.4947 105.725 65.6653C105.896 65.827 106.098 65.9347 106.331 65.9886C106.573 66.0334 106.842 66.0558 107.138 66.0558C107.317 66.0558 107.546 66.0513 107.824 66.0423C108.102 66.0245 108.344 65.9975 108.551 65.9616V69.1936C108.237 69.2475 107.842 69.2969 107.367 69.3418C106.9 69.3867 106.349 69.4091 105.712 69.4091C105.219 69.4091 104.699 69.3732 104.152 69.3014C103.605 69.2296 103.098 69.0411 102.631 68.7358C102.165 68.4305 101.779 67.9637 101.475 67.3352C101.17 66.6977 101.017 65.827 101.017 64.7226V59.0396H98.9319Z" fill="black"/>
<path fill-rule="evenodd" clip-rule="evenodd" d="M110.232 59.7666C109.918 60.6194 109.761 61.5442 109.761 62.5407C109.761 63.5373 109.918 64.4621 110.232 65.3149C110.555 66.1678 110.999 66.9041 111.564 67.5235C112.138 68.143 112.806 68.6322 113.568 68.9913C114.34 69.3504 115.165 69.5301 116.044 69.5301C117.066 69.5301 117.945 69.3146 118.68 68.8837C119.416 68.4527 119.949 67.9319 120.282 67.3215V69.1933H124.492V55.9016H120.282V57.8004C119.913 57.154 119.362 56.6198 118.627 56.1977C117.9 55.7758 117.039 55.5649 116.044 55.5649C115.156 55.5649 114.331 55.7444 113.568 56.1035C112.806 56.4627 112.138 56.9519 111.564 57.5715C110.999 58.1819 110.555 58.9136 110.232 59.7666ZM114.174 63.8604C114.021 63.4385 113.945 62.9986 113.945 62.5407C113.945 62.0829 114.021 61.6519 114.174 61.2479C114.335 60.8439 114.55 60.4848 114.819 60.1706C115.098 59.8563 115.429 59.6095 115.815 59.4299C116.201 59.2504 116.631 59.1605 117.107 59.1605C117.591 59.1605 118.026 59.2504 118.411 59.4299C118.797 59.6095 119.124 59.8563 119.393 60.1706C119.672 60.4848 119.887 60.8439 120.039 61.2479C120.2 61.6519 120.282 62.0829 120.282 62.5407C120.282 63.0076 120.2 63.4476 120.039 63.8604C119.887 64.2735 119.672 64.6327 119.393 64.9379C119.124 65.2341 118.792 65.4765 118.398 65.665C118.012 65.8446 117.582 65.9344 117.107 65.9344C116.631 65.9344 116.201 65.8446 115.815 65.665C115.429 65.4765 115.098 65.2341 114.819 64.9379C114.55 64.6327 114.335 64.2735 114.174 63.8604Z" fill="black"/>
<path d="M126.752 59.0396V55.9018H128.837V51.9561H133.035V55.9018H136.061V59.0396H133.035V63.7935C133.035 64.2872 133.079 64.6823 133.168 64.9785C133.258 65.2659 133.383 65.4947 133.546 65.6653C133.716 65.827 133.917 65.9347 134.151 65.9886C134.393 66.0334 134.662 66.0558 134.958 66.0558C135.138 66.0558 135.366 66.0513 135.644 66.0423C135.922 66.0245 136.164 65.9975 136.37 65.9616V69.1936C136.057 69.2475 135.662 69.2969 135.187 69.3418C134.72 69.3867 134.168 69.4091 133.531 69.4091C133.039 69.4091 132.518 69.3732 131.971 69.3014C131.424 69.2296 130.917 69.0411 130.451 68.7358C129.984 68.4305 129.599 67.9637 129.295 67.3352C128.99 66.6977 128.837 65.827 128.837 64.7226V59.0396H126.752Z" fill="black"/>
<path d="M138.456 63.7935V55.9019H142.64V62.7162C142.64 63.6678 142.81 64.4444 143.151 65.0459C143.492 65.6384 144.101 65.9347 144.981 65.9347C145.859 65.9347 146.505 65.6339 146.917 65.0324C147.339 64.4219 147.55 63.6004 147.55 62.568V55.9019H151.76V69.1936H147.55V67.2949C147.181 67.9952 146.621 68.5428 145.868 68.9377C145.114 69.3328 144.213 69.5304 143.164 69.5304C142.249 69.5304 141.496 69.3867 140.904 69.0994C140.321 68.8122 139.846 68.4485 139.478 68.0085C139.056 67.4969 138.779 66.9044 138.644 66.231C138.518 65.5575 138.456 64.7451 138.456 63.7935Z" fill="black"/>
<path d="M154.478 64.7495H158.608C158.608 65.4499 158.805 65.9525 159.2 66.2579C159.593 66.5631 160.1 66.7156 160.72 66.7156C161.231 66.7156 161.648 66.6214 161.972 66.4329C162.303 66.2354 162.469 65.9167 162.469 65.4767C162.469 65.2164 162.398 65.0054 162.253 64.8438C162.119 64.6732 161.908 64.5251 161.621 64.3994C161.335 64.2647 160.966 64.13 160.519 63.9953C160.07 63.8607 159.531 63.6901 158.904 63.4836C158.339 63.3041 157.805 63.1201 157.303 62.9314C156.809 62.734 156.375 62.4916 155.998 62.2043C155.621 61.917 155.326 61.5668 155.11 61.1539C154.904 60.7409 154.801 60.2291 154.801 59.6187C154.801 58.9183 154.939 58.3124 155.218 57.8007C155.496 57.2889 155.885 56.8669 156.387 56.5347C156.891 56.2025 157.491 55.9557 158.191 55.794C158.89 55.6234 159.661 55.5381 160.505 55.5381C161.536 55.5381 162.423 55.6549 163.168 55.8883C163.913 56.1217 164.523 56.4404 164.998 56.8444C165.474 57.2485 165.822 57.7243 166.047 58.2719C166.281 58.8195 166.397 59.4076 166.397 60.0362H162.24C162.24 59.4884 162.098 59.0619 161.809 58.7567C161.532 58.4515 161.105 58.299 160.531 58.299C160.092 58.299 159.715 58.3977 159.401 58.5952C159.087 58.7837 158.931 59.071 158.931 59.457C158.931 59.7174 159.002 59.9284 159.146 60.09C159.298 60.2426 159.518 60.3817 159.806 60.5075C160.092 60.6331 160.446 60.7633 160.867 60.898C161.29 61.0238 161.773 61.1763 162.32 61.3558C162.912 61.5175 163.464 61.697 163.975 61.8945C164.487 62.0921 164.935 62.3345 165.32 62.6218C165.715 62.9002 166.024 63.2547 166.249 63.6856C166.482 64.1077 166.599 64.6463 166.599 65.3017C166.599 66.0738 166.437 66.7337 166.114 67.2813C165.792 67.82 165.356 68.2599 164.809 68.6011C164.271 68.9422 163.643 69.1847 162.926 69.3283C162.208 69.4808 161.456 69.5572 160.666 69.5572C158.702 69.5572 157.178 69.1488 156.092 68.3317C155.016 67.5058 154.478 66.3116 154.478 64.7495Z" fill="black"/>
</g>
<rect x="0.5" y="0.5" width="184" height="119" rx="3.5" stroke="#EEECEA"/>
<defs>
<clipPath id="clip0_196_770">
<rect width="150" height="57.2034" fill="white" transform="translate(17.5 31.3984)"/>
</clipPath>
</defs>
</svg>
