<svg width="250" height="180" viewBox="0 0 250 180" fill="none" xmlns="http://www.w3.org/2000/svg">
<rect x="0.754167" y="0.754167" width="248.492" height="178.492" rx="5.27917" fill="white"/>
<g clip-path="url(#clip0_102_99)">
<path d="M50.7471 79.1884L64.8939 71.3083L64.9054 86.6188L53.9463 92.7226C46.4712 96.8867 42.1637 102.349 40.4227 107.198C38.6823 112.047 38.9383 114.827 38.8824 116.039C38.8824 108.32 38.9077 106.012 38.9077 99.5127C38.9077 97.9113 39.0918 96.1495 39.308 95.3062C39.308 95.3062 41.1684 84.5243 50.7471 79.1884Z" fill="#9573F5"/>
<path d="M38.8762 99.8459L38.8835 116.039L25.4994 108.604L25.4936 96.06C25.4897 87.5038 22.8118 81.0838 19.4204 77.2042C16.0299 73.326 13.4769 72.1539 12.4452 71.5157C19.1251 75.1004 20.8922 76.0676 26.5885 79.1277C27.9995 79.8855 29.8366 81.3281 30.468 81.927C30.468 81.927 38.8713 88.8813 38.8762 99.8459Z" fill="#6837F1"/>
<path d="M50.7247 79.1884C56.4351 76.051 60.5829 73.6991 64.8933 71.3083C63.8072 71.8567 61.4901 73.4523 56.3784 74.3218C51.2644 75.1918 44.0759 75.0043 36.6685 70.5263L25.8088 63.961L12.4452 71.5176L27.0562 79.3599C30.6954 81.5443 39.7811 85.2009 50.7247 79.1884Z" fill="#D2C3FB"/>
<path d="M96.0984 84.0893H91.1921V91.9884C91.1921 93.1169 91.4091 93.9271 91.8433 94.4188C92.3065 94.8818 93.1026 95.1134 94.2314 95.1134C94.7815 95.1134 95.4036 95.07 96.0984 94.9831V99.8876C94.6799 100.206 93.4499 100.365 92.4078 100.365C90.15 100.365 88.3989 99.6994 87.1542 98.3684C85.9386 97.0086 85.3306 94.9831 85.3306 92.2922V84.0893H82.0745V79.5755H85.3306V74.4107H91.1921V79.5755H96.0984V84.0893Z" fill="#191919"/>
<path d="M108.799 78.8811C110.622 78.8811 112.301 79.2572 113.835 80.0095C115.398 80.7618 116.657 81.9771 117.613 83.6553C118.568 85.3335 119.046 87.4602 119.046 90.0353C119.046 90.643 119.031 91.1059 119.002 91.4242H104.327C104.558 92.7263 105.05 93.768 105.803 94.5492C106.555 95.3304 107.583 95.7211 108.886 95.7211C110.825 95.7211 112.128 94.8818 112.793 93.2038H118.698C118.148 95.6051 116.976 97.4282 115.181 98.6723C113.416 99.9164 111.303 100.538 108.842 100.538C106.961 100.538 105.224 100.162 103.632 99.41C102.04 98.6288 100.752 97.4282 99.7678 95.8077C98.7837 94.1585 98.2917 92.1042 98.2917 89.6447C98.2917 87.2142 98.7837 85.2033 99.7678 83.6119C100.752 81.9915 102.04 80.8052 103.632 80.0529C105.224 79.2717 106.946 78.8811 108.799 78.8811ZM108.755 83.6987C107.482 83.6987 106.483 84.0893 105.76 84.8705C105.036 85.6228 104.558 86.65 104.327 87.9521H113.141C112.678 85.1165 111.216 83.6987 108.755 83.6987Z" fill="#191919"/>
<path d="M134.251 78.9679C136.451 78.9679 138.129 79.6623 139.287 81.0512C140.445 82.4401 141.024 84.3497 141.024 86.7802V99.8442H135.162V88.2125C135.162 86.9104 134.859 85.9122 134.251 85.2178C133.672 84.5233 132.803 84.1761 131.646 84.1761C130.488 84.1761 129.59 84.5378 128.954 85.2612C128.346 85.9845 128.042 86.9683 128.042 88.2125V99.8442H122.18V79.5755H128.042V82.3533C128.563 81.4852 129.344 80.704 130.386 80.0095C131.457 79.3151 132.746 78.9679 134.251 78.9679Z" fill="#191919"/>
<path d="M158.823 73.4993H164.728V99.8442H158.867V97.6307C158.172 98.5276 157.289 99.2221 156.218 99.7138C155.176 100.206 154.018 100.452 152.745 100.452C151.066 100.452 149.575 100.047 148.273 99.2365C146.97 98.3975 145.957 97.1678 145.233 95.5473C144.51 93.9271 144.148 91.9884 144.148 89.7316C144.148 86.3173 144.929 83.6698 146.492 81.789C148.084 79.9083 150.169 78.9679 152.745 78.9679C154.018 78.9679 155.176 79.2138 156.218 79.7057C157.26 80.1976 158.129 80.892 158.823 81.789V73.4993ZM154.612 95.5039C156.146 95.5039 157.289 94.9687 158.042 93.8981C158.823 92.8275 159.214 91.4387 159.214 89.7316C159.214 88.0244 158.823 86.6356 158.042 85.565C157.289 84.4655 156.146 83.9157 154.612 83.9157C153.078 83.9157 151.949 84.4365 151.225 85.4782C150.502 86.5198 150.14 87.9376 150.14 89.7316C150.14 91.5255 150.502 92.9434 151.225 93.985C151.949 94.9978 153.078 95.5039 154.612 95.5039Z" fill="#191919"/>
<path d="M178.324 78.8811C180.147 78.8811 181.826 79.2572 183.36 80.0095C184.923 80.7618 186.182 81.9771 187.138 83.6553C188.093 85.3335 188.57 87.4602 188.57 90.0353C188.57 90.643 188.556 91.1059 188.527 91.4242H173.852C174.083 92.7263 174.575 93.768 175.328 94.5492C176.08 95.3304 177.108 95.7211 178.41 95.7211C180.35 95.7211 181.653 94.8818 182.318 93.2038H188.223C187.673 95.6051 186.501 97.4282 184.706 98.6723C182.94 99.9164 180.828 100.538 178.367 100.538C176.486 100.538 174.749 100.162 173.157 99.41C171.565 98.6288 170.277 97.4282 169.293 95.8077C168.308 94.1585 167.816 92.1042 167.816 89.6447C167.816 87.2142 168.308 85.2033 169.293 83.6119C170.277 81.9915 171.565 80.8052 173.157 80.0529C174.749 79.2717 176.471 78.8811 178.324 78.8811ZM178.28 83.6987C177.007 83.6987 176.008 84.0893 175.284 84.8705C174.561 85.6228 174.083 86.65 173.852 87.9521H182.666C182.202 85.1165 180.741 83.6987 178.28 83.6987Z" fill="#191919"/>
<path d="M197.523 83.0911C198.189 81.6733 198.985 80.6316 199.911 79.9662C200.838 79.3006 201.923 78.9679 203.168 78.9679C203.689 78.9679 204.34 79.0403 205.122 79.1849V85.3046H204.948C204.108 84.9574 203.283 84.7837 202.473 84.7837C201.055 84.7837 199.882 85.2901 198.956 86.3028C198.03 87.2866 197.567 88.661 197.567 90.426V99.8442H191.705V79.5755H197.523V83.0911Z" fill="#191919"/>
<path d="M213.647 99.8442H207.785V73.4559H213.647V99.8442Z" fill="#191919"/>
<path d="M226.678 93.5077L231.106 79.5756H237.445L227.199 106.832H220.773L223.725 100.148L215.997 79.5756H222.336L226.678 93.5077Z" fill="#191919"/>
</g>
<rect x="0.754167" y="0.754167" width="248.492" height="178.492" rx="5.27917" stroke="#EEECEA" stroke-width="1.50833"/>
<defs>
<clipPath id="clip0_102_99">
<rect width="225" height="52.078" fill="white" transform="translate(12.5 63.961)"/>
</clipPath>
</defs>
</svg>
