<svg width="165" height="100" viewBox="0 0 165 100" fill="none" xmlns="http://www.w3.org/2000/svg">
<rect x="0.5" y="0.5" width="164" height="99" rx="3.5" fill="white"/>
<path d="M28.3435 37.9146C29.0804 37.104 29.891 36.3671 30.849 35.7776C29.5963 35.4828 28.2698 35.2617 26.9434 35.2617C18.9111 35.4091 12.5 41.9676 12.5 49.9262C12.5 58.2533 19.2059 64.738 26.8697 64.738C28.1961 64.738 29.5226 64.5907 30.7753 64.2222C29.891 63.559 29.0804 62.8221 28.3435 62.0115C19.1322 61.7904 15.1529 55.8951 15.1529 49.9262C15.1529 43.9572 19.5743 37.6198 28.3435 37.9146Z" fill="black"/>
<path d="M40.871 64.6644C38.7339 64.6644 36.6706 64.2959 34.6809 63.4116C32.9124 62.6747 31.2912 61.5693 29.9647 60.1692C28.6383 58.8428 27.6066 57.2216 26.9434 55.453C25.5433 51.8422 25.5433 47.8628 26.9434 44.3257C27.6066 42.5571 28.6383 41.0096 29.891 39.6832C31.2175 38.283 32.8387 37.1777 34.6072 36.4408C36.5969 35.6302 38.6602 35.2617 40.7973 35.2617C42.9343 35.2617 44.9976 35.7039 46.9136 36.5882C48.6822 37.3988 50.2297 38.5778 51.4824 40.0516C52.7352 41.4517 53.6932 43.0729 54.2827 44.7678C54.9459 46.389 55.2407 48.1576 55.2407 49.9262C55.2407 51.6948 54.8722 53.4633 54.2827 55.0845C53.9879 55.9688 53.5458 56.7794 53.1036 57.59C52.5878 58.4006 52.072 59.1375 51.4824 59.8744C50.2297 61.3483 48.6822 62.5273 46.9136 63.3379C44.9976 64.2222 42.9343 64.6644 40.871 64.6644ZM40.6499 37.7672C33.4282 37.7672 28.4909 44.0309 28.4909 49.9262C28.4172 56.5584 33.723 62.0115 40.3551 62.0852C40.4288 62.0852 40.5025 62.0852 40.5762 62.0852C48.1664 62.0852 52.6615 55.8951 52.6615 49.9262C52.7352 44.0309 48.0927 37.7672 40.6499 37.7672Z" fill="black"/>
<path d="M35.86 41.5996C36.6706 41.2311 37.5549 40.8627 38.4392 40.6416C40.3551 43.2208 41.8289 45.7263 41.8289 50.074C41.7553 53.4638 40.5762 56.7062 38.4392 59.2854C37.5549 59.0643 36.7443 58.6958 35.9337 58.2537C38.0707 55.9693 39.2498 52.948 39.2498 49.853C39.2498 46.8316 38.0707 43.8103 35.86 41.5996Z" fill="#CF6035"/>
<path d="M64.8817 37.977V43.2828H65.9133C65.9133 43.2828 67.3135 39.1561 69.1557 39.1561H71.5875V53.8205C71.5875 55.2944 70.6295 55.6628 68.7136 55.6628V56.6208H79.104V55.6628C79.104 55.6628 76.23 55.7365 76.23 53.8205V39.0824H78.3671C79.9146 39.0824 81.0936 40.9983 81.9042 43.2091H83.0096V37.9033H64.8817V37.977Z" fill="black"/>
<path d="M96.7161 56.6196H86.8415V55.5143C88.9786 55.5143 89.5681 55.0722 89.5681 53.5983V40.6288C89.5681 39.8182 88.8312 39.376 88.1679 39.2286C87.7258 39.0813 87.2837 39.0075 86.7678 39.0075V37.9759H97.5267C98.9268 37.9022 100.327 38.1233 101.653 38.5654C103.496 39.2286 104.454 40.5551 104.454 42.3236C104.454 43.2079 104.233 44.1659 103.717 44.9028C103.275 45.566 102.759 46.0819 102.169 46.4503C101.432 46.8925 100.695 47.2609 99.8848 47.4083C99.9585 47.482 104.675 53.3773 105.633 54.4826C106.296 55.1458 107.254 55.5143 108.212 55.5143H108.286V56.6196H101.064C98.5583 52.6403 95.0949 48.2926 95.0212 48.2189H94.2106V53.5983C94.1369 54.3352 94.579 54.9248 95.2423 55.2195C95.6844 55.4406 96.1265 55.5143 96.6424 55.5143C96.7161 55.5143 96.7161 55.5143 96.7161 55.5143V56.6196ZM94.2106 39.1549V46.8925H95.4633C97.8951 46.8925 99.2953 45.345 99.2953 42.6921C99.2953 39.5971 96.9372 39.1549 95.4633 39.1549H94.2106Z" fill="black"/>
<path d="M127.814 37.9025H126.561L125.824 38.5658C124.203 37.8288 122.508 37.4604 120.739 37.3867C115.212 37.3867 110.349 40.7028 110.349 47.4823C110.349 54.2619 115.507 57.0622 120.371 57.0622C123.318 57.0622 126.192 56.3252 128.698 54.8514V47.9245H121.402V48.9562C121.402 48.9562 124.203 48.8825 124.203 50.8721V54.5567C123.245 55.3673 121.992 55.7357 120.739 55.7357C118.455 55.7357 115.581 53.8198 115.581 47.1876C115.581 40.5554 118.75 38.5658 120.739 38.5658C122.729 38.5658 125.161 39.4501 126.782 44.6821H127.961L127.814 37.9025Z" fill="black"/>
<path d="M150.731 37.9762H149.405L148.668 38.6394C147.194 37.8289 145.499 37.3867 143.804 37.3867C138.278 37.3867 133.561 40.9976 133.561 47.556C133.561 54.1145 138.351 57.0622 143.804 57.0622C149.258 57.0622 151.542 51.9038 151.542 51.9038L150.437 51.1669C150.437 51.1669 148.3 55.2199 144.541 55.2199C140.783 55.2199 138.794 52.0512 138.794 47.1139C138.794 42.1766 140.488 38.6394 143.804 38.6394C147.121 38.6394 148.668 41.8819 149.552 44.7558H150.805L150.731 37.9762Z" fill="black"/>
<path d="M66.0607 64.7256H152.5" stroke="black" stroke-width="3" stroke-linecap="round"/>
<rect x="0.5" y="0.5" width="164" height="99" rx="3.5" stroke="#EEECEA"/>
</svg>
