<svg width="18" height="16" viewBox="0 0 18 16" fill="none" xmlns="http://www.w3.org/2000/svg">
<path d="M15.6625 3.22235C16.4095 2.77576 16.9685 2.07255 17.235 1.24402C16.5331 1.66052 15.765 1.95392 14.9642 2.11152C13.8538 0.936958 12.0946 0.651123 10.6695 1.41373C9.24442 2.17634 8.50626 3.79859 8.86751 5.37402C5.99219 5.22966 3.31332 3.87145 1.49751 1.63735C0.54988 3.27187 1.03414 5.36134 2.60418 6.41235C2.03644 6.3941 1.48129 6.24038 0.985013 5.96402C0.985013 5.97902 0.985013 5.99402 0.985013 6.00902C0.985341 7.71165 2.18532 9.17825 3.85418 9.51569C3.32757 9.65896 2.77519 9.68005 2.23918 9.57735C2.70851 11.0334 4.05047 12.0309 5.58001 12.0607C4.31321 13.055 2.74874 13.5942 1.13835 13.5915C0.852905 13.5919 0.567688 13.5755 0.28418 13.5424C1.9195 14.5932 3.82282 15.151 5.76668 15.149C8.47105 15.1676 11.07 14.1014 12.9823 12.189C14.8945 10.2766 15.9605 7.67756 15.9417 4.97318C15.9417 4.81818 15.9381 4.66402 15.9308 4.51068C16.6312 4.00452 17.2357 3.37748 17.7158 2.65902C17.0634 2.94824 16.3712 3.13812 15.6625 3.22235Z" fill="white"/>
</svg>
