<svg width="165" height="100" viewBox="0 0 165 100" fill="none" xmlns="http://www.w3.org/2000/svg">
<rect x="0.5" y="0.5" width="164" height="99" rx="3.5" fill="white"/>
<path d="M70.5242 52.5177C71.4788 52.5177 72.3367 52.7198 73.0978 53.124C73.859 53.5283 74.4567 54.0873 74.891 54.8011C75.3253 55.515 75.5425 56.3191 75.5425 57.2135C75.5425 58.108 75.3253 58.9121 74.891 59.626C74.4567 60.3398 73.859 60.8988 73.0978 61.303C72.3367 61.7073 71.4788 61.9094 70.5242 61.9094C69.5695 61.9094 68.7116 61.7073 67.9505 61.303C67.1893 60.8988 66.5916 60.3398 66.1573 59.626C65.723 58.9121 65.5058 58.108 65.5058 57.2135C65.5058 56.3191 65.723 55.515 66.1573 54.8011C66.5916 54.0873 67.1893 53.5283 67.9505 53.124C68.7116 52.7198 69.5695 52.5177 70.5242 52.5177ZM117.624 52.5177C118.218 52.5177 118.803 52.5844 119.379 52.7177C119.955 52.851 120.462 53.0466 120.901 53.3047L120.114 55.201C119.254 54.7366 118.42 54.5044 117.611 54.5044C117.104 54.5044 116.734 54.5797 116.502 54.7302C116.27 54.8807 116.154 55.0763 116.154 55.3172C116.154 55.558 116.291 55.7386 116.566 55.859C116.842 55.9794 117.285 56.1041 117.895 56.2331C118.583 56.3793 119.153 56.5363 119.605 56.704C120.056 56.8717 120.447 57.1383 120.778 57.5038C121.11 57.8693 121.275 58.366 121.275 58.9938C121.275 59.5357 121.125 60.0259 120.824 60.4645C120.523 60.9031 120.071 61.2536 119.469 61.5159C118.867 61.7782 118.136 61.9094 117.276 61.9094C116.545 61.9094 115.835 61.8191 115.147 61.6384C114.459 61.4578 113.9 61.217 113.47 60.916L114.309 59.0325C114.713 59.2991 115.182 59.5141 115.715 59.6776C116.248 59.841 116.773 59.9227 117.289 59.9227C118.269 59.9227 118.76 59.6776 118.76 59.1873C118.76 58.9293 118.62 58.738 118.34 58.6133C118.061 58.4885 117.611 58.3574 116.992 58.2198C116.313 58.0736 115.745 57.9166 115.289 57.7489C114.833 57.5812 114.442 57.3124 114.115 56.9426C113.788 56.5728 113.625 56.074 113.625 55.4462C113.625 54.8957 113.776 54.3991 114.077 53.9561C114.378 53.5132 114.827 53.1628 115.425 52.9047C116.022 52.6467 116.756 52.5177 117.624 52.5177ZM59.5844 52.6983C60.5735 52.6983 61.4507 52.8832 62.2162 53.2531C62.9816 53.6229 63.575 54.1475 63.9965 54.8269C64.4179 55.5064 64.6286 56.3019 64.6286 57.2135C64.6286 58.1252 64.4179 58.9207 63.9965 59.6002C63.575 60.2796 62.9816 60.8042 62.2162 61.174C61.4507 61.5438 60.5735 61.7288 59.5844 61.7288H55.3143V52.6983H59.5844ZM78.987 52.6983L82.1605 57.9102L85.2566 52.6983H87.3594L87.3852 61.7288H85.0373L85.0115 56.9426L82.6894 60.8386H81.5542L79.245 57.0716V61.7288H76.8842V52.6983H78.987ZM94.6096 52.6983L98.6088 61.7288H95.9512L95.2417 59.9743H91.4231L90.7136 61.7288H88.1077L92.094 52.6983H94.6096ZM101.886 52.6983V61.7288H99.3312V52.6983H101.886ZM105.807 52.6983L109.794 57.5103V52.6983H112.296V61.7288H110.194L106.207 56.9168V61.7288H103.705V52.6983H105.807ZM70.5242 54.6334C70.0683 54.6334 69.6555 54.7409 69.2857 54.9559C68.9159 55.1709 68.6235 55.4741 68.4085 55.8654C68.1934 56.2567 68.0859 56.7061 68.0859 57.2135C68.0859 57.721 68.1934 58.1703 68.4085 58.5617C68.6235 58.953 68.9159 59.2561 69.2857 59.4711C69.6555 59.6862 70.0683 59.7937 70.5242 59.7937C70.98 59.7937 71.3928 59.6862 71.7626 59.4711C72.1324 59.2561 72.4248 58.953 72.6399 58.5617C72.8549 58.1703 72.9624 57.721 72.9624 57.2135C72.9624 56.7061 72.8549 56.2567 72.6399 55.8654C72.4248 55.4741 72.1324 55.1709 71.7626 54.9559C71.3928 54.7409 70.98 54.6334 70.5242 54.6334ZM59.4812 54.7366H57.8687V59.6905H59.4812C60.2553 59.6905 60.8767 59.4711 61.3454 59.0325C61.8141 58.5939 62.0485 57.9876 62.0485 57.2135C62.0485 56.4395 61.8141 55.8332 61.3454 55.3946C60.8767 54.9559 60.2553 54.7366 59.4812 54.7366ZM93.3324 55.201L92.1714 58.0908H94.4935L93.3324 55.201ZM57.7913 38.6249V43.553C57.7913 44.9978 58.3632 45.7203 59.507 45.7203C60.6423 45.7203 61.2099 44.9978 61.2099 43.553V38.6249H63.7255V43.6304C63.7255 44.972 63.3536 46.0084 62.6096 46.7394C61.8657 47.4705 60.8229 47.836 59.4812 47.836C58.1396 47.836 57.0968 47.4705 56.3528 46.7394C55.6089 46.0084 55.2369 44.972 55.2369 43.6304V38.6249H57.7913ZM96.9446 38.4443C97.8992 38.4443 98.7571 38.6464 99.5183 39.0507C100.279 39.4549 100.877 40.0139 101.311 40.7277C101.746 41.4416 101.963 42.2457 101.963 43.1402C101.963 44.0346 101.746 44.8387 101.311 45.5526C100.877 46.2664 100.279 46.8254 99.5183 47.2296C98.7571 47.6339 97.8992 47.836 96.9446 47.836C95.9899 47.836 95.1321 47.6339 94.3709 47.2296C93.6098 46.8254 93.0121 46.2664 92.5777 45.5526C92.1434 44.8387 91.9263 44.0346 91.9263 43.1402C91.9263 42.2457 92.1434 41.4416 92.5777 40.7277C93.0121 40.0139 93.6098 39.4549 94.3709 39.0507C95.1321 38.6464 95.9899 38.4443 96.9446 38.4443ZM79.374 38.4443C79.9674 38.4443 80.5522 38.511 81.1285 38.6443C81.7047 38.7776 82.2121 38.9733 82.6507 39.2313L81.8638 41.1277C81.0037 40.6632 80.1695 40.431 79.3611 40.431C78.8536 40.431 78.4838 40.5063 78.2516 40.6568C78.0194 40.8073 77.9033 41.003 77.9033 41.2438C77.9033 41.4846 78.0409 41.6652 78.3161 41.7856C78.5913 41.906 79.0342 42.0307 79.6449 42.1597C80.3329 42.3059 80.9027 42.4629 81.3542 42.6306C81.8057 42.7983 82.197 43.0649 82.5282 43.4304C82.8593 43.7959 83.0248 44.2926 83.0248 44.9204C83.0248 45.4623 82.8743 45.9525 82.5733 46.3911C82.2723 46.8297 81.8208 47.1802 81.2188 47.4425C80.6167 47.7048 79.8857 47.836 79.0257 47.836C78.2946 47.836 77.5851 47.7457 76.8971 47.5651C76.209 47.3845 75.65 47.1436 75.22 46.8426L76.0585 44.9591C76.4627 45.2258 76.9315 45.4408 77.4647 45.6042C77.9979 45.7676 78.5225 45.8493 79.0386 45.8493C80.019 45.8493 80.5092 45.6042 80.5092 45.1139C80.5092 44.8559 80.3695 44.6646 80.09 44.5399C79.8104 44.4152 79.3611 44.284 78.7418 44.1464C78.0624 44.0002 77.4948 43.8432 77.039 43.6755C76.5831 43.5078 76.1918 43.2391 75.865 42.8692C75.5382 42.4994 75.3748 42.0006 75.3748 41.3728C75.3748 40.8223 75.5253 40.3257 75.8263 39.8828C76.1273 39.4398 76.5767 39.0894 77.1744 38.8314C77.7721 38.5733 78.5053 38.4443 79.374 38.4443ZM91.436 38.6249V40.6503H88.6753V47.6554H86.121V40.6503H83.3474V38.6249H91.436ZM67.557 38.6249L71.5433 43.4369V38.6249H74.046V47.6554H71.9432L67.9569 42.8434V47.6554H65.4542V38.6249H67.557ZM107.433 38.6249C108.25 38.6249 108.959 38.7604 109.561 39.0313C110.163 39.3022 110.628 39.6892 110.955 40.1924C111.281 40.6955 111.445 41.2868 111.445 41.9662C111.445 42.6456 111.281 43.2348 110.955 43.7336C110.628 44.2324 110.163 44.6173 109.561 44.8882C108.959 45.1591 108.25 45.2946 107.433 45.2946H105.859V47.6554H103.305V38.6249H107.433ZM127.738 38.6249L131.738 47.6554H129.08L128.37 45.9009H124.552L123.842 47.6554H121.236L125.223 38.6249H127.738ZM137.078 38.6249C138.231 38.6249 139.108 38.8378 139.71 39.2635C140.312 39.6892 140.613 40.2633 140.613 40.9858C140.613 41.4158 140.508 41.8006 140.297 42.1404C140.086 42.4801 139.788 42.7488 139.4 42.9466C139.917 43.1273 140.321 43.4089 140.613 43.7916C140.906 44.1744 141.052 44.6366 141.052 45.1785C141.052 45.9697 140.734 46.5803 140.097 47.0103C139.461 47.4404 138.54 47.6554 137.336 47.6554H132.46V38.6249H137.078ZM144.935 38.6249V45.63H149.244V47.6554H142.381V38.6249H144.935ZM157.332 38.6249V40.5987H152.778V42.121H156.79V44.0303H152.778V45.6816H157.5V47.6554H150.25V38.6249H157.332ZM116.941 38.6249C117.758 38.6249 118.467 38.7604 119.069 39.0313C119.671 39.3022 120.136 39.6892 120.462 40.1924C120.789 40.6955 120.953 41.2868 120.953 41.9662C120.953 42.6456 120.789 43.2348 120.462 43.7336C120.136 44.2324 119.671 44.6173 119.069 44.8882C118.467 45.1591 117.758 45.2946 116.941 45.2946H115.367V47.6554H112.812V38.6249H116.941ZM137.13 43.9787H134.988V45.8106H137.13C138.024 45.8106 138.472 45.5053 138.472 44.8946C138.472 44.284 138.024 43.9787 137.13 43.9787ZM96.9446 40.56C96.4888 40.56 96.076 40.6675 95.7061 40.8825C95.3363 41.0976 95.0439 41.4007 94.8289 41.792C94.6139 42.1834 94.5064 42.6327 94.5064 43.1402C94.5064 43.6476 94.6139 44.0969 94.8289 44.4883C95.0439 44.8796 95.3363 45.1827 95.7061 45.3978C96.076 45.6128 96.4888 45.7203 96.9446 45.7203C97.4004 45.7203 97.8132 45.6128 98.183 45.3978C98.5529 45.1827 98.8453 44.8796 99.0603 44.4883C99.2753 44.0969 99.3828 43.6476 99.3828 43.1402C99.3828 42.6327 99.2753 42.1834 99.0603 41.792C98.8453 41.4007 98.5529 41.0976 98.183 40.8825C97.8132 40.6675 97.4004 40.56 96.9446 40.56ZM126.461 41.1277L125.3 44.0174H127.622L126.461 41.1277ZM107.278 40.6374H105.859V43.2821H107.278C107.803 43.2821 108.198 43.1681 108.465 42.9402C108.731 42.7123 108.865 42.3876 108.865 41.9662C108.865 41.5448 108.731 41.218 108.465 40.9858C108.198 40.7535 107.803 40.6374 107.278 40.6374ZM116.786 40.6374H115.367V43.2821H116.786C117.31 43.2821 117.706 43.1681 117.973 42.9402C118.239 42.7123 118.372 42.3876 118.372 41.9662C118.372 41.5448 118.239 41.218 117.973 40.9858C117.706 40.7535 117.31 40.6374 116.786 40.6374ZM136.743 40.4697H134.988V42.2113H136.743C137.603 42.2113 138.033 41.9189 138.033 41.3341C138.033 40.7578 137.603 40.4697 136.743 40.4697Z" fill="black"/>
<path fill-rule="evenodd" clip-rule="evenodd" d="M45.029 33.5811V46.4817L7.5 61.7278L45.029 33.5811Z" fill="#2FE9FF"/>
<path fill-rule="evenodd" clip-rule="evenodd" d="M37.9923 32.9951V55.278C37.9923 61.7551 32.7416 67.0058 26.2645 67.0058C19.7874 67.0058 14.5367 61.7551 14.5367 55.278V45.8957L21.5734 42.0255V55.278C21.5734 57.545 23.4111 59.3827 25.6781 59.3827C27.9451 59.3827 29.7829 57.545 29.7829 55.278V37.5103L37.9923 32.9951Z" fill="#4C47F7"/>
<rect x="0.5" y="0.5" width="164" height="99" rx="3.5" stroke="#EEECEA"/>
</svg>
