<svg width="109" height="100" viewBox="0 0 109 100" fill="none" xmlns="http://www.w3.org/2000/svg">
<path d="M0.0265001 84V75.6H0.6385V84H0.0265001ZM11.1736 77.688C11.6776 77.688 12.1136 77.788 12.4816 77.988C12.8576 78.18 13.1496 78.476 13.3576 78.876C13.5656 79.268 13.6696 79.756 13.6696 80.34V84H13.0696V80.388C13.0696 79.684 12.8976 79.148 12.5536 78.78C12.2096 78.412 11.7296 78.228 11.1136 78.228C10.6416 78.228 10.2336 78.328 9.88956 78.528C9.54556 78.728 9.28156 79.008 9.09756 79.368C8.91356 79.728 8.82156 80.16 8.82156 80.664V84H8.22156V80.388C8.22156 79.684 8.04956 79.148 7.70556 78.78C7.36156 78.412 6.88156 78.228 6.26556 78.228C5.79356 78.228 5.38556 78.328 5.04156 78.528C4.69756 78.728 4.43356 79.008 4.24956 79.368C4.06556 79.728 3.97356 80.16 3.97356 80.664V84H3.37356V77.736H3.94956V79.464L3.86556 79.272C4.04956 78.784 4.35756 78.4 4.78956 78.12C5.22156 77.832 5.74156 77.688 6.34956 77.688C6.97356 77.688 7.49756 77.848 7.92156 78.168C8.35356 78.48 8.62556 78.948 8.73756 79.572L8.53356 79.488C8.70156 78.952 9.01756 78.52 9.48156 78.192C9.94556 77.856 10.5096 77.688 11.1736 77.688ZM20.095 84V82.572L20.071 82.356V80.004C20.071 79.42 19.911 78.976 19.591 78.672C19.279 78.368 18.819 78.216 18.211 78.216C17.779 78.216 17.375 78.292 16.999 78.444C16.631 78.588 16.315 78.776 16.051 79.008L15.751 78.576C16.063 78.296 16.439 78.08 16.879 77.928C17.319 77.768 17.779 77.688 18.259 77.688C19.035 77.688 19.631 77.884 20.047 78.276C20.463 78.668 20.671 79.252 20.671 80.028V84H20.095ZM17.839 84.048C17.375 84.048 16.971 83.976 16.627 83.832C16.291 83.68 16.031 83.468 15.847 83.196C15.671 82.924 15.583 82.612 15.583 82.26C15.583 81.94 15.655 81.652 15.799 81.396C15.951 81.132 16.199 80.92 16.543 80.76C16.887 80.592 17.347 80.508 17.923 80.508H20.227V80.976H17.935C17.287 80.976 16.831 81.096 16.567 81.336C16.311 81.576 16.183 81.876 16.183 82.236C16.183 82.636 16.335 82.956 16.639 83.196C16.943 83.436 17.371 83.556 17.923 83.556C18.451 83.556 18.895 83.436 19.255 83.196C19.623 82.956 19.895 82.608 20.071 82.152L20.239 82.56C20.071 83.016 19.783 83.38 19.375 83.652C18.975 83.916 18.463 84.048 17.839 84.048ZM25.7471 86.376C25.1791 86.376 24.6391 86.288 24.1271 86.112C23.6151 85.936 23.1991 85.692 22.8791 85.38L23.2031 84.924C23.5151 85.212 23.8871 85.436 24.3191 85.596C24.7591 85.756 25.2311 85.836 25.7351 85.836C26.5751 85.836 27.1911 85.64 27.5831 85.248C27.9831 84.856 28.1831 84.24 28.1831 83.4V81.66L28.3031 80.724L28.2071 79.788V77.736H28.7831V83.328C28.7831 84.376 28.5271 85.144 28.0151 85.632C27.5111 86.128 26.7551 86.376 25.7471 86.376ZM25.5791 83.772C24.9871 83.772 24.4551 83.644 23.9831 83.388C23.5191 83.124 23.1471 82.764 22.8671 82.308C22.5951 81.844 22.4591 81.316 22.4591 80.724C22.4591 80.124 22.5951 79.596 22.8671 79.14C23.1471 78.684 23.5191 78.328 23.9831 78.072C24.4551 77.816 24.9871 77.688 25.5791 77.688C26.1471 77.688 26.6551 77.812 27.1031 78.06C27.5591 78.3 27.9191 78.648 28.1831 79.104C28.4471 79.552 28.5791 80.092 28.5791 80.724C28.5791 81.348 28.4471 81.888 28.1831 82.344C27.9191 82.8 27.5591 83.152 27.1031 83.4C26.6551 83.648 26.1471 83.772 25.5791 83.772ZM25.6271 83.232C26.1311 83.232 26.5751 83.128 26.9591 82.92C27.3431 82.704 27.6431 82.408 27.8591 82.032C28.0831 81.648 28.1951 81.212 28.1951 80.724C28.1951 80.228 28.0831 79.792 27.8591 79.416C27.6431 79.04 27.3431 78.748 26.9591 78.54C26.5751 78.332 26.1311 78.228 25.6271 78.228C25.1391 78.228 24.6991 78.332 24.3071 78.54C23.9231 78.748 23.6191 79.04 23.3951 79.416C23.1791 79.792 23.0711 80.228 23.0711 80.724C23.0711 81.212 23.1791 81.648 23.3951 82.032C23.6191 82.408 23.9231 82.704 24.3071 82.92C24.6991 83.128 25.1391 83.232 25.6271 83.232ZM33.8668 84.048C33.2348 84.048 32.6748 83.912 32.1868 83.64C31.7068 83.368 31.3268 82.992 31.0468 82.512C30.7748 82.032 30.6388 81.484 30.6388 80.868C30.6388 80.244 30.7668 79.696 31.0228 79.224C31.2868 78.744 31.6468 78.368 32.1028 78.096C32.5588 77.824 33.0708 77.688 33.6388 77.688C34.2068 77.688 34.7148 77.82 35.1628 78.084C35.6188 78.348 35.9748 78.72 36.2308 79.2C36.4948 79.672 36.6268 80.22 36.6268 80.844C36.6268 80.868 36.6228 80.896 36.6148 80.928C36.6148 80.952 36.6148 80.98 36.6148 81.012H31.0828V80.544H36.2908L36.0508 80.772C36.0588 80.284 35.9548 79.848 35.7388 79.464C35.5308 79.072 35.2468 78.768 34.8868 78.552C34.5268 78.328 34.1108 78.216 33.6388 78.216C33.1748 78.216 32.7588 78.328 32.3908 78.552C32.0308 78.768 31.7468 79.072 31.5388 79.464C31.3308 79.848 31.2268 80.288 31.2268 80.784V80.892C31.2268 81.404 31.3388 81.86 31.5628 82.26C31.7948 82.652 32.1108 82.96 32.5108 83.184C32.9108 83.4 33.3668 83.508 33.8788 83.508C34.2788 83.508 34.6508 83.436 34.9948 83.292C35.3468 83.148 35.6428 82.928 35.8828 82.632L36.2308 83.028C35.9588 83.364 35.6148 83.62 35.1988 83.796C34.7908 83.964 34.3468 84.048 33.8668 84.048ZM37.9069 85.716L38.3749 83.688L38.4349 84.036C38.2829 84.036 38.1549 83.988 38.0509 83.892C37.9549 83.796 37.9069 83.676 37.9069 83.532C37.9069 83.388 37.9549 83.268 38.0509 83.172C38.1549 83.076 38.2749 83.028 38.4109 83.028C38.5629 83.028 38.6829 83.08 38.7709 83.184C38.8669 83.28 38.9149 83.396 38.9149 83.532C38.9149 83.588 38.9109 83.644 38.9029 83.7C38.8949 83.756 38.8829 83.812 38.8669 83.868C38.8509 83.924 38.8309 83.996 38.8069 84.084L38.3389 85.716H37.9069ZM45.5513 84L42.7313 77.736H43.3673L46.0073 83.664H45.7193L48.3833 77.736H48.9953L46.1633 84H45.5513ZM50.3072 84V77.736H50.9072V84H50.3072ZM50.6072 76.212C50.4712 76.212 50.3552 76.164 50.2592 76.068C50.1632 75.972 50.1152 75.86 50.1152 75.732C50.1152 75.596 50.1632 75.48 50.2592 75.384C50.3552 75.288 50.4712 75.24 50.6072 75.24C50.7512 75.24 50.8672 75.288 50.9552 75.384C51.0512 75.472 51.0992 75.584 51.0992 75.72C51.0992 75.856 51.0512 75.972 50.9552 76.068C50.8672 76.164 50.7512 76.212 50.6072 76.212ZM55.8481 84.048C55.2641 84.048 54.7361 83.916 54.2641 83.652C53.8001 83.38 53.4321 83.004 53.1601 82.524C52.8881 82.044 52.7521 81.492 52.7521 80.868C52.7521 80.236 52.8881 79.684 53.1601 79.212C53.4321 78.732 53.8001 78.36 54.2641 78.096C54.7361 77.824 55.2641 77.688 55.8481 77.688C56.4001 77.688 56.8961 77.816 57.3361 78.072C57.7841 78.328 58.1361 78.692 58.3921 79.164C58.6561 79.636 58.7881 80.204 58.7881 80.868C58.7881 81.516 58.6601 82.08 58.4041 82.56C58.1481 83.04 57.7961 83.408 57.3481 83.664C56.9081 83.92 56.4081 84.048 55.8481 84.048ZM55.8841 83.508C56.3641 83.508 56.7921 83.4 57.1681 83.184C57.5521 82.96 57.8521 82.648 58.0681 82.248C58.2921 81.848 58.4041 81.388 58.4041 80.868C58.4041 80.34 58.2921 79.88 58.0681 79.488C57.8521 79.088 57.5521 78.78 57.1681 78.564C56.7921 78.34 56.3641 78.228 55.8841 78.228C55.4041 78.228 54.9721 78.34 54.5881 78.564C54.2121 78.78 53.9121 79.088 53.6881 79.488C53.4721 79.88 53.3641 80.34 53.3641 80.868C53.3641 81.388 53.4721 81.848 53.6881 82.248C53.9121 82.648 54.2121 82.96 54.5881 83.184C54.9721 83.4 55.4041 83.508 55.8841 83.508ZM58.4161 84V81.948L58.5241 80.856L58.4041 79.764V75.096H59.0041V84H58.4161ZM64.0777 84.048C63.4457 84.048 62.8857 83.912 62.3977 83.64C61.9177 83.368 61.5377 82.992 61.2577 82.512C60.9857 82.032 60.8497 81.484 60.8497 80.868C60.8497 80.244 60.9777 79.696 61.2337 79.224C61.4977 78.744 61.8577 78.368 62.3137 78.096C62.7697 77.824 63.2817 77.688 63.8497 77.688C64.4177 77.688 64.9257 77.82 65.3737 78.084C65.8297 78.348 66.1857 78.72 66.4417 79.2C66.7057 79.672 66.8377 80.22 66.8377 80.844C66.8377 80.868 66.8337 80.896 66.8257 80.928C66.8257 80.952 66.8257 80.98 66.8257 81.012H61.2937V80.544H66.5017L66.2617 80.772C66.2697 80.284 66.1657 79.848 65.9497 79.464C65.7417 79.072 65.4577 78.768 65.0977 78.552C64.7377 78.328 64.3217 78.216 63.8497 78.216C63.3857 78.216 62.9697 78.328 62.6017 78.552C62.2417 78.768 61.9577 79.072 61.7497 79.464C61.5417 79.848 61.4377 80.288 61.4377 80.784V80.892C61.4377 81.404 61.5497 81.86 61.7737 82.26C62.0057 82.652 62.3217 82.96 62.7217 83.184C63.1217 83.4 63.5777 83.508 64.0897 83.508C64.4897 83.508 64.8617 83.436 65.2057 83.292C65.5577 83.148 65.8537 82.928 66.0937 82.632L66.4417 83.028C66.1697 83.364 65.8257 83.62 65.4097 83.796C65.0017 83.964 64.5577 84.048 64.0777 84.048ZM71.1419 84.048C70.5419 84.048 70.0059 83.912 69.5339 83.64C69.0699 83.368 68.6979 82.992 68.4179 82.512C68.1459 82.032 68.0099 81.484 68.0099 80.868C68.0099 80.244 68.1459 79.696 68.4179 79.224C68.6979 78.744 69.0699 78.368 69.5339 78.096C70.0059 77.824 70.5419 77.688 71.1419 77.688C71.7419 77.688 72.2779 77.824 72.7499 78.096C73.2219 78.368 73.5939 78.744 73.8659 79.224C74.1379 79.696 74.2739 80.244 74.2739 80.868C74.2739 81.484 74.1379 82.032 73.8659 82.512C73.5939 82.992 73.2219 83.368 72.7499 83.64C72.2779 83.912 71.7419 84.048 71.1419 84.048ZM71.1419 83.508C71.6219 83.508 72.0539 83.4 72.4379 83.184C72.8219 82.96 73.1219 82.648 73.3379 82.248C73.5539 81.848 73.6619 81.388 73.6619 80.868C73.6619 80.34 73.5539 79.88 73.3379 79.488C73.1219 79.088 72.8219 78.78 72.4379 78.564C72.0539 78.34 71.6219 78.228 71.1419 78.228C70.6619 78.228 70.2299 78.34 69.8459 78.564C69.4699 78.78 69.1699 79.088 68.9459 79.488C68.7299 79.88 68.6219 80.34 68.6219 80.868C68.6219 81.388 68.7299 81.848 68.9459 82.248C69.1699 82.648 69.4699 82.96 69.8459 83.184C70.2299 83.4 70.6619 83.508 71.1419 83.508ZM81.6653 84.048C81.0653 84.048 80.5293 83.912 80.0573 83.64C79.5933 83.368 79.2213 82.992 78.9413 82.512C78.6693 82.032 78.5333 81.484 78.5333 80.868C78.5333 80.244 78.6693 79.696 78.9413 79.224C79.2213 78.744 79.5933 78.368 80.0573 78.096C80.5293 77.824 81.0653 77.688 81.6653 77.688C82.2653 77.688 82.8013 77.824 83.2733 78.096C83.7453 78.368 84.1173 78.744 84.3893 79.224C84.6613 79.696 84.7973 80.244 84.7973 80.868C84.7973 81.484 84.6613 82.032 84.3893 82.512C84.1173 82.992 83.7453 83.368 83.2733 83.64C82.8013 83.912 82.2653 84.048 81.6653 84.048ZM81.6653 83.508C82.1453 83.508 82.5773 83.4 82.9613 83.184C83.3453 82.96 83.6453 82.648 83.8613 82.248C84.0773 81.848 84.1853 81.388 84.1853 80.868C84.1853 80.34 84.0773 79.88 83.8613 79.488C83.6453 79.088 83.3453 78.78 82.9613 78.564C82.5773 78.34 82.1453 78.228 81.6653 78.228C81.1853 78.228 80.7533 78.34 80.3693 78.564C79.9933 78.78 79.6933 79.088 79.4693 79.488C79.2533 79.88 79.1453 80.34 79.1453 80.868C79.1453 81.388 79.2533 81.848 79.4693 82.248C79.6933 82.648 79.9933 82.96 80.3693 83.184C80.7533 83.4 81.1853 83.508 81.6653 83.508ZM86.6587 84V77.736H87.2347V79.452L87.1747 79.26C87.3507 78.756 87.6467 78.368 88.0627 78.096C88.4787 77.824 88.9987 77.688 89.6227 77.688V78.276C89.5987 78.276 89.5747 78.276 89.5507 78.276C89.5267 78.268 89.5027 78.264 89.4787 78.264C88.7827 78.264 88.2387 78.484 87.8467 78.924C87.4547 79.356 87.2587 79.96 87.2587 80.736V84H86.6587ZM97.0674 86.376C96.4994 86.376 95.9594 86.288 95.4474 86.112C94.9354 85.936 94.5194 85.692 94.1994 85.38L94.5234 84.924C94.8354 85.212 95.2074 85.436 95.6394 85.596C96.0794 85.756 96.5514 85.836 97.0554 85.836C97.8954 85.836 98.5114 85.64 98.9034 85.248C99.3034 84.856 99.5034 84.24 99.5034 83.4V81.66L99.6234 80.724L99.5274 79.788V77.736H100.103V83.328C100.103 84.376 99.8474 85.144 99.3354 85.632C98.8314 86.128 98.0754 86.376 97.0674 86.376ZM96.8994 83.772C96.3074 83.772 95.7754 83.644 95.3034 83.388C94.8394 83.124 94.4674 82.764 94.1874 82.308C93.9154 81.844 93.7794 81.316 93.7794 80.724C93.7794 80.124 93.9154 79.596 94.1874 79.14C94.4674 78.684 94.8394 78.328 95.3034 78.072C95.7754 77.816 96.3074 77.688 96.8994 77.688C97.4674 77.688 97.9754 77.812 98.4234 78.06C98.8794 78.3 99.2394 78.648 99.5034 79.104C99.7674 79.552 99.8994 80.092 99.8994 80.724C99.8994 81.348 99.7674 81.888 99.5034 82.344C99.2394 82.8 98.8794 83.152 98.4234 83.4C97.9754 83.648 97.4674 83.772 96.8994 83.772ZM96.9474 83.232C97.4514 83.232 97.8954 83.128 98.2794 82.92C98.6634 82.704 98.9634 82.408 99.1794 82.032C99.4034 81.648 99.5154 81.212 99.5154 80.724C99.5154 80.228 99.4034 79.792 99.1794 79.416C98.9634 79.04 98.6634 78.748 98.2794 78.54C97.8954 78.332 97.4514 78.228 96.9474 78.228C96.4594 78.228 96.0194 78.332 95.6274 78.54C95.2434 78.748 94.9394 79.04 94.7154 79.416C94.4994 79.792 94.3914 80.228 94.3914 80.724C94.3914 81.212 94.4994 81.648 94.7154 82.032C94.9394 82.408 95.2434 82.704 95.6274 82.92C96.0194 83.128 96.4594 83.232 96.9474 83.232ZM102.643 84V77.736H103.243V84H102.643ZM102.943 76.212C102.807 76.212 102.691 76.164 102.595 76.068C102.499 75.972 102.451 75.86 102.451 75.732C102.451 75.596 102.499 75.48 102.595 75.384C102.691 75.288 102.807 75.24 102.943 75.24C103.087 75.24 103.203 75.288 103.291 75.384C103.387 75.472 103.435 75.584 103.435 75.72C103.435 75.856 103.387 75.972 103.291 76.068C103.203 76.164 103.087 76.212 102.943 76.212ZM105.892 84V76.776C105.892 76.256 106.04 75.84 106.336 75.528C106.64 75.208 107.072 75.048 107.632 75.048C107.864 75.048 108.092 75.084 108.316 75.156C108.54 75.22 108.724 75.32 108.868 75.456L108.628 75.912C108.508 75.792 108.364 75.704 108.196 75.648C108.028 75.592 107.848 75.564 107.656 75.564C107.272 75.564 106.98 75.672 106.78 75.888C106.58 76.096 106.48 76.408 106.48 76.824V77.88L106.492 78.168V84H105.892ZM104.74 78.252V77.736H108.484V78.252H104.74ZM20.1161 99.06C19.5001 99.06 18.9241 98.956 18.3881 98.748C17.8601 98.54 17.4481 98.268 17.1521 97.932L17.4641 97.464C17.7201 97.76 18.0801 98.008 18.5441 98.208C19.0161 98.4 19.5401 98.496 20.1161 98.496C20.8681 98.496 21.4401 98.328 21.8321 97.992C22.2321 97.656 22.4321 97.204 22.4321 96.636C22.4321 96.076 22.2321 95.628 21.8321 95.292C21.4401 94.948 20.8241 94.776 19.9841 94.776H19.4561V94.332L22.1321 90.912L22.2161 91.152H17.4641V90.6H22.7321V91.032L20.0681 94.452L19.8041 94.26H20.0681C21.0681 94.26 21.8161 94.48 22.3121 94.92C22.8081 95.36 23.0561 95.932 23.0561 96.636C23.0561 97.1 22.9441 97.516 22.7201 97.884C22.5041 98.252 22.1761 98.54 21.7361 98.748C21.3041 98.956 20.7641 99.06 20.1161 99.06ZM27.6355 99.06C26.9955 99.06 26.4275 98.888 25.9315 98.544C25.4355 98.2 25.0475 97.712 24.7675 97.08C24.4875 96.44 24.3475 95.68 24.3475 94.8C24.3475 93.92 24.4875 93.164 24.7675 92.532C25.0475 91.892 25.4355 91.4 25.9315 91.056C26.4275 90.712 26.9955 90.54 27.6355 90.54C28.2835 90.54 28.8515 90.712 29.3395 91.056C29.8355 91.4 30.2235 91.892 30.5035 92.532C30.7835 93.164 30.9235 93.92 30.9235 94.8C30.9235 95.68 30.7835 96.44 30.5035 97.08C30.2235 97.712 29.8355 98.2 29.3395 98.544C28.8515 98.888 28.2835 99.06 27.6355 99.06ZM27.6355 98.496C28.1715 98.496 28.6395 98.352 29.0395 98.064C29.4395 97.768 29.7515 97.344 29.9755 96.792C30.1995 96.24 30.3115 95.576 30.3115 94.8C30.3115 94.016 30.1995 93.352 29.9755 92.808C29.7515 92.256 29.4395 91.836 29.0395 91.548C28.6395 91.252 28.1715 91.104 27.6355 91.104C27.1075 91.104 26.6395 91.252 26.2315 91.548C25.8315 91.836 25.5195 92.256 25.2955 92.808C25.0715 93.352 24.9595 94.016 24.9595 94.8C24.9595 95.576 25.0715 96.24 25.2955 96.792C25.5195 97.344 25.8315 97.768 26.2315 98.064C26.6395 98.352 27.1075 98.496 27.6355 98.496ZM35.5339 99.06C34.8939 99.06 34.3259 98.888 33.8299 98.544C33.3339 98.2 32.9459 97.712 32.6659 97.08C32.3859 96.44 32.2459 95.68 32.2459 94.8C32.2459 93.92 32.3859 93.164 32.6659 92.532C32.9459 91.892 33.3339 91.4 33.8299 91.056C34.3259 90.712 34.8939 90.54 35.5339 90.54C36.1819 90.54 36.7499 90.712 37.2379 91.056C37.7339 91.4 38.1219 91.892 38.4019 92.532C38.6819 93.164 38.8219 93.92 38.8219 94.8C38.8219 95.68 38.6819 96.44 38.4019 97.08C38.1219 97.712 37.7339 98.2 37.2379 98.544C36.7499 98.888 36.1819 99.06 35.5339 99.06ZM35.5339 98.496C36.0699 98.496 36.5379 98.352 36.9379 98.064C37.3379 97.768 37.6499 97.344 37.8739 96.792C38.0979 96.24 38.2099 95.576 38.2099 94.8C38.2099 94.016 38.0979 93.352 37.8739 92.808C37.6499 92.256 37.3379 91.836 36.9379 91.548C36.5379 91.252 36.0699 91.104 35.5339 91.104C35.0059 91.104 34.5379 91.252 34.1299 91.548C33.7299 91.836 33.4179 92.256 33.1939 92.808C32.9699 93.352 32.8579 94.016 32.8579 94.8C32.8579 95.576 32.9699 96.24 33.1939 96.792C33.4179 97.344 33.7299 97.768 34.1299 98.064C34.5379 98.352 35.0059 98.496 35.5339 98.496ZM40.9484 99V90.6H41.4644L45.3644 97.332H45.0884L48.9764 90.6H49.4804L49.4924 99H48.8924L48.8804 91.524H49.0484L45.3644 97.884H45.0644L41.3684 91.524H41.5484V99H40.9484ZM52.421 99V90.6H55.925C56.829 90.6 57.537 90.784 58.049 91.152C58.561 91.52 58.817 92.052 58.817 92.748C58.817 93.204 58.709 93.588 58.493 93.9C58.277 94.212 57.977 94.448 57.593 94.608C57.217 94.76 56.793 94.836 56.321 94.836L56.537 94.596C57.113 94.596 57.605 94.68 58.013 94.848C58.421 95.016 58.729 95.26 58.937 95.58C59.153 95.9 59.261 96.3 59.261 96.78C59.261 97.484 59.005 98.032 58.493 98.424C57.981 98.808 57.205 99 56.165 99H52.421ZM53.033 98.472H56.165C56.973 98.472 57.589 98.336 58.013 98.064C58.437 97.784 58.649 97.34 58.649 96.732C58.649 96.132 58.437 95.696 58.013 95.424C57.589 95.144 56.973 95.004 56.165 95.004H52.961V94.476H55.901C56.629 94.476 57.193 94.336 57.593 94.056C57.993 93.776 58.193 93.356 58.193 92.796C58.193 92.244 57.993 91.828 57.593 91.548C57.193 91.268 56.629 91.128 55.901 91.128H53.033V98.472ZM64.3345 99V90.096H64.9345V99H64.3345ZM67.4634 99V92.736H68.0634V99H67.4634ZM67.7634 91.212C67.6274 91.212 67.5114 91.164 67.4154 91.068C67.3194 90.972 67.2714 90.86 67.2714 90.732C67.2714 90.596 67.3194 90.48 67.4154 90.384C67.5114 90.288 67.6274 90.24 67.7634 90.24C67.9074 90.24 68.0234 90.288 68.1114 90.384C68.2074 90.472 68.2554 90.584 68.2554 90.72C68.2554 90.856 68.2074 90.972 68.1114 91.068C68.0234 91.164 67.9074 91.212 67.7634 91.212ZM78.3923 92.688C78.8963 92.688 79.3323 92.788 79.7003 92.988C80.0763 93.18 80.3683 93.476 80.5763 93.876C80.7843 94.268 80.8883 94.756 80.8883 95.34V99H80.2883V95.388C80.2883 94.684 80.1163 94.148 79.7723 93.78C79.4283 93.412 78.9483 93.228 78.3323 93.228C77.8603 93.228 77.4523 93.328 77.1083 93.528C76.7643 93.728 76.5003 94.008 76.3163 94.368C76.1323 94.728 76.0403 95.16 76.0403 95.664V99H75.4403V95.388C75.4403 94.684 75.2683 94.148 74.9243 93.78C74.5803 93.412 74.1003 93.228 73.4843 93.228C73.0123 93.228 72.6043 93.328 72.2603 93.528C71.9163 93.728 71.6523 94.008 71.4683 94.368C71.2843 94.728 71.1923 95.16 71.1923 95.664V99H70.5923V92.736H71.1683V94.464L71.0843 94.272C71.2683 93.784 71.5763 93.4 72.0083 93.12C72.4403 92.832 72.9603 92.688 73.5683 92.688C74.1923 92.688 74.7163 92.848 75.1403 93.168C75.5723 93.48 75.8443 93.948 75.9563 94.572L75.7523 94.488C75.9203 93.952 76.2363 93.52 76.7003 93.192C77.1643 92.856 77.7283 92.688 78.3923 92.688ZM83.3658 99V92.736H83.9658V99H83.3658ZM83.6658 91.212C83.5298 91.212 83.4138 91.164 83.3178 91.068C83.2218 90.972 83.1738 90.86 83.1738 90.732C83.1738 90.596 83.2218 90.48 83.3178 90.384C83.4138 90.288 83.5298 90.24 83.6658 90.24C83.8098 90.24 83.9258 90.288 84.0138 90.384C84.1098 90.472 84.1578 90.584 84.1578 90.72C84.1578 90.856 84.1098 90.972 84.0138 91.068C83.9258 91.164 83.8098 91.212 83.6658 91.212ZM88.3187 99.048C87.7667 99.048 87.3427 98.896 87.0467 98.592C86.7587 98.288 86.6147 97.872 86.6147 97.344V91.368H87.2147V97.284C87.2147 97.684 87.3147 97.992 87.5147 98.208C87.7147 98.424 88.0027 98.532 88.3787 98.532C88.7707 98.532 89.0947 98.416 89.3507 98.184L89.6027 98.604C89.4427 98.756 89.2467 98.868 89.0147 98.94C88.7907 99.012 88.5587 99.048 88.3187 99.048ZM85.4627 93.252V92.736H89.2067V93.252H85.4627Z" fill="#667079"/>
<path d="M65.25 21.7256V27.5191C65.25 28.2874 64.9866 29.0242 64.5178 29.5674C64.0489 30.1107 63.413 30.4158 62.75 30.4158H45.25C44.587 30.4158 43.9511 30.1107 43.4822 29.5674C43.0134 29.0242 42.75 28.2874 42.75 27.5191V21.7256" stroke="#354B37" stroke-width="2" stroke-linecap="round" stroke-linejoin="round"/>
<path d="M60.25 11.5871L54 4.34521L47.75 11.5871" stroke="#354B37" stroke-width="2" stroke-linecap="round" stroke-linejoin="round"/>
<path d="M54 4.34521V21.7257" stroke="#354B37" stroke-width="2" stroke-linecap="round" stroke-linejoin="round"/>
<path d="M4.2592 45.9C4.8572 46.682 5.3172 48.246 5.3172 50.661V55.376C5.3172 60.574 8.2152 62.184 11.0442 62.184C15.5062 62.184 16.3342 58.55 16.3342 55.077V51.213C16.3342 48.2 17.1392 46.59 17.8292 45.9H14.0572C14.9772 46.544 16.0352 48.2 16.0352 51.213V55.077C16.0352 58.895 14.6782 61.563 11.7112 61.563C9.5032 61.563 7.8932 60.275 7.8932 55.721V50.661C7.8932 48.246 8.3532 46.682 8.9512 45.9H4.2592ZM18.0058 52.11C18.5348 52.524 19.0868 53.559 19.0638 55.56L18.9258 65.795H22.5598C21.9848 65.312 21.4788 63.863 21.4788 62.092V60.712C21.9848 61.218 23.2268 62.184 24.8828 62.184C27.0218 62.184 29.7358 60.344 29.7358 56.089C29.7358 52.202 27.3438 50.316 24.9288 50.316C23.2498 50.316 21.9618 51.351 21.4788 52.179V50.316L18.0058 52.018V52.11ZM21.4788 52.662C21.8698 51.903 22.8588 51.144 23.8018 51.144C25.6418 51.144 27.0908 52.892 27.1138 56.319C27.1138 59.769 25.5268 61.333 23.8938 61.333C22.7208 61.333 21.9388 60.712 21.4788 60.275V52.662ZM30.2021 47.694C30.7311 48.108 31.2831 49.143 31.2601 51.144L31.1221 62H34.7561C34.1811 61.517 33.6751 60.183 33.6751 57.975V45.9L30.2021 47.602V47.694ZM35.1671 56.181C35.1671 59.516 37.8581 62.184 41.1011 62.184C44.2981 62.184 46.9201 59.585 46.9201 56.296C46.9201 52.984 44.2291 50.316 41.0091 50.316C37.8121 50.316 35.1671 52.892 35.1671 56.181ZM37.3981 54.134C37.3981 52.34 38.2031 50.776 39.7901 50.776C42.3661 50.776 44.7121 55.284 44.7121 58.32C44.7121 60.183 43.8841 61.747 42.2741 61.724C39.7211 61.632 37.3981 57.17 37.3981 54.134ZM47.497 58.205C47.497 60.528 49.222 62.184 51.614 62.184C53.339 62.184 54.397 61.448 55.156 60.068L55.8 62H58.997C58.606 61.655 58.192 60.942 57.755 59.792C57.272 58.504 55.616 53.95 54.995 52.409C54.328 50.753 53.04 50.316 51.982 50.316C51.177 50.316 50.326 50.569 49.682 50.983L49.705 51.029C50.487 50.845 51.43 50.96 51.959 51.742C52.603 52.616 53.983 56.687 55.041 59.792C54.512 60.367 53.753 60.62 53.04 60.62C50.993 60.62 49.912 58.941 49.912 56.779C49.912 54.594 51.2 53.076 51.959 52.455C49.245 53.628 47.497 55.606 47.497 58.205ZM58.4366 56.365C58.4366 60.459 60.9436 62.184 63.3126 62.184C65.1066 62.184 66.1186 61.264 66.6476 60.712L66.6246 62H70.2586C69.6836 61.517 69.1776 60.183 69.1776 57.975V45.9L65.7046 47.602V47.694C66.2336 48.108 66.7856 49.143 66.7626 51.144V52.064C66.3026 51.512 65.1296 50.316 63.3126 50.316C61.0586 50.316 58.4366 52.294 58.4366 56.365ZM61.0816 56.181C61.0586 52.731 62.5536 51.029 64.1636 51.029C65.3366 51.029 66.3026 51.834 66.7626 52.57L66.6476 60.275C66.2106 60.758 65.3596 61.379 64.4166 61.379C62.6686 61.379 61.1046 59.861 61.0816 56.181ZM75.5218 51.328C76.7868 51.328 78.5348 51.811 78.4888 54.571L78.3508 62H81.9618C81.3868 61.517 80.9038 60.183 80.9038 57.975V51.558C81.4098 51.558 81.9388 51.604 82.2608 51.673C83.5488 51.788 84.5378 52.915 84.4918 55.169L84.3538 62H87.9878C87.4128 61.517 86.9068 60.183 86.9068 57.975V50.316C85.8488 51.052 84.7218 51.512 83.5258 51.512C81.2028 51.512 78.0058 49.166 78.0058 47.096C78.0058 46.429 78.2358 46.107 78.6268 46.107C79.8918 46.107 80.6278 49.074 84.7908 50.063V47.418C83.0428 47.418 82.0078 47.28 80.7888 46.705C79.6388 46.176 78.6038 45.716 77.5458 45.716C76.5338 45.716 75.5218 46.199 75.5218 47.303C75.5218 49.028 78.5808 50.638 80.5128 51.121H75.5218V51.328ZM88.1289 47.694C88.6579 48.108 89.2099 49.143 89.1869 51.144L89.0489 62H92.6829C92.1079 61.517 91.6019 60.183 91.6019 57.975V45.9L88.1289 47.602V47.694ZM104.663 56.434C104.318 58.596 102.57 60.068 100.155 60.068C97.6248 60.068 95.5318 58.251 95.5318 55.537C95.5318 55.261 95.5548 54.985 95.5778 54.709H103.628C103.628 51.88 101.512 50.316 99.0508 50.316C95.7848 50.316 93.0938 52.8 93.0938 56.296C93.0938 59.654 95.7158 62.184 99.0048 62.184C102.225 62.184 104.663 59.516 104.709 56.434H104.663ZM99.1198 50.592C100.408 50.592 101.282 51.351 101.282 52.34C101.282 53.651 100.454 54.479 98.0848 54.479H95.6008C95.9458 52.202 97.3258 50.592 99.1198 50.592Z" fill="#354B37"/>
</svg>
