<svg width="99" height="93" viewBox="0 0 99 93" fill="none" xmlns="http://www.w3.org/2000/svg">
<path d="M18.584 82.168C19.46 82.168 20.168 81.892 20.648 81.412C21.044 81.016 21.26 80.488 21.26 79.84C21.26 79.264 21.056 78.796 20.72 78.46C20.396 78.136 19.952 77.932 19.412 77.884V77.716C19.952 77.668 20.396 77.464 20.72 77.14C21.056 76.804 21.26 76.336 21.26 75.76C21.26 75.112 21.044 74.584 20.648 74.188C20.168 73.708 19.46 73.432 18.584 73.432C16.832 73.432 15.74 74.464 15.74 76.12V76.288H16.76V76.12C16.76 75.016 17.444 74.344 18.584 74.344C19.124 74.344 19.568 74.524 19.856 74.812C20.108 75.064 20.24 75.388 20.24 75.796C20.24 76.204 20.12 76.54 19.88 76.792C19.58 77.08 19.1 77.26 18.5 77.26H18.128V78.34H18.5C19.1 78.34 19.58 78.52 19.88 78.808C20.12 79.06 20.24 79.396 20.24 79.804C20.24 80.212 20.108 80.536 19.856 80.788C19.568 81.076 19.124 81.256 18.584 81.256C17.432 81.256 16.76 80.584 16.76 79.48V79.312H15.74V79.48C15.74 81.136 16.832 82.168 18.584 82.168ZM25.6991 82.168C27.0791 82.168 28.0271 81.496 28.5071 80.164C28.7351 79.528 28.8551 78.736 28.8551 77.8C28.8551 76.864 28.7351 76.072 28.5071 75.436C28.0391 74.104 27.0791 73.432 25.6991 73.432C24.3191 73.432 23.3711 74.104 22.8911 75.436C22.6631 76.072 22.5431 76.864 22.5431 77.8C22.5431 78.736 22.6631 79.528 22.8911 80.164C23.3711 81.496 24.3191 82.168 25.6991 82.168ZM25.6991 81.256C24.8231 81.256 24.1991 80.764 23.8631 79.816C23.6711 79.3 23.5751 78.616 23.5751 77.8C23.5751 76.984 23.6711 76.3 23.8631 75.784C24.1871 74.836 24.8231 74.344 25.6991 74.344C26.5871 74.344 27.2111 74.836 27.5471 75.784C27.7271 76.3 27.8231 76.984 27.8231 77.8C27.8231 78.616 27.7271 79.3 27.5471 79.816C27.1991 80.764 26.5871 81.256 25.6991 81.256ZM33.2343 82.168C34.6143 82.168 35.5623 81.496 36.0423 80.164C36.2703 79.528 36.3903 78.736 36.3903 77.8C36.3903 76.864 36.2703 76.072 36.0423 75.436C35.5742 74.104 34.6143 73.432 33.2343 73.432C31.8543 73.432 30.9062 74.104 30.4263 75.436C30.1982 76.072 30.0783 76.864 30.0783 77.8C30.0783 78.736 30.1982 79.528 30.4263 80.164C30.9062 81.496 31.8543 82.168 33.2343 82.168ZM33.2343 81.256C32.3583 81.256 31.7343 80.764 31.3983 79.816C31.2063 79.3 31.1103 78.616 31.1103 77.8C31.1103 76.984 31.2063 76.3 31.3983 75.784C31.7223 74.836 32.3583 74.344 33.2343 74.344C34.1223 74.344 34.7463 74.836 35.0823 75.784C35.2623 76.3 35.3583 76.984 35.3583 77.8C35.3583 78.616 35.2623 79.3 35.0823 79.816C34.7343 80.764 34.1223 81.256 33.2343 81.256ZM39.1586 82V74.32H39.3146L39.4466 75.496L41.8226 82H43.1906L45.5546 75.496L45.6866 74.32H45.8546V82H46.8386V73.6H45.1946L42.6866 80.572L42.5906 81.28H42.4226L42.3146 80.572L39.8186 73.6H38.1626V82H39.1586ZM52.853 77.716C53.465 77.632 53.957 77.356 54.233 76.876C54.389 76.6 54.485 76.252 54.485 75.844C54.485 75.412 54.389 75.04 54.209 74.716C53.801 74.02 52.997 73.6 51.893 73.6H49.061V82H51.893C52.997 82 53.801 81.58 54.209 80.884C54.389 80.56 54.485 80.188 54.485 79.756C54.485 79.348 54.389 79 54.233 78.724C53.957 78.244 53.465 77.968 52.853 77.884V77.716ZM51.809 74.56C52.517 74.56 53.021 74.764 53.273 75.196C53.405 75.412 53.453 75.664 53.453 75.964C53.453 76.252 53.393 76.504 53.273 76.696C53.033 77.128 52.505 77.344 51.809 77.344H50.069V74.56H51.809ZM53.273 80.404C53.021 80.836 52.517 81.04 51.809 81.04H50.069V78.256H51.809C52.505 78.256 53.021 78.472 53.273 78.904C53.393 79.096 53.453 79.348 53.453 79.636C53.453 79.936 53.405 80.188 53.273 80.404ZM60.2015 82V73.6H59.2415V82H60.2015ZM63.2035 75.328V73.924H62.0995V75.328H63.2035ZM63.1195 82V76.3H62.1595V82H63.1195ZM66.0375 82V78.988C66.0375 77.812 66.5655 77.02 67.5375 77.02C68.2455 77.02 68.7255 77.548 68.7255 78.556V82H69.6855V78.988C69.6855 77.812 70.2375 77.02 71.1975 77.02C71.9655 77.02 72.3735 77.548 72.3735 78.556V82H73.3455V78.352C73.3455 76.9 72.6855 76.132 71.4735 76.132C70.5735 76.132 69.8415 76.624 69.5775 77.896H69.4095C69.4095 76.732 68.7015 76.132 67.8015 76.132C66.8295 76.132 66.2175 76.756 65.9415 77.896H65.7855L66.0375 76.3H65.0775V82H66.0375ZM76.223 75.328V73.924H75.119V75.328H76.223ZM76.139 82V76.3H75.179V82H76.139ZM82.129 76.3H79.501V74.644L78.541 75.112V76.3H77.317V77.164H78.541V80.212C78.541 81.496 79.129 82.168 80.341 82.168C81.493 82.168 82.129 81.388 82.129 80.068V79.18H81.169V80.056C81.169 80.92 80.929 81.304 80.329 81.304C79.813 81.304 79.501 80.92 79.501 80.212V77.164H82.129V76.3Z" fill="#667079"/>
<path d="M60.25 21.7256V27.5191C60.25 28.2874 59.9866 29.0242 59.5178 29.5674C59.0489 30.1107 58.413 30.4158 57.75 30.4158H40.25C39.587 30.4158 38.9511 30.1107 38.4822 29.5674C38.0134 29.0242 37.75 28.2874 37.75 27.5191V21.7256" stroke="#2B2B2B" stroke-width="2" stroke-linecap="round" stroke-linejoin="round"/>
<path d="M55.25 11.5871L49 4.34521L42.75 11.5871" stroke="#2B2B2B" stroke-width="2" stroke-linecap="round" stroke-linejoin="round"/>
<path d="M49 4.34521V21.7257" stroke="#2B2B2B" stroke-width="2" stroke-linecap="round" stroke-linejoin="round"/>
<path d="M6.51973 59.2475C9.56173 59.2475 11.5057 57.3935 11.5057 54.3695V46.3595H9.20173V54.2975C9.20173 56.0435 8.19373 57.1235 6.51973 57.1235C4.84573 57.1235 3.83773 56.0435 3.83773 54.2975V46.3595H1.53373V54.3695C1.53373 57.3935 3.45973 59.2475 6.51973 59.2475ZM17.2972 62.1995V58.9595L16.7572 56.6195H17.0632C17.5672 58.3115 18.6292 59.2115 20.1952 59.2115C21.4912 59.2115 22.5712 58.6535 23.2552 57.6455C23.7952 56.8715 24.0652 55.8275 24.0652 54.5855C24.0652 53.3435 23.7952 52.2995 23.2552 51.5255C22.5712 50.5175 21.4912 49.9595 20.1952 49.9595C18.6292 49.9595 17.5672 50.8595 17.0632 52.5515H16.7572L17.2972 50.2115H15.1732V62.1995H17.2972ZM19.5832 57.3395C18.8092 57.3395 18.1792 57.0335 17.7652 56.4575C17.4412 56.0075 17.2612 55.3595 17.2612 54.5855C17.2612 53.8115 17.4412 53.1635 17.7652 52.7135C18.1792 52.1375 18.8092 51.8315 19.5832 51.8315C20.3572 51.8315 20.9872 52.1375 21.4012 52.7135C21.7252 53.1635 21.9052 53.8115 21.9052 54.5855C21.9052 55.3595 21.7252 56.0075 21.4012 56.4575C20.9872 57.0335 20.3572 57.3395 19.5832 57.3395ZM29.3011 58.9595V46.3595H27.1771V58.9595H29.3011ZM36.8456 59.2115C38.4836 59.2115 39.8156 58.5455 40.6076 57.3575C41.1296 56.6195 41.4176 55.6655 41.4176 54.5855C41.4176 53.5055 41.1296 52.5515 40.6076 51.8135C39.8156 50.6255 38.4836 49.9595 36.8456 49.9595C35.2256 49.9595 33.8936 50.6255 33.1016 51.8135C32.5796 52.5515 32.2916 53.5055 32.2916 54.5855C32.2916 55.6655 32.5796 56.6195 33.1016 57.3575C33.8936 58.5455 35.2256 59.2115 36.8456 59.2115ZM36.8456 57.3395C36.0356 57.3395 35.3696 56.9795 34.9556 56.3675C34.6316 55.8995 34.4516 55.3055 34.4516 54.5855C34.4516 53.8655 34.6316 53.2715 34.9556 52.8035C35.3696 52.1915 36.0356 51.8315 36.8456 51.8315C37.6736 51.8315 38.3396 52.1915 38.7536 52.8035C39.0596 53.2715 39.2396 53.8655 39.2396 54.5855C39.2396 55.3055 39.0596 55.8995 38.7536 56.3675C38.3396 56.9795 37.6736 57.3395 36.8456 57.3395ZM47.7474 49.9595C43.8414 49.9595 43.8234 52.9655 43.8234 53.2175V53.2895H45.9834V53.2175C45.9834 53.0555 46.0014 51.7415 47.6934 51.7415C48.8634 51.7415 49.4394 52.3175 49.4394 53.2715V53.8655L47.0814 54.0275C46.0014 54.0995 45.1914 54.4055 44.6514 54.9455C44.2194 55.3775 44.0034 55.9715 44.0034 56.7275C44.0034 57.4475 44.2374 58.0415 44.6694 58.4735C45.1374 58.9415 45.8214 59.2115 46.6314 59.2115C48.2334 59.2115 49.1874 58.3835 49.6374 56.6195H49.9434L49.4394 58.9595H51.5634V53.2715C51.5634 51.1475 50.2674 49.9595 47.7474 49.9595ZM47.2794 57.5555C46.9194 57.5555 46.6314 57.4655 46.4334 57.2675C46.2714 57.1055 46.1814 56.9075 46.1814 56.6195C46.1814 56.3495 46.2714 56.1155 46.4514 55.9355C46.6854 55.7015 47.0634 55.5575 47.5854 55.5035L49.4394 55.3055C49.4214 56.1155 48.8094 57.5555 47.2794 57.5555ZM58.3614 59.2115C59.9274 59.2115 61.0074 58.3115 61.4934 56.6195H61.7994L61.2594 58.9595H63.3834V46.3595H61.2594V50.2115L61.7994 52.5515H61.4934C61.0074 50.8595 59.9274 49.9595 58.3614 49.9595C57.0654 49.9595 56.0034 50.5175 55.3014 51.5255C54.7794 52.2995 54.4914 53.3435 54.4914 54.5855C54.4914 55.8275 54.7794 56.8715 55.3014 57.6455C56.0034 58.6535 57.0654 59.2115 58.3614 59.2115ZM58.9734 57.3395C58.1994 57.3395 57.5694 57.0335 57.1734 56.4575C56.8494 56.0075 56.6514 55.3595 56.6514 54.5855C56.6514 53.8115 56.8494 53.1635 57.1734 52.7135C57.5694 52.1375 58.1994 51.8315 58.9734 51.8315C59.7654 51.8315 60.3954 52.1375 60.7914 52.7135C61.1154 53.1635 61.2954 53.8115 61.2954 54.5855C61.2954 55.3595 61.1154 56.0075 60.7914 56.4575C60.3954 57.0335 59.7654 57.3395 58.9734 57.3395ZM75.1147 49.7255C75.1147 48.5195 75.8527 47.8175 77.0227 47.8175C78.0487 47.8175 78.6967 48.1955 78.7507 49.0415H80.8927C80.8027 47.1695 79.3987 46.1075 77.0047 46.1075C74.4667 46.1075 72.9907 47.5475 72.9907 49.7255V50.2115H71.2627V52.0115H72.9907V58.9595H75.1147V51.9395H78.8047V58.9595H80.8927V50.2115H75.1147V49.7255ZM86.7172 58.9595V46.3595H84.5932V58.9595H86.7172ZM98.1136 54.4415C98.1136 51.6155 96.6196 49.9595 93.9916 49.9595C92.5696 49.9595 91.3456 50.5355 90.5896 51.6335C90.0676 52.3895 89.7076 53.3975 89.7076 54.6215C89.7076 55.8095 89.9776 56.7995 90.5176 57.5555C91.2556 58.6355 92.4616 59.2115 94.1716 59.2115C96.2236 59.2115 97.8076 58.0055 98.1136 56.2775H95.9896C95.7196 57.0515 95.0356 57.4655 94.1176 57.4655C93.2716 57.4655 92.6956 57.1595 92.3176 56.6195C92.0476 56.2415 91.9036 55.7555 91.8316 55.1615H98.1136V54.4415ZM91.8856 53.6315C91.9576 53.1995 92.1016 52.8395 92.2996 52.5335C92.6956 51.9755 93.3076 51.6695 94.0096 51.6695C95.2156 51.6695 95.9176 52.3535 95.9716 53.6315H91.8856Z" fill="#2B2B2B"/>
</svg>
