<svg width="32" height="32" viewBox="0 0 32 32" fill="none" xmlns="http://www.w3.org/2000/svg">
<path d="M27 9.25H7C6.66848 9.25 6.35054 9.1183 6.11612 8.88388C5.8817 8.64946 5.75 8.33152 5.75 8C5.75 7.66848 5.8817 7.35054 6.11612 7.11612C6.35054 6.8817 6.66848 6.75 7 6.75H24C24.1989 6.75 24.3897 6.67098 24.5303 6.53033C24.671 6.38968 24.75 6.19891 24.75 6C24.75 5.80109 24.671 5.61032 24.5303 5.46967C24.3897 5.32902 24.1989 5.25 24 5.25H7C6.27167 5.25329 5.5741 5.54408 5.05909 6.05909C4.54408 6.5741 4.25329 7.27167 4.25 8V24C4.25329 24.7283 4.54408 25.4259 5.05909 25.9409C5.5741 26.4559 6.27167 26.7467 7 26.75H27C27.4641 26.75 27.9092 26.5656 28.2374 26.2374C28.5656 25.9092 28.75 25.4641 28.75 25V11C28.75 10.5359 28.5656 10.0908 28.2374 9.76256C27.9092 9.43437 27.4641 9.25 27 9.25ZM27.25 25C27.25 25.0663 27.2237 25.1299 27.1768 25.1768C27.1299 25.2237 27.0663 25.25 27 25.25H7C6.66848 25.25 6.35054 25.1183 6.11612 24.8839C5.8817 24.6495 5.75 24.3315 5.75 24V10.45C6.1376 10.646 6.56565 10.7488 7 10.75H27C27.0663 10.75 27.1299 10.7763 27.1768 10.8232C27.2237 10.8701 27.25 10.9337 27.25 11V25ZM23.75 18C23.75 18.2472 23.6767 18.4889 23.5393 18.6945C23.402 18.9 23.2068 19.0602 22.9784 19.1549C22.7499 19.2495 22.4986 19.2742 22.2561 19.226C22.0137 19.1777 21.7909 19.0587 21.6161 18.8839C21.4413 18.7091 21.3223 18.4863 21.274 18.2439C21.2258 18.0014 21.2505 17.7501 21.3451 17.5216C21.4398 17.2932 21.6 17.098 21.8055 16.9607C22.0111 16.8233 22.2528 16.75 22.5 16.75C22.8315 16.75 23.1495 16.8817 23.3839 17.1161C23.6183 17.3505 23.75 17.6685 23.75 18Z" fill="#354B37"/>
</svg>
