<svg width="25" height="24" viewBox="0 0 25 24" fill="none" xmlns="http://www.w3.org/2000/svg">
<path d="M5.41617 7.47534C9.32885 3.64364 15.6711 3.64364 19.5889 7.47534L20.0596 7.93595C20.257 8.12829 20.257 8.43706 20.0596 8.6294L18.45 10.2086C18.3538 10.3048 18.1919 10.3048 18.0957 10.2086L17.4478 9.57594C14.7195 6.90337 10.2906 6.90337 7.56232 9.57594L6.86887 10.2542C6.7727 10.3504 6.61072 10.3504 6.51455 10.2542L4.89987 8.67496C4.70247 8.48261 4.70247 8.17385 4.89987 7.9815L5.41617 7.47534ZM22.9195 10.7351L24.3519 12.1372C24.5494 12.3295 24.5494 12.6383 24.3519 12.8306L17.8882 19.1628C17.6908 19.3551 17.3769 19.3551 17.1795 19.1628L12.5886 14.668C12.538 14.6224 12.462 14.6224 12.4114 14.668L7.82553 19.1628C7.62812 19.3551 7.3143 19.3551 7.11689 19.1628L0.648054 12.8357C0.450649 12.6433 0.450649 12.3346 0.648054 12.1422L2.08051 10.7401C2.27792 10.5478 2.59174 10.5478 2.78915 10.7401L7.3801 15.2349C7.43072 15.2805 7.50664 15.2805 7.55726 15.2349L12.1432 10.7401C12.3406 10.5478 12.6544 10.5478 12.8518 10.7401L17.4427 15.2349C17.4934 15.2805 17.5693 15.2805 17.6199 15.2349L22.2108 10.7401C22.4032 10.5427 22.7221 10.5427 22.9195 10.7351Z" fill="#3A99FB"/>
</svg>
