<svg width="165" height="100" viewBox="0 0 165 100" fill="none" xmlns="http://www.w3.org/2000/svg">
<rect x="0.5" y="0.5" width="164" height="99" rx="3.5" fill="white"/>
<path d="M47.2363 45.6686L54.2173 50.004L47.2363 54.3468C47.7438 52.9961 48.0423 51.5333 48.0423 50.004C48.0423 48.4741 47.7438 47.0193 47.2363 45.6686V45.6686ZM24.1466 45.6686C23.6392 47.0193 23.3406 48.4815 23.3406 50.004C23.3406 51.5333 23.6317 52.9886 24.1466 54.3394L17.1656 50.004L24.1466 45.6686ZM35.6917 40.2366C41.0981 40.2366 45.4468 44.5939 45.4468 50.004C45.4468 55.4135 41.0911 59.7638 35.6917 59.7638C30.2843 59.7638 25.9287 55.4066 25.9287 50.004C25.9287 44.6019 30.2918 40.2366 35.6917 40.2366V40.2366ZM35.6917 35.4908L34.4833 36.2371L29.7022 39.2068C29.3595 39.4008 29.0316 39.6023 28.7107 39.8262L12.3403 50.004L28.7107 60.1743C29.0386 60.3982 29.3744 60.6071 29.7246 60.8012L35.6987 64.5097L41.5757 60.8534C41.5906 60.846 41.6055 60.831 41.6205 60.8236C41.9856 60.6221 42.3438 60.3982 42.6871 60.1594L59.0501 50.004L42.6797 39.8336C42.3513 39.6098 42.016 39.3933 41.6652 39.1993L35.6917 35.4908Z" fill="#181819"/>
<path d="M61.4514 52.3098C60.6981 52.3172 59.8778 52.5187 59.0499 53.0038L38.1074 66.0095L38.3169 66.1364C38.9054 66.4797 39.681 66.7185 40.5393 66.703C41.2925 66.6961 42.1129 66.4946 42.9402 66.0095L47.057 63.4497L63.8752 52.9964L63.6593 52.862C63.0697 52.5337 62.3091 52.3023 61.4514 52.3098Z" fill="#181819"/>
<path d="M30.8434 33.297C30.0902 33.3044 29.2698 33.5059 28.442 33.991L24.3251 36.5502L7.5 47.0042C8.58852 47.7355 10.4308 48.1087 12.3322 47.0042L33.2752 33.9985L33.0663 33.8716C32.4767 33.5208 31.7086 33.282 30.8434 33.297Z" fill="#181819"/>
<path d="M107.321 39.544H103.761V60.5612H107.321V48.2644H110.478V44.6556H107.321V39.544Z" fill="#181819"/>
<path d="M150.099 44.6557V39.5442H146.539V60.5613H150.099V48.2646H153.256V44.6557H150.099Z" fill="#181819"/>
<path d="M96.575 60.5613H100.079V44.6558H96.575V60.5613Z" fill="#181819"/>
<path d="M100.051 39.5443H96.6013V43.2235H100.051V39.5443Z" fill="#181819"/>
<path d="M89.3985 57.0596H83.3498V44.6557H79.8487V57.0596H74.5964C73.873 57.0596 73.2861 56.4732 73.2861 55.7493V44.6557H69.7844V57.2733C69.7844 59.0895 71.2567 60.5613 73.0724 60.5613H92.9002V44.6557H89.3985V57.0596Z" fill="#181819"/>
<path d="M123.426 44.6558H112.789V60.5513H116.29V48.1575H121.902C122.625 48.1575 123.212 48.7439 123.212 49.4678V60.5513H126.714V47.9432C126.714 46.1276 125.241 44.6558 123.426 44.6558Z" fill="#181819"/>
<path d="M134.785 47.9963C136.391 47.1429 137.942 47.435 139.251 48.5192L132.53 52.0924C132.39 50.386 133.125 48.879 134.785 47.9963ZM139.448 56.6341C137.402 57.7215 135.035 57.1357 133.553 55.0167L144.505 49.1952C144.319 48.75 144.09 48.3279 143.831 47.927C143.773 47.8348 143.711 47.7484 143.651 47.6594C142.176 45.5645 139.744 44.1918 136.987 44.1918C135.904 44.1918 134.871 44.4077 133.925 44.792C133.854 44.8219 133.784 44.8491 133.714 44.8811C133.424 45.0079 133.147 45.154 132.876 45.3128C132.629 45.4584 132.396 45.6162 132.169 45.7793C130.153 47.2623 128.839 49.6445 128.839 52.3397C128.839 56.8404 132.487 60.4886 136.987 60.4886C141.074 60.4886 144.448 57.4768 145.035 53.554C144.158 53.5514 141.818 53.545 141.801 53.5439C141.507 54.8712 140.665 55.9869 139.448 56.6341Z" fill="#181819"/>
<path d="M157.5 60.5513H153.944V56.9957H157.5V60.5513Z" fill="#41BEA5"/>
<rect x="0.5" y="0.5" width="164" height="99" rx="3.5" stroke="#EEECEA"/>
</svg>
